<?xml version="1.0" encoding="utf-8" ?>
<svg baseProfile="full" height="300mm" version="1.1" viewBox="0,0,200,300" width="200mm" xmlns="http://www.w3.org/2000/svg" xmlns:ev="http://www.w3.org/2001/xml-events" xmlns:xlink="http://www.w3.org/1999/xlink"><defs /><rect fill="#222222" height="300" width="200" x="0" y="0" /><text fill="#FFFFFF" style="font-size:12px; font-family:Arial; font-weight:bold;" x="10" y="20">Over 20km Runs</text><text fill="#FFFFFF" style="font-size:4px; font-family:Arial" x="10" y="280">ATHLETE</text><text fill="#FFFFFF" style="font-size:9px; font-family:Arial" x="10" y="290">W</text><text fill="#FFFFFF" style="font-size:4px; font-family:Arial" x="120" y="280">STATISTICS</text><text fill="#FFFFFF" style="font-size:3px; font-family:Arial" x="120" y="285">Number: 7</text><text fill="#FFFFFF" style="font-size:3px; font-family:Arial" x="120" y="290">Weekly: 1.0</text><text fill="#FFFFFF" style="font-size:3px; font-family:Arial" x="141" y="285">Total: 216.4 km</text><text fill="#FFFFFF" style="font-size:3px; font-family:Arial" x="141" y="290">Avg: 30.9 km</text><text fill="#FFFFFF" style="font-size:3px; font-family:Arial" x="167" y="285">Min: 20.8 km</text><text fill="#FFFFFF" style="font-size:3px; font-family:Arial" x="167" y="290">Max: 65.9 km</text><polyline fill="none" points="43.623047421715455,33.0 43.788454327732325,33.19611658021313 43.260424589389004,35.244414875232906 42.21708872076124,37.28539445648494 41.52365207640105,37.05297251766751 40.518487032240955,36.07243459142774 40.16222600394394,36.79876020330266 40.48667801186093,36.04338142168854 39.92683925310848,35.5204224557674 40.58846687711775,40.88058024845668 40.9638133176195,40.9386828564966 41.014707750233356,41.701275445688225 41.746315219061216,44.91860516315501 43.30495721791522,49.384874218245386 43.578514793218346,50.99702358733339 43.464002319815336,52.28236128753633 42.859630932536675,53.625769989077526 38.578136788797565,59.10082126237103 37.92923277299269,60.07379949765891 36.917705924774054,62.58605854125199 35.530832636053674,65.55564441120077 35.3781493382121,67.9733384932697 35.65806871757377,68.44525174802402 38.83260895189596,70.5942348821336 40.244929456937825,71.00805232784478 41.04651677061338,71.45816697956616 42.71967124284129,71.45816697956616 44.57731803326169,70.8555935322438 45.29620189394336,70.46355521852092 45.951467713864986,70.34739532798994 47.395597239315975,70.71765435718407 48.757023311714875,71.53802575098234 49.367756503110286,72.1914125327894 49.77491196402116,73.06258613144746 49.12600794818718,73.37475422986608 49.17054057671339,73.57802578766132 51.81068926860462,79.7194732404605 53.88463739765575,83.82075340214215 53.407502091897186,84.03851427779591 52.395975243649445,83.7989772801302 51.90611632974469,83.86430562738678 50.92639850190608,84.52484463834844 50.01029871485662,84.8442240710283 49.24052042156109,85.41765194379695 48.06358666732558,85.65718381969782 47.26836115773767,86.14350378186646 46.657627966371365,86.73869709618884 44.685468702577055,87.0 43.97294664598303,86.73143866931059 43.28587180565228,86.89838231123576 42.62424418167211,86.64433749260934 41.93716934137046,86.57175310213643 41.021069554321,86.02010946036899 39.75507054303307,84.95310311512003 38.539965964329895,84.54662055153312 37.74474045477109,83.92963391826925 36.74593721469864,83.40700601263961 36.109756807010854,82.75371605642431 35.79166660318151,82.57224562351621 33.46324631109019,82.73919843779731 31.834624467417598,82.57950444919697 31.516534263588255,82.68112793545879 31.281147512752796,82.90615088382037 30.721308753971243,84.19820518844062 30.63860530097736,84.8224482434307 30.753117774351267,85.77332021400798 30.695861537649762,86.03462644981482 28.443782894464675,86.368516438597 26.73881940188585,84.85874128595606 26.172618839074858,84.49581007763481 26.115362602373352,84.27805051746691 27.069633213890484,83.48685217617458 28.08116006210912,83.37797102319746 28.424697482259944,82.73919843779731 29.60799304052489,81.44711922899296 32.83978951154859,78.60156364504655 33.59684419669793,78.28941710767685 34.2584718207072,77.56348994916334 34.48113496333826,77.05533679507789 34.50658217968885,76.61977423290955 34.15032115136273,75.41470474801463 34.07397950242739,73.51268856076786 34.19485377991805,73.10614454807364 34.767416146816686,72.91739122823492 34.92009944465826,72.59070167729806 33.590482392610284,69.94083430669707 33.54594976408407,69.63591210691084 35.492661811586004,68.33634895051364 35.37178753412445,67.48690174942749 35.55627985234605,65.5774257839148 36.96223855332937,62.62236225097149 37.94195638113888,60.11736539446429 38.24096117276349,59.609095036597864 42.656053202052135,53.99611089289829 43.228615568979876,53.05936274465057 43.45764051575679,52.43485753051209 43.61032381359837,51.27297363652178 43.45764051575679,49.91499920148635 41.75903882723651,44.853243168618064 40.982898729882436,41.149304436170496 41.00834594617481,40.69174646371539 41.53637568454724,38.759804475092096 43.30495721791522,35.14272761766915 43.788454327732325,33.21064371405373 43.58487659727689,33.0" stroke="#ffe300" stroke-linecap="round" stroke-linejoin="round" stroke-width="0.5"><title>2024-05-02 25.8km</title><desc>1714600719000</desc></polyline><polyline fill="none" points="187.0,77.34702025747902 186.7715252802882,77.34034245375369 186.6230167125177,76.6458470132493 186.52020308864303,75.71761522355519 186.5773217685637,75.44381763018828 185.89189760945737,69.80733030005649 185.75481277765357,69.76725868413996 185.52633805794176,69.29975461958747 185.24645652633626,68.351378599913 185.606304209854,68.07087028729438 185.71482970169745,67.84379121681559 185.49777871801052,61.685629764881014 185.14364290246158,59.96230565520818 184.89232071081642,59.88882955058216 184.8009308229084,59.501408675521816 179.39179183414672,59.56152586371536 178.71779141103616,59.70179908016871 178.6035540511948,59.59492427685109 178.4664692193619,59.0204691088511 178.39221493547666,58.17881604973809 178.24941823564586,57.99178051254785 176.5529934419028,58.7599586469114 176.14745081448928,59.03382859073099 173.96551724136225,59.94226672606965 173.77702559760655,60.16937421718467 173.4228897820867,60.162694596747315 167.71102178972797,62.8478450446637 166.45441083138576,63.368831156014494 163.37000211549457,64.39743213738984 162.26189972501015,65.09206228172843 161.53078062194982,65.6931783539294 161.27945843030466,65.60635083043599 160.85106833087048,66.08056123476854 159.82293209221098,65.90022812039751 158.86333826949704,65.50616507805171 157.6638459911046,65.2523604605376 156.85276073621935,64.77814383601071 156.2244552570046,64.66459848191153 154.84218320285436,64.03675577900867 154.01396234397544,63.863096056782524 153.45991114870412,63.93656753602045 152.64882589378976,64.21709421575724 152.27184260630747,64.19037744281013 152.14618151047034,64.290565283045 151.9748254706792,64.73806902846263 151.420774275437,65.13881595924977 151.07235032788594,65.86015402503108 150.73535011638887,66.30764664618255 150.54114660460618,66.41451008662625 149.9756716733682,66.27425178397971 149.43304421409266,66.40115216646154 148.8561455468589,66.32100458614514 148.46773852338083,66.66163109992704 148.08504336787155,66.48797859700062 147.24539877302595,66.47462069239918 146.97694097735803,66.54808913284069 146.4742965940386,66.97554018176015 146.09160143855843,66.96886128137339 145.5946689232078,66.79520962336755 145.10344827585504,66.89539333049834 144.11529511318076,66.81524637751863 143.89253226149594,66.96218238028814 142.94436217474868,66.88871442162417 142.82441294690943,66.49465754826088 142.89866723079467,66.18074607578092 142.71017558703898,65.76664770361094 142.31034482759424,64.2571693539685 141.87624286019127,63.25528326736821 141.68775121640647,63.1283765619155 141.59636132855667,62.87456238575032 141.61920880049001,62.47380108261132 141.28792045696173,61.83925714972793 140.9794795853668,61.45852772856597 140.84239475353388,60.970923537493945 140.00846202665707,60.12261685933481 139.82568225089926,59.64836170113995 139.33446160354652,58.95367165699281 138.75756293631275,58.36585103271136 137.87222339751315,57.20355323065087 136.75840913900174,55.90095267311335 136.66701925112284,55.84083199837187 136.60990057117306,55.961073290618515 136.74698540303507,55.92767295464364 136.4499682674068,55.44670615663199 135.31901840490173,54.42463954070263 135.044848741265,54.46472089629606 135.08483181722113,54.411279083189584 133.86249206686625,53.09526015688607 133.4626613073924,52.98169378558305 133.29130526763038,52.72115839680919 133.0,51.34497926598851 133.10281362384558,50.66355907228717 134.55933996191015,49.34746198446737 137.00401946267812,48.04469925276135 137.85508779349038,47.71733413225593 139.42013962345663,47.43673410556221 139.68288555106847,47.28307165735896 140.90522530148155,47.00915071280906 144.27522741694702,47.09600382397912 144.58938015653985,47.32983852903635 145.2690924476192,47.476819900064584 146.01734715464409,47.41001022841374 146.06875396656687,47.18953781000164 146.39433044212637,47.14277083432171 147.02263592131203,47.14945183298914 147.1768563571095,47.24298573976921 148.37063676753314,47.236304751037096 148.77617939497577,47.30311460660232 148.93611169874202,47.450096039905475 149.35307806220953,47.28975264114342 150.32980748888804,47.15613283091807 150.855299344199,47.32983852903635 151.3750793315121,47.323157549504685 151.66067273108638,47.22962376157011 152.14046964247245,46.8822113352071 154.73936957900878,46.32100260520019 155.41908187011722,45.960222928250005 157.16691347578308,45.31215054899076 157.389676327497,45.00481492850304 159.6230167124886,43.72868796678085 161.10239052254474,42.652979742520984 161.56505182990804,43.748732045311044 162.72456103237346,44.89123399420714 163.19864607573254,45.90677391175632 165.19208800507477,48.599211806067615 166.2487835836946,50.215955528929044 166.4829701713461,50.89069995446698 166.44298709541908,50.97086712942473" stroke="#fffc00" stroke-linecap="round" stroke-linejoin="round" stroke-width="0.5"><title>2023-10-15 21.2km</title><desc>1697324783000</desc></polyline><polyline fill="none" points="57.71237113402458,135.95354486267752 57.675257731985766,134.4023771181528 56.95154639176326,134.38068229812052 56.747422680433374,134.07695433614572 55.736082474235445,124.03173017787776 55.3742268041824,121.82945995970658 54.71546391752781,120.27807866448711 54.45567010313971,120.24553195245971 54.36288659798447,120.03940253659675 54.36288659798447,119.73563211608416 54.938144329877105,119.31252181700256 55.09587628871668,118.80261734271335 54.77113402064424,108.94034918100806 54.44639175263001,106.97646198305301 54.07525773200905,105.99992948605359 44.88969072164036,106.06503194182733 42.69072164950194,106.68350321041362 42.588659793836996,107.13921649505937 43.154639175278135,109.0380000490768 43.943298969068564,110.61125121763325 44.0175257732044,112.82461199910904 44.94536082475679,115.42850470615667 44.7226804124075,115.73228788252163 42.46804123715265,116.60023485730926 41.475257731974125,116.57853627244185 32.80927835055627,118.37950319505762 31.2226804124075,118.52054143820715 29.47835051547736,118.91110786869103 25.414432989724446,120.13704283785773 21.257731958816294,121.63418248606467 19.634020618570503,122.00303962428006 18.901030927838292,122.02473706167802 17.78762886597542,121.85115743387723 13.148453608213458,120.16958958428586 13.0,119.70308523196582 13.102061855664942,119.20403171562066 13.630927835067268,118.16252090386843 15.41237113403622,115.81908291054424 17.036082474223804,114.27846024493192 18.26082474226132,113.6166363601078 20.496907216496766,112.62931738102634 24.069072164944373,111.56604015845369 28.253608247439843,109.49370287056809 28.838144329900388,109.33095209537714 29.07010309281759,109.52625299463398 29.30206185573479,110.3834025430042 30.860824742296245,118.63988133862586 31.176288659800775,118.44459779291356 30.582474226830527,116.29645425159833 29.35773195879301,109.56965314392437 29.404123711399734,109.20075128921599 29.691752577316947,108.95119928206987 34.785567010287195,106.45564580860082 35.518556701019406,106.28203982929699 37.383505154633895,105.34890265475406 39.55463917530142,104.54596387014317 39.953608247451484,104.23129695591342 42.99690721655497,102.86411225381016 43.23814432992367,103.1787833637718 43.34020618558861,104.52426273465244 43.757731958758086,105.69611747914314 44.91752577322768,105.38145409446588 53.70412371138809,105.38145409446588 53.78762886603363,105.98907907270768 54.57628865982406,106.13013435625908 55.05876288661966,108.09403776259569 55.33711340208538,117.73940411584044 55.49484536080854,118.84601356687926 55.3927835051436,118.94365500407002 55.643298969080206,119.51865269353584 54.938144329877105,120.01770467923052 54.83608247421216,120.2563808576233 55.170103092852514,121.51484606912709 55.736082474235445,127.27538199124683 55.42989690724062,127.50319314737862 54.39072164951358,127.62252259871457 53.98247422685381,127.85033298408962 53.648453608271666,129.70534157915972 53.871134020679165,132.77525288792094 54.25154639175162,134.06610689227819 54.56701030925615,134.5867829032286 54.89175257732859,134.79288309437834 56.64536082476843,134.72779886822536 56.96082474233117,137.13588774618256 56.83092783507891,134.76034098645323 57.0443298969185,134.50000375153468 61.915463917539455,133.556275738345 62.08247422683053,133.75153052209498 62.50000000005821,136.11625340725004 62.769072164956015,136.24642005716305 66.88865979382535,135.36779196617863 67.0,135.031524903854 66.87938144331565,133.13322243227594 66.78659793816041,132.67762461364327 66.55463917530142,132.56914864441205 62.35154639178654,133.19830766978703 62.175257731985766,133.0572896029771 61.99896907218499,132.3088058503272 61.99896907218499,133.13322243227594 61.81340206187451,133.3718681014143 58.18556701031048,134.15288641092047 57.7587628866313,134.42407193360123 57.730927835043985,135.7799887974761 57.90721649484476,136.5718359596067 58.54742268042173,136.691154865337 58.872164948494174,136.53929441581568 58.0,136.72369636094663 57.7494845361216,136.21387841016985 57.44329896912677,136.22472562697658" stroke="#fff300" stroke-linecap="round" stroke-linejoin="round" stroke-width="0.5"><title>2023-09-10 22.9km</title><desc>1694298495000</desc></polyline><polyline fill="none" points="165.7633830353734,105.93339609711256 166.0435060991149,105.37657433345157 166.4011100103089,103.52510824945057 166.88387529042666,102.75248864842433 167.01499672452337,101.22114383612643 167.72424448170932,100.08653366503131 167.76000487283454,98.78484033986024 168.04012793660513,98.033048559897 169.17254032203346,96.3275632825098 169.58974488507374,96.09784149430197 170.68043681420386,95.93077060134965 171.89033004708472,94.90745216633513 172.307534610125,93.89107939710084 172.76049956431962,93.44554120047542 173.20154438811005,93.36896402040293 174.01807331867167,93.62654145512352 174.8703626403003,93.0348080144613 176.03853541688295,93.0 176.47958024067339,93.1670783021982 177.2067081934074,93.84234880314762 178.10071797136334,93.89804090758844 178.65500403376063,94.22523107336747 179.46557289909106,94.32965312573651 179.7278157673136,94.58722681606014 180.25230150372954,95.86115760465327 181.17611160763772,96.38325329274812 181.44431454103324,96.6547414206143 182.0582012552186,97.95647669507889 181.34895349803264,96.55728427224676 181.0032697172137,96.28579574403557 180.41918332895148,96.04215124358598 180.16290052593104,95.7915445346298 179.78145635395776,94.70557114800613 179.56689400726464,94.40622919257294 179.23313035684987,94.2530769701334 178.64904396855854,94.23915402323473 178.03515725434409,93.89804090758844 177.17094780228217,93.82842576970143 176.4676601102692,93.18100147496443 176.062375677604,93.00696160435473 174.97168374847388,93.048731215109 174.0419135793927,93.59173375234968 173.09426321473438,93.34807931953401 172.66513852131902,93.44554120047542 172.18237324120128,94.02334797097865 171.78304887370905,95.05364148429362 170.6625566186558,95.88900281213137 169.61954521102598,96.0908802155318 169.19042051758152,96.3275632825098 168.6897750419157,96.98887912405189 167.8672860462102,98.47159480403207 167.75404480763245,98.93102108190214 167.72424448170932,100.079572806324 167.03287692010053,101.20722235696303 166.88387529042666,102.75248864842433 166.41899020588608,103.50422675734444 166.32362916288548,104.26291673749802 166.07926649024012,104.92415319748397 165.97794538206654,105.55754192101449 165.33425834192894,106.90782290010975 164.9468541048118,107.31150979728409 164.31508719504927,107.68735400331934 164.08860471795197,108.02839597118145 163.86808230605675,110.08157064845 163.72504074161407,110.40868072677404 161.39465525365085,112.35738808811584 158.40866259523318,114.00678480804345 155.98887612952967,114.83494739659363 155.62531215313356,114.83494739659363 154.85646374407224,114.57745257649367 153.8730529882887,115.12723759916844 152.75852079843753,115.44040424008563 152.37707662652247,115.69093648524722 151.45326652261429,116.89486987140117 151.34002528409474,117.68820128188236 151.84663082493353,118.79467393949017 151.84067075973144,119.53927090792422 152.87772210215917,120.68746476079104 153.4200880341523,122.18356624603621 153.56312959862407,122.08614671394025 153.34856725190184,122.10702234003838 153.49160881637363,122.44103146177076 153.53332927270094,122.9768342392781 153.08632438370842,124.8416724139679 153.35452731710393,126.6855838596457 153.20552568743005,127.19352025060653 151.64398860858637,128.50161245992058 149.72484761851956,129.72618598998088 147.93086799737648,130.4289139769462 147.12029913201695,131.07597374313627 145.15943768565194,131.7091121224148 143.17473597856588,132.50226594197738 142.44164796062978,132.9266689069991 142.0721239190607,133.2954102575386 141.76220052936696,133.83112516348774 141.49995766114444,135.19474354294653 141.30327550999937,135.70957174911746 140.90991120770923,136.1617824110872 140.3675452757161,136.52354871662828 139.6463773881551,136.80878614064568 139.06825106509496,136.89227003225824 138.5854857849481,136.79487214845722 137.3040717699041,136.18961065861367 136.96434805425815,136.2174388944768 136.60674414306413,136.46789249059657 136.44582238301518,136.80182914491888 136.44582238301518,137.09402233571018 137.0775892927777,138.22104113463865 137.15507014023024,138.76367297334218 137.10142955355695,139.36891093148006 136.78554609866114,140.32893220701226 136.08821847185027,141.60198243126797 135.92133664659923,142.63849158673838 135.12268791161478,143.82106611046038 134.98560641231597,144.30800242334954 135.0630872597685,144.59320631537412 135.27168954125955,144.82275977535028 137.68551594179007,145.84530643065955 138.61528611087124,146.2765798781984 138.70468708869885,146.4156997460741 138.5854857849481,146.33222786041006 138.71064715390094,146.29744787701202 138.6868068931508,146.4156997460741 139.968220908253,146.76349813723937 140.5999878180155,146.76349813723937 141.5118777915486,146.99304407490854 142.2926463309559,147.0 142.77541161110275,146.8956610469977 145.7256438783952,145.6157565149988 147.68650532473112,145.1983909935443 150.59501713572536,144.1619219054337 151.19698371959385,143.81410985146795 152.71680034211022,142.5828405006323 153.372407512652,142.21415087380592 159.8152379792591,140.53067403849855 162.06814261974068,140.30110569925455 165.70974244870013,140.16892962772545 166.94347594227293,140.42632489205425 169.00565849681152,141.18459161197097 170.60891603198252,141.35850477308122 172.69493884724216,141.24720040258399 173.56510836444795,140.6698059779519 174.11939442681614,139.6193526062125 175.00148407442612,137.4766543259102 175.66901137531386,136.6696460873427 176.9325451948389,135.53564374890266 176.9802257163101,135.5982578816256 177.2961091712059,135.1460433702232 177.7133137342753,134.2346478143154 178.73248488115496,130.77679635792447 179.02452807530062,130.08798746956018 181.65887688772636,125.14783485288353 181.07479049943504,124.86950542149862 180.4072631985473,124.35459288709535 178.66096409890451,122.60107690172299 178.17819881881587,122.34361230877403 177.12326728081098,122.00264414369303 177.03982636821456,121.89130721944093 177.2067081934074,121.27895078699657 177.91595595059334,119.74107611941145 178.19011894919095,118.91297495239269 178.8040056634054,117.82738125008473 179.5370936813415,115.37081178134395 179.96025830958388,114.57049324313994 180.51454437189386,113.8327997528686 181.5456356491777,112.99766511713824 182.39792497083545,111.67534704324498 184.63890948097105,109.71965974019258 184.8475117624912,109.37862649486487 184.9369127402897,109.00279190163565 185.01439358771313,107.15142735707195 184.71639032839448,105.18864592978207 184.03098283192958,105.19560625054874 183.94754191933316,105.12600300986378 183.71509937706287,104.17243123384105 183.66741885559168,103.01002951871487 183.32173507474363,102.33485267210926 182.66016783905798,101.68751169460302 182.52308633975917,101.41604423688113 182.4634856879129,101.11673267080187 182.58864705680753,100.4067323728741 182.07012138559367,99.39740509779222 182.1416421678441,98.290607817813 181.37875382395578,96.61993531271582 181.11055089056026,96.37629204402765 180.24634143852745,95.90292541147937 179.68609531098627,94.55241961926367 179.43577257316792,94.32269166070182 178.6669241641066,94.24611549702968 177.95767640692065,93.88411788587109 177.23650851933053,93.85627183364704 176.9742656511371,93.73096445346164 176.54514095772174,93.24365571617818 176.22925750282593,93.048731215109 175.2339266166964,93.02784641303879 174.74520127140568,93.14619353751186 174.0538337097969,93.58477220960049 173.20154438811005,93.36200245418149 172.75453949911753,93.43857964230847 172.28965441454784,93.89804090758844 171.90821024263278,94.85872232181282 171.14532189877355,95.56182088328933 170.60891603198252,95.90292541147937 169.45266338577494,96.18833805164468 168.81493641083944,96.82877168528648 167.87920617655618,98.45071171553718 167.7838451335847,98.87533321828232 167.76596493803663,99.94731635172502 167.1341980282741,101.17937938977411 166.94943600747501,102.75248864842433 166.50839118368458,103.45550325008662 166.07926649024012,105.36961403173336 165.75146290496923,106.1978847921564" stroke="#ffa300" stroke-linecap="round" stroke-linejoin="round" stroke-width="0.5"><title>2023-05-13 37.0km</title><desc>1683924069000</desc></polyline><polyline fill="none" points="28.18742457323242,153.343603323734 29.23101676319493,155.02917675779463 29.641792412410723,155.47649426746648 29.697302635293454,155.79415255463755 29.91379250449245,156.18311965402245 32.017629951267736,159.5151704627133 34.387916467821924,163.91009016873795 35.653549549228046,166.78800927025804 37.50203997083008,170.2555935610617 38.41240762587404,172.23235334114725 38.934203720855294,174.16368361764762 40.12767351255752,177.46883997353143 40.44963280521915,177.54660622407027 41.95951086728019,177.22257953285953 42.05942926844,177.11241006979253 41.94840882270364,177.22906008338396 40.205387824593345,177.6567749110327 42.94759283438907,185.1089054160111 44.89045063481899,188.79575691046557 45.61208353211987,190.4285275641123 45.623185576696415,190.3183816972596 45.87853260189877,191.7049094373615 46.22269598371349,192.8516868656734 46.57796141007566,195.02856163452088 47.69926791204489,197.14057503638833 47.63265564458561,197.2766225004125 47.78253324635443,197.2571871667824 49.68653389078099,199.7578164730221 50.20832998576225,200.73601434717057 50.846697548782686,202.9190887743498 51.04098332882859,203.2429804774256 50.92441186081851,203.08103483841114 50.885554704786045,203.15229097194242 51.97910609532846,206.7732897893584 51.94579996162793,206.87045141018461 51.76261622612947,206.9157934475552 50.32490145380143,207.0 50.20832998576225,206.9352257390783 48.90939077062649,203.845414523199 48.99820712720975,203.59278160717076 49.68098286850727,203.49561482559147 50.55249336757697,203.41788129017368 51.58498351293383,206.8380642202319 51.8680856495921,206.90283858313342 51.94579996162793,206.75385744683444 50.05845238402253,200.4574562670823 49.747595135937445,199.89385816546928 47.826941424631514,197.35436377372753 46.60571652150247,195.1127844121911 46.228247005987214,192.79985557758482 45.8618795350485,191.61420296806318 45.6675937550026,190.50627746931423 44.58514440903673,188.0959848244056 43.00865407951642,185.19314174232568 39.0563262111973,174.57845806327896 38.49012193790986,172.50455791707282 37.51314201540663,170.3074438078329 37.468733837100444,170.02874821842852 37.17452965589473,169.63338719643434 35.68130466071307,166.88523391910348 34.426773623825284,164.0138013005453 32.38954844448017,160.26064353149195 29.725057746720267,155.8978773547351 29.625139345560456,155.49594278110817 29.181057562615024,155.0356596434649 28.137465372652514,153.36305251114027 28.020893904642435,153.0" stroke="#fff300" stroke-linecap="round" stroke-linejoin="round" stroke-width="0.5"><title>2023-04-22 22.9km</title><desc>1682150531000</desc></polyline><polyline fill="none" points="185.87225896277232,176.3359469226707 186.21058127394645,175.91751532410126 186.6428820049041,174.51906058040913 187.0,171.53489307075506 186.32335537765175,170.2464989067521 186.35154890362173,169.25541553873336 186.17298990604468,168.78189457287954 185.47754959971644,168.06610294592974 185.23320570832584,167.39435552297073 184.61294813785935,166.72260373165045 183.97389488341287,165.5332619771143 181.9721545422799,163.6941602669467 181.19213365821633,162.11933457334817 180.9947789767175,161.45856139690295 181.1263487644028,159.56432152773777 180.93839192483574,159.30000622575608 180.93839192483574,158.79340000609227 181.58684302127222,156.83303078548488 181.40828402369516,156.57972193534079 181.04176818655105,156.5687084929814 180.3745214061928,156.8880978445959 179.53811347024748,157.64802026183315 177.11347024020506,158.84846601990284 175.05534284719033,160.96297874031006 174.3786982249003,161.22728978642408 173.17577445181087,161.32640625430213 172.70588235295145,161.54666473132966 171.93525931081967,162.7360523906973 170.9108945353073,163.25365200229135 170.12147580931196,164.3769443643905 168.62721893494017,165.37908704331494 167.82840236683842,166.67855428122857 166.94500522100134,167.29524487767776 166.34354333451483,168.46254199826217 164.98085624788655,169.9491748947039 161.99234249914298,170.7420370252148 161.2217194570112,171.4578101111474 159.82144100242294,172.2836959710403 158.5339366515982,174.0015174118962 156.9363035155111,174.94850932653935 156.0717020535958,175.8184128551802 153.81621997914044,176.78741069432 152.42533936648397,178.06471214316844 150.40480334148742,178.70335694646928 148.31848242256092,180.48713703952671 144.26801253046142,182.12774710112717 142.99930386355845,183.04163268538105 141.49564914719667,183.65822562208632 140.28332753223367,184.57209767187305 139.29655412462307,185.02352546151815 138.50713539856952,186.54295085075864 137.1632439958048,187.26962466215628 136.39262095373124,188.4477061974685 134.56004176818533,189.91203181694436 133.81761225202354,191.07907346994034 133.18795683956705,192.37821754725883 133.05638705188176,192.98374522466474 133.31952662719414,194.75626949118305 133.0,197.00215720705455 133.16916115558706,197.7727937090458 133.53567699273117,198.41131674458302 133.83640793594532,198.7525946808164 134.26870866690297,198.92873769098514 134.40027845458826,199.3580850209837 135.40584754612064,199.8975188824843 138.10302819352364,199.8975188824843 138.47894187259953,199.57826244728494 138.6575008701766,199.1599249363644 138.66689871216659,197.1122484876396 139.08040375920245,195.20765280292835 139.93560737906955,193.4021077297657 140.70623042120133,192.6974962192253 143.09328228334198,191.21119056260795 145.21719457011204,190.58363286836538 147.20953706925502,189.21840647801582 147.3411068569403,188.436696151839 146.3825269752997,186.34476619726775 146.3919248172897,184.77028572477866 147.75461190391798,184.82533789426088 148.11172989901388,184.58310812921263 149.85033066483447,184.80331702998956 151.4103724329616,184.55007675362867 152.60389836406102,183.68024673033506 153.34632788028102,183.55913057681028 155.36686390539398,182.7773774434172 155.9683257918805,182.68929221259896 156.46641141665168,182.3369505385126 156.98329272534465,181.46710188672296 157.99825965886703,180.72937640577584 160.59206404455472,180.2999516857817 162.51862164982595,178.97863366153615 164.64253393665422,178.0867344434737 165.5165332405013,177.22786125343555 166.03341454925248,177.08471502768953 166.83223111729603,177.18381628200586 167.58405847544782,176.8424671169123 168.2043160459143,176.32493558654096 169.47302471287549,174.25478354164807 175.28089105465915,174.05657531898032 177.1886529760086,174.76131393871765 178.22241559345275,175.7413330914278 178.74869474419393,176.65527516047587 179.1528019491816,178.60425714952726 179.71667246782454,184.46199303381582 180.28994082839927,183.98854175338056 180.91959624085575,183.01961144099187 181.30490776192164,181.9075324989317 182.13191785593517,181.45609109737416 182.52662721893284,181.05970189913205 183.11869126354577,179.69434968864516 183.579185520357,179.4080638726955 184.23703445872525,179.56221787216782 185.59972154546995,177.42606339248596 185.5245388096664,177.35999605504185 185.57152801949997,177.62426515133848 184.19944309082348,179.5512068798198 183.5509919944452,179.3970528639329 183.0810998955858,179.73839358991972 182.52662721893284,181.0707127307105 181.28611207799986,181.92955398025515 180.90080055687577,183.07466454309906 180.2523494604393,184.1096574037001 179.82004872959806,184.39593019465974 185.56213017756818,203.40927460603416 185.43056038982468,203.4312915070186 185.10163592069875,202.25338071877195 184.81970066134818,202.1322863256646 184.37800208840054,200.8112473692454 183.4570135746617,200.98738687198784 184.12426035501994,200.6791425452102" stroke="#ffff00" stroke-linecap="round" stroke-linejoin="round" stroke-width="0.5"><title>2023-04-08 20.8km</title><desc>1680906893000</desc></polyline><polyline fill="none" points="44.38020422679256,252.15668087573795 44.540025000460446,250.91985718902288 44.491707092136494,250.7456536618156 44.216666690961574,250.36675842554905 44.18693259355496,249.79187618452124 43.696319986032904,249.27795945445905 43.510481877136044,248.73790439893492 43.358094627838,248.49400622722897 42.72996181974304,247.95394080782717 42.521823137794854,247.69261626743537 42.138996633468196,246.9260546378173 42.10182901167718,246.63423478235927 41.63351697723556,246.63859031790707 41.61493316634733,246.41210185310047 41.66325107467128,246.34676840871543 41.60749964200659,246.62987924634217 42.116696060373215,246.62552370986305 42.135279871276,245.7936077248778 42.26536654752272,245.20559405919266 42.15014691998658,245.0357218685931 41.94944176237914,245.0139433315162 41.60006611763674,245.34062016823373 40.589106805215124,245.8589420540593 40.08362714902614,246.42952408729616 39.79743646130373,246.660367988723 39.51496253575897,246.77796721050981 39.05036726350954,246.81716687587686 38.871962678967975,246.90427710865333 38.57090494253498,247.37466915560435 38.18064491386758,247.5750196788431 37.861003366531804,248.01491629338489 37.284905228952994,248.39383334199738 36.95411339511338,248.92082707211375 36.62332156125922,249.15601216271534 36.363148208809434,249.61766784776773 35.853951790428255,250.188197383417 35.5640443405282,250.32320702381912 34.63857055820699,250.51483284419373 34.29662843781989,250.8240453409744 33.794865543794,251.115835269331 33.28195236323518,251.79086368433855 32.62780221988214,252.1871654938659 32.304443910412374,252.52249479215607 31.40498746333469,252.92749923680094 30.869773709680885,253.4239508220453 30.05208603052597,253.68523870758145 29.20094749177224,254.39941707098114 27.654774425711366,255.02649022177866 27.10841038552462,255.4053422546167 26.498861388346995,255.65355375129366 26.093734310925356,255.96272736702304 25.6105552277877,256.2152899935609 25.342948350968072,256.78137297010835 24.82631840821705,257.06876594229834 24.51039362308802,257.55645848330823 23.793058522729552,258.1138142625241 23.56261926770094,258.4360321057102 23.235544196038973,259.1414190585383 23.202093336425605,259.43750378235563 23.30616267741425,260.0906242673118 23.18722628771502,260.7785665615593 23.19837657426251,261.06593143407736 23.39536496969231,261.475205189985 23.53288517027977,261.6101775515817 23.67783889522252,261.65807086311906 23.718723279162077,262.0063841684387 23.558902505523292,263.0991979055143 23.41766554277274,263.3517164476216 23.250411244749557,263.32559391212635 23.127758092872682,263.4213764606684 23.03112227623933,264.2093970943097 22.919619410909945,264.43578695457836 22.692896918044426,264.64040748073967 22.388122419448337,264.75360137453026 22.124232304791803,264.7492477690139 21.310261387814535,264.3748359616402 20.79734820725571,264.30953122555 20.262134453616454,264.122323737407 19.34409419563599,264.06572595600664 19.065337032283423,263.93511539226165 18.656493192713242,263.6303557878455 18.035793908973574,263.58246478636283 17.541464539288427,263.4257302075566 16.57138961085002,262.9468152722038 15.965557375820936,262.42871007123904 15.749985169502907,262.3285713341684 15.552996774058556,262.31550974170386 15.121852361407946,262.4200023647063 14.720442046178505,262.29374041162373 14.523453650748706,262.33292519740644 14.3338987796742,262.28503267635097 14.170361243828665,262.3503406457057 14.084875713742804,262.5027255018722 14.129476859874558,262.4635408788199 14.378499925805954,262.54626392790306 15.634765541966772,263.0251835545314 15.787152791279368,261.15301129971704 15.6570661150472,260.7524423820796 15.095835026164423,259.8206690652805 15.073534453083994,259.2241488296131 15.813170126522891,257.5085603664302 16.248031301351148,257.6653176311447 16.47847055637976,257.6696719910178 17.0285513587296,255.57517133625515 18.582157949145767,254.78262958421692 18.92038330734067,254.52134871497037 19.262325427727774,254.0684579177505 19.533649066710495,253.29330625278453 19.808689467885415,252.83169209623884 24.380306946870405,247.63599572999738 24.84861898131203,247.23093882706598 25.82612743410573,246.6690790538014 26.34647413904895,246.26836813750924 29.13776253472315,243.48941687640763 29.40536941155733,242.98848861930674 29.684126574895345,242.01274985101554 30.977559812847176,239.36419851267783 31.077912391658174,239.3293480077591 31.401270701142494,239.45568094657574 31.546224426085246,239.89130877203934 31.68002786450961,239.8390336783923 31.843565400326042,239.59943864282832 32.28586009950959,239.5384505910879 32.28957686168724,239.48181874718284 32.21152485595667,239.58201349448063 31.84728216250369,239.59943864282832 31.665160815784475,239.78675851782828 31.48303946906526,239.72577074589208 31.37525336589897,239.43389943329385 30.999860385927605,239.32499169254515 31.4458718472888,238.3448089522717 31.735779297174304,237.99193740467672 32.79877328008297,237.13806276797186 33.53097542915202,236.37565960635402 34.311495486530475,235.26906054067513 34.712905801745364,234.5240497832965 35.106882592634065,233.46096995056723 35.95058760706161,230.61578809830462 36.567570128594525,229.17351448360932 36.71995737789257,228.5242568499125 36.67907299393846,227.89241903134825 36.251645343450946,226.6548600533897 36.18102686209022,226.26266803612089 36.1996106729639,225.97505816030753 36.80915967017063,223.40391008102233 36.76084176184668,222.88094487283524 36.17731009989802,221.74783058222238 36.076957521101576,221.3338001992779 36.155009526832146,219.16334056887717 36.14757600247685,217.94730967582655 36.08810780761996,217.68143429027623 36.19217714862316,217.28915596491424 36.207044197333744,215.88128155857703 36.07324075892393,215.47155046087937 35.54546052963997,214.91361213104028 35.42280737774854,214.5343840630594 35.54174376747687,214.1246394264017 35.94315408267721,213.61463236916097 36.40403259276354,213.21359669686353 36.78685909710475,213.0566686205093 37.775517836460494,213.0 44.1943661178957,213.71924972167835 48.45749233607785,213.61463236916097 49.0930586685281,213.68437730067672 49.64685623305559,213.88053428070634 52.493896061423584,215.26668336763032 53.021676290707546,215.62411039338986 54.337410101725254,216.85328673196273 54.77598803873116,217.09737407654757 55.51934047433315,217.32838396730585 58.258594199534855,217.67707566294848 58.78265766664117,217.66835840690328 59.39964018818864,217.4983715414819 60.336264257042785,216.9273848303419 60.89006182158482,216.70509013117407 61.4512929104676,216.6266328891288 62.837645202860585,216.6397091066283 62.923130732961,216.68765520155284 62.923130732961,216.55689299165533 62.88224634900689,216.57432797721412 62.93428101949394,216.70509013117407 63.012333025209955,218.1303704088059 62.79304405671428,220.34446847139043 62.503136606828775,222.04418659086878 62.10544305379153,223.2077989137979 61.934471993590705,224.35394638651633 62.25783030308958,227.0557635516634 62.29128116268839,227.18213448984534 62.41021755237307,227.26057142701757 64.54735580475244,227.65711141196516 64.39868531763204,229.24323280985118 64.44700322594144,229.62232412371668 64.7294771514571,229.87504970952432 64.86699735204456,230.27156428431044 64.70717657840578,231.46544204467136 64.31319978751708,233.24747926822238 64.37266798237397,233.46968383225612 64.77036153542576,233.9184462235462 64.93389907125675,233.87487727563348 65.59919950112817,234.14064713447806 65.04168517442304,235.18192548182196 64.64399162137124,235.0250819070934 64.53248875604186,235.1514281672753 64.32063331188692,236.18832407875743 64.13479520299006,239.69527682577245 64.15709577604139,240.35306919239156 64.79266210849164,241.62941752731422 64.98965050392144,242.6879287155898 65.15690480194462,242.9579971357016 65.77017056131444,243.65058379178663 65.91512428624264,244.22119667711013 65.80362142092781,245.35804285945778 65.79247113438032,246.1420562729254 65.58433245241758,247.06978603912285 65.48769663579878,248.11509010776717 65.78503761003958,249.2823147081508 65.78875437220267,249.87026969371436 65.63636712291918,250.37982383702183 65.13832099105639,251.35536275761478 64.52877199384966,254.99600772166377 64.42098589069792,256.36769772003754 64.36151769584103,256.6115489003496 64.26488187920768,256.52881384151624 64.33921712277515,256.59413100714664 64.32435007406457,257.216816078766 64.40240207979514,258.1660659771878 64.08647729466611,258.3445921650855 62.484552795940544,258.94112523523654 61.49961081876245,259.38089951565416 61.473593483518925,259.48539963912845 61.88987084745895,261.0006214131354 60.29537987308868,261.3402323828159 60.29537987308868,261.7973965413112 60.17644348338945,262.30680201105497 59.75273259509413,263.00776839367245 59.42937428562436,263.27770255371433 58.72690623396193,263.5781110561693 58.247443913001916,263.6303557878455 58.06532256626815,263.49103635506617 57.93895265221363,263.5215125215436 57.89063474391878,263.66518557186646 57.983553798359935,263.80015070478476 57.9240856035176,264.29647026581006 57.03577944294375,264.8406733873162 56.816490474462626,265.22814159619884 56.660386462986935,265.31521259863075 52.04416783787019,266.64737582157613 51.30081540228275,266.79974466673593 48.37200680599199,266.96081968586077 45.353995917437715,267.0 45.294527722595376,266.23380038047617 45.19045838160673,265.8419882101225 44.95630236437137,265.48935404741496 44.59205967094749,265.22378804119944 44.39135451334005,264.88420932419467 41.70041869644774,255.9322455651636 41.69670193425554,255.85821823744845 41.87138975663402,255.75806340419877 42.127846346920705,255.34873240392335 42.25793302315287,254.94375195428074 42.755979155001114,254.59102377676754 42.982701647866634,254.0553936856595 43.17969004328188,253.92039637617927 43.42499634705018,253.9813629582677 43.95277657631959,253.21056447622686 44.0940135390847,252.71411029854062 44.22410021533142,252.55297913736285 44.37648746461491,252.14797098068084 44.558608811334125,250.91985718902288 44.4879903299734,250.68468225182005 44.23153373967216,250.33627244921445 44.18321583136276,249.74832416997378 43.685169699499966,249.22569637400738 43.529065688024275,248.79452340911303 43.33951081694977,248.47658487352965 42.49580580255133,247.65341744217585 42.21704863918421,247.08720799280854 42.098112249499536,246.63859031790707 41.61493316634733,246.5950349414452 41.63723373942776,246.37290179901174 41.60378287981439,246.55147951853723 41.648384025960695,246.60374602046068 42.12041282255086,246.61245709760988 42.13156310909835,245.75440707719827 42.26164978533052,245.19688268198297 42.17988101740775,245.0487889852593 42.01262671939912,244.97038622252876 41.87138975663402,245.02265474773958 41.60006611763674,245.3057747634557 40.58539004303748,245.82845271344559 39.812303509999765,246.62987924634217 39.50381224922603,246.75183407937948 39.05780078787939,246.77796721050981 38.87939620333782,246.86072201548086 38.6006390399707,247.32675910228136 38.13976052989892,247.5750196788431 37.86843689090165,247.97571777739722 37.26632141806476,248.38512264471865 36.95039663292118,248.8946953117993 36.60473775038554,249.14294635987244 36.36686497098708,249.58282609127127 35.91713674744824,250.11415964925982 35.63837958408112,250.27530042828948 34.694321990871686,250.4712816003048 34.30034520001209,250.81098007156106 33.872917549539125,251.03744415000983 33.203900357490056,251.83876850290835 32.6686866038508,252.1392610837538 32.33789477002574,252.48330060061562 31.96621855221747,252.67491629077995 31.929050930411904,252.814272591997 31.65029376707389,252.91007977339177 31.118796775626834,253.5981429313615 29.933149640841293,253.9813629582677 28.53193029970862,254.67811743697166 28.587681732373312,255.63613544983673 28.487329153576866,255.94966374043724 28.282907233791775,256.00627275879015 28.65830021376314,256.02804543729144" stroke="red" stroke-linecap="round" stroke-linejoin="round" stroke-width="0.5"><title>2023-04-02 65.9km</title><desc>1680395652000</desc></polyline></svg>