<?xml version="1.0" encoding="utf-8" ?>
<svg baseProfile="full" height="200mm" version="1.1" viewBox="0,0,200,200" width="200mm" xmlns="http://www.w3.org/2000/svg" xmlns:ev="http://www.w3.org/2001/xml-events" xmlns:xlink="http://www.w3.org/1999/xlink"><defs /><rect fill="#1a1a1a" height="200" width="200" x="0" y="0" /><text alignment-baseline="middle" fill="#e1ed5e" style="dominant-baseline: central; font-size:9.0px; font-family:Arial;" text-anchor="middle" x="100.0" y="100.0">2022</text><line stroke="#e1ed5e" stroke-width="0.3" x1="100.0" x2="100.0" y1="15.0" y2="10.0" /><path d="M 100.0 14.0 a86.0,86.0 0 0,1 42.46469731375804,11.215312516191453" fill="none" id="id37" stroke="none" /><text fill="#e1ed5e" style="font-size:6.75px; font-family:Arial;" text-anchor="middle"><textPath startOffset="22.20632615414155" xlink:href="#id37">January</textPath></text><path d="M 100.0 79.0 l 0.0 -51.69698744293346 a72.69698744293346,72.69698744293346 0 0,0 1.2513591363114556,0.010770843154411477 l -0.8898786570389271 51.68932797638761" fill="#3fffbb" stroke="none" /><path d="M 100.72285384407766 79.0124445844662 l 0.24384782682415393 -7.079950975372537 a28.084149036851596,28.084149036851596 0 0,0 0.48299275662872754,0.02079868410268515 l -0.36568141584221303 7.074704564745656" fill="#ff4506" stroke="none" /><path d="M 101.08401301168833 79.027996857942 l 0.6121747504487925 -11.84352092776533 a32.85933159547798,32.85933159547798 0 0,0 0.5646139947339086,0.03405905805628724 l -0.8159507940223132 11.831228600328737" fill="#ff880c" stroke="none" /><path d="M 102.52436894288641 79.15227682838746 l 1.4213652219859703 -11.738469829152281 a32.82421046092252,32.82421046092252 0 0,0 0.560333142790448,0.07274732360307712 l -1.6232130932842643 11.712264182385066" fill="#ff870c" stroke="none" /><path d="M 102.88285421437855 79.19881850522331 l 4.202636782051263 -30.324048307422686 a51.61388674560541,51.61388674560541 0 0,0 0.8789869971843216,0.12953983454211718 l -4.72399275966424 30.2472139887196" fill="#8eff24" stroke="none" /><path d="M 103.59715602781102 79.31037775812273 l 2.034740006614597 -11.703134857597126 a32.87870078710727,32.87870078710727 0 0,0 0.556753638652059,0.10174316878396476 l -2.235888766369557 11.666376207462424" fill="#ff880c" stroke="none" /><path d="M 103.95276090670814 79.375362276772 l 2.3999463158893914 -12.52239244635632 a33.75029626713485,33.75029626713485 0 0,0 0.5696304136908991,0.11426250218168815 l -2.6151431390474156 12.479225988097424" fill="#ff940d" stroke="none" /><path d="M 105.01212808612495 79.60689891045804 l 11.943758237400715 -48.59617809820874 a71.04240088751038,71.04240088751038 0 0,0 1.185024836065237,0.3020892163916591 l -12.778491962150976 48.38338588564821" fill="#3dffa9" stroke="none" /><path d="M 105.71112130821622 79.79150937346287 l 3.2331695762954946 -11.440393847452645 a32.88848169001892,32.88848169001892 0 0,0 0.5434583271743104,0.15865038831073996 l -3.4296181211932324 11.383045130223202" fill="#ff880c" stroke="none" /><path d="M 106.0581310904928 79.89281104454417 l 3.415573200890083 -11.336429455821087 a32.83979615945505,32.83979615945505 0 0,0 0.53984657102106,0.16773295745469843 l -3.6102051446218613 11.275956363483868" fill="#ff880c" stroke="none" /><path d="M 106.40334571778207 80.00007090966166 l 3.6102023478525314 -11.275947628177242 a32.83978698735057,32.83978698735057 0 0,0 0.5368791898408277,0.17700062786753373 l -3.8037643599357764 11.212133276050473" fill="#ff880c" stroke="none" /><path d="M 107.08798089147638 80.2323363322302 l 4.79049207796461 -13.360199138544136 a35.19308759116906,35.19308759116906 0 0,0 0.5684817772170652,0.20937663616411648 l -5.019756180954252 13.275759234573695" fill="#ffa70f" stroke="none" /><path d="M 110.05341064243156 81.56283822128135 l 11.266247238231827 -20.66140838748063 a44.533425661964756,44.533425661964756 0 0,0 0.6698588760817108,0.37277573929865504 l -11.620230203385573 20.464417250621796" fill="#e0ff1b" stroke="none" /><path d="M 110.36928655335952 81.73862282372117 l 5.831382536119916 -10.269662758692887 a32.809783887093275,32.809783887093275 0 0,0 0.4887146479518666,0.2830950684415353 l -6.007293916537111 10.167763532861303" fill="#ff870c" stroke="none" /><line stroke="#e1ed5e" stroke-width="0.3" x1="143.23703022742887" x2="145.7803849466894" y1="26.81831364943548" y2="22.513508569990506" /><path d="M 143.74570117128098 25.957352633546492 a86.0,86.0 0 0,1 28.547481713284135,27.462654790039103" fill="none" id="id38" stroke="none" /><text fill="#e1ed5e" style="font-size:6.75px; font-family:Arial;" text-anchor="middle"><textPath startOffset="19.985693538727396" xlink:href="#id38">February</textPath></text><path d="M 110.99172775467656 82.1063720568725 l 7.923829712725128 -12.899342480883206 a36.13869590669499,36.13869590669499 0 0,0 0.5272478230502016,0.330162538424228 l -8.144696688147594 12.761035601136035" fill="#ffb410" stroke="none" /><path d="M 111.2981086023043 82.29822771554956 l 6.379374446037678 -9.995145004887759 a32.85745933965161,32.85745933965161 0 0,0 0.47413779185079574,0.3083924088204713 l -6.550479263672755 9.883853671907758" fill="#ff880c" stroke="none" /><path d="M 111.60114157652 82.49532879139004 l 6.525994913313428 -9.846909850476957 a32.81313858430573,32.81313858430573 0 0,0 0.46812677531645563,0.31608128836656807 l -6.694526383036425 9.733116649811718" fill="#ff870c" stroke="none" /><path d="M 111.90073688211348 82.69761687909136 l 9.436418991656243 -13.719531681138962 a37.651472995980455,37.651472995980455 0 0,0 0.5308299382341368,0.37188029483955803 l -9.67118006947403 13.55506654353547" fill="#ffc812" stroke="none" /><path d="M 112.19680574252982 82.90503203632743 l 6.974634538428585 -9.775604900962405 a33.00866262846788,33.00866262846788 0 0,0 0.4596922850758615,0.33398599490357544 l -7.141872139858235 9.654099671242156" fill="#ff8a0c" stroke="none" /><path d="M 112.77801427241765 83.33499621200491 l 7.217942800236839 -9.413594439875368 a32.862312529433005,32.862312529433005 0 0,0 0.4459375825268934,0.34806135650696735 l -7.378912937923163 9.287954694145176" fill="#ff880c" stroke="none" /><path d="M 113.34407831869373 83.78471172551755 l 16.452431145307767 -19.99245713834768 a46.89171359759261,46.89171359759261 0 0,0 0.6188421429830697,0.5182624978010356 l -16.794130825249955 19.706293483152827" fill="#c4ff1e" stroke="none" /><path d="M 113.89432698308785 84.25364557470407 l 9.462887591207444 -10.724231701129334 a35.302286081019886,35.302286081019886 0 0,0 0.4521870032636841,0.4059779562512446 l -9.646085582067117 10.559754736108792" fill="#ffa90f" stroke="none" /><path d="M 114.42810811169701 84.74124197986012 l 9.719232188719571 -10.27878436736937 a35.1462674373532,35.1462674373532 0 0,0 0.4360091234242734,0.41944043128457525 l -9.894724555756262 10.109960849322492" fill="#ffa70f" stroke="none" /><path d="M 114.94478906791727 85.2469230424477 l 8.436349882131118 -8.328128184766873 a32.85452311970592,32.85452311970592 0 0,0 0.39384083658201885,0.40588760168467963 l -8.578454982416245 8.181676387532079" fill="#ff880c" stroke="none" /><path d="M 115.68641384162765 86.03803664274999 l 26.89409442243394 -23.937552881333552 a57.004149104643936,57.004149104643936 0 0,0 0.6460691093679417,0.738568676345775 l -27.30215539537973 23.47106864878483" fill="#54ff2b" stroke="none" /><path d="M 115.9244219780498 86.31012108654704 l 10.751359339626521 -9.242709576359376 a35.17813132830627,35.17813132830627 0 0,0 0.3907945083928663,0.46257743500398696 l -10.908864461506505 9.056273191726282" fill="#ffa70f" stroke="none" /><path d="M 116.38621287248628 86.86637796730983 l 5.5476367844562375 -4.446455399345837 a28.109658185217043,28.109658185217043 0 0,0 0.29936239757248906,0.38015984418961296 l -5.6233532626226905 4.350303161203186" fill="#ff4506" stroke="none" /><path d="M 116.60985879189232 87.15038557335679 l 17.05657376406597 -13.195199252074833 a42.56478592221541,42.56478592221541 0 0,0 0.4433306085904026,0.583371114275155 l -17.281180312880483 12.899643361918644" fill="#f8ff18" stroke="none" /><path d="M 116.82858285166822 87.43820079747576 l 9.539733865022098 -7.120993033946933 a32.90441363549546,32.90441363549546 0 0,0 0.33490016224865754,0.4568034449387966 l -9.660896639784383 6.955727145336643" fill="#ff880c" stroke="none" /><path d="M 117.04232023915458 87.72973835380427 l 9.618090811184443 -6.924907473511867 a32.85166715567439,32.85166715567439 0 0,0 0.32646325494250067,0.46175912210835696 l -9.735866685930826 6.758321851071717" fill="#ff880c" stroke="none" /><path d="M 117.45458315368197 88.32363383020206 l 41.72114883334221 -27.90965596333816 a71.19564877522542,71.19564877522542 0 0,0 0.6726407745181027,1.0244780468220553 l -42.19538624321824 27.18735985253843" fill="#3dffab" stroke="none" /><line stroke="#e1ed5e" stroke-width="0.3" x1="172.23445277983987" x2="176.4835382374775" y1="55.19839476539836" y2="52.563006222186495" /><path d="M 173.08426987136738 54.67131705675599 a86.0,86.0 0 0,1 12.851231095245387,41.99856678651699" fill="none" id="id39" stroke="none" /><text fill="#e1ed5e" style="font-size:6.75px; font-family:Arial;" text-anchor="middle"><textPath startOffset="22.20632615414155" xlink:href="#id39">March</textPath></text><path d="M 117.84615892207809 88.93136811851018 l 21.4915454438925 -13.329591321102935 a46.2896130922266,46.2896130922266 0 0,0 0.41414700016535966,0.6807487756502371 l -21.717808242344084 12.957674772245618" fill="#cbff1d" stroke="none" /><path d="M 118.03404312379186 89.2402003453031 l 21.62484381225493 -12.902208638783137 a46.18135932913691,46.18135932913691 0 0,0 0.40142668406397325,0.6861683274368199 l -21.84373017078923 12.52806089899242" fill="#ccff1d" stroke="none" /><path d="M 118.21658344932153 89.55222093294921 l 10.291436722800503 -5.902460110672264 a32.86392452679483,32.86392452679483 0 0,0 0.2772187193839952,0.4931411688881632 l -10.39151308347693 5.724435431849307" fill="#ff880c" stroke="none" /><path d="M 118.3937258080291 89.86733742301442 l 10.33248796937501 -5.69191991155696 a32.796535928689316,32.796535928689316 0 0,0 0.2681380758403133,0.49681913141601586 l -10.428934144433788 5.513219796808485" fill="#ff870c" stroke="none" /><path d="M 118.73160827565052 90.50648371742162 l 44.366437692207214 -22.485709311916594 a70.73919899592792,70.73919899592792 0 0,0 0.541121143352007,1.0908672053379034 l -44.74691884851263 21.718682518079742" fill="#3cffa6" stroke="none" /><path d="M 119.04729006885535 91.15688171328212 l 10.719605889888488 -4.976809957143592 a32.818569616669166,32.818569616669166 0 0,0 0.23347706006226052,0.5144357532900986 l -10.803685266914094 4.791552195011431" fill="#ff870c" stroke="none" /><path d="M 119.196687751892 91.48605970444005 l 10.801621637410829 -4.790636952829548 a32.81631213245477,32.81631213245477 0 0,0 0.22457185343505232,0.5183428002784901 l -10.88248420068856 4.603995007964455" fill="#ff870c" stroke="none" /><path d="M 119.61058180528143 92.48833698450437 l 11.291298450443776 -4.32503379090361 a33.09129182467498,33.09129182467498 0 0,0 0.19917083081869516,0.5336788050870378 l -11.364073869764097 4.1300318487872385" fill="#ff8b0c" stroke="none" /><path d="M 119.7369772167798 92.82701384747503 l 12.368610447681062 -4.4951093823913855 a34.160111426813536,34.160111426813536 0 0,0 0.19609029484266632,0.5543736693233038 l -12.444153823333538 4.281538086641467" fill="#ff990e" stroke="none" /><path d="M 119.85752413597 93.16781622104841 l 11.13428888486251 -3.8308656904272533 a32.77488517607138,32.77488517607138 0 0,0 0.17895509669561147,0.535052961285238 l -11.198581275329891 3.6386396262197014" fill="#ff870c" stroke="none" /><path d="M 120.08093135843002 93.85539295169968 l 11.710394843267023 -3.5832887134545692 a33.246358862502184,33.246358862502184 0 0,0 0.1627395063606342,0.5486767133058249 l -11.770340246739359 3.3811826134022147" fill="#ff8d0d" stroke="none" /><path d="M 120.28053869075195 94.5502522615342 l 11.444221117549183 -3.0752693064463035 a32.8502100527598,32.8502100527598 0 0,0 0.14204378912484034,0.5473526628062734 l -11.495461238544326 2.8778202180911796" fill="#ff880c" stroke="none" /><path d="M 120.37134235888165 94.90015583598534 l 11.463295816927934 -2.86976779646753 a32.81705200936509,32.81705200936509 0 0,0 0.13246712392994894,0.5491617490234407 l -11.510995741118702 2.672020815784683" fill="#ff870c" stroke="none" /><path d="M 120.45610955862082 95.25157060432595 l 11.496040853197806 -2.6685493722431293 a32.80169949839819,32.80169949839819 0 0,0 0.12293704125697076,0.551102650423661 l -11.540272281456815 2.4702685522695043" fill="#ff870c" stroke="none" /><path d="M 120.6074358757038 95.95851677861258 l 23.10770076834388 -4.531829457259622 a44.54789402534771,44.54789402534771 0 0,0 0.14109861535410986,0.7537544452419315 l -23.182285107607846 4.133396934555128" fill="#e0ff1b" stroke="none" /><path d="M 120.67395015179393 96.31383870115 l 27.82687050508196 -4.961525609320616 a49.26572939937239,49.26572939937239 0 0,0 0.1416697947274533,0.8361431479486934 l -27.908152161329635 4.481796673056085" fill="#a8ff21" stroke="none" /><path d="M 120.73433829027371 96.67025291283417 l 23.304359614575105 -3.742469253590639 a44.602950094416386,44.602950094416386 0 0,0 0.1152117703734815,0.7591016168417181 l -23.365327278387888 3.3407685243568386" fill="#dfff1b" stroke="none" /><path d="M 120.78858239683441 97.02765380044208 l 11.64873488919814 -1.6655331381729108 a32.76720124554578,32.76720124554578 0 0,0 0.07502753026489972,0.5590422470549969 l -11.675678418520876 1.4647725490532495" fill="#ff870c" stroke="none" /><path d="M 120.83666639777658 97.38593545837742 l 11.723269735515043 -1.4707431190028095 a32.815165619395145,32.815165619395145 0 0,0 0.06548914320179125,0.5610709854071828 l -11.746849231720423 1.268728395270774" fill="#ff870c" stroke="none" /><path d="M 120.87857604477298 97.74499172005257 l 23.436247583932754 -2.531251759666684 a44.5725462410451,44.5725462410451 0 0,0 0.07582187939961452,0.7635159781767611 l -23.476346589014597 2.127460250785488" fill="#e0ff1b" stroke="none" /><path d="M 120.91429891909075 98.10471618934814 l 12.26599023766734 -1.1115616549710958 a33.316252913258666,33.316252913258666 0 0,0 0.0468418840221059,0.5715896312111061 l -12.28330660550894 0.9002581065522209" fill="#ff8e0d" stroke="none" /><line stroke="#e1ed5e" stroke-width="0.3" x1="184.98032266829074" x2="189.97916517819016" y1="98.17113171792111" y2="98.06355123074" /><path d="M 185.9800911702706 98.14961562048488 a86.0,86.0 0 0,1 -9.607161424134198,41.387399972396054" fill="none" id="id40" stroke="none" /><text fill="#e1ed5e" style="font-size:6.75px; font-family:Arial;" text-anchor="middle"><textPath startOffset="21.466115282336823" xlink:href="#id40">April</textPath></text><path d="M 120.99980553446 99.90962569577887 l 3.187805465446314 -0.013718969942805932 a24.187834985639263,24.187834985639263 0 0,0 -0.0017918609737244211,0.4163653852419956 l -3.1875693071830864 -0.04115589350287438" fill="#ff0c01" stroke="none" /><path d="M 120.9904718944345 100.63252640178507 l 2.3640612312370908 0.07123856727539596 a23.3651343383634,23.3651343383634 0 0,0 -0.015574383161057201,0.4019056261710098 l -2.3624847152248303 -0.11192144046041189" fill="#ff0000" stroke="none" /><path d="M 119.41010516605496 108.01547362559984 l 6.975105105632918 2.880395058743037 a28.54644067948975,28.54644067948975 0 0,0 -0.19146372191228997,0.4525636811315167 l -6.924490402528319 -3.000033265540717" fill="#ff4c07" stroke="none" /><path d="M 119.12269723197855 108.67885076344098 l 20.413322638174144 9.264602091090806 a43.41732796379705,43.41732796379705 0 0,0 -0.3147247326228434,0.6778890748429868 l -20.25082328871147 -9.614611233212624" fill="#eeff19" stroke="none" /><path d="M 118.97047184881838 109.00673069616215 l 10.697432974777836 5.078887795301206 a32.84188217671176,32.84188217671176 0 0,0 -0.24685638801129572,0.5085972757501831 l -10.608423330151826 -5.262274027016665" fill="#ff880c" stroke="none" /><path d="M 118.81262510543309 109.33194174019688 l 10.66174946115686 5.288726281552124 a32.90140862476618,32.90140862476618 0 0,0 -0.25603771254118135,0.5051866971478335 l -10.56913307882941 -5.4714671904026515" fill="#ff880c" stroke="none" /><line stroke="#e1ed5e" stroke-width="0.3" x1="174.80103733775053" x2="179.2010983576182" y1="140.37084112569926" y2="142.7455964860345" /><path d="M 175.68104954172406 140.8457921977663 a86.0,86.0 0 0,1 -30.038265399797805,32.042727171017184" fill="none" id="id41" stroke="none" /><text fill="#e1ed5e" style="font-size:6.75px; font-family:Arial;" text-anchor="middle"><textPath startOffset="22.206326154141568" xlink:href="#id41">May</textPath></text><path d="M 118.48025628344425 109.97397251340804 l 21.76329082658579 11.745857913244077 a45.73066933426331,45.73066933426331 0 0,0 -0.37983369254609295,0.6895084821251993 l -21.557880724588188 -12.11873691376708" fill="#d2ff1c" stroke="none" /><path d="M 118.30583269289576 110.29060199501025 l 20.51478553288399 11.532362196986098 a44.53405624414755,44.53405624414755 0 0,0 -0.3813981485117902,0.6649998200759168 l -20.313235388219823 -11.88378186292033" fill="#e0ff1b" stroke="none" /><path d="M 118.12598468904814 110.60418214915192 l 20.348280390735635 11.904284119568473 a44.57465790333778,44.57465790333778 0 0,0 -0.39314662394796757,0.6589363554883524 l -20.14035289108944 -12.252782568942928" fill="#e0ff1b" stroke="none" /><path d="M 117.94076556474637 110.91462005526583 l 14.057872953810364 8.552385433180191 a37.45500193203105,37.45500193203105 0 0,0 -0.3398334423503182,0.5479197143924146 l -13.908574871792084 -8.79310147893788" fill="#ffc512" stroke="none" /><path d="M 117.75023020441432 111.22182372390056 l 10.067221068816435 6.364569863195376 a32.91036059873572,32.91036059873572 0 0,0 -0.306842311892381,0.4762260821310412 l -9.956173893547003 -6.53691754524787" fill="#ff880c" stroke="none" /><path d="M 117.55443506779139 111.5257021239791 l 19.733424188354668 12.956359358918156 a44.60667867437025,44.60667867437025 0 0,0 -0.4269430424519159,0.6382219200729197 l -19.507478040492032 -13.294118193196883" fill="#dfff1b" stroke="none" /><path d="M 117.35343817320211 111.8261652097733 l 10.250674316364181 6.985714690481634 a33.40469804860155,33.40469804860155 0 0,0 -0.3279054358219754,0.47237223664459277 l -10.12890797338007 -7.161128189313247" fill="#ff8f0d" stroke="none" /><path d="M 117.14729908036423 112.12312394758627 l 10.223684139829672 7.2281348477823535 a33.520768777065186,33.520768777065186 0 0,0 -0.3371554162295771,0.46827938469685276 l -10.097748931224492 -7.4030478379303375" fill="#ff910d" stroke="none" /><path d="M 116.93607887273984 112.41649034213515 l 20.414021357699173 14.96630364895124 a46.3124971684978,46.3124971684978 0 0,0 -0.4768836059001476,0.6388635213083396 l -20.153376485103934 -15.315480049768894" fill="#cbff1d" stroke="none" /><path d="M 116.71984013943494 112.70617746262583 l 18.780193177528943 14.271934737776874 a44.587788725199886,44.587788725199886 0 0,0 -0.4696435667302517,0.6070776185887451 l -18.531742793580623 -14.593090350478871" fill="#dfff1b" stroke="none" /><path d="M 116.498646956653 112.99209946851258 l 3.9079040199181825 3.077335849028738 a25.974103914938862,25.974103914938862 0 0,0 -0.2796323640758843,0.34888436962621217 l -3.854353743787444 -3.1441480522332004" fill="#ff2703" stroke="none" /><path d="M 116.27256486870786 113.27417163493432 l 9.460643281871869 7.71741908627755 a33.20910843018721,33.20910843018721 0 0,0 -0.3651483798332989,0.4398447462449884 l -9.326398902145026 -7.879125089636308" fill="#ff8d0d" stroke="none" /><path d="M 116.0416608686014 113.55231037782055 l 17.997763565663462 15.204864380714659 a44.56071718351223,44.56071718351223 0 0,0 -0.5000507991996557,0.5816720503708153 l -17.73337025689303 -15.512413530247002" fill="#e0ff1b" stroke="none" /><path d="M 115.56566222782051 114.09645910891815 l 18.710452869264717 16.94442099029542 a46.242710814596364,46.242710814596364 0 0,0 -0.5393961008595454,0.5854079354592947 l -18.416010360409448 -17.26398018055605" fill="#ccff1d" stroke="none" /><path d="M 115.32070863581623 114.36230785411682 l 8.712293630515372 8.16728822480191 a32.941886670510094,32.941886670510094 0 0,0 -0.39137070997661355,0.4103506247310004 l -8.570416369159794 -8.316045966115418" fill="#ff890c" stroke="none" /><path d="M 115.07121518719521 114.62390073753431 l 8.63154233517008 8.375357710279205 a33.027058653676164,33.027058653676164 0 0,0 -0.3994062462829411,0.4045964187864926 l -8.486095463831603 -8.522694623046364" fill="#ff8a0c" stroke="none" /><path d="M 114.81725581225074 114.88116024355365 l 11.019187001055194 11.066710974970842 a36.61712438215704,36.61712438215704 0 0,0 -0.4504778965710351,0.44088743482379933 l -10.827059152108363 -11.254748512717214" fill="#ffba11" stroke="none" /><path d="M 114.55890576462653 115.13401014063108 l 43.67671729387959 45.40203042189324 a84.0,84.0 0 0,0 -1.0506566624367695,0.9934614530163142 l -42.88872479705202 -46.14712651165547" fill="#4dd2ff" stroke="none" /><path d="M 114.0293411484842 115.62618273729858 l 15.71912487611775 17.50830029613834 a44.529374537601754,44.529374537601754 0 0,0 -0.5747632137477922,0.5071617095594584 l -15.41541930946337 -17.776285147470087" fill="#e0ff1b" stroke="none" /><path d="M 113.75828350139079 115.86535959552629 l 9.981905881182655 11.510631121800376 a36.23591394839667,36.23591394839667 0 0,0 -0.4747500435708212,0.4045922866132922 l -9.782290361034786 -11.680747798636617" fill="#ffb510" stroke="none" /><path d="M 113.48314897796784 116.09983520530334 l 31.84300152350829 38.02280000083297 a70.59546416689227,70.59546416689227 0 0,0 -0.9383477542015478,0.7721963193180148 l -31.183783640762048 -38.56529143900816" fill="#3cffa4" stroke="none" /><path d="M 112.92097659922987 116.55440617244103 l 7.261155917727156 9.303021595956116 a32.80129637270287,32.80129637270287 0 0,0 -0.44808331416662023,0.34357117805024656 l -7.099943875067042 -9.426632115833733" fill="#ff870c" stroke="none" /><path d="M 112.34349029814194 116.9893568818739 l 14.078929517674268 19.377984047714797 a44.95250554988202,44.95250554988202 0 0,0 -0.629918758478649,0.4494303087941576 l -13.743283431346734 -19.617458618353172" fill="#dbff1b" stroke="none" /><path d="M 112.04921762599082 117.19931262002967 l 13.54000798338106 19.32729886806393 a44.5982265800947,44.5982265800947 0 0,0 -0.6325368926147591,0.43506464251975613 l -13.205314206143417 -19.557504299948782" fill="#dfff1b" stroke="none" /><path d="M 111.45004920935366 117.60387380957326 l 12.859853535705044 19.771376935848554 a44.58565621090899,44.58565621090899 0 0,0 -0.6469552769115843,0.41291746735447277 l -12.517616456746529 -19.989808832026835" fill="#dfff1b" stroke="none" /><path d="M 111.1453310114006 117.79835938074945 l 12.513266794705675 19.982862708299447 a44.577460590450116,44.577460590450116 0 0,0 -0.6538469083836391,0.4016461744388866 l -12.167440686389728 -20.19529734956671" fill="#e0ff1b" stroke="none" /><line stroke="#e1ed5e" stroke-width="0.3" x1="143.8653032363475" x2="146.44561519142675" y1="172.8068346515853" y2="177.08958963109032" /><path d="M 144.38136562736335 173.6633856474863 a86.0,86.0 0 0,1 -40.68145358897372,12.25698825130547" fill="none" id="id42" stroke="none" /><text fill="#e1ed5e" style="font-size:6.75px; font-family:Arial;" text-anchor="middle"><textPath startOffset="21.466115282336833" xlink:href="#id42">June</textPath></text><path d="M 110.21172684928248 118.3499491758327 l 9.878626283532602 17.751384550851466 a41.31499226487446,41.31499226487446 0 0,0 -0.6244017177473516,0.34047360161472845 l -9.571601753916603 -17.918798804225965" fill="#fff617" stroke="none" /><path d="M 109.57404056367764 118.69057910512821 l 5.389725412176133 10.52189913978201 a32.821992282454026,32.821992282454026 0 0,0 -0.505061835625791,0.25324848929448807 l -5.207809668867582 -10.613115469985798" fill="#ff870c" stroke="none" /><path d="M 108.2653958097858 119.30500536409082 l 4.645298734797724 10.849754694977925 a32.8023716801628,32.8023716801628 0 0,0 -0.520977483405072,0.2177686303158451 l -4.457849791895192 -10.928108368313744" fill="#ff870c" stroke="none" /><path d="M 107.2578585660854 119.70592522655815 l 1.477522543317464 4.0116445497052355 a25.275086532362945,25.275086532362945 0 0,0 -0.40955321668352074,0.14685121229720907 l -1.4082497660042084 -4.036483303042404" fill="#ff1c02" stroke="none" /><path d="M 105.53697534728816 120.25689768951611 l 3.116120228362389 11.400254596597437 a32.818460565778025,32.818460565778025 0 0,0 -0.5462078866644482,0.14425846727430988 l -2.9194218988864438 -11.45220441317533" fill="#ff870c" stroke="none" /><path d="M 105.18746579009965 120.34920634021253 l 8.12546061967637 31.87426798546447 a53.89364786537238,53.89364786537238 0 0,0 -0.9009137169688107,0.22142267250909975 l -7.575593617964347 -32.009411916287604" fill="#75ff27" stroke="none" /><path d="M 104.48393922423573 120.51570834832081 l 2.5219757956707918 11.538987773485092 a32.81137590421149,32.81137590421149 0 0,0 -0.5528069027219231,0.11584606130621708 l -2.3229774315194907 -11.58068981551785" fill="#ff870c" stroke="none" /><path d="M 104.13013068566511 120.58985236759428 l 2.3231220656265936 11.581410856845404 a32.81211130860431,32.81211130860431 0 0,0 -0.5547315308967877,0.10631561816854042 l -2.1234229201581014 -11.619683673362413" fill="#ff870c" stroke="none" /><path d="M 103.7750983002368 120.6578951692458 l 2.1226908361279495 11.615677601481051 a32.80803889421652,32.80803889421652 0 0,0 -0.5564103236266764,0.09673906686990494 l -1.9224315410292232 -11.650495246871962" fill="#ff870c" stroke="none" /><path d="M 103.41894727170886 120.7198165907248 l 1.9241779354185 11.661078905690076 a32.818765670402364,32.818765670402364 0 0,0 -0.5581755284811288,0.08717553808922576 l -1.723166543328854 -11.692472751126408" fill="#ff870c" stroke="none" /><path d="M 103.06178313531738 120.77559828337769 l 7.230357292050123 49.06127962239004 a70.59120108201702,70.59120108201702 0 0,0 -1.2036519438691224,0.16681519171876943 l -6.384776756994171 -49.17846937960141" fill="#3cffa4" stroke="none" /><path d="M 102.70371172650421 120.8252237178851 l 1.580110663480102 12.170734676856739 a33.27287791364709,33.27287791364709 0 0,0 -0.5686058780651116,0.06885025321540397 l -1.37037736236361 -12.196130458797494" fill="#ff8d0d" stroke="none" /><path d="M 101.98527174616119 120.90594882070398 l 1.1141457960789913 11.732537390243355 a32.785319447023014,32.785319447023014 0 0,0 -0.5622770996906702,0.04851563409995798 l -0.9120243786467794 -11.749977276621976" fill="#ff870c" stroke="none" /><path d="M 101.62511606390274 120.93702456842531 l 0.9129282274143895 11.761621924209884 a32.796999119965406,32.796999119965406 0 0,0 -0.5632294865409607,0.03884360300054659 l -0.7103359800944984 -11.775593871726715" fill="#ff870c" stroke="none" /><path d="M 101.26447882468166 120.96189622390904 l 0.7122720228681471 11.80768861852209 a32.82915220742961,32.82915220742961 0 0,0 -0.5643674119405735,0.029171348763034417 l -0.508916542514094 -11.818199774047326" fill="#ff870c" stroke="none" /><line stroke="#e1ed5e" stroke-width="0.3" x1="102.19456741930631" x2="102.32365962044197" y1="184.97166512339345" y2="189.96999836594603" /><path d="M 102.22038585953345 185.97133177190398 a86.0,86.0 0 0,1 -42.740103519485714,-10.115201625700543" fill="none" id="id43" stroke="none" /><text fill="#e1ed5e" style="font-size:6.75px; font-family:Arial;" text-anchor="middle"><textPath startOffset="22.20632615414155" xlink:href="#id43">July</textPath></text><path d="M 100.18074693466247 120.99922214144158 l 0.22284150808110337 25.889779759018904 a46.890738774863664,46.890738774863664 0 0,0 -0.8071768854870999,0.0 l 0.22284150808108555 -25.889779759018904" fill="#c4ff1e" stroke="none" /><path d="M 99.45781275523022 120.99299961872073 l -0.6262199371700996 24.246669446879533 a45.25475480552114,45.25475480552114 0 0,0 -0.7785534238661398,-0.02681495410584764 l 1.0434937127108823 -24.23229769434759" fill="#d7ff1c" stroke="none" /><path d="M 98.73552117531835 120.96189622390904 l -1.4199052986872986 23.53847841331406 a44.58126580723122,44.58126580723122 0 0,0 -0.7656030772238358,-0.052800470675493864 l 1.8248711366900645 -23.51054959812228" fill="#dfff1b" stroke="none" /><path d="M 92.7421414339146 119.70592522655815 l -3.475867122432987 9.437381148784201 a31.05712758198075,31.05712758198075 0 0,0 -0.5000637949102323,-0.18908133847703743 l 3.6378011381035025 -9.376151560200531" fill="#ff6f0a" stroke="none" /><path d="M 92.40401165467489 119.57807347666478 l -4.264946482143802 10.992570262807648 a32.79094438449753,32.79094438449753 0 0,0 -0.5244660531160146,-0.2086958662806317 l 4.453533611301675 -10.91752755212095" fill="#ff870c" stroke="none" /><path d="M 92.06813273071674 119.44442032107085 l -4.46371584811268 10.94248859668212 a32.817902346068465,32.817902346068465 0 0,0 -0.5212241462780487,-0.21787173541675506 l 4.6514114538881906 -10.86403181824539" fill="#ff870c" stroke="none" /><path d="M 91.40352486487194 119.15986991738527 l -4.83207784548003 10.76976103516614 a32.804097977370475,32.804097977370475 0 0,0 -0.5131998121689268,-0.2355848629054908 l 5.0167456534163755 -10.684989101926574" fill="#ff870c" stroke="none" /><path d="M 91.07499286063937 119.00905698771935 l -10.023557741918435 21.348821055337858 a44.584822879521695,44.584822879521695 0 0,0 -0.6918870940899567,-0.3321478510726493 l 10.389557504008634 -21.173118927765646" fill="#dfff1b" stroke="none" /><path d="M 90.7491055286396 118.85261126421891 l -11.164125675730018 22.751629274447033 a46.343131944283634,46.343131944283634 0 0,0 -0.7131239044541662,-0.3575751299027319 l 11.554103487866945 -22.556086303635002" fill="#caff1d" stroke="none" /><path d="M 90.42595943632237 118.69057910512821 l -10.725706208443544 20.938877270671746 a44.52609944351376,44.52609944351376 0 0,0 -0.679148320322257,-0.3552983026607106 l 11.084545431292298 -20.75114954906632" fill="#e0ff1b" stroke="none" /><path d="M 90.10565033884886 118.52300852407294 l -20.486342806396816 38.35206106773267 a64.48069490847982,64.48069490847982 0 0,0 -0.9745096018480662,-0.5313803349970906 l 21.143475220113523 -37.99374008097581" fill="#34ff5e" stroke="none" /><line stroke="#e1ed5e" stroke-width="0.3" x1="58.666819895761336" x2="56.23545636021788" y1="174.27360380694188" y2="178.64263932499728" /><path d="M 58.180547188652646 175.14741091055294 a86.0,86.0 0 0,1 -31.652253787137756,-30.449443065178592" fill="none" id="id44" stroke="none" /><text fill="#e1ed5e" style="font-size:6.75px; font-family:Arial;" text-anchor="middle"><textPath startOffset="22.20632615414155" xlink:href="#id44">August</textPath></text><path d="M 89.7882731507175 118.34994917583269 l -5.75262302174262 10.33716839812643 a32.83003474726541,32.83003474726541 0 0,0 -0.4914362811820235,-0.2790503461542413 l 5.929708069845851 -10.236614886177556" fill="#ff870c" stroke="none" /><path d="M 89.1626897886671 117.98757091392108 l -6.087078764053183 10.10322292080657 a32.79523807590582,32.79523807590582 0 0,0 -0.48102930812147254,-0.2954874893843091 l 6.260087272106964 -9.996946964593883" fill="#ff870c" stroke="none" /><path d="M 88.24862548938628 117.40417183066458 l -13.253297062002805 19.6285684863168 a44.6839731429446,44.6839731429446 0 0,0 -0.6337530365867486,-0.4359011174330787 l 13.589206983212444 -19.397526579518622" fill="#deff1b" stroke="none" /><path d="M 87.95078237400918 117.19931262002967 l -8.488091892187763 12.116085088078217 a35.793485790434076,35.793485790434076 0 0,0 -0.5015735575787587,-0.3578594157285255 l 8.695392777615409 -11.968181410505471" fill="#ffaf10" stroke="none" /><path d="M 87.65650970185807 116.9893568818739 l -6.923108201922095 9.52884096259127 a32.77829517654734,32.77829517654734 0 0,0 -0.4536126296362541,-0.33557177905852237 l 7.086105801976914 -9.40825923479298" fill="#ff870c" stroke="none" /><path d="M 86.24171649860922 115.8653595955263 l -15.387395152199053 17.743969100754327 a44.48659977558359,44.48659977558359 0 0,0 -0.5742110982074291,-0.5066745317884612 l 15.69054860331307 -17.476471427193577" fill="#e1ff1b" stroke="none" /><path d="M 85.44109423537348 115.13401014063109 l -8.4706752644571 8.80528299467122 a33.218238336688785,33.218238336688785 0 0,0 -0.4086634979178936,-0.3999632449773957 l 8.620988714750787 -8.658169646771254" fill="#ff8d0d" stroke="none" /><path d="M 85.18274418774928 114.88116024355367 l -8.254705006138558 8.290306215679303 a32.699116714013066,32.699116714013066 0 0,0 -0.39544034485366303,-0.400578981576933 l 8.396185976047754 -8.146986740121706" fill="#ff860c" stroke="none" /><path d="M 84.67929136418377 114.36230785411682 l -8.626008253962558 8.086400507998604 a32.82361584174614,32.82361584174614 0 0,0 -0.38286964776209576,-0.41552938497194924 l 8.763924309720382 -7.936719868225311" fill="#ff870c" stroke="none" /><path d="M 83.06392112726016 112.41649034213515 l -37.60818119087878 27.57200306225736 a67.63250631642157,67.63250631642157 0 0,0 -0.6802548583958382,-0.944814501540558 l 38.07721584165022 -26.920554955265665" fill="#38ff83" stroke="none" /><path d="M 82.44556493220864 111.52570212397912 l -9.857024592243333 6.471819163658637 a32.791750383178446,32.791750383178446 0 0,0 -0.3057364403038209,-0.4745097448674048 l 9.966965895924199 -6.301187818869784" fill="#ff870c" stroke="none" /><path d="M 82.24976979558568 111.22182372390057 l -10.00454329420235 6.324944521437807 a32.83620757357843,32.83620757357843 0 0,0 -0.29792660199855053,-0.4803525443169043 l 10.111934535868857 -6.151795645755638" fill="#ff870c" stroke="none" /><path d="M 82.05923443525364 110.91462005526583 l -42.64982707143982 25.9468669955912 a70.92241636890807,70.92241636890807 0 0,0 -0.6255327549149781,-1.0484288778143438 l 43.09014070205303 -25.208876023890745" fill="#3cffa8" stroke="none" /><line stroke="#e1ed5e" stroke-width="0.3" x1="26.63291911575756" x2="22.317208475507996" y1="142.92168965132927" y2="145.44649492493687" /><path d="M 25.769776987707644 143.4266507060508 a86.0,86.0 0 0,1 -11.730757126820373,-40.83630448921669" fill="none" id="id45" stroke="none" /><text fill="#e1ed5e" style="font-size:6.75px; font-family:Arial;" text-anchor="middle"><textPath startOffset="21.46611528233685" xlink:href="#id45">September</textPath></text><path d="M 81.51974371655577 109.97397251340807 l -3.5761416882975143 1.9300781523839607 a25.06374101648829,25.06374101648829 0 0,0 -0.2016407704398448,-0.3814283473637929 l 3.6088349669622453 -1.8682347899340417" fill="#ff1902" stroke="none" /><path d="M 81.18737489456691 109.33194174019688 l -7.205266163938263 3.5741489392176895 a29.043034323742784,29.043034323742784 0 0,0 -0.21830230409665413,-0.44976740544573623 l 7.265721724649636 -3.4495925778066687" fill="#ff5307" stroke="none" /><path d="M 81.02952815118164 109.00673069616217 l -14.110757004930301 6.699453196273942 a36.620375679901386,36.620375679901386 0 0,0 -0.26545479615916573,-0.5717660149595306 l 14.223986417929293 -6.455567114035584" fill="#ffba11" stroke="none" /><path d="M 80.87730276802145 108.67885076344099 l -4.042020130160989 1.8344739273405302 a25.438831076163954,25.438831076163954 0 0,0 -0.17753749943937128,-0.4003001927047468 l 4.07299871433164 -1.7646253981430875" fill="#ff1f03" stroke="none" /><path d="M 80.73074385275274 108.34839909993369 l -6.809227758808973 2.9500957617922974 a28.420825269138167,28.420825269138167 0 0,0 -0.19062120727919094,-0.45057222541366876 l 6.85899994728047 -2.83244901071247" fill="#ff4a06" stroke="none" /><path d="M 80.0844068197444 106.66101706037122 l -3.456437952325398 1.1560485274111514 a24.64464147976243,24.64464147976243 0 0,0 -0.13109511543884914,-0.40346927859023707 l 3.4758253187804966 -1.0963803488431108" fill="#ff1302" stroke="none" /><path d="M 79.67330655649465 105.27499134158121 l -30.584604218701546 7.9370273816417045 a52.59769641716856,52.59769641716856 0 0,0 -0.2198801256938446,-0.8783118021585028 l 30.716695658690448 -7.409387740085809" fill="#83ff25" stroke="none" /><path d="M 79.50377843672027 104.57218783832718 l -24.73929003804821 5.518708933331458 a46.34735922887242,46.34735922887242 0 0,0 -0.16699607088744256,-0.7801500473314821 l 24.830620147660095 -5.092045066583812" fill="#caff1d" stroke="none" /><path d="M 79.4281124754447 104.21870165774334 l -17.415107269293355 3.5713369431487876 a38.777525383542375,38.777525383542375 0 0,0 -0.12846452571289707,-0.655037848956457 l 17.474001727981918 -3.2710353671243757" fill="#ffd614" stroke="none" /><path d="M 79.35854240842038 103.8639653848113 l -27.031178019449257 5.060085302330186 a48.50070996149035,48.50070996149035 0 0,0 -0.14654964743484344,-0.8219282500676788 l 27.11427410922329 -4.594038301529293" fill="#b1ff20" stroke="none" /><path d="M 79.29508885075956 103.50808413554451 l -13.944413774947098 2.3626364001641615 a35.14315121485714,35.14315121485714 0 0,0 -0.09592113208816594,-0.5973009810768898 l 13.983016661396555 -2.1222561893940584" fill="#ffa70f" stroke="none" /><path d="M 79.18660465613746 102.79330883721812 l -23.328134018201343 3.130805033598986 a44.53728482492345,44.53728482492345 0 0,0 -0.09543383806499091,-0.7607015875688028 l 23.378569365513183 -2.7287856917427744" fill="#e0ff1b" stroke="none" /><path d="M 79.1416061653843 102.43462659150553 l -3.9314149305137205 0.4588813217337032 a24.95810502934198,24.95810502934198 0 0,0 -0.046134104577813216,-0.4271445117300679 l 3.9387313365925856 -0.3911404881188532" fill="#ff1802" stroke="none" /><path d="M 79.10278846688536 102.07522291339032 l -11.76559874793993 1.168397040571192 a32.823470959999064,32.823470959999064 0 0,0 -0.05099423769798395,-0.5627171637159678 l 11.78396758191499 -0.965698488306658" fill="#ff870c" stroke="none" /><path d="M 79.07016306316243 101.71520430193888 l -15.620747862978956 1.280123395845834 a36.673113274246234,36.673113274246234 0 0,0 -0.046144278914201434,-0.6296020239839527 l 15.640468700557491 -1.0110482353651207" fill="#ffbb11" stroke="none" /><path d="M 79.04373962182676 101.35467743843564 l -12.396503466437348 0.8013482968059862 a33.42237727998096,33.42237727998096 0 0,0 -0.03217086699247952,-0.5744324413168092 l 12.40846068431736 -0.5878441391537395" fill="#ff8f0d" stroke="none" /><path d="M 79.0095281055655 100.63252640178507 l -17.571363050386253 0.5294950537851867 a38.57933913605578,38.57933913605578 0 0,0 -0.01428893721209907,-0.6639507649455719 l 17.577874050283363 -0.22695447304948588" fill="#ffd413" stroke="none" /><line stroke="#e1ed5e" stroke-width="0.3" x1="15.007084014347285" x2="10.007500721073583" y1="101.09737516637583" y2="101.16192664675087" /><path d="M 14.007167355692545 101.11028546245083 a86.0,86.0 0 0,1 10.666146001902534,-42.60595125391555" fill="none" id="id46" stroke="none" /><text fill="#e1ed5e" style="font-size:6.75px; font-family:Arial;" text-anchor="middle"><textPath startOffset="22.20632615414155" xlink:href="#id46">October</textPath></text><path d="M 79.00175016825051 100.2711162175752 l -49.82342869700363 0.6432888285068129 a70.82758139466821,70.82758139466821 0 0,0 -0.005246983826363395,-1.2192142550442984 l 49.82711997811949 0.21443490474116078" fill="#3cffa7" stroke="none" /><path d="M 79.00019446554 99.90962569577889 l -26.521811410713436 -0.11413868804612386 a47.52205701195815,47.52205701195815 0 0,0 0.010561195325063069,-0.8179762167717132 l 26.515917208270658 0.5706511628783091" fill="#bdff1f" stroke="none" /><path d="M 79.00486145842228 99.54816195383935 l -12.087136210378185 -0.26012821959518706 a33.089935006395415,33.089935006395415 0 0,0 0.017156824894879987,-0.5693514922655891 l 12.080867691027661 0.46814985928577063" fill="#ff8b0c" stroke="none" /><path d="M 79.01574976396665 99.18683210126434 l -28.398644289984656 -1.1004856330093657 a49.41995893975813,49.41995893975813 0 0,0 0.040257008509900265,-0.8497618230615996 l 28.37549367324126 1.5891585626939746" fill="#a7ff21" stroke="none" /><path d="M 79.12142395522702 97.74499172005258 l -12.337456092574028 -1.3325173892405995 a33.409207284465054,33.409207284465054 0 0,0 0.06667467065342172,-0.5712278606233248 l 12.312691068917017 1.544688988188786" fill="#ff8f0d" stroke="none" /><path d="M 79.16333360222342 97.38593545837743 l -8.13615029379345 -1.0207209532608799 a29.199927613559833,29.199927613559833 0 0,0 0.06685949270864734,-0.4981808798561024 l 8.11737480202697 1.1606201751816416" fill="#ff5507" stroke="none" /><path d="M 79.21141760316559 97.0276538004421 l -49.31946810226749 -7.0516849479988934 a70.82104168417612,70.82104168417612 0 0,0 0.1829344824693366,-1.2053096742495806 l 49.19077772635885 7.8995937346405665" fill="#3cffa7" stroke="none" /><path d="M 79.54389044137918 95.25157060432595 l -48.41361208895273 -11.23813979071409 a70.70084125500514,70.70084125500514 0 0,0 0.2853863015424499,-1.1831104643387331 l 48.21299298714947 12.06983548671222" fill="#3cffa5" stroke="none" /><path d="M 79.62865764111835 94.90015583598534 l -10.061383549485022 -2.5188074144943644 a31.371876865888815,31.371876865888815 0 0,0 0.1356514997874167,-0.5227205644102573 l 10.016535717827297 2.6916244044534854" fill="#ff730a" stroke="none" /><path d="M 79.81627453868168 94.20196356495316 l -47.73372292926851 -13.712129866943451 a70.66418035341061,70.66418035341061 0 0,0 0.34589814408406605,-1.1661965866730797 l 47.49061888807274 14.53175584036307" fill="#3cffa5" stroke="none" /><path d="M 80.02781315780177 93.51064311812611 l -30.077713029047015 -9.772841380778477 a52.62557904152208,52.62557904152208 0 0,0 0.2873424433204009,-0.8591173318914804 l 29.90503329195484 10.289131815592281" fill="#83ff25" stroke="none" /><path d="M 80.38941819471856 92.48833698450439 l -22.164520496211125 -8.489927046567514 a44.73488635074964,44.73488635074964 0 0,0 0.28163050099421905,-0.7167189061230784 l 22.015096445335214 8.870194957586357" fill="#deff1b" stroke="none" /><path d="M 81.26839172434947 90.50648371742162 l -43.475979982546654 -22.034409314542664 a69.74090714465214,69.74090714465214 0 0,0 0.5519181376332187,-1.066130169892495 l 43.090252411753326 22.779512206695493" fill="#3bff9b" stroke="none" /><path d="M 81.43458229118936 90.18545643968196 l -21.11148798900058 -11.160514766810019 a44.87995006213163,44.87995006213163 0 0,0 0.3669297111022592,-0.6798650277072877 l 20.91625017867985 11.52226077784978" fill="#dcff1b" stroke="none" /><line stroke="#e1ed5e" stroke-width="0.3" x1="26.266209847984243" x2="21.928928074336255" y1="57.711370442889674" y2="55.22380399835377" /><path d="M 25.398753493254645 57.213857153982495 a86.0,86.0 0 0,1 29.58750427330803,-30.492523968695096" fill="none" id="id47" stroke="none" /><text fill="#e1ed5e" style="font-size:6.75px; font-family:Arial;" text-anchor="middle"><textPath startOffset="21.46611528233685" xlink:href="#id47">November</textPath></text><path d="M 82.15384107792192 88.93136811851018 l -12.821928297101415 -7.9524790152965465 a36.087868230626285,36.087868230626285 0 0,0 0.3319609644032875,-0.5250825250879663 l 12.683139736452164 8.172009188098729" fill="#ffb310" stroke="none" /><path d="M 82.34701348167596 88.62581576622439 l -3.2097075500317263 -2.068080943284343 a24.818269417511882,24.818269417511882 0 0,0 0.23447753128704696,-0.3571253667289333 l 3.173633383386759 2.1230243739909436" fill="#ff1602" stroke="none" /><path d="M 82.7489923806493 88.02491185347247 l -46.03095669171121 -31.953192301295825 a77.03441328503212,77.03441328503212 0 0,0 0.7655290425427939,-1.082786541153832 l 45.47411502936454 32.74080534278144" fill="#44ffe8" stroke="none" /><path d="M 83.17141714833178 87.43820079747576 l -2.9622158611791587 -2.2111642537372833 a24.69648078112506,24.69648078112506 0 0,0 0.2572245018392831,-0.33847729290330614 l 2.923715419115767 2.2618263225216158" fill="#ff1402" stroke="none" /><path d="M 84.5562425177563 85.77008943001954 l -8.640241168696903 -7.961136353959243 a32.74876416903396,32.74876416903396 0 0,0 0.3855506984603925,-0.4112786033725021 l 8.501923148266053 8.108684374209796" fill="#ff860c" stroke="none" /><path d="M 84.80347519578584 85.50635884689758 l -8.625577598350382 -8.22661944486552 a32.91964162195338,32.91964162195338 0 0,0 0.39462143915866216,-0.40669208125681466 l 8.482691895488603 8.373875721672459" fill="#ff890c" stroke="none" /><path d="M 85.05521093208273 85.24692304244772 l -8.403869595007956 -8.296064555541069 a32.808882727828404,32.808882727828404 0 0,0 0.4002124376846963,-0.39849379829018433 l 8.259821357155946 8.439494204481363" fill="#ff870c" stroke="none" /><path d="M 85.83668400450813 84.49514656593479 l -19.910381022829373 -21.796275651381595 a50.521194161911104,50.521194161911104 0 0,0 0.6471260058611735,-0.5809961175362504 l 19.53224402937223 22.135770777687124" fill="#9aff22" stroke="none" /><path d="M 88.09926311788651 82.69761687909137 l -30.925092030511184 -44.961736038839014 a75.57031266835313,75.57031266835313 0 0,0 1.078119567508029,-0.7279511446034805 l 30.146567768596615 45.48739909574116" fill="#42ffd9" stroke="none" /><line stroke="#e1ed5e" stroke-width="0.3" x1="56.762969772571076" x2="54.21961505331055" y1="26.818313649435495" y2="22.513508569990535" /><path d="M 56.25429882871897 25.957352633546506 a86.0,86.0 0 0,1 42.265352541879196,-11.944610805530505" fill="none" id="id48" stroke="none" /><text fill="#e1ed5e" style="font-size:6.75px; font-family:Arial;" text-anchor="middle"><textPath startOffset="22.20632615414155" xlink:href="#id48">December</textPath></text><path d="M 90.26544431104013 81.39251694778311 l -5.460217639043567 -10.437138625150219 a32.77912727439198,32.77912727439198 0 0,0 0.5022066869775587,-0.25724977088345363 l 5.279750464477244 10.529580921346177" fill="#ff870c" stroke="none" /><path d="M 91.56875222667455 80.76684994638697 l -4.742731527644148 -10.81899970058681 a32.81288520491955,32.81288520491955 0 0,0 0.5192502241598503,-0.22231584742185068 l 4.55579754569399 10.899035075971446" fill="#ff870c" stroke="none" /><path d="M 91.90106846888425 80.62456947434976 l -4.863980332418005 -11.636314326997516 a33.61198302372933,33.61198302372933 0 0,0 0.535736804436368,-0.21854049407965037 l 4.662959658393257 11.718315707260743" fill="#ff920d" stroke="none" /><path d="M 92.91201910852362 80.23233633223022 l -7.945045184209278 -22.157929519187725 a44.53927746462108,44.53927746462108 0 0,0 0.7239074726044641,-0.25255710289587147 l 7.562455707541529 22.291407475255806" fill="#e0ff1b" stroke="none" /><path d="M 93.25333710446033 80.11325718540243 l -3.7893144217933448 -11.169540040257477 a32.79480938795223,32.79480938795223 0 0,0 0.5361438763890428,-0.17675820658336314 l 3.5964877231618924 11.233111971100074" fill="#ff870c" stroke="none" /><path d="M 93.94186890950719 79.89281104454417 l -6.796883172910505 -22.559137830533857 a44.5608217285225,44.5608217285225 0 0,0 0.7363352879085728,-0.21495646218358497 l 6.407557667278511 22.67279262163614" fill="#e0ff1b" stroke="none" /><path d="M 99.63851952072746 79.00311137660856 l -0.2119984375292923 -12.314102244451938 a33.31592698193405,33.31592698193405 0 0,0 0.573478916801825,-0.004936114090668803 l 3.0165321113916107e-15 12.315926981934048" fill="#ff8e0d" stroke="none" /></svg>