<?xml version="1.0" encoding="utf-8" ?>
<svg baseProfile="full" height="200mm" version="1.1" viewBox="0,0,200,200" width="200mm" xmlns="http://www.w3.org/2000/svg" xmlns:ev="http://www.w3.org/2001/xml-events" xmlns:xlink="http://www.w3.org/1999/xlink"><defs /><rect fill="#1a1a1a" height="200" width="200" x="0" y="0" /><text alignment-baseline="middle" fill="#e1ed5e" style="dominant-baseline: central; font-size:9.0px; font-family:Arial;" text-anchor="middle" x="100.0" y="100.0">2019</text><line stroke="#e1ed5e" stroke-width="0.3" x1="100.0" x2="100.0" y1="15.0" y2="10.0" /><path d="M 100.0 14.0 a86.0,86.0 0 0,1 42.46469731375804,11.215312516191453" fill="none" id="id1" stroke="none" /><text fill="#e1ed5e" style="font-size:6.75px; font-family:Arial;" text-anchor="middle"><textPath startOffset="22.20632615414155" xlink:href="#id1">January</textPath></text><line stroke="#e1ed5e" stroke-width="0.3" x1="143.23703022742887" x2="145.7803849466894" y1="26.81831364943548" y2="22.513508569990506" /><path d="M 143.74570117128098 25.957352633546492 a86.0,86.0 0 0,1 28.547481713284135,27.462654790039103" fill="none" id="id2" stroke="none" /><text fill="#e1ed5e" style="font-size:6.75px; font-family:Arial;" text-anchor="middle"><textPath startOffset="19.985693538727396" xlink:href="#id2">February</textPath></text><line stroke="#e1ed5e" stroke-width="0.3" x1="172.23445277983987" x2="176.4835382374775" y1="55.19839476539836" y2="52.563006222186495" /><path d="M 173.08426987136738 54.67131705675599 a86.0,86.0 0 0,1 12.851231095245387,41.99856678651699" fill="none" id="id3" stroke="none" /><text fill="#e1ed5e" style="font-size:6.75px; font-family:Arial;" text-anchor="middle"><textPath startOffset="22.20632615414155" xlink:href="#id3">March</textPath></text><path d="M 120.73433829027371 96.67025291283417 l 46.443586939968874 -7.458419755958023 a68.03865211830067,68.03865211830067 0 0,0 0.17574742360721457,1.1579559361298573 l -46.56509025701539 6.657864707436084" fill="#43ff2d" stroke="none" /><path d="M 120.78858239683441 97.02765380044208 l 38.01796035608645 -5.4357982580170745 a59.40459884361275,59.40459884361275 0 0,0 0.1360195612745304,1.0135037220320524 l -38.10589591641881 4.780576193920358" fill="#daff1b" stroke="none" /><path d="M 120.83666639777658 97.38593545837742 l 37.7716284042583 -4.73864065421961 a59.06771108904757,59.06771108904757 0 0,0 0.11788128193466574,1.0099348347305268 l -37.84760003919656 4.087762081164231" fill="#e1ff1b" stroke="none" /><path d="M 120.98425023603335 99.18683210126433 l 38.335161960408755 -1.4855390470662686 a59.36393448007033,59.36393448007033 0 0,0 0.03077965033019395,1.0214267473312297 l -38.355053305194595 0.8254421523100397" fill="#dbff1b" stroke="none" /><line stroke="#e1ed5e" stroke-width="0.3" x1="184.98032266829074" x2="189.97916517819016" y1="98.17113171792111" y2="98.06355123074" /><path d="M 185.9800911702706 98.14961562048488 a86.0,86.0 0 0,1 -9.607161424134198,41.387399972396054" fill="none" id="id4" stroke="none" /><text fill="#e1ed5e" style="font-size:6.75px; font-family:Arial;" text-anchor="middle"><textPath startOffset="21.466115282336823" xlink:href="#id4">April</textPath></text><path d="M 120.99980553446 99.90962569577887 l 27.444630206657152 -0.11811011085139696 a48.4448843535265,48.4448843535265 0 0,0 -0.0035888494237378207,0.8339222153961163 l -27.44259705994391 -0.35432158274840414" fill="#ff3f05" stroke="none" /><path d="M 120.99824983174949 100.27111621757518 l 39.24615305185172 0.506721686571549 a60.24942415166128,60.24942415166128 0 0,0 -0.022315059253143775,1.0368931181519718 l -39.231615929913566 -1.1822046205136356" fill="#caff1d" stroke="none" /><path d="M 120.92983693683757 101.71520430193887 l 37.84289339098287 3.101232643995711 a58.96975406969974,58.96975406969974 0 0,0 -0.0916148587602635,1.0109623322764563 l -37.78390393594554 -3.752176364820738" fill="#e3ff1b" stroke="none" /><path d="M 120.89721153311464 102.0752229133903 l 40.21027622200935 3.993130204833111 a61.40806111016762,61.40806111016762 0 0,0 -0.1135104572180699,1.0509658585198924 l -40.13558346329023 -4.6846923852377955" fill="#b5ff20" stroke="none" /><path d="M 120.81339534386255 102.79330883721812 l 37.57447474167933 5.042767439706152 a58.91135259475793,58.91135259475793 0 0,0 -0.14353596482887593,1.0038902037044184 l -37.48210472583386 -5.6888031153909795" fill="#e4ff1a" stroke="none" /><path d="M 120.49622156327973 104.57218783832717 l 38.13003827970414 8.505845663268468 a60.06723985206846,60.06723985206846 0 0,0 -0.23380296150580093,1.0072170389749837 l -37.97797475226779 -9.160931359592018" fill="#ceff1d" stroke="none" /><path d="M 120.32669344350535 105.2749913415812 l 41.743506421018814 10.832880200122736 a64.12622893033716,64.12622893033716 0 0,0 -0.2864668996620241,1.0660499019448175 l -41.55085144501501 -11.549821035243102" fill="#84ff25" stroke="none" /><path d="M 120.13307415673323 105.97154293290107 l 36.46433430375495 10.815454019559516 a59.03448069666794,59.03448069666794 0 0,0 -0.2973460741290941,0.9717441745825881 l -36.27276145711973 -11.441525166694161" fill="#e1ff1b" stroke="none" /><path d="M 118.97047184881838 109.00673069616215 l 34.34662478105629 16.30696390634965 a59.02114813749922,59.02114813749922 0 0,0 -0.4436331440173701,0.9140156764725837 l -34.0608383804242 -16.89576853878751" fill="#e2ff1b" stroke="none" /><path d="M 118.64920377521936 109.65438752849418 l 33.9110280006054 17.555184111532444 a59.18562961701227,59.18562961701227 0 0,0 -0.4761554129964145,0.9007065975366908 l -33.603820079384086 -18.13630572415527" fill="#dfff1b" stroke="none" /><line stroke="#e1ed5e" stroke-width="0.3" x1="174.80103733775053" x2="179.2010983576182" y1="140.37084112569926" y2="142.7455964860345" /><path d="M 175.68104954172406 140.8457921977663 a86.0,86.0 0 0,1 -30.038265399797805,32.042727171017184" fill="none" id="id5" stroke="none" /><text fill="#e1ed5e" style="font-size:6.75px; font-family:Arial;" text-anchor="middle"><textPath startOffset="22.206326154141568" xlink:href="#id5">May</textPath></text><path d="M 116.27256486870786 113.27417163493432 l 29.487868685485797 24.05441509913768 a59.054556696591234,59.054556696591234 0 0,0 -0.6493301602741167,0.7821600076806406 l -29.069442525318138 -24.558436363932096" fill="#e1ff1b" stroke="none" /><path d="M 115.07121518719521 114.62390073753431 l 45.21364556158561 43.87170221260295 a84.0,84.0 0 0,0 -1.0158374997778576,1.0290380240773414 l -44.45176743675221 -44.643480730660954" fill="#4dd2ff" stroke="none" /><path d="M 114.81725581225074 114.88116024355365 l 26.70778341033683 26.822969766827203 a58.85204620368084,58.85204620368084 0 0,0 -0.7240204256906145,0.7086063726379399 l -26.24211303227042 -27.278726242387716" fill="#e5ff1a" stroke="none" /><line stroke="#e1ed5e" stroke-width="0.3" x1="143.8653032363475" x2="146.44561519142675" y1="172.8068346515853" y2="177.08958963109032" /><path d="M 144.38136562736335 173.6633856474863 a86.0,86.0 0 0,1 -40.68145358897372,12.25698825130547" fill="none" id="id6" stroke="none" /><text fill="#e1ed5e" style="font-size:6.75px; font-family:Arial;" text-anchor="middle"><textPath startOffset="21.466115282336833" xlink:href="#id6">June</textPath></text><line stroke="#e1ed5e" stroke-width="0.3" x1="102.19456741930631" x2="102.32365962044197" y1="184.97166512339345" y2="189.96999836594603" /><path d="M 102.22038585953345 185.97133177190398 a86.0,86.0 0 0,1 -42.740103519485714,-10.115201625700543" fill="none" id="id7" stroke="none" /><text fill="#e1ed5e" style="font-size:6.75px; font-family:Arial;" text-anchor="middle"><textPath startOffset="22.20632615414155" xlink:href="#id7">July</textPath></text><path d="M 95.86986931433489 120.58985236759428 l -4.868466860970806 24.27066394577575 a45.75413294674547,45.75413294674547 0 0,0 -0.7708668053073124,-0.1615426340497092 l 5.285525127707506 -24.183265330999497" fill="#ff0000" stroke="none" /><line stroke="#e1ed5e" stroke-width="0.3" x1="58.666819895761336" x2="56.23545636021788" y1="174.27360380694188" y2="178.64263932499728" /><path d="M 58.180547188652646 175.14741091055294 a86.0,86.0 0 0,1 -31.652253787137756,-30.449443065178592" fill="none" id="id8" stroke="none" /><text fill="#e1ed5e" style="font-size:6.75px; font-family:Arial;" text-anchor="middle"><textPath startOffset="22.20632615414155" xlink:href="#id8">August</textPath></text><path d="M 84.19399662182784 113.82643327865904 l -33.860511902869256 29.619765186991994 a65.98738441004204,65.98738441004204 0 0,0 -0.7404962576218488,-0.8613644396773302 l 34.365350670061886 -29.032523648153134" fill="#65ff29" stroke="none" /><line stroke="#e1ed5e" stroke-width="0.3" x1="26.63291911575756" x2="22.317208475507996" y1="142.92168965132927" y2="145.44649492493687" /><path d="M 25.769776987707644 143.4266507060508 a86.0,86.0 0 0,1 -11.730757126820373,-40.83630448921669" fill="none" id="id9" stroke="none" /><text fill="#e1ed5e" style="font-size:6.75px; font-family:Arial;" text-anchor="middle"><textPath startOffset="21.46611528233685" xlink:href="#id9">September</textPath></text><path d="M 80.87730276802145 108.67885076344099 l -44.29289807075337 20.102365663852463 a69.641195758219,69.641195758219 0 0,0 -0.4860256242067223,-1.0958594755686324 l 44.63236477969137 -19.336957851791137" fill="#30ff37" stroke="none" /><line stroke="#e1ed5e" stroke-width="0.3" x1="15.007084014347285" x2="10.007500721073583" y1="101.09737516637583" y2="101.16192664675087" /><path d="M 14.007167355692545 101.11028546245083 a86.0,86.0 0 0,1 10.666146001902534,-42.60595125391555" fill="none" id="id10" stroke="none" /><text fill="#e1ed5e" style="font-size:6.75px; font-family:Arial;" text-anchor="middle"><textPath startOffset="22.20632615414155" xlink:href="#id10">October</textPath></text><path d="M 79.08570108090925 98.10471618934814 l -44.5437739876664 -4.036620784218455 a65.72630219926403,65.72630219926403 0 0,0 0.1118063063255317,-1.125874246542404 l 44.46769055565864 4.802770561465289" fill="#69ff28" stroke="none" /><path d="M 79.16333360222342 97.38593545837743 l -53.356787463767716 -6.693877201912191 a74.77503845138523,74.77503845138523 0 0,0 0.17121347711175794,-1.2757392737400544 l 53.23365798759813 7.611334817716904" fill="#3aff96" stroke="none" /><line stroke="#e1ed5e" stroke-width="0.3" x1="26.266209847984243" x2="21.928928074336255" y1="57.711370442889674" y2="55.22380399835377" /><path d="M 25.398753493254645 57.213857153982495 a86.0,86.0 0 0,1 29.58750427330803,-30.492523968695096" fill="none" id="id11" stroke="none" /><text fill="#e1ed5e" style="font-size:6.75px; font-family:Arial;" text-anchor="middle"><textPath startOffset="21.46611528233685" xlink:href="#id11">November</textPath></text><line stroke="#e1ed5e" stroke-width="0.3" x1="56.762969772571076" x2="54.21961505331055" y1="26.818313649435495" y2="22.513508569990535" /><path d="M 56.25429882871897 25.957352633546506 a86.0,86.0 0 0,1 42.265352541879196,-11.944610805530505" fill="none" id="id12" stroke="none" /><text fill="#e1ed5e" style="font-size:6.75px; font-family:Arial;" text-anchor="middle"><textPath startOffset="22.20632615414155" xlink:href="#id12">December</textPath></text></svg>