<?xml version="1.0" encoding="utf-8" ?>
<svg baseProfile="full" height="200mm" version="1.1" viewBox="0,0,200,200" width="200mm" xmlns="http://www.w3.org/2000/svg" xmlns:ev="http://www.w3.org/2001/xml-events" xmlns:xlink="http://www.w3.org/1999/xlink"><defs /><rect fill="#1a1a1a" height="200" width="200" x="0" y="0" /><rect fill="#1a1a1a" height="200" width="180" x="10" y="0" /><text alignment-baseline="middle" fill="#e1ed5e" style="dominant-baseline: central; font-size:9.0px; font-family:Arial;" text-anchor="middle" x="100.0" y="100.0">2020</text><line stroke="#e1ed5e" stroke-width="0.3" x1="100.0" x2="100.0" y1="15.0" y2="10.0" /><path d="M 100.0 14.0 a86.0,86.0 0 0,1 42.35913384403234,11.155469271406648" fill="none" id="id13" stroke="none" /><text fill="#e1ed5e" style="font-size:6.75px; font-family:Arial;" text-anchor="middle"><textPath startOffset="22.145653131862478" xlink:href="#id13">January</textPath></text><line stroke="#e1ed5e" stroke-width="0.3" x1="143.13028292997686" x2="145.6673583964461" y1="26.7553504044142" y2="22.446841604673864" /><path d="M 143.63769802327073 25.89364864446614 a86.0,86.0 0 0,1 29.32050498858742,28.57503671076993" fill="none" id="id14" stroke="none" /><text fill="#e1ed5e" style="font-size:6.75px; font-family:Arial;" text-anchor="middle"><textPath startOffset="20.669276256404974" xlink:href="#id14">February</textPath></text><line stroke="#e1ed5e" stroke-width="0.3" x1="172.87174338648825" x2="177.1583165268699" y1="56.24261187166439" y2="53.66864786411523" /><path d="M 173.72905801456457 55.72781907015455 a86.0,86.0 0 0,1 12.242430191666344,42.057860355516425" fill="none" id="id15" stroke="none" /><text fill="#e1ed5e" style="font-size:6.75px; font-family:Arial;" text-anchor="middle"><textPath startOffset="22.145653131862474" xlink:href="#id15">March</textPath></text><line stroke="#e1ed5e" stroke-width="0.3" x1="184.99686870605535" x2="189.99668451229388" y1="99.2704041080226" y2="99.22748670261217" /><path d="M 185.99683186730306 99.26182062694052 a86.0,86.0 0 0,1 -10.086455211305974,41.156179273409016" fill="none" id="id16" stroke="none" /><text fill="#e1ed5e" style="font-size:6.75px; font-family:Arial;" text-anchor="middle"><textPath startOffset="21.40746469413373" xlink:href="#id16">April</textPath></text><line stroke="#e1ed5e" stroke-width="0.3" x1="174.33088141563837" x2="178.70328620479359" y1="141.23008692659167" y2="143.65538615756765" /><path d="M 175.20536237346943 141.71514677278685 a86.0,86.0 0 0,1 -30.301960400862466,31.631185727798858" fill="none" id="id17" stroke="none" /><text fill="#e1ed5e" style="font-size:6.75px; font-family:Arial;" text-anchor="middle"><textPath startOffset="22.145653131862474" xlink:href="#id17">May</textPath></text><line stroke="#e1ed5e" stroke-width="0.3" x1="143.1302829299769" x2="145.66735839644613" y1="173.24464959558577" y2="177.55315839532614" /><path d="M 143.63769802327073 174.10635135553383 a86.0,86.0 0 0,1 -40.68552437913181,11.842963189579606" fill="none" id="id18" stroke="none" /><text fill="#e1ed5e" style="font-size:6.75px; font-family:Arial;" text-anchor="middle"><textPath startOffset="21.407464694133747" xlink:href="#id18">June</textPath></text><path d="M 108.07796709384702 119.3841803445677 l 2.872145806091599 6.892104366651884 a28.466613967004825,28.466613967004825 0 0,0 -0.452680892347388,0.1841013780360566 l -2.75341045255377 -6.940393001267232" fill="#ff4406" stroke="none" /><line stroke="#e1ed5e" stroke-width="0.3" x1="101.45913802915013" x2="101.54496967792366" y1="184.9874750549273" y2="189.98673829345242" /><path d="M 101.47630435890484 185.9873277026323 a86.0,86.0 0 0,1 -42.54439059252881,-10.42667462771756" fill="none" id="id19" stroke="none" /><text fill="#e1ed5e" style="font-size:6.75px; font-family:Arial;" text-anchor="middle"><textPath startOffset="22.145653131862474" xlink:href="#id19">July</textPath></text><line stroke="#e1ed5e" stroke-width="0.3" x1="58.13341422392154" x2="55.67067388415222" y1="173.97424548756322" y2="178.32567169271397" /><path d="M 57.64086615596768 174.84453072859336 a86.0,86.0 0 0,1 -31.369924170532247,-30.572349798747897" fill="none" id="id20" stroke="none" /><text fill="#e1ed5e" style="font-size:6.75px; font-family:Arial;" text-anchor="middle"><textPath startOffset="22.145653131862474" xlink:href="#id20">August</textPath></text><path d="M 85.08716467003676 114.78537596483092 l -6.9300762292674865 6.870845164419189 a30.75881498015414,30.75881498015414 0 0,0 -0.3685392299984278,-0.37815371651251184 l 7.047002260416724 -6.7508687558389395" fill="#ff6509" stroke="none" /><path d="M 84.1078160697243 113.72728997021213 l -6.199314031000453 5.354819809115526 a29.191800146674424,29.191800146674424 0 0,0 -0.3243145559634773,-0.382041731447624 l 6.290323150471043 -5.247611295218348" fill="#ff4e07" stroke="none" /><path d="M 82.98947788004972 112.3143062007846 l -18.080224170629993 13.088687992406864 a43.320579280628195,43.320579280628195 0 0,0 -0.43090547307900234,-0.6061225116564274 l 18.30224474223896 -12.776388254040933" fill="#f3ff19" stroke="none" /><path d="M 82.78059297857968 112.02048342749411 l -7.610253839442268 5.3125482220289415 a30.28111696468311,30.28111696468311 0 0,0 -0.2938858294332377,-0.42878820802751266 l 7.700329405690831 -5.181125278931377" fill="#ff5e08" stroke="none" /><path d="M 82.576782715395 111.72311816256416 l -16.495731982504722 11.099064658957204 a40.88211281384204,40.88211281384204 0 0,0 -0.3867750810188675,-0.5856267690674378 l 16.683831502444317 -10.814258011550704" fill="#ffec16" stroke="none" /><path d="M 82.37810715431573 111.42229804090323 l -5.849404538054545 3.7915133510662553 a27.970732166790427,27.970732166790427 0 0,0 -0.25770675364498025,-0.4051578206839547 l 5.913628983325415 -3.6905418557036285" fill="#ff3d05" stroke="none" /><line stroke="#e1ed5e" stroke-width="0.3" x1="26.387840678322732" x2="22.057713659400548" y1="142.50000000000003" y2="145.00000000000006" /><path d="M 25.521815274538298 143.00000000000003 a86.0,86.0 0 0,1 -11.493303480769221,-40.785679425670985" fill="none" id="id21" stroke="none" /><text fill="#e1ed5e" style="font-size:6.75px; font-family:Arial;" text-anchor="middle"><textPath startOffset="21.40746469413373" xlink:href="#id21">September</textPath></text><path d="M 81.4637452351635 109.86951160357371 l -5.729042860967843 3.0503926338429372 a27.490518263082684,27.490518263082684 0 0,0 -0.21821178924536558,-0.4184498781808884 l 5.780562719188159 -2.951596512557546" fill="#ff3605" stroke="none" /><path d="M 81.1358732173502 109.22738970284198 l -15.256009481950265 7.462478726006167 a37.98335697232591,37.98335697232591 0 0,0 -0.28147610462890044,-0.5881768008094582 l 15.381864844539077 -7.199489423131604" fill="#ffc712" stroke="none" /><path d="M 80.9802524753101 108.90220220490708 l -10.10448615621045 4.7294097265224515 a32.156520821581154,32.156520821581154 0 0,0 -0.22971322283090612,-0.5019648485217652 l 10.184183843896413 -4.555255895785997" fill="#ff780b" stroke="none" /><path d="M 80.83023694016515 108.57439118712176 l -3.4899099087505574 1.56099231232217 a24.823109751278956,24.823109751278956 0 0,0 -0.1706483805266138,-0.3904768903316391 l 3.5161921712941395 -1.5008533522146816" fill="#ff0e01" stroke="none" /><path d="M 80.68587082218212 108.24405325689762 l -7.776801345622892 3.319454057253625 a29.455614371972008,29.455614371972008 0 0,0 -0.1945110688901037,-0.46675575606792635 l 7.832638259049481 -3.1854657917444174" fill="#ff5207" stroke="none" /><path d="M 80.5471966667186 107.91128576633889 l -7.8291377712114505 3.1840421738147135 a29.45183546960307,29.45183546960307 0 0,0 -0.18644600152422508,-0.4699657193836869 l 7.8826424477018 -3.0491754372174613" fill="#ff5207" stroke="none" /><path d="M 80.41425534168474 107.57618678355246 l -7.5784097654123945 2.9314917000455316 a29.125634631210893,29.125634631210893 0 0,0 -0.1763755733105558,-0.4678571628849211 l 7.627616022537386 -2.8009662569664653" fill="#ff4d07" stroke="none" /><path d="M 80.16572619554312 106.89939002012753 l -8.104477196601856 2.8191578698495787 a29.58080425865631,29.58080425865631 0 0,0 -0.1627149587375717,-0.4810378629542247 l 8.151677576911794 -2.6796183324211924" fill="#ff5407" stroke="none" /><path d="M 80.05021161711548 106.5578916946017 l -8.059215245232458 2.6492241274629267 a29.483474456053898,29.483474456053898 0 0,0 -0.15392519532683407,-0.4821684820275124 l 8.103505156336547 -2.5104866117440223" fill="#ff5307" stroke="none" /><path d="M 79.94057633289273 106.21446072829308 l -11.442438038877189 3.5448965537893566 a32.978968229802234,32.978968229802234 0 0,0 -0.16289047367992718,-0.5422094096250912 l 11.501604832560744 -3.347949540573542" fill="#ff840c" stroke="none" /><path d="M 79.83685265289637 105.86919833188381 l -11.130175196166839 3.239831786692798 a32.592122752258646,32.592122752258646 0 0,0 -0.1517574718669715,-0.5385337303911732 l 11.184151160108385 -3.0482901323986296" fill="#ff7e0b" stroke="none" /><path d="M 79.73907114497094 105.5222062557868 l -7.445241386912562 2.0292336475208645 a28.716826323406956,28.716826323406956 0 0,0 -0.12554793973296735,-0.47672597661333127 l 7.478978807450262 -1.9011271665347307" fill="#ff4806" stroke="none" /><path d="M 79.56144815229197 104.8234425847677 l -8.119557085175972 1.916193363693816 a29.34260176842306,29.34260176842306 0 0,0 -0.11148671022661762,-0.49123101593702656 l 8.151254656960257 -1.7765280138177633" fill="#ff5107" stroke="none" /><path d="M 79.407916724674 104.11899336999214 l -17.14147490534056 3.4287750560714754 a38.48103716361126,38.48103716361126 0 0,0 -0.12400735531855649,-0.6488588835472593 l 17.19780855294127 -3.1340136074909015" fill="#ffce13" stroke="none" /><path d="M 79.34024301695615 103.76489593502545 l -11.16682566512777 2.0349676227209588 a32.35073075448796,32.35073075448796 0 0,0 -0.0948726503702252,-0.5472002359097227 l 11.20011313299023 -1.8429743538906433" fill="#ff7b0b" stroke="none" /><path d="M 79.2786578344484 103.40968896794605 l -8.39504843625847 1.3814020254957373 a29.50794392336771,29.50794392336771 0 0,0 -0.07795508090171983,-0.5005275405908397 l 8.417525009298458 -1.2370863029734476" fill="#ff5307" stroke="none" /><path d="M 79.22317932658666 103.0534771498775 l -8.534395905730868 1.25426230007866 a29.626070217263155,29.626070217263155 0 0,0 -0.06962900086391631,-0.5038007646033287 l 8.554669423149997 -1.1075732272752457" fill="#ff5507" stroke="none" /><path d="M 79.17382384314188 102.69636545807758 l -8.519777547333547 1.1030557753911163 a29.590887119481465,29.590887119481465 0 0,0 -0.06089792414427851,-0.5043221716908741 l 8.537457557737488 -0.956639926776843" fill="#ff5407" stroke="none" /><path d="M 79.0935383218832 101.97986365728391 l -11.903827898183968 1.1273048783212236 a32.95708722550228,32.95708722550228 0 0,0 -0.04850400821784954,-0.5636900986288027 l 11.921425529099558 -0.9227937323167589" fill="#ff830c" stroke="none" /><path d="M 79.06263194458094 101.62068470465958 l -16.837201612561955 1.30330589071753 a37.88756833848017,37.88756833848017 0 0,0 -0.04462801722770753,-0.648881575987433 l 16.85709359095473 -1.0140808905757535" fill="#ffc612" stroke="none" /><path d="M 79.03789590574601 101.26102812881392 l -8.488937325227921 0.5106733895947557 a29.504283874759118,29.504283874759118 0 0,0 -0.026073933949409645,-0.5058273529111127 l 8.496452848633902 -0.36487424330691226" fill="#ff5307" stroke="none" /><path d="M 79.01933749520258 100.90099992219065 l -8.504929145382812 0.3652382519605707 a29.512767983956643,29.512767983956643 0 0,0 -0.017391892447183938,-0.5063459723805803 l 8.509945724826846 -0.21918601501587043" fill="#ff5307" stroke="none" /><path d="M 79.00696218219943 100.54070618675478 l -8.482239179992874 0.21847239270282795 a29.48505225045665,29.48505225045665 0 0,0 -0.008689060127088435,-0.5060941912614635 l 8.484739671718627 -0.07283128547231213" fill="#ff5307" stroke="none" /><line stroke="#e1ed5e" stroke-width="0.3" x1="15.003131293944662" x2="10.003315487706104" y1="100.72959589197737" y2="100.7725132973878" /><path d="M 14.003168132696942 100.73817937305945 a86.0,86.0 0 0,1 10.791469493833604,-42.45332614584628" fill="none" id="id22" stroke="none" /><text fill="#e1ed5e" style="font-size:6.75px; font-family:Arial;" text-anchor="middle"><textPath startOffset="22.145653131862435" xlink:href="#id22">October</textPath></text><path d="M 79.00077361379809 100.18025310272382 l -13.241138240875069 0.11365924666067957 a34.24162604585689,34.24162604585689 0 0,0 0.0,-0.5878246987689894 l 13.241138240875069 0.1136592466606747" fill="#ff950d" stroke="none" /><path d="M 79.00077361379809 99.81974689727619 l -17.452952184473514 -0.14981260381138806 a38.45359515314193,38.45359515314193 0 0,0 0.011332033518210634,-0.6600341411917862 l 17.447808719356637 0.4493936609722266" fill="#ffcd13" stroke="none" /><path d="M 79.00696218219943 99.45929381324524 l -18.717603913651303 -0.4820990809036104 a39.72381146540796,39.72381146540796 0 0,0 0.02340926669345351,-0.6815352580296065 l 18.706569959960998 0.8033406034973555" fill="#ffde14" stroke="none" /><path d="M 79.01933749520258 99.09900007780938 l -11.427065630890588 -0.49072736582771553 a32.43759774953872,32.43759774953872 0 0,0 0.028666202670408075,-0.556116673568287 l 11.416957838763611 0.6868158327727145" fill="#ff7c0b" stroke="none" /><path d="M 79.03789590574601 98.7389718711861 l -15.054430115049273 -0.905637132273576 a36.0816459547443,36.0816459547443 0 0,0 0.04250080931261788,-0.617952439759966 l 15.036665344571592 1.163932996187867" fill="#ffae10" stroke="none" /><path d="M 79.06263194458094 98.37931529534042 l -8.725108067008517 -0.6753785458264775 a29.751208314349498,29.751208314349498 0 0,0 0.043785812826729865,-0.5088575162693331 l 8.712228631484043 0.8250571094714912" fill="#ff5608" stroke="none" /><path d="M 79.0935383218832 98.0201363427161 l -29.283914932477455 -2.773217190477164 a50.4149351071549,50.4149351071549 0 0,0 0.08898862036259095,-0.8608841780393413 l 29.231993919633197 3.275505890799418" fill="#9fff22" stroke="none" /><path d="M 79.13060592940154 97.66154086499901 l -13.686797683832967 -1.5336342284015245 a34.772453114267634,34.772453114267634 0 0,0 0.07156156567772126,-0.5926324208799875 l 13.658454031895578 1.7683603262049483" fill="#ff9c0e" stroke="none" /><path d="M 79.17382384314186 97.30363454192245 l -8.480415754654228 -1.0979596032782242 a29.5511967970699,29.5511967970699 0 0,0 0.0694530287757894,-0.5025275182340188 l 8.46031820932323 1.2433754297123099" fill="#ff5307" stroke="none" /><path d="M 79.22317932658666 96.9465228501225 l -15.179966784587204 -2.230932366468818 a36.343026129317806,36.343026129317806 0 0,0 0.09601223146830984,-0.6164674005541483 l 15.139433060980627 2.4911879489544164" fill="#ffb110" stroke="none" /><path d="M 79.2786578344484 96.59031103205396 l -13.911948009845363 -2.2892057509029526 a35.09903402359919,35.09903402359919 0 0,0 0.1029324007709349,-0.593686734425695 l 13.870600791582193 2.5276855182492404" fill="#ffa10e" stroke="none" /><path d="M 79.34024301695615 96.23510406497455 l -8.481636033694043 -1.545636623500853 a29.62131906264722,29.62131906264722 0 0,0 0.09545640421249965,-0.49946824287681735 l 8.453853337199385 1.6910074314109849" fill="#ff5407" stroke="none" /><path d="M 79.407916724674 95.88100663000787 l -8.355762291951038 -1.671386475161373 a29.521284893074707,29.521284893074707 0 0,0 0.10366510130577937,-0.4960750369372688 l 8.325839479820893 1.8145779633840509" fill="#ff5307" stroke="none" /><path d="M 79.48165901384962 95.52812308129327 l -8.325952956626793 -1.8146026951257381 a29.521401033698627,29.521401033698627 0 0,0 0.11216605495664607,-0.4942243341650433 l 8.293576040112486 1.9572613632297895" fill="#ff5307" stroke="none" /><path d="M 79.56144815229197 95.17655741523228 l -8.151995144195887 -1.9238486572982652 a29.375930902722494,29.375930902722494 0 0,0 0.12003910912613953,-0.4898005286810801 l 8.11776850855345 2.0635050105874626" fill="#ff5107" stroke="none" /><path d="M 79.64726062577567 94.8264132398404 l -8.929545359408795 -2.269855511646209 a30.213523992994745,30.213523992994745 0 0,0 0.13209139640551082,-0.5015725474075523 l 8.88926448219856 2.422808563426546" fill="#ff5d08" stroke="none" /><path d="M 79.73907114497095 94.47779374421319 l -8.425508748897725 -2.2964098760852596 a29.732851538686205,29.732851538686205 0 0,0 0.13844395516072955,-0.491288756366296 l 8.384846301662414 2.4407065563545687" fill="#ff5608" stroke="none" /><path d="M 79.83685265289637 94.1308016681162 l -8.131361170141338 -2.3669207289006744 a29.468845742849613,29.468845742849613 0 0,0 0.14555319646160636,-0.4844992524091221 l 8.089531653676103 2.50615758490052" fill="#ff5207" stroke="none" /><path d="M 79.94057633289273 93.78553927170692 l -8.120712351970228 -2.515817444936646 a29.501488488475967,29.501488488475967 0 0,0 0.15401924168704945,-0.4824630809114088 l 8.076328394505921 2.6548495595394463" fill="#ff5307" stroke="none" /><path d="M 80.05021161711548 93.44210830539832 l -13.364813941138847 -4.393279801387984 a35.06837442971088,35.06837442971088 0 0,0 0.19290040420907179,-0.5702757688885425 l 13.28742811535741 4.622057244750689" fill="#ffa00e" stroke="none" /><path d="M 80.28708602549916 92.7611449362534 l -8.034436696112708 -2.9503564433568075 a29.55901724304254,29.55901724304254 0 0,0 0.17900000047214362,-0.4748187677317364 l 7.982606011826128 3.087843491282689" fill="#ff5407" stroke="none" /><path d="M 80.41425534168474 92.42381321644754 l -7.917526088206959 -3.0626691787508022 a29.489238002076977,29.489238002076977 0 0,0 0.18668277972548689,-0.47056255512583584 l 7.8637846335153405 3.198132751090221" fill="#ff5307" stroke="none" /><path d="M 80.5471966667186 92.08871423366112 l -7.873950344413041 -3.2022670572131897 a29.50021225217318,29.50021225217318 0 0,0 0.19480557238403545,-0.46746245724313107 l 7.817818927492526 3.3369620238975846" fill="#ff5307" stroke="none" /><path d="M 80.68587082218212 91.75594674310238 l -9.313970246097677 -3.975580055153394 a31.126958009201296,31.126958009201296 0 0,0 0.2139846710670927,-0.48963880394919335 l 9.244351693013606 4.134880928878454" fill="#ff6a09" stroke="none" /><path d="M 80.83023694016515 91.42560881287825 l -10.59318670625685 -4.73819767381342 a32.60457331355823,32.60457331355823 0 0,0 0.23291392922887139,-0.5089589696368517 l 10.510288312172932 4.919345625664943" fill="#ff7e0b" stroke="none" /><path d="M 80.9802524753101 91.09779779509293 l -23.359800725410093 -10.933566244977062 a46.79192045513811,46.79192045513811 0 0,0 0.34675206584331875,-0.7245784541131347 l 23.16866940160687 11.332957201155283" fill="#c9ff1d" stroke="none" /><path d="M 81.1358732173502 90.77261029715801 l -11.403583801921888 -5.578064278391627 a33.694743976202275,33.694743976202275 0 0,0 0.2586153218282071,-0.5174038831925205 l 11.306148566881937 5.773000017747918" fill="#ff8d0d" stroke="none" /><path d="M 81.29705330413844 90.45014215332179 l -11.187486756261631 -5.712410451746315 a33.56150839233688,33.56150839233688 0 0,0 0.26640155438249497,-0.5108601068900376 l 11.087777132904195 5.9036168017408395" fill="#ff8c0c" stroke="none" /><path d="M 81.46374523516351 90.13048839642627 l -7.480645947176721 -3.983022617812983 a29.47493557267672,29.47493557267672 0 0,0 0.24163082041067743,-0.4445734941091593 l 7.411169777150692 4.110850945396762" fill="#ff5207" stroke="none" /><path d="M 81.63589988554816 89.8137432299009 l -7.410056637271059 -4.110233505469713 a29.47366265773253,29.47366265773253 0 0,0 0.24921614755375712,-0.4403410532974473 l 7.338407124695933 4.236831328866265" fill="#ff5207" stroke="none" /><line stroke="#e1ed5e" stroke-width="0.3" x1="26.387840678322718" x2="22.05771365940052" y1="57.49999999999999" y2="54.99999999999999" /><path d="M 25.521815274538284 56.99999999999999 a86.0,86.0 0 0,1 29.574782752854787,-30.34633250058573" fill="none" id="id23" stroke="none" /><text fill="#e1ed5e" style="font-size:6.75px; font-family:Arial;" text-anchor="middle"><textPath startOffset="21.40746469413373" xlink:href="#id23">November</textPath></text><path d="M 81.81346652052679 89.5 l -9.866691146498269 -5.696536789441674 a32.393073578883346,32.393073578883346 0 0,0 0.2821687984418191,-0.47918430774573556 l 9.76744863792667 5.865072265480983" fill="#ff7c0b" stroke="none" /><path d="M 81.99639281039701 89.18935116829357 l -12.120934105343876 -7.27827266753513 a35.138256491133454,35.138256491133454 0 0,0 0.3149593116578357,-0.5144623654818755 l 11.994206829230647 7.485272149141548" fill="#ffa10e" stroke="none" /><path d="M 82.18462484594161 88.88188828441811 l -11.951398743431808 -7.458556737530735 a35.08779615594535,35.08779615594535 0 0,0 0.3232794188577396,-0.5082489417286112 l 11.821601632948179 7.662619353938019" fill="#ffa00e" stroke="none" /><path d="M 82.37810715431573 88.57770195909679 l -16.653240700411423 -10.79442942326056 a40.84565777190549,40.84565777190549 0 0,0 0.3864301893088195,-0.5851045590602708 l 16.465486072181875 11.078713860659892" fill="#ffec16" stroke="none" /><path d="M 82.576782715395 88.27688183743585 l -7.110956759916511 -4.784569059988939 a29.57075300841214,29.57075300841214 0 0,0 0.28699156920065916,-0.4187292763107164 l 7.027775453900538 4.90593307136969" fill="#ff5407" stroke="none" /><path d="M 82.78059297857968 87.97951657250589 l -7.734516045322027 -5.399292892422267 a30.43266145865023,30.43266145865023 0 0,0 0.3027106423933744,-0.4258004280186145 l 7.640690304398681 5.531270547150402" fill="#ff6008" stroke="none" /><path d="M 82.98947788004972 87.6856937992154 l -11.405221966033533 -8.25650115777057 a35.08008875905122,35.08008875905122 0 0,0 0.35731238754197325,-0.4847628775316635 l 11.26180755890774 8.451070344571097" fill="#ffa00e" stroke="none" /><path d="M 83.2033758604659 87.39550010848427 l -11.306633686448292 -8.484708706365005 a35.13613268017082,35.13613268017082 0 0,0 0.3661653885939098,-0.47932224773630744 l 11.159316320500075 8.677551867342197" fill="#ffa10e" stroke="none" /><path d="M 83.42222388311158 87.10902102172516 l -6.756253629822339 -5.253703687384595 a29.558525897917587,29.558525897917587 0 0,0 0.3149159287673781,-0.39788598850584006 l 6.665071270413399 5.368909619805119" fill="#ff5407" stroke="none" /><path d="M 83.64595745247003 86.82634096563983 l -7.35061618248118 -5.921136073788839 a30.438824644333515,30.438824644333515 0 0,0 0.33128048529047643,-0.4041083266009461 l 7.247888877952073 6.046446682088278" fill="#ff6008" stroke="none" /><path d="M 83.8745106332314 86.54754324733833 l -6.5872184058787555 -5.495291876725128 a29.57844269883229,29.57844269883229 0 0,0 0.32861007069670806,-0.3871018370024522 l 6.491913771674933 5.607560496177137" fill="#ff5407" stroke="none" /><path d="M 84.10781606972428 86.27271002978789 l -6.419025956828316 -5.544601737702883 a29.482128427710435,29.482128427710435 0 0,0 0.3341152560355686,-0.3801618286768773 l 6.322899636834155 5.65397584419106" fill="#ff5207" stroke="none" /><path d="M 84.34580500576568 86.00192230759919 l -6.710124465997947 -6.000234674176111 a30.001587998479465,30.001587998479465 0 0,0 0.3465930584202953,-0.3809664853711815 l 6.606133706735786 6.114538735104951" fill="#ff5a08" stroke="none" /><path d="M 84.58840730492382 85.73525988315684 l -23.32500316834521 -21.589274710542377 a52.78289721423424,52.78289721423424 0 0,0 0.621189767856952,-0.6596820067974689 l 22.950957566751985 21.986498177284357" fill="#84ff25" stroke="none" /><path d="M 84.83555147118756 85.47280134310135 l -6.133848495421986 -5.87608810534782 a29.494263286866065,29.494263286866065 0 0,0 0.35338790158613415,-0.362607118802317 l 6.032073792685049 5.980517916217867" fill="#ff5307" stroke="none" /><path d="M 85.34317274990677 84.96080404539775 l -6.5635303324776455 -6.734760336585059 a30.40409098300274,30.40409098300274 0 0,0 0.3769057821490637,-0.36106721334508224 l 6.446952064463281 6.84643968023571" fill="#ff6008" stroke="none" /><path d="M 85.60350026404147 84.71141617570332 l -1.9635683141359193 -2.085241504253822 a23.864233345127683,23.864233345127683 0 0,0 0.30065550826369586,-0.278282249922763 l 1.9274830345582703 2.1186415003089505" fill="#ff0000" stroke="none" /><path d="M 85.86807049272753 84.46653392183569 l -9.696735723311045 -10.658411177996827 a35.409316865382074,35.409316865382074 0 0,0 0.45312961038192706,-0.4051912917393521 l 9.512341086105726 10.82329799961958" fill="#ffa50f" stroke="none" /><path d="M 86.40962598614128 83.9905735841838 l -13.175771284968448 -15.52102544368719 a41.359351162976296,41.359351162976296 0 0,0 0.5452061868724922,-0.454830392019015 l 12.907390763934046 15.744918019618087" fill="#fff316" stroke="none" /><path d="M 86.68645165197937 83.75963576809568 l -21.453046598744145 -26.169228633884035 a54.83876084699887,54.83876084699887 0 0,0 0.7331399934508503,-0.5905656824668832 l 21.00065583493805 26.53364261014432" fill="#6eff28" stroke="none" /><path d="M 88.12776184653039 82.6780497279521 l -5.330764455771125 -7.777744652795921 a30.429229107780145,30.429229107780145 0 0,0 0.43340454173734183,-0.2916139179110307 l 5.196463625936794 7.868108244764061" fill="#ff6008" stroke="none" /><path d="M 88.4268655584334 82.4767994020092 l -7.791661775377208 -11.797569013909245 a35.138338935668,35.138338935668 0 0,0 0.5061834469839015,-0.32810199480005653 l 7.587992696136281 11.929584850413207" fill="#ffa10e" stroke="none" /><path d="M 88.72937992617638 82.28071324371311 l -16.720860149008818 -26.287969415292512 a52.15516811224208,52.15516811224208 0 0,0 0.7595676798917756,-0.4740264096351816 l 16.267128340327346 26.57113162176923" fill="#8bff24" stroke="none" /><line stroke="#e1ed5e" stroke-width="0.3" x1="56.869717070023135" x2="54.33264160355391" y1="26.7553504044142" y2="22.446841604673864" /><path d="M 56.362301976729285 25.89364864446614 a86.0,86.0 0 0,1 42.16139366436587,-11.88097634709845" fill="none" id="id24" stroke="none" /><text fill="#e1ed5e" style="font-size:6.75px; font-family:Arial;" text-anchor="middle"><textPath startOffset="22.145653131862474" xlink:href="#id24">December</textPath></text><path d="M 89.34428304082924 81.90426304109057 l -7.1326082938607005 -12.112728220089982 a35.05675232788195,35.05675232788195 0 0,0 0.5211896251960577,-0.30090897040578246 l 6.923626200804243 12.23338408777194" fill="#ffa00e" stroke="none" /><path d="M 89.65649057296885 81.72400993836675 l -7.130846749104563 -12.599522941129166 a35.477463648832114,35.477463648832114 0 0,0 0.5325941240369012,-0.2954209826713244 l 6.91350843691156 12.720076839233636" fill="#ffa60f" stroke="none" /><path d="M 89.97174638481275 81.54914285379989 l -7.318941888491535 -13.466028725219449 a36.32647513277438,36.32647513277438 0 0,0 0.5504519366809594,-0.2930846519539741 l 7.086701136024014 13.589683844895998" fill="#ffb110" stroke="none" /><path d="M 90.61103034731259 81.2157712731953 l -12.55108790815749 -25.11058345678866 a49.072606028273285,49.072606028273285 0 0,0 0.7567457382979758,-0.37016226161407684 l 12.118181920597461 25.32233946849995" fill="#aeff20" stroke="none" /><path d="M 91.5904679813234 80.7573450057729 l -6.634110362201896 -15.180142796289338 a37.56647686183184,37.56647686183184 0 0,0 0.593129813181191,-0.2531718475682213 l 6.372545473850274 15.291789293516963" fill="#ffc212" stroke="none" /><path d="M 91.92203290615298 80.6158196554323 l -5.439860531746498 -13.053684964499176 a35.14180942302806,35.14180942302806 0 0,0 0.5588309753579023,-0.22727169269091205 l 5.214975095198155 13.14514391376938" fill="#ffa10e" stroke="none" /><path d="M 92.25597844496254 80.48000691201159 l -5.183246036417967 -13.065165958688047 a35.055767535147396,35.055767535147396 0 0,0 0.5612724478521616,-0.2171122403346722 l 4.958201326072276 13.15221808716076" fill="#ffa00e" stroke="none" /><path d="M 93.27111125876988 80.10723608172694 l -9.076326785098233 -26.832547382563785 a49.32605350110428,49.32605350110428 0 0,0 0.8044310364618222,-0.2644324597156459 l 8.614373010988649 26.98440076368146" fill="#abff21" stroke="none" /><path d="M 93.61358852112211 79.99465700312896 l -4.29107374849926 -13.441727400045304 a35.110044273927286,35.110044273927286 0 0,0 0.575736791715197,-0.1783647297810682 l 4.059696323912447 13.513408717633014" fill="#ffa10e" stroke="none" /><path d="M 93.95794788825049 79.88797359093562 l -7.229687285523197 -24.065277645150466 a46.127792708167476,46.127792708167476 0 0,0 0.760317790327052,-0.22131742777400396 l 6.815509482814521 24.18583876722699" fill="#d1ff1d" stroke="none" /><path d="M 94.30408787586887 79.78721728523814 l -2.478777228868328 -8.796305917914403 a30.13889130868138,30.13889130868138 0 0,0 0.4991841405889323,-0.13605485729078462 l 2.327411687344718 8.837561269349326" fill="#ff5c08" stroke="none" /><path d="M 94.6519064749342 79.69241777938228 l -3.614024083713788 -13.723038103827344 a35.19094587674692,35.19094587674692 0 0,0 0.5855014388441705,-0.1488321761686231 l 3.377917351644239 13.78305551183123" fill="#ffa20f" stroke="none" /><path d="M 95.35216902796891 79.52079915486377 l -13.943492916093277 -61.43760253540869 a84.0,84.0 0 0,0 1.4089503335235265,-0.3070741674651436 l 12.886780165950631 61.667908161007546" fill="#4dd2ff" stroke="none" /><path d="M 96.05791012581881 79.37332000966035 l -1.7687912315604053 -9.25506314355489 a30.42256951218897,30.42256951218897 0 0,0 0.5138013677191692,-0.09363172482251754 l 1.6096551302901976 9.28406304230877" fill="#ff6008" stroke="none" /><path d="M 97.48249496171623 79.15144685158666 l -1.021022481389663 -8.455530831226788 a29.516953008284705,29.516953008284705 0 0,0 0.5035649789049855,-0.05642550622233659 l 0.8757216008838782 8.471812097956096" fill="#ff5307" stroke="none" /><path d="M 98.1996594967304 79.07731436759882 l -1.3740953590529503 -15.969070947520185 a37.02808051460636,37.02808051460636 0 0,0 0.6337638190909123,-0.04905732780015676 l 1.099762545186821 15.990306042315394" fill="#ffba11" stroke="none" /></svg>