<?xml version="1.0" encoding="utf-8" ?>
<svg baseProfile="full" height="200mm" version="1.1" viewBox="0,0,200,200" width="200mm" xmlns="http://www.w3.org/2000/svg" xmlns:ev="http://www.w3.org/2001/xml-events" xmlns:xlink="http://www.w3.org/1999/xlink"><defs /><rect fill="#1a1a1a" height="200" width="200" x="0" y="0" /><rect fill="#1a1a1a" height="200" width="180" x="10" y="0" /><text alignment-baseline="middle" fill="#e1ed5e" style="dominant-baseline: central; font-size:9.0px; font-family:Arial;" text-anchor="middle" x="100.0" y="100.0">2022</text><line stroke="#e1ed5e" stroke-width="0.3" x1="100.0" x2="100.0" y1="15.0" y2="10.0" /><path d="M 100.0 14.0 a86.0,86.0 0 0,1 42.46469731375804,11.215312516191453" fill="none" id="id37" stroke="none" /><text fill="#e1ed5e" style="font-size:6.75px; font-family:Arial;" text-anchor="middle"><textPath startOffset="22.20632615414155" xlink:href="#id37">January</textPath></text><path d="M 100.0 79.0 l 0.0 -9.124413057778995 a30.124413057778995,30.124413057778995 0 0,0 0.5185422509490268,0.004463256863549472 l -0.15706177167649843 9.123061177524004" fill="#ff790b" stroke="none" /><path d="M 100.72285384407766 79.0124445844662 l 0.04303864509786779 -1.2495969363676067 a22.250337885673776,22.250337885673776 0 0,0 0.38266254808790773,0.01647825427271755 l -0.06454202557510703 1.2486709555706945" fill="#ff0c01" stroke="none" /><path d="M 101.08401301168833 79.027996857942 l 0.10804759741181175 -2.09035733702414 a23.093147887693824,23.093147887693824 0 0,0 0.3968040080780611,0.023936301392011014 l -0.1440136543294848 2.088187766251825" fill="#ff1802" stroke="none" /><path d="M 101.44485096284872 79.0497635885617 l 0.0394490580890465 -0.5720085423513828 a21.573367247675577,21.573367247675577 0 0,0 0.37025015259768695,0.028738537736461477 l -0.04928940004907461 0.5712447424264567" fill="#ff0200" stroke="none" /><path d="M 102.52436894288641 79.15227682838746 l 0.25086806858287247 -2.071816031943703 a23.0869490789316,23.0869490789316 0 0,0 0.3941110099279203,0.051166920150365065 l -0.2864938070186389 2.067190788629201" fill="#ff1802" stroke="none" /><path d="M 102.88285421437855 79.19881850522331 l 0.875905809476053 -6.320082238070513 a27.38048983096504,27.38048983096504 0 0,0 0.46629107117194524,0.0687191828793503 l -0.984565861076654 6.304068571030194" fill="#ff5407" stroke="none" /><path d="M 103.59715602781102 79.31037775812273 l 0.35912746958483227 -2.0655794813862833 a23.096566510591646,23.096566510591646 0 0,0 0.3911072255684637,0.07147234557816431 l -0.39462981625619686 2.0590916544573807" fill="#ff1802" stroke="none" /><path d="M 103.95276090670814 79.375362276772 l 0.4235856398178392 -2.2101767782560615 a23.250401338739877,23.250401338739877 0 0,0 0.3924153918009491,0.0787148359429326 l -0.4615674410859136 2.2025579862359206" fill="#ff1a02" stroke="none" /><path d="M 105.01212808612495 79.60689891045804 l 2.108049018148177 -8.577126519933419 a29.832381898551525,29.832381898551525 0 0,0 0.49761991468649314,0.1268543962231787 l -2.255377821519695 8.539569127541371" fill="#ff750a" stroke="none" /><path d="M 105.71112130821622 79.79150937346287 l 0.570647849307066 -2.0192062278882394 a23.098292820047153,23.098292820047153 0 0,0 0.3816825505926233,0.1114236029426614 l -0.6053206176231165 2.0090842960268747" fill="#ff1802" stroke="none" /><path d="M 106.0581310904928 79.89281104454417 l 0.6028417177771449 -2.0008567243781163 a23.089699922998904,23.089699922998904 0 0,0 0.37956676919711546,0.11793324282590179 l -0.6371938596849787 1.9901833466696939" fill="#ff1802" stroke="none" /><path d="M 106.40334571778207 80.00007090966166 l 0.6371933660608838 -1.9901818049058524 a23.08969830414113,23.08969830414113 0 0,0 0.37748047890722725,0.12444937900112209 l -0.6713566672105286 1.978918701645494" fill="#ff1802" stroke="none" /><path d="M 107.08798089147638 80.2323363322302 l 0.8455121010217 -2.358047954125478 a23.505051070722807,23.505051070722807 0 0,0 0.3796823217527334,0.13984020337245506 l -0.8859767485470099 2.3431444829466983" fill="#ff1e03" stroke="none" /><path d="M 107.76421540070413 80.48803036053334 l 0.575059739320048 -1.4451618863478204 a22.555373454042222,22.555373454042222 0 0,0 0.3595070153583724,0.14665193824825454 l -0.5998506242668078 1.4350490619159866" fill="#ff1001" stroke="none" /><path d="M 110.05341064243156 81.56283822128135 l 2.7884203494451585 -5.113742879735511 a26.824573313578043,26.824573313578043 0 0,0 0.4034874538419258,0.22454033121643444 l -2.8760318923591193 5.064987150958896" fill="#ff4c07" stroke="none" /><path d="M 110.36928655335952 81.73862282372117 l 1.0292271482204127 -1.812574573670106 a23.0844028180151,23.0844028180151 0 0,0 0.343851268121986,0.1991808485598934 l -1.060275148807727 1.794589567720163" fill="#ff1802" stroke="none" /><line stroke="#e1ed5e" stroke-width="0.3" x1="143.23703022742887" x2="145.7803849466894" y1="26.81831364943548" y2="22.513508569990506" /><path d="M 143.74570117128098 25.957352633546492 a86.0,86.0 0 0,1 28.547481713284135,27.462654790039103" fill="none" id="id38" stroke="none" /><text fill="#e1ed5e" style="font-size:6.75px; font-family:Arial;" text-anchor="middle"><textPath startOffset="19.985693538727396" xlink:href="#id38">February</textPath></text><path d="M 110.99172775467656 82.1063720568725 l 1.3985398158493505 -2.276707692092462 a23.67194901368812,23.67194901368812 0 0,0 0.345363419229254,0.2162665414376579 l -1.4375223874508678 2.25229680933186" fill="#ff2003" stroke="none" /><path d="M 111.2981086023043 82.29822771554956 l 1.1259466049185496 -1.7641227488867646 a23.092817438351325,23.092817438351325 0 0,0 0.33323262625544015,0.216743769585079 l -1.15614625695827 1.7444800551421575" fill="#ff1802" stroke="none" /><path d="M 111.60114157652 82.49532879139004 l 1.1518248189561728 -1.7379595458563988 a23.08499491524483,23.08499491524483 0 0,0 0.3293407669645811,0.22237235599999053 l -1.1815702803272956 1.7178752775577382" fill="#ff1802" stroke="none" /><path d="M 111.90073688211348 82.69761687909136 l 1.6655087448023307 -2.421469416495147 a23.938951090786368,23.938951090786368 0 0,0 0.33750371281008745,0.23644291926485286 l -1.7069435971960691 2.3924416544663583" fill="#ff2403" stroke="none" /><path d="M 112.19680574252982 82.90503203632743 l 1.231008799611845 -1.7253743674037263 a23.11950451106281,23.11950451106281 0 0,0 0.32197177989714426,0.2339261909128554 l -1.260525895862778 1.703928941674196" fill="#ff1802" stroke="none" /><path d="M 112.77801427241765 83.33499621200491 l 1.2739522125826568 -1.6614802578709154 a23.093674016469386,23.093674016469386 0 0,0 0.3133783464978256,0.2445967701665189 l -1.3023631142399128 1.6393050984811723" fill="#ff1802" stroke="none" /><path d="M 113.34407831869373 83.78471172551755 l 2.903820609279545 -3.5286279915554664 a25.569834749054433,25.569834749054433 0 0,0 0.3374517610429188,0.2826061452803254 l -2.964129907281581 3.4781206888813214" fill="#ff3b05" stroke="none" /><path d="M 113.89432698308785 84.25364557470407 l 1.972448917216684 -2.235364100333175 a23.98117550507977,23.98117550507977 0 0,0 0.3071748912094591,0.2757846502549623 l -2.010634796022133 2.2010804413089153" fill="#ff2503" stroke="none" /><path d="M 114.42810811169701 84.74124197986012 l 1.7154246984359025 -1.8141845190350583 a23.496787408873725,23.496787408873725 0 0,0 0.29149080196611216,0.28041392054354014 l -1.7463987440144328 1.784387511729216" fill="#ff1e03" stroke="none" /><path d="M 114.94478906791727 85.2469230424477 l 1.488998582547609 -1.4698976732411364 a23.092299201507398,23.092299201507398 0 0,0 0.2768169972514082,0.2852842485685964 l -1.5140798435021263 1.4440492291224258" fill="#ff1802" stroke="none" /><path d="M 115.68641384162765 86.03803664274999 l 4.746752924357115 -4.22492936020338 a27.35465903283578,27.35465903283578 0 0,0 0.31003006756517265,0.3544179613431968 l -4.818774855500136 4.142595842657236" fill="#ff5407" stroke="none" /><path d="M 115.9244219780498 86.31012108654704 l 1.8975930397424299 -1.6313194272855098 a23.502411320770037,23.502411320770037 0 0,0 0.2610887199331368,0.30904669277934355 l -1.9253923731626839 1.5984137848770597" fill="#ff1e03" stroke="none" /><path d="M 116.38621287248628 86.86637796730983 l 1.3137270488298538 -1.0529580353751897 a22.683626853874806,22.683626853874806 0 0,0 0.24157621824753703,0.30677726472531214 l -1.331657347671355 1.0301883766968392" fill="#ff1202" stroke="none" /><path d="M 116.60985879189232 87.15038557335679 l 3.010450551796855 -2.3289258100103214 a24.80614082153383,24.80614082153383 0 0,0 0.25836665846943924,0.3399802371464953 l -3.0500931504904076 2.2767607969827925" fill="#ff3004" stroke="none" /><path d="M 116.82858285166822 87.43820079747576 l 1.6837436096606118 -1.2568407761675127 a23.10110477599531,23.10110477599531 0 0,0 0.2351223706128679,0.3207066492801171 l -1.705128592787106 1.2276716832159018" fill="#ff1802" stroke="none" /><path d="M 117.04232023915458 87.72973835380427 l 1.6975734511677338 -1.2222320738702932 a23.091795129668967,23.091795129668967 0 0,0 0.2294745823636225,0.32457552295455444 l -1.7183606533352391 1.1928300505839458" fill="#ff1802" stroke="none" /><path d="M 117.45458315368197 88.32363383020206 l 8.017684203784903 -5.363486241574848 a30.646255473248914,30.646255473248914 0 0,0 0.28953905712253303,0.4409878481305315 l -8.10881989626536 5.224680329466643" fill="#ff800b" stroke="none" /><line stroke="#e1ed5e" stroke-width="0.3" x1="172.23445277983987" x2="176.4835382374775" y1="55.19839476539836" y2="52.563006222186495" /><path d="M 173.08426987136738 54.67131705675599 a86.0,86.0 0 0,1 12.851231095245387,41.99856678651699" fill="none" id="id39" stroke="none" /><text fill="#e1ed5e" style="font-size:6.75px; font-family:Arial;" text-anchor="middle"><textPath startOffset="22.20632615414155" xlink:href="#id39">March</textPath></text><path d="M 117.84615892207809 88.93136811851018 l 3.793214026186132 -2.3526457366473554 a25.463565235394256,25.463565235394256 0 0,0 0.22781912509708144,0.37447474065397884 l -3.8331489495694373 2.287003222786295" fill="#ff3a05" stroke="none" /><path d="M 118.03404312379186 89.2402003453031 l 3.816740916881827 -2.277213563127919 a25.444458666552507,25.444458666552507 0 0,0 0.22117332228184744,0.37805690216546356 l -3.855373913634002 2.21117724860856" fill="#ff3905" stroke="none" /><path d="M 118.21658344932153 89.55222093294921 l 1.816417634015596 -1.0417721954550638 a23.09395853072263,23.09395853072263 0 0,0 0.19480563266794979,0.34653748351965424 l -1.8340809079759786 1.0103512020006156" fill="#ff1802" stroke="none" /><path d="M 118.3937258080291 89.86733742301442 l 1.8236630954788193 -1.00461227885227 a23.08206458032217,23.08206458032217 0 0,0 0.18871445436941245,0.3496592231880368 l -1.8406856490666965 0.9730720723317745" fill="#ff1802" stroke="none" /><path d="M 118.73160827565052 90.50648371742162 l 7.830585947639178 -3.9686819253356598 a29.778867381835205,29.778867381835205 0 0,0 0.2277941366895326,0.4592190793794625 l -7.897740097282118 3.8333032574572474" fill="#ff750a" stroke="none" /><path d="M 119.04729006885535 91.15688171328212 l 1.8919886204957768 -0.8783968274587103 a23.08595348140246,23.08595348140246 0 0,0 0.16423752194349908,0.36187560909398325 l -1.9068284594026228 0.8456992095226642" fill="#ff1802" stroke="none" /><path d="M 119.196687751892 91.48605970444005 l 1.9064642329956822 -0.8455376711404788 a23.085555040033583,23.085555040033583 0 0,0 0.15798136798528334,0.3646427787843906 l -1.9207363108236464 0.8125957477694854" fill="#ff1802" stroke="none" /><path d="M 119.61058180528143 92.48833698450437 l 1.9928911937902833 -0.7633596607658925 a23.13408839600694,23.13408839600694 0 0,0 0.13924012487871779,0.37309430884027306 l -2.005735907170626 0.7289422148962862" fill="#ff1902" stroke="none" /><path d="M 119.7369772167798 92.82701384747503 l 2.1830345685032606 -0.7933776564855375 a23.322732880270717,23.322732880270717 0 0,0 0.13388017122916152,0.37849727256258575 l -2.196367820542232 0.7556827574963372" fill="#ff1b02" stroke="none" /><path d="M 119.85752413597 93.16781622104841 l 1.9651793250480791 -0.6761399968792562 a23.078243266553823,23.078243266553823 0 0,0 0.12601018228268984,0.376754406146507 l -1.9765268011025392 0.6422124878104352" fill="#ff1802" stroke="none" /><path d="M 120.08093135843002 93.85539295169968 l 2.066860854079785 -0.6324431643706181 a23.16145741255444,23.16145741255444 0 0,0 0.11337434458614509,0.3822419285387202 l -2.077441095777632 0.5967718490853681" fill="#ff1902" stroke="none" /><path d="M 120.28053869075195 94.5502522615342 l 2.019881733270118 -0.5427787730745459 a23.09153795397038,23.09153795397038 0 0,0 0.09984744518936363,0.3847529366508867 l -2.0289255103297843 0.5079294108748087" fill="#ff1802" stroke="none" /><path d="M 120.37134235888165 94.90015583598534 l 2.0232483788851394 -0.5065081748484213 a23.08568562680228,23.08568562680228 0 0,0 0.09318613926871804,0.3863167079298334 l -2.031667318414677 0.4716062352591817" fill="#ff1802" stroke="none" /><path d="M 120.45610955862082 95.25157060432595 l 2.029027811136352 -0.47099353253999765 a23.082975939865673,23.082975939865673 0 0,0 0.08651237005544501,0.38781799158750235 l -2.036834568193835 0.4359973714025314" fill="#ff1802" stroke="none" /><path d="M 120.6074358757038 95.95851677861258 l 4.078462151371401 -0.7998586749584272 a25.156155365247464,25.156155365247464 0 0,0 0.07967826015859736,0.42564445181096167 l -4.091626135439857 0.7295361456849028" fill="#ff3505" stroke="none" /><path d="M 120.67395015179393 96.31383870115 l 4.911386004338664 -0.8756991711782635 a25.988843705911822,25.988843705911822 0 0,0 0.07473418536389921,0.4410853924774029 l -4.925732051222786 0.7910279903850227" fill="#ff4106" stroke="none" /><path d="M 120.73433829027371 96.67025291283417 l 4.1131720374447545 -0.6605382057028654 a25.16587264937499,25.16587264937499 0 0,0 0.06500477512789073,0.42830024868164024 l -4.123932706011945 0.589638844629143" fill="#ff3505" stroke="none" /><path d="M 120.78858239683441 97.02765380044208 l 2.055977997691506 -0.2939632088017507 a23.0768870684562,23.0768870684562 0 0,0 0.05283947902580265,0.39371549327966643 l -2.060733475775145 0.25852937345741994" fill="#ff1802" stroke="none" /><path d="M 120.83666639777658 97.38593545837742 l 2.6060696819767846 -0.3269445418284411 a23.6264980336467,23.6264980336467 0 0,0 0.04715134249293019,0.4039639076398287 l -2.6113113774733034 0.2820368958637597" fill="#ff2003" stroke="none" /><path d="M 120.87857604477298 97.74499172005257 l 4.136449995586886 -0.44676078338073055 a25.16050643114005,25.16050643114005 0 0,0 0.04280026709576634,0.43099284872140503 l -4.14352738836488 0.3754924039548906" fill="#ff3505" stroke="none" /><path d="M 120.91429891909075 98.10471618934814 l 2.1649223103126882 -0.19618836959001695 a23.173793570248108,23.173793570248108 0 0,0 0.03258181985819281,0.39758072899335645 l -2.1679786139903756 0.1588937233888917" fill="#ff1902" stroke="none" /><line stroke="#e1ed5e" stroke-width="0.3" x1="184.98032266829074" x2="189.97916517819016" y1="98.17113171792111" y2="98.06355123074" /><path d="M 185.9800911702706 98.14961562048488 a86.0,86.0 0 0,1 -9.607161424134198,41.387399972396054" fill="none" id="id40" stroke="none" /><text fill="#e1ed5e" style="font-size:6.75px; font-family:Arial;" text-anchor="middle"><textPath startOffset="21.466115282336823" xlink:href="#id40">April</textPath></text><path d="M 120.99980553446 99.90962569577887 l 0.5626411760779226 -0.0024213702708227552 a21.562646386331892,21.562646386331892 0 0,0 -0.0015973841632716467,0.37117582350021655 l -0.562599494625148 -0.007263931433078519" fill="#ff0200" stroke="none" /><path d="M 120.9904718944345 100.63252640178507 l 0.41725199541849434 0.012573462122577553 a21.417441396642047,21.417441396642047 0 0,0 -0.014276119016063642,0.3684031972957728 l -0.4169737435512275 -0.01975390643235653" fill="#ff0000" stroke="none" /><path d="M 119.41010516605496 108.01547362559984 l 1.231091853765602 0.5083838650089387 a22.331931419634454,22.331931419634454 0 0,0 -0.1497824108826743,0.35404137431773847 l -1.2221584616906187 -0.5294997649928407" fill="#ff0d01" stroke="none" /><path d="M 119.12269723197855 108.67885076344098 l 4.082654031919446 1.852915654729708 a25.48345406666451,25.48345406666451 0 0,0 -0.1847251695020268,0.3978815811848081 l -4.0501542455775885 -1.9229173031933469" fill="#ff3a05" stroke="none" /><path d="M 118.97047184881838 109.00673069616215 l 1.8880751461102903 0.8964133581206425 a23.090068100798756,23.090068100798756 0 0,0 -0.17355676448835963,0.35757834066160255 l -1.8723651250072162 -0.9287806547475205" fill="#ff1802" stroke="none" /><path d="M 118.81262510543309 109.33194174019688 l 1.88177707858769 0.9334494238311638 a23.1005743977181,23.1005743977181 0 0,0 -0.17976793317982612,0.35469918675203665 l -1.8654304756215947 -0.9657028222858948" fill="#ff1802" stroke="none" /><line stroke="#e1ed5e" stroke-width="0.3" x1="174.80103733775053" x2="179.2010983576182" y1="140.37084112569926" y2="142.7455964860345" /><path d="M 175.68104954172406 140.8457921977663 a86.0,86.0 0 0,1 -30.038265399797805,32.042727171017184" fill="none" id="id41" stroke="none" /><text fill="#e1ed5e" style="font-size:6.75px; font-family:Arial;" text-anchor="middle"><textPath startOffset="22.206326154141568" xlink:href="#id41">May</textPath></text><path d="M 118.48025628344425 109.97397251340804 l 3.8411765331112155 2.0731200137479338 a25.364912799807865,25.364912799807865 0 0,0 -0.21067805545199292,0.38244186622324017 l -3.804922068207713 -2.138932398368979" fill="#ff3805" stroke="none" /><path d="M 118.30583269289576 110.29060199501025 l 3.6208178900252137 2.0354384543852237 a25.15371302503155,25.15371302503155 0 0,0 -0.2154211941384674,0.37560500988690954 l -3.5852446997343668 -2.0974633101304487" fill="#ff3505" stroke="none" /><path d="M 118.12598468904814 110.60418214915192 l 3.5914300713465557 2.101081916697819 a25.160879135236556,25.160879135236556 0 0,0 -0.22191790476625053,0.37194717308226893 l -3.5547312908820783 -2.162591183666192" fill="#ff3505" stroke="none" /><path d="M 117.94076556474637 110.91462005526583 l 2.4811859624497115 1.5094786211248568 a23.904274347903534,23.904274347903534 0 0,0 -0.2168861679216034,0.3496895607489024 l -2.4548351548601453 -1.5519645132390327" fill="#ff2403" stroke="none" /><path d="M 117.75023020441432 111.22182372390056 l 1.7768440274639774 1.1233336261806621 a23.102154402902556,23.102154402902556 0 0,0 -0.21539473702860878,0.33429741515817096 l -1.7572444270583183 -1.153752641260286" fill="#ff1802" stroke="none" /><path d="M 117.55443506779139 111.5257021239791 l 3.4829092031266398 2.286771055011437 a25.166530736147564,25.166530736147564 0 0,0 -0.24087592978815717,0.36007683255796685 l -3.4430301679277613 -2.3463848017752107" fill="#ff3505" stroke="none" /><path d="M 117.35343817320211 111.8261652097733 l 1.8092231522488469 1.2329644238962707 a23.189403956611734,23.189403956611734 0 0,0 -0.2276306045269863,0.32791886331384545 l -1.7877316405597246 -1.2639245493971358" fill="#ff1902" stroke="none" /><path d="M 117.14729908036423 112.12312394758627 l 1.8044594410272772 1.2757510882291818 a23.20989020393105,23.20989020393105 0 0,0 -0.23344751561017996,0.32423818128582677 l -1.7822321330414945 -1.3066228749661397" fill="#ff1a02" stroke="none" /><path d="M 116.93607887273984 112.41649034213515 l 3.6030332182041014 2.6415221310897197 a25.46760422827705,25.46760422827705 0 0,0 -0.26224202279206416,0.35131604450885584 l -3.557029928716945 -2.7031510551078903" fill="#ff3a05" stroke="none" /><path d="M 116.71984013943494 112.70617746262583 l 3.3146658699564178 2.5189674316107813 a25.16319669856827,25.16319669856827 0 0,0 -0.26504416984400514,0.3426053178370199 l -3.270814882894344 -2.575650743561054" fill="#ff3505" stroke="none" /><path d="M 116.498646956653 112.99209946851258 l 0.6897371052278323 0.5431435136340308 a21.87791921651755,21.87791921651755 0 0,0 -0.23553360268407247,0.29386438429538736 l -0.6802855904889059 -0.5549357315076685" fill="#ff0701" stroke="none" /><path d="M 116.27256486870786 113.27417163493432 l 1.6697842827184015 1.362108760416931 a23.154882787071713,23.154882787071713 0 0,0 -0.25459785988242845,0.3066795233368629 l -1.6460904229424296 -1.3906495408675645" fill="#ff1902" stroke="none" /><path d="M 116.0416608686014 113.55231037782055 l 3.1765686360473997 2.68362761467091 a25.158418626562785,25.158418626562785 0 0,0 -0.28232237127159815,0.32840469973438274 l -3.129903755205023 -2.737909413566821" fill="#ff3505" stroke="none" /><path d="M 115.56566222782051 114.09645910891815 l 3.302356847499702 2.9906558155061234 a25.45528707885909,25.45528707885909 0 0,0 -0.2969220954984105,0.32225029183745163 l -3.2503883440055694 -3.0470573621449097" fill="#ff3905" stroke="none" /><path d="M 115.32070863581623 114.36230785411682 l 1.5377020924716474 1.441509747686733 a23.107718690401438,23.107718690401438 0 0,0 -0.2745344964682387,0.28784832197249544 l -1.5126610446244442 -1.4677651862417356" fill="#ff1802" stroke="none" /><path d="M 115.07121518719521 114.62390073753431 l 1.5234496532072794 1.478233588361396 a23.122751372068144,23.122751372068144 0 0,0 -0.27963045168793726,0.28326417122791236 l -1.4977785764638065 -1.504238253569973" fill="#ff1902" stroke="none" /><path d="M 114.81725581225074 114.88116024355365 l 1.9448640768385816 1.953251961502696 a23.756390665796726,23.756390665796726 0 0,0 -0.2922602218994201,0.2860381397513273 l -1.9109539025633675 -1.9864402041765954" fill="#ff2203" stroke="none" /><path d="M 114.55890576462653 115.13401014063108 l 8.033615003488144 8.350958024889337 a32.58781558179683,32.58781558179683 0 0,0 -0.4076024470866144,0.3854135549823758 l -7.888676722010723 -8.488006216617634" fill="#ff9a0e" stroke="none" /><path d="M 114.0293411484842 115.62618273729858 l 2.774393545365335 3.0901793652472747 a25.152886713355528,25.152886713355528 0 0,0 -0.32466106143472867,0.2864756390218055 l -2.7207901310240183 -3.137478146041369" fill="#ff3505" stroke="none" /><path d="M 113.75828350139079 115.86535959552629 l 1.7617860705002006 2.031602963847152 a23.689107800167385,23.689107800167385 0 0,0 -0.31036625642447646,0.2645008569770759 l -1.726554337498677 -2.061628211047175" fill="#ff2103" stroke="none" /><path d="M 113.48314897796784 116.09983520530334 l 5.620224954514077 6.710946807178854 a29.75349847707343,29.75349847707343 0 0,0 -0.3954804859643445,0.32545351577425125 l -5.503874340005042 -6.806695441810284" fill="#ff740a" stroke="none" /><path d="M 112.92097659922987 116.55440617244103 l 1.2815792398621701 1.64196437598309 a23.082904789000985,23.082904789000985 0 0,0 -0.31532486889925404,0.24177766332975126 l -1.2531256424694224 -1.6637813811402127" fill="#ff1802" stroke="none" /><path d="M 112.34349029814194 116.9893568818739 l 2.484902403112407 3.4201747417792876 a25.22756847576699,25.22756847576699 0 0,0 -0.35351352320186635,0.25222251243834104 l -2.425661552061656 -3.462441516061848" fill="#ff3605" stroke="none" /><path d="M 112.04921762599082 117.19931262002967 l 2.389783849249836 3.411228910737337 a25.165038958711623,25.165038958711623 0 0,0 -0.35691588581186584,0.24549000079420555 l -2.3307110788150864 -3.4518597008966365" fill="#ff3505" stroke="none" /><path d="M 111.45004920935366 117.60387380957326 l 2.269737973645729 3.489607785808929 a25.162820314136525,25.162820314136525 0 0,0 -0.36512234578764635,0.2330383562475575 l -2.2093338258111523 -3.528160570880295" fill="#ff3505" stroke="none" /><path d="M 111.1453310114006 117.79835938074945 l 2.2085661193144 3.526934594180801 a25.161373803807194,25.161373803807194 0 0,0 -0.36905840427861625,0.22670581495822106 l -2.1475285151034753 -3.5644288759674" fill="#ff3505" stroke="none" /><line stroke="#e1ed5e" stroke-width="0.3" x1="143.8653032363475" x2="146.44561519142675" y1="172.8068346515853" y2="177.08958963109032" /><path d="M 144.38136562736335 173.6633856474863 a86.0,86.0 0 0,1 -40.68145358897372,12.25698825130547" fill="none" id="id42" stroke="none" /><text fill="#e1ed5e" style="font-size:6.75px; font-family:Arial;" text-anchor="middle"><textPath startOffset="21.466115282336833" xlink:href="#id42">June</textPath></text><path d="M 110.21172684928248 118.3499491758327 l 1.7435574317339562 3.1330832414217484 a24.5855547848879,24.5855547848879 0 0,0 -0.3715663926798577,0.20260762319986458 l -1.6893682271854498 -3.1626315163813836" fill="#ff2d04" stroke="none" /><path d="M 109.89434966115114 118.52300852407294 l 0.5078058924788722 0.95065296831912 a22.077779147418532,22.077779147418532 0 0,0 -0.3367482625204279,0.17617077524491137 l -0.49136672743194876 -0.9592531625087483" fill="#ff0a01" stroke="none" /><path d="M 109.57404056367764 118.69057910512821 l 0.9512755648090556 1.8570937815213786 a23.08655757494687,23.08655757494687 0 0,0 -0.35525385073338317,0.17813165570668324 l -0.919167806392912 -1.873193278137364" fill="#ff1802" stroke="none" /><path d="M 108.2653958097858 119.30500536409082 l 0.8198857714844725 1.9149596196845244 a23.083094578578944,23.083094578578944 0 0,0 -0.3666128973845478,0.1532442208399273 l -0.7868014146024637 -1.9287888835444251" fill="#ff1802" stroke="none" /><path d="M 107.2578585660854 119.70592522655815 l 0.26077972149325934 0.7080470975780595 a21.754544071297904,21.754544071297904 0 0,0 -0.35250694356576423,0.12639644836636257 l -0.2485532172977603 -0.7124310869843822" fill="#ff0500" stroke="none" /><path d="M 105.53697534728816 120.25689768951611 l 0.5499888776433054 2.0121217318131626 a23.085934234142137,23.085934234142137 0 0,0 -0.3842264119741862,0.10147768758189805 l -0.5152720228576217 -2.0212907686986443" fill="#ff1802" stroke="none" /><path d="M 105.18746579009965 120.34920634021253 l 1.434127260519479 5.625743421408467 a26.805661895329916,26.805661895329916 0 0,0 -0.4480971218399827,0.1101313703994581 l -1.3370768539362852 -5.649596050121954" fill="#ff4c07" stroke="none" /><path d="M 104.48393922423573 120.51570834832081 l 0.4451235946160849 2.036607855151361 a23.08468380579602,23.08468380579602 0 0,0 -0.388931344794933,0.08150434481041155 l -0.4100007883917739 -2.0439681806883137" fill="#ff1802" stroke="none" /><path d="M 104.13013068566511 120.58985236759428 l 0.4100263160172839 2.0440954430149927 a23.08481360317448,23.08481360317448 0 0,0 -0.39027887812869544,0.07479787586492315 l -0.37477982331688403 -2.0508505172283837" fill="#ff1802" stroke="none" /><path d="M 103.7750983002368 120.6578951692458 l 0.3746506119756724 2.050143453695426 a23.084094830324176,23.084094830324176 0 0,0 -0.3914963864979376,0.06806666502140789 l -0.33930525400568484 -2.0562886972378402" fill="#ff1802" stroke="none" /><path d="M 103.41894727170886 120.7198165907248 l 0.33961348906071837 2.0581566914768783 a23.08598808448731,23.08598808448731 0 0,0 -0.3926422379495226,0.061322642472249986 l -0.30413538750267866 -2.0636976412962342" fill="#ff1802" stroke="none" /><path d="M 103.06178313531738 120.77559828337769 l 1.2761433451188002 8.659215992267125 a29.75274605127018,29.75274605127018 0 0,0 -0.5073146521256562,0.07030918812297789 l -1.1269001018063136 -8.679899745882706" fill="#ff740a" stroke="none" /><path d="M 102.70371172650421 120.8252237178851 l 0.2788863158904329 2.148109897716197 a23.166137971103694,23.166137971103694 0 0,0 -0.39589007769701196,0.0479367750957087 l -0.24186881514204064 -2.152592201537257" fill="#ff1902" stroke="none" /><path d="M 101.98527174616119 120.90594882070398 l 0.1966444652357072 2.0707689685513757 a23.080084894138498,23.080084894138498 0 0,0 -0.39582970103007564,0.03415385216939426 l -0.16097044646408987 -2.0738470729994334" fill="#ff1802" stroke="none" /><path d="M 101.62511606390274 120.93702456842531 l 0.16112997393184697 2.0759023295967673 a23.082146332639606,23.082146332639606 0 0,0 -0.3963943585095184,0.027337675781433535 l -0.12537285464339828 -2.078368349894486" fill="#ff1802" stroke="none" /><path d="M 101.26447882468166 120.96189622390904 l 0.164552109959291 2.727862408657026 a23.73282101818911,23.73282101818911 0 0,0 -0.407991978941601,0.021088525060832627 l -0.11757206260421044 -2.7302907404800605" fill="#ff2103" stroke="none" /><line stroke="#e1ed5e" stroke-width="0.3" x1="102.19456741930631" x2="102.32365962044197" y1="184.97166512339345" y2="189.96999836594603" /><path d="M 102.22038585953345 185.97133177190398 a86.0,86.0 0 0,1 -42.740103519485714,-10.115201625700543" fill="none" id="id43" stroke="none" /><text fill="#e1ed5e" style="font-size:6.75px; font-family:Arial;" text-anchor="middle"><textPath startOffset="22.20632615414155" xlink:href="#id43">July</textPath></text><path d="M 100.18074693466247 120.99922214144158 l 0.039331072596732485 4.569493430482378 a25.569662694826963,25.569662694826963 0 0,0 -0.4401560145183727,0.0 l 0.039331072596729334 -4.569493430482378" fill="#ff3b05" stroke="none" /><path d="M 99.45781275523022 120.99299961872073 l -0.11052654428004659 4.279487804835323 a25.280914854178338,25.280914854178338 0 0,0 -0.43492762037432586,-0.01497978664301433 l 0.1841745163290155 -4.2769512197662145" fill="#ff3705" stroke="none" /><path d="M 98.73552117531835 120.96189622390904 l -0.2506103950922371 4.154493528888398 a25.162045416823783,25.162045416823783 0 0,0 -0.4321128853465955,-0.02980103451775367 l 0.32208604121776263 -4.149564149854359" fill="#ff3505" stroke="none" /><path d="M 98.01472825383883 120.90594882070398 l -0.04403180494697515 0.46367791335602315 a21.46576389639074,21.46576389639074 0 0,0 -0.36754233267155334,-0.03809726557133396 l 0.05200673422412181 -0.4628512793289285" fill="#ff0100" stroke="none" /><path d="M 92.7421414339146 119.70592522655815 l -0.6134834722050614 1.665678563577007 a22.775062547582124,22.775062547582124 0 0,0 -0.36671080339927103,-0.13865864764948832 l 0.6420644963646153 -1.6548716658208855" fill="#ff1402" stroke="none" /><path d="M 92.40401165467489 119.57807347666478 l -0.7527543730736459 1.9401662767145536 a23.081077684153552,23.081077684153552 0 0,0 -0.3691641683975132,-0.14689804128551615 l 0.7860396175130172 -1.926921391022971" fill="#ff1802" stroke="none" /><path d="M 92.06813273071674 119.44442032107085 l -0.7878367615848705 1.9313269645814142 a23.085835709499623,23.085835709499623 0 0,0 -0.3666564328795608,-0.15326241868037413 l 0.8209646539618936 -1.917479502881067" fill="#ff1802" stroke="none" /><path d="M 91.40352486487194 119.15986991738527 l -0.8528519043430116 1.9008409015497028 a23.08339926652233,23.08339926652233 0 0,0 -0.3611254964538791,-0.16577500333488152 l 0.8854453965643101 -1.885878827880747" fill="#ff1802" stroke="none" /><path d="M 91.07499286063937 119.00905698771935 l -1.7691375391403774 3.768023462112564 a25.16267323284286,25.16267323284286 0 0,0 -0.3904855450396611,-0.18745679138653318 l 1.8337357521802806 -3.7370123942264684" fill="#ff3505" stroke="none" /><path d="M 90.7491055286396 118.85261126421891 l -1.9704454579053219 4.0156162574592695 a25.47301120384813,25.47301120384813 0 0,0 -0.3919763823846088,-0.19654509542385953 l 2.0392757479726913 -3.981103321126108" fill="#ff3a05" stroke="none" /><path d="M 90.42595943632237 118.69057910512821 l -2.2841063966899693 4.459065219947683 a26.01003040581064,26.01003040581064 0 0,0 -0.39672616021636253,-0.20754837658891775 l 2.3605234594328275 -4.419087424414049" fill="#ff4106" stroke="none" /><path d="M 90.10565033884886 118.52300852407294 l -3.6157978066935716 6.769060715296889 a28.67425414918386,28.67425414918386 0 0,0 -0.433359721601521,-0.2363022730634566 l 3.7317803401637333 -6.705817790473667" fill="#ff6609" stroke="none" /><line stroke="#e1ed5e" stroke-width="0.3" x1="58.666819895761336" x2="56.23545636021788" y1="174.27360380694188" y2="178.64263932499728" /><path d="M 58.180547188652646 175.14741091055294 a86.0,86.0 0 0,1 -31.652253787137756,-30.449443065178592" fill="none" id="id44" stroke="none" /><text fill="#e1ed5e" style="font-size:6.75px; font-family:Arial;" text-anchor="middle"><textPath startOffset="22.20632615414155" xlink:href="#id44">August</textPath></text><path d="M 89.7882731507175 118.34994917583269 l -1.0153262542427555 1.8244891816267326 a23.087977053616157,23.087977053616157 0 0,0 -0.3456063836237672,-0.19624432439412562 l 1.04658140478773 -1.806741691437974" fill="#ff1802" stroke="none" /><path d="M 89.1626897886671 117.98757091392108 l -1.0743570119973802 1.7831982810607765 a23.08183551194758,23.08183551194758 0 0,0 -0.33855644959147346,-0.20796902312527568 l 1.1048926615211625 -1.7644407911071227" fill="#ff1802" stroke="none" /><path d="M 88.24862548938628 117.40417183066458 l -2.339179955208246 3.464402385144003 a25.180173052523006,25.180173052523006 0 0,0 -0.35713053274753326,-0.24563763691381024 l 2.3984673725786694 -3.423623958865092" fill="#ff3605" stroke="none" /><path d="M 87.95078237400918 117.19931262002967 l -1.498130942005067 2.1384643565325154 a23.611020130821096,23.611020130821096 0 0,0 -0.33086085648144986,-0.23606043619893055 l 1.5347191263354039 -2.1123596584893654" fill="#ff1f03" stroke="none" /><path d="M 87.65650970185807 116.9893568818739 l -1.5409970059670506 2.1210004185132583 a23.62170069758789,23.62170069758789 0 0,0 -0.326896249856825,-0.2418300306584909 l 1.5772782262424399 -2.094160439115001" fill="#ff2003" stroke="none" /><path d="M 86.51685102203217 116.09983520530335 l -0.6122791654179678 0.7311047055089108 a21.953624594283408,21.953624594283408 0 0,0 -0.28762857334068453,-0.24512331016957198 l 0.6247732153357088 -0.7204570051163873" fill="#ff0801" stroke="none" /><path d="M 86.24171649860922 115.8653595955263 l -2.715843924308241 3.131774429573277 a25.145337054924607,25.145337054924607 0 0,0 -0.3245636141656503,-0.28638965313684356 l 2.769349891380479 -3.0845616346641447" fill="#ff3505" stroke="none" /><path d="M 85.97065885151581 115.62618273729859 l -0.30984911478816807 0.34511662646347796 a21.463801638415113,21.463801638415113 0 0,0 -0.27279515844985985,-0.24919190933316698 l 0.3157438227048826 -0.339731950543735" fill="#ff0100" stroke="none" /><path d="M 85.44109423537348 115.13401014063109 l -1.4950569426610336 1.5541145259712745 a23.156494196985903,23.156494196985903 0 0,0 -0.28488006564766444,-0.2788151035419999 l 1.5215869606844923 -1.5281493195067049" fill="#ff1902" stroke="none" /><path d="M 85.18274418774928 114.88116024355367 l -1.7498253867235007 1.7573721010162748 a23.479968867839354,23.479968867839354 0 0,0 -0.28395039130438193,-0.28764024725189163 l 1.7798164030834158 -1.7269913597837185" fill="#ff1e03" stroke="none" /><path d="M 84.67929136418377 114.36230785411682 l -1.5224728991384184 1.4272332303127024 a23.086844129857276,23.086844129857276 0 0,0 -0.2692954951262504,-0.29226707345331004 l 1.5468148022603978 -1.4008149020580483" fill="#ff1802" stroke="none" /><path d="M 83.06392112726016 112.41649034213515 l -6.637767431151906 4.866402419446438 a29.230542447375818,29.230542447375818 0 0,0 -0.2940038687956352,-0.40834565945210033 l 6.720551092323149 -4.7514231545431995" fill="#ff6d0a" stroke="none" /><path d="M 82.44556493220864 111.52570212397912 l -1.7397447771902566 1.142262909413362 a23.081219941280175,23.081219941280175 0 0,0 -0.21519955294416238,-0.33399448512463725 l 1.7591491935114645 -1.1121468243672765" fill="#ff1802" stroke="none" /><path d="M 82.24976979558568 111.22182372390057 l -1.7657815278211755 1.116339834015289 a23.089066544896014,23.089066544896014 0 0,0 -0.20948969589820507,-0.33776409275921904 l 1.7847358633873365 -1.0857794098908058" fill="#ff1802" stroke="none" /><path d="M 82.05923443525364 110.91462005526583 l -7.5276076671244345 4.579569211539982 a29.811204875239,29.811204875239 0 0,0 -0.2629335838748747,-0.4406918104857786 l 7.6053221266975415 -4.449315307168093" fill="#ff750a" stroke="none" /><line stroke="#e1ed5e" stroke-width="0.3" x1="26.63291911575756" x2="22.317208475507996" y1="142.92168965132927" y2="145.44649492493687" /><path d="M 25.769776987707644 143.4266507060508 a86.0,86.0 0 0,1 -11.730757126820373,-40.83630448921669" fill="none" id="id45" stroke="none" /><text fill="#e1ed5e" style="font-size:6.75px; font-family:Arial;" text-anchor="middle"><textPath startOffset="21.46611528233685" xlink:href="#id45">September</textPath></text><path d="M 81.69416730710424 110.29060199501025 l -0.5662968669402326 0.31834310771149993 a21.64964180571584,21.64964180571584 0 0,0 -0.1798194408495957,-0.3264245172293636 l 0.5716927172413448 -0.30854807208431373" fill="#ff0300" stroke="none" /><path d="M 81.51974371655577 109.97397251340807 l -1.4760936665986524 0.7966619852052614 a22.67735590476316,22.67735590476316 0 0,0 -0.182442019057205,-0.34511154498620394 l 1.4895881938807434 -0.7711354251329313" fill="#ff1202" stroke="none" /><path d="M 81.18737489456691 109.33194174019688 l -1.2717148120784372 0.6308300128212329 a22.419579187060634,22.419579187060634 0 0,0 -0.16851702679742608,-0.34719498829728385 l 1.2823850954905822 -0.6088460685586642" fill="#ff0e01" stroke="none" /><path d="M 81.02952815118164 109.00673069616217 l -2.4905198898302867 1.182439852835504 a23.756964513230795,23.756964513230795 0 0,0 -0.17221014408329513,-0.37092532982178117 l 2.5105046507534086 -1.1393944557348956" fill="#ff2203" stroke="none" /><path d="M 80.87730276802145 108.67885076344099 l -0.7134083257009544 0.32378091422170546 a21.783444649987274,21.783444649987274 0 0,0 -0.15202657231992092,-0.34277978673845616 l 0.7188759827521551 -0.31145279099055345" fill="#ff0500" stroke="none" /><path d="M 80.73074385275274 108.34839909993369 l -1.2018148396838644 0.520685897225827 a22.309760555389502,22.309760555389502 0 0,0 -0.14963370876481868,-0.35368988643702237 l 1.2105995296409897 -0.4999214851226459" fill="#ff0d01" stroke="none" /><path d="M 80.45479744820244 107.68017299344265 l -53.62969737265563 21.073475821824687 a78.62148751547166,78.62148751547166 0 0,0 -0.48410514679133304,-1.2638457774163967 l 53.98449679904047 -20.147206477575132" fill="#46fffa" stroke="none" /><path d="M 80.32549172779594 107.34259656027581 l -59.02352481661217 22.027789680827432 a84.0,84.0 0 0,0 -0.4939029559791024,-1.3590088119755315 l 59.3939520335965 -21.008533071845783" fill="#4dd2ff" stroke="none" /><path d="M 80.0844068197444 106.66101706037122 l -0.6100542632279009 0.20404021202551462 a21.64327180274434,21.64327180274434 0 0,0 -0.1151295797013359,-0.35433241208870925 l 0.6134760939454862 -0.19350889995900195" fill="#ff0300" stroke="none" /><path d="M 79.67330655649465 105.27499134158121 l -6.168999571112701 1.60092045537466 a27.373343079799305,27.373343079799305 0 0,0 -0.11443189582504933,-0.457098540986175 l 6.195642781232808 -1.4944940749910933" fill="#ff5407" stroke="none" /><path d="M 79.50377843672027 104.57218783832718 l -4.366434336479013 0.9740408937552949 a25.47375731097369,25.47375731097369 0 0,0 -0.09178553972548235,-0.42879148461788874 l 4.382553914928936 -0.8987355897212425" fill="#ff3a05" stroke="none" /><path d="M 79.4281124754447 104.21870165774334 l -5.229502354149988 1.072420322359417 a26.338331220509808,26.338331220509808 0 0,0 -0.08725521277714116,-0.44491245011492253 l 5.247187499902795 -0.9822441451765397" fill="#ff4606" stroke="none" /><path d="M 79.35854240842038 103.8639653848113 l -4.770947900205457 0.8930947563825248 a25.853819332273588,25.853819332273588 0 0,0 -0.07811984836917236,-0.43813759629939597 l 4.785614190913818 -0.8108384093499151" fill="#ff3f05" stroke="none" /><path d="M 79.29508885075956 103.50808413554451 l -2.461160648319216 0.4170005156342736 a23.49623740194604,23.49623740194604 0 0,0 -0.06413157652334145,-0.399347388229224 l 2.4679739792038484 -0.3745738977118359" fill="#ff1e03" stroke="none" /><path d="M 79.18660465613746 102.79330883721812 l -4.117368171293514 0.5525807158775868 a25.154282862966927,25.154282862966927 0 0,0 -0.05390022689578019,-0.4296378412656538 l 4.126269907436143 -0.4816251203245244" fill="#ff3505" stroke="none" /><path d="M 79.1416061653843 102.43462659150553 l -1.3706312513671073 0.15998237055956635 a22.37993637031351,22.37993637031351 0 0,0 -0.04136845821183205,-0.3830205451178674 l 1.3731820110799913 -0.1363655035569169" fill="#ff0e01" stroke="none" /><path d="M 79.10278846688536 102.07522291339032 l -3.0828107524431863 0.3061422573522952 a24.0979743732181,24.0979743732181 0 0,0 -0.03743838775385395,-0.41312948917324843 l 3.0876237364741157 -0.2530313796304806" fill="#ff2603" stroke="none" /><path d="M 79.07016306316243 101.71520430193888 l -2.7570302027864337 0.2259391737578072 a23.766272591288676,23.766272591288676 0 0,0 -0.02990412902777767,-0.40801808164287195 l 2.7605108904785465 -0.1784479556181746" fill="#ff2203" stroke="none" /><path d="M 79.04373962182676 101.35467743843564 l -2.1879576295392966 0.14143634329324853 a23.192524304965257,23.192524304965257 0 0,0 -0.022324073730141048,-0.39861133291617895 l 2.1900680541569693 -0.10375329404163197" fill="#ff1a02" stroke="none" /><path d="M 79.0095281055655 100.63252640178507 l -3.101309813011846 0.09345479923989945 a24.102717575897707,24.102717575897707 0 0,0 -0.008927115544109592,-0.41480798090779475 l 3.102458991240963 -0.04005700254197587" fill="#ff2603" stroke="none" /><line stroke="#e1ed5e" stroke-width="0.3" x1="15.007084014347285" x2="10.007500721073583" y1="101.09737516637583" y2="101.16192664675087" /><path d="M 14.007167355692545 101.11028546245083 a86.0,86.0 0 0,1 10.666146001902534,-42.60595125391555" fill="none" id="id46" stroke="none" /><text fill="#e1ed5e" style="font-size:6.75px; font-family:Arial;" text-anchor="middle"><textPath startOffset="22.20632615414155" xlink:href="#id46">October</textPath></text><path d="M 79.00175016825051 100.2711162175752 l -8.793733752630917 0.11353916885834411 a29.794466695316167,29.794466695316167 0 0,0 -0.002207206314081693,-0.5128770148730027 l 8.794385256234502 0.037847324218333964" fill="#ff750a" stroke="none" /><path d="M 79.00019446554 99.90962569577889 l -3.978702292808515 -0.017122656246768512 a24.978739136982554,24.978739136982554 0 0,0 0.005551218940987503,-0.42994802463738335 l 3.977818066749812 0.08560693894462386" fill="#ff3304" stroke="none" /><path d="M 79.00486145842228 99.54816195383935 l -2.7472509049253704 -0.05912380519596572 a23.747887035333534,23.747887035333534 0 0,0 0.01231305952731128,-0.40861050102118823 l 2.7458261509424142 0.10640445364214833" fill="#ff2103" stroke="none" /><path d="M 79.01574976396665 99.18683210126434 l -5.01230291356516 -0.19423347425830315 a26.016064905865576,26.016064905865576 0 0,0 0.02119242850011712,-0.44733867080395096 l 5.008216876831543 0.28048325168526317" fill="#ff4106" stroke="none" /><path d="M 79.12142395522702 97.74499172005258 l -2.1775358882395612 -0.23518660694737378 a23.190199827563383,23.190199827563383 0 0,0 0.04628062326425784,-0.3965041170278259 l 2.1731649119717145 0.27263446230006144" fill="#ff1902" stroke="none" /><path d="M 79.16333360222342 97.38593545837743 l -1.4360139662429976 -0.1801551706385797 a22.447270533367124,22.447270533367124 0 0,0 0.05139783702264205,-0.38297358584847097 l 1.4327001301625215 0.20484709855171007" fill="#ff0f01" stroke="none" /><path d="M 79.21141760316559 97.0276538004421 l -8.704785733439422 -1.2446080400698432 a29.793312449725473,29.793312449725473 0 0,0 0.07695769596757487,-0.5070550625862675 l 8.682072144032546 1.3942622150482027" fill="#ff750a" stroke="none" /><path d="M 79.54389044137918 95.25157060432595 l -10.860404616619125 -2.521000602909622 a32.149162859899064,32.149162859899064 0 0,0 0.12977116712345999,-0.5379852675597978 l 10.815400649234851 2.7075711021288167" fill="#ff940d" stroke="none" /><path d="M 79.62865764111835 94.90015583598534 l -4.998977777141451 -1.2514642969356755 a26.15324574446618,26.15324574446618 0 0,0 0.11308622129022874,-0.43576734140417533 l 4.976695223980915 1.3373280638887146" fill="#ff4306" stroke="none" /><path d="M 79.71946130924805 94.55025226153421 l -0.4083533618540767 -0.10973193780468772 a21.422839882593752,21.422839882593752 0 0,0 0.09876258631779362,-0.3553015704653939 l 0.40640400496992235 0.11674481168902416" fill="#ff0000" stroke="none" /><path d="M 79.81627453868168 94.20196356495316 l -8.42490493808759 -2.4201630113555557 a29.76562674412653,29.76562674412653 0 0,0 0.14570147133667952,-0.4912329292659783 l 8.381997569639204 2.564825327368073" fill="#ff740a" stroke="none" /><path d="M 80.02781315780177 93.51064311812611 l -5.3086551283730525 -1.7248866117162314 a26.581850328993013,26.581850328993013 0 0,0 0.14514032834647816,-0.4339511079462821 l 5.278177506254802 1.8160108225848357" fill="#ff4906" stroke="none" /><path d="M 80.2630227832202 92.82701384747504 l -1.029348165322335 -0.37409477930120133 a22.095218950417163,22.095218950417163 0 0,0 0.13298734720879113,-0.3563399733703396 l 1.0227562296119164 0.3917578897008824" fill="#ff0a01" stroke="none" /><path d="M 80.38941819471856 92.48833698450439 l -4.653041993331366 -1.7823073174423656 a25.98271202915779,25.98271202915779 0 0,0 0.16357533913434447,-0.41628139608175985 l 4.62167310431533 1.8621377184198888" fill="#ff4106" stroke="none" /><path d="M 81.26839172434947 90.50648371742162 l -9.145759781839141 -4.63523570041265 a31.25330834343171,31.25330834343171 0 0,0 0.24733357281984064,-0.47776973799286787 l 9.064616775859186 4.791978160665854" fill="#ff880c" stroke="none" /><path d="M 81.43458229118936 90.18545643968196 l -4.539772380665458 -2.3999348941567273 a26.13509695764783,26.13509695764783 0 0,0 0.21367545113181383,-0.39590815927035294 l 4.497788830315173 2.4777240367595526" fill="#ff4306" stroke="none" /><path d="M 81.6062741919709 89.86733742301443 l -0.37857937489676796 -0.20855030157949825 a21.432221669269516,21.432221669269516 0 0,0 0.180788299944661,-0.3216022127009458 l 0.3749334336596763 0.21503602421522866" fill="#ff0000" stroke="none" /><line stroke="#e1ed5e" stroke-width="0.3" x1="26.266209847984243" x2="21.928928074336255" y1="57.711370442889674" y2="55.22380399835377" /><path d="M 25.398753493254645 57.213857153982495 a86.0,86.0 0 0,1 29.58750427330803,-30.492523968695096" fill="none" id="id47" stroke="none" /><text fill="#e1ed5e" style="font-size:6.75px; font-family:Arial;" text-anchor="middle"><textPath startOffset="21.46611528233685" xlink:href="#id47">November</textPath></text><path d="M 82.15384107792192 88.93136811851018 l -2.263044246226578 -1.403596359439391 a23.662978032318467,23.662978032318467 0 0,0 0.21766830221342565,-0.3442989809457977 l 2.23854834776719 1.442342988099404" fill="#ff2003" stroke="none" /><path d="M 82.34701348167596 88.62581576622439 l -1.2087006914128289 -0.7787908484125828 a22.437870838077274,22.437870838077274 0 0,0 0.21198805093709205,-0.3228723452413923 l 1.1951160051178165 0.7994812576316421" fill="#ff0f01" stroke="none" /><path d="M 82.7489923806493 88.02491185347247 l -8.124370163030077 -5.639673402507323 a30.889959890357588,30.889959890357588 0 0,0 0.3069688001848574,-0.4341855983546478 l 8.026088743041342 5.778685501193756" fill="#ff830c" stroke="none" /><path d="M 83.17141714833178 87.43820079747576 l -0.5228250700979243 -0.3902659901017592 a21.652421333919275,21.652421333919275 0 0,0 0.22551930943490192,-0.2967569761400199 l 0.5160298204389137 0.3992077421228057" fill="#ff0300" stroke="none" /><path d="M 84.5562425177563 85.77008943001954 l -1.5249849796188477 -1.4051243620918996 a23.073632961979353,23.073632961979353 0 0,0 0.2716455270981389,-0.28977250837165036 l 1.5005721305502528 1.4311662873416" fill="#ff1802" stroke="none" /><path d="M 84.80347519578584 85.50635884689758 l -1.860157988227072 -1.7741202489903258 a23.570542821865157,23.570542821865157 0 0,0 0.2825499024847335,-0.2911925113481355 l 1.8293438220392202 1.805876955888585" fill="#ff1f03" stroke="none" /><path d="M 85.05521093208273 85.24692304244772 l -1.4832658779819103 -1.464238507946241 a23.084243765239105,23.084243765239105 0 0,0 0.28158842061262684,-0.2803791904460109 l 1.4578416572019701 1.4895535490423613" fill="#ff1802" stroke="none" /><path d="M 85.83668400450813 84.49514656593479 l -3.5141417242271493 -3.8469982875491824 a26.210430681081988,26.210430681081988 0 0,0 0.3357294220756426,-0.3014211900031146 l 3.447401314555535 3.906918486321576" fill="#ff4406" stroke="none" /><path d="M 86.10567301691215 84.25364557470407 l -0.3384080778650386 -0.3835157716478187 a21.511472750268215,21.511472750268215 0 0,0 0.2797579337304379,-0.24260332335057783 l 0.3317563454878272 0.3892840884180771" fill="#ff0100" stroke="none" /><path d="M 86.37877921826538 84.01681056812374 l -0.3004665613044319 -0.3525685431744117 a21.463232913444454,21.463232913444454 0 0,0 0.2832558683072517,-0.23721864370464238 l 0.29435315603806983 0.3576883442728665" fill="#ff0100" stroke="none" /><path d="M 86.65592168130627 83.78471172551755 l -0.3190878277050112 -0.3877451096691138 a21.502158652083,21.502158652083 0 0,0 0.2878182724108311,-0.23272902653703365 l 0.31236615672967966 0.39318023347028175" fill="#ff0100" stroke="none" /><path d="M 86.93701828274178 83.55741782278169 l -0.32510647199053616 -0.4092166702635402 a21.522639934708124,21.522639934708124 0 0,0 0.29205960516273716,-0.22795715440220926 l 0.31801431166837335 0.41475221388897116" fill="#ff0200" stroke="none" /><path d="M 87.22198572758235 83.33499621200491 l -0.6604009139188899 -0.8612906119388312 a22.085334457814213,22.085334457814213 0 0,0 0.30367739382029607,-0.2287235171328242 l 0.6454773663402039 0.8725307185775097" fill="#ff0a01" stroke="none" /><path d="M 87.51073957382395 83.11751280151077 l -0.3567196590322672 -0.48219949553134633 a21.599804358629363,21.599804358629363 0 0,0 0.3008078071677694,-0.21854966466342093 l 0.3483665355107161 0.48826839501143515" fill="#ff0300" stroke="none" /><path d="M 87.80319425747018 82.90503203632743 l -0.2904899033306445 -0.40714886307418496 a21.50015455675186,21.50015455675186 0 0,0 0.30312029801869983,-0.2123551399042011 l 0.28343846572828435 0.4120888457423286" fill="#ff0100" stroke="none" /><path d="M 88.09926311788651 82.69761687909137 l -5.458215797345927 -7.935654894128127 a30.631549111596552,30.631549111596552 0 0,0 0.43700325318523153,-0.29506654729116094 l 5.320807849754156 8.028433353717952" fill="#ff800b" stroke="none" /><line stroke="#e1ed5e" stroke-width="0.3" x1="56.762969772571076" x2="54.21961505331055" y1="26.818313649435495" y2="22.513508569990535" /><path d="M 56.25429882871897 25.957352633546506 a86.0,86.0 0 0,1 42.265352541879196,-11.944610805530505" fill="none" id="id48" stroke="none" /><text fill="#e1ed5e" style="font-size:6.75px; font-family:Arial;" text-anchor="middle"><textPath startOffset="22.20632615414155" xlink:href="#id48">December</textPath></text><path d="M 90.26544431104013 81.39251694778311 l -1.186359169397235 -2.267710909850459 a23.55928912971311,23.55928912971311 0 0,0 0.36095019987377314,-0.18489271175716976 l 1.1471484819346982 2.287796146920134" fill="#ff1f03" stroke="none" /><path d="M 91.56875222667455 80.76684994638697 l -0.837082461103673 -1.9095314257743112 a23.08495019429891,23.08495019429891 0 0,0 0.3653097095317765,-0.1564065528857343 l 0.8040889937815883 1.9236575066228319" fill="#ff1802" stroke="none" /><path d="M 91.90106846888425 80.62456947434976 l -0.8584826283521005 -2.0537857937443524 a23.225989332806527,23.225989332806527 0 0,0 0.3701958702123121,-0.15101219052433798 l 0.8230028885514079 2.0682588704522673" fill="#ff1a02" stroke="none" /><path d="M 92.91201910852362 80.23233633223022 l -1.402284303383573 -3.910829459093736 a25.15463455981767,25.15463455981767 0 0,0 0.4088442598322567,-0.14263773438799685 l 1.334758039488031 3.9343880466539427" fill="#ff3505" stroke="none" /><path d="M 93.25333710446033 80.11325718540243 l -0.6688062825403106 -1.9714010822238266 a23.081759849396338,23.081759849396338 0 0,0 0.37735069757967726,-0.12440659213790087 l 0.634772762718224 1.9826213986209613" fill="#ff1802" stroke="none" /><path d="M 93.94186890950719 79.89281104454417 l -1.199636045399396 -3.9816419094125695 a25.158437078544303,25.158437078544303 0 0,0 0.4157249415735554,-0.12136151037382412 l 1.1309208861024194 4.001701748705092" fill="#ff3505" stroke="none" /><path d="M 97.47563105711357 79.15227682838746 l -0.09245580225134342 -0.7635543831170002 a21.769131569594645,21.769131569594645 0 0,0 0.3723903283560072,-0.04184239236094198 l 0.07929877038561822 0.7650327289485407" fill="#ff0500" stroke="none" /><path d="M 98.19473922651362 79.07773832637324 l -0.13936063080298836 -1.6151348478208152 a22.621136009736066,22.621136009736066 0 0,0 0.38823234979418375,-0.03013430232721443 l 0.11153809164647041 1.6172944123364916" fill="#ff1101" stroke="none" /><path d="M 99.27714615592234 79.0124445844662 l -0.05331420792448416 -1.5479407108613046 a22.548858563300218,22.548858563300218 0 0,0 0.38802651864450316,-0.010021580186848317 l 0.026661054085102 1.5486290831905125" fill="#ff1001" stroke="none" /><path d="M 99.63851952072746 79.00311137660856 l -0.03741729271471175 -2.173413981581269 a23.173736044032726,23.173736044032726 0 0,0 0.39889777198724696,-0.003433439060015284 l 5.324117777031816e-16 2.173736044032726" fill="#ff1902" stroke="none" /></svg>