<?xml version="1.0" encoding="utf-8" ?>
<svg baseProfile="full" height="200mm" version="1.1" viewBox="0,0,200,200" width="200mm" xmlns="http://www.w3.org/2000/svg" xmlns:ev="http://www.w3.org/2001/xml-events" xmlns:xlink="http://www.w3.org/1999/xlink"><defs /><rect fill="#1a1a1a" height="200" width="200" x="0" y="0" /><rect fill="#1a1a1a" height="200" width="180" x="10" y="0" /><text alignment-baseline="middle" fill="#e1ed5e" style="dominant-baseline: central; font-size:9.0px; font-family:Arial;" text-anchor="middle" x="100.0" y="100.0">2023</text><line stroke="#e1ed5e" stroke-width="0.3" x1="100.0" x2="100.0" y1="15.0" y2="10.0" /><path d="M 100.0 14.0 a86.0,86.0 0 0,1 42.46469731375804,11.215312516191453" fill="none" id="id49" stroke="none" /><text fill="#e1ed5e" style="font-size:6.75px; font-family:Arial;" text-anchor="middle"><textPath startOffset="22.20632615414155" xlink:href="#id49">January</textPath></text><path d="M 100.36148047927253 79.00311137660856 l 0.04153224200407768 -2.4124341690437507 a23.412791650162877,23.412791650162877 0 0,0 0.40289329990956485,0.010405545285647463 l -0.08305217710851036 2.4113618316157437" fill="#ff1502" stroke="none" /><path d="M 100.72285384407766 79.0124445844662 l 0.3364416874408154 -9.768348909134664 a30.774141057895594,30.774141057895594 0 0,0 0.5292553889715652,0.022790850367399928 l -0.5045379088017121 9.761110332243069" fill="#ff7c0b" stroke="none" /><path d="M 102.88285421437855 79.19881850522331 l 0.25492854072415116 -1.8394321909700635 a22.857013555699762,22.857013555699762 0 0,0 0.3892560505848067,0.05736622333299434 l -0.2865535717376137 1.8347714834761002" fill="#ff0d01" stroke="none" /><path d="M 103.2404852339499 79.25152402106235 l 0.7411413268680507 -4.745447643585051 a25.802974474676983,25.802974474676983 0 0,0 0.43824606618387524,0.07231435595753408 l -0.822716599190801 4.731987024687891" fill="#ff3805" stroke="none" /><path d="M 105.36241919743992 79.69619591428918 l 0.2613697998425557 -0.9896281910332979 a22.023561492416345,22.023561492416345 0 0,0 0.3656982085341419,0.09995913472223986 l -0.2783658976004085 0.9849825154847645" fill="#ff0100" stroke="none" /><path d="M 106.74666289553966 80.11325718540242 l 0.3400501100487635 -1.0023457800279565 a22.058456961847778,22.058456961847778 0 0,0 0.3585213487464006,0.12508105882640067 l -0.3572534628584378 0.9963438680293483" fill="#ff0200" stroke="none" /><path d="M 107.76421540070413 80.48803036053334 l 1.1082546937971118 -2.7851148921247812 a23.9975145418594,23.9975145418594 0 0,0 0.3824931050927418,0.1560285413972453 l -1.156031668478241 2.7656254645439566" fill="#ff1e03" stroke="none" /><path d="M 108.09893153111575 80.62456947434976 l 3.585483000464213 -8.577708863137378 a30.2969230225577,30.2969230225577 0 0,0 0.47943617187487897,0.20526954804402378 l -3.7326029301294077 8.514719787130563" fill="#ff760a" stroke="none" /><path d="M 109.41281617654863 81.2277094730956 l 2.530353627914841 -5.046367903940185 a26.645220855220764,26.645220855220764 0 0,0 0.4082295412404119,0.20911102674474422 l -2.6168436567440083 5.0020643518829395" fill="#ff4306" stroke="none" /><path d="M 109.73455568895987 81.39251694778311 l 2.1807741752785743 -4.168522920181082 a25.704504154492476,25.704504154492476 0 0,0 0.39028611791397766,0.20847732772543384 l -2.252205339720863 4.130366865953894" fill="#ff3605" stroke="none" /><path d="M 110.05341064243156 81.56283822128135 l 2.727392182956033 -5.001822038278026 a26.69709503363367,26.69709503363367 0 0,0 0.40156996251807064,0.22347324937073285 l -2.8130862345461387 4.954133391347113" fill="#ff4406" stroke="none" /><path d="M 110.36928655335952 81.73862282372117 l 2.0291653150645876 -3.573568247027721 a25.109489249532835,25.109489249532835 0 0,0 0.37401572778002773,0.21665405057498072 l -2.0903777753099435 3.5381100390626905" fill="#ff2e04" stroke="none" /><line stroke="#e1ed5e" stroke-width="0.3" x1="143.23703022742887" x2="145.7803849466894" y1="26.81831364943548" y2="22.513508569990506" /><path d="M 143.74570117128098 25.957352633546492 a86.0,86.0 0 0,1 28.547481713284135,27.462654790039103" fill="none" id="id50" stroke="none" /><text fill="#e1ed5e" style="font-size:6.75px; font-family:Arial;" text-anchor="middle"><textPath startOffset="19.985693538727396" xlink:href="#id50">February</textPath></text><path d="M 110.68208982089419 81.91981866633111 l 0.47379325793909455 -0.801928102257008 a21.93143369729577,21.93143369729577 0 0,0 0.32337161023407335,0.1948277769363866 l -0.4875269343908054 0.7936537158620068" fill="#ff0000" stroke="none" /><path d="M 110.99172775467656 82.1063720568725 l 2.435557453315744 -3.964887038364011 a25.65319990279687,25.65319990279687 0 0,0 0.37426900621822284,0.23436721735834654 l -2.50344561190623 3.9223754796827204" fill="#ff3505" stroke="none" /><path d="M 112.77801427241765 83.33499621200491 l 2.8261074275480853 -3.685791076868078 a25.64456015725524,25.64456015725524 0 0,0 0.3479935610511097,0.2716144941827924 l -2.8891335437586254 3.6365981934620617" fill="#ff3505" stroke="none" /><path d="M 113.34407831869373 83.78471172551755 l 0.6544642193501558 -0.7952835503992867 a22.029951134736645,22.029951134736645 0 0,0 0.29073499610243814,0.2434821981449091 l -0.6680567524117113 0.7839001948605582" fill="#ff0100" stroke="none" /><path d="M 113.89432698308785 84.25364557470407 l 4.3226487860857095 -4.8988310066857235 a27.533286903229776,27.533286903229776 0 0,0 0.35267388820647805,0.31663409899853867 l -4.406333661888177 4.823697898917887" fill="#ff5007" stroke="none" /><path d="M 114.42810811169701 84.74124197986012 l 3.195871017847602 -3.379862567385423 a25.651565600647963,25.651565600647963 0 0,0 0.3182220317401942,0.3061293424070815 l -3.2535762932002146 3.324350138216039" fill="#ff3505" stroke="none" /><path d="M 114.94478906791727 85.2469230424477 l 3.296268087061833 -3.2539834814760686 a25.631823809203173,25.631823809203173 0 0,0 0.30725933520199716,0.31665775378373134 l -3.351791685966939 3.196761532142223" fill="#ff3505" stroke="none" /><path d="M 115.68641384162765 86.03803664274999 l 0.9239923672444649 -0.8224153528074526 a22.236983794259018,22.236983794259018 0 0,0 0.25202776535815136,0.2881113032088109 l -0.9380119961804644 0.8063884933956939" fill="#ff0400" stroke="none" /><path d="M 115.9244219780498 86.31012108654704 l 1.633665026566956 -1.4044262598461639 a23.154361747333418,23.154361747333418 0 0,0 0.2572222308158464,0.30446998921791835 l -1.6575978708699195 1.376097320999139" fill="#ff1202" stroke="none" /><path d="M 116.15771136456269 86.58626213691792 l 0.8604419487638622 -0.7143179183427824 a22.118306950554327,22.118306950554327 0 0,0 0.24066983290088145,0.2950327580151162 l -0.8726102737411524 0.6994009907195653" fill="#ff0300" stroke="none" /><path d="M 116.38621287248628 86.86637796730983 l 3.6451338504324204 -2.921590890017535 a25.6714766526444,25.6714766526444 0 0,0 0.2733962380233925,0.3471854584670478 l -3.694884169049777 2.858413037597449" fill="#ff3605" stroke="none" /><path d="M 116.82858285166822 87.43820079747576 l 3.7148712897739706 -2.7729885289025957 a25.635702113058205,25.635702113058205 0 0,0 0.2609194283820937,0.3558938070860245 l -3.7620533306696906 2.7086322781450773" fill="#ff3505" stroke="none" /><path d="M 117.2510076193507 88.02491185347247 l 16.612381254802493 -11.531774504976369 a41.22258722786321,41.22258722786321 0 0,0 0.39961477244902377,0.5863853686959711 l -16.80842049292025 11.24411111300999" fill="#fcff18" stroke="none" /><line stroke="#e1ed5e" stroke-width="0.3" x1="172.23445277983987" x2="176.4835382374775" y1="55.19839476539836" y2="52.563006222186495" /><path d="M 173.08426987136738 54.67131705675599 a86.0,86.0 0 0,1 12.851231095245387,41.99856678651699" fill="none" id="id51" stroke="none" /><text fill="#e1ed5e" style="font-size:6.75px; font-family:Arial;" text-anchor="middle"><textPath startOffset="22.20632615414155" xlink:href="#id51">March</textPath></text><path d="M 117.84615892207809 88.93136811851018 l 7.891805724567718 -4.894694305193518 a30.2864756466387,30.2864756466387 0 0,0 0.2709690618853539,0.4454018912219489 l -7.9748905847392955 4.758124640764487" fill="#ff750a" stroke="none" /><path d="M 118.3937258080291 89.86733742301442 l 1.614630696510615 -0.8894613415974543 a22.84341361726301,22.84341361726301 0 0,0 0.18676329068031858,0.34604401320255385 l -1.6297020864093983 0.8615363450624417" fill="#ff0d01" stroke="none" /><path d="M 118.56541770881063 90.18545643968196 l 19.465545173911877 -10.290392816964843 a43.01816598277535,43.01816598277535 0 0,0 0.34043873281379217,0.6576192723239528 l -19.639793339885784 9.953800822380545" fill="#e7ff1a" stroke="none" /><path d="M 118.89224826269711 90.83032412892265 l 8.373071882794934 -4.0640136707318355 a30.307230515590895,30.307230515590895 0 0,0 0.22375655994245025,0.4712883802760316 l -8.44178663657914 3.9192828748152637" fill="#ff760a" stroke="none" /><path d="M 119.47837535516314 92.15188598940014 l 2.79029104056916 -1.1242478805265155 a24.008264846709626,24.008264846709626 0 0,0 0.15114511756587815,0.3846478380190958 l -2.8092297080167388 1.0760510376116352" fill="#ff1e03" stroke="none" /><path d="M 119.61058180528143 92.48833698450437 l 19.884379283813278 -7.616538761337594 a42.293196148194866,42.293196148194866 0 0,0 0.25455552051107466,0.6820822379273201 l -20.01253939282598 7.273133386380941" fill="#f0ff19" stroke="none" /><path d="M 120.28053869075195 94.5502522615342 l 1.4773637778976516 -0.39699438117787456 a22.529773928046502,22.529773928046502 0 0,0 0.09741838641902104,0.37539278233332324 l -1.4839784961869753 0.3715051732957009" fill="#ff0901" stroke="none" /><path d="M 120.6074358757038 95.95851677861258 l 3.408932774726803 -0.6685521039587146 a24.473871698597144,24.473871698597144 0 0,0 0.07751723138834149,0.4141001497085767 l -3.4199357300250037 0.6097738767875751" fill="#ff2503" stroke="none" /><path d="M 120.78858239683441 97.02765380044208 l 7.577944739279469 -1.083492602635911 a28.655011606231575,28.655011606231575 0 0,0 0.06561179071770257,0.48888405078271113 l -7.595472529055008 0.9528902097885356" fill="#ff5f08" stroke="none" /><path d="M 120.83666639777658 97.38593545837742 l 11.670994241410394 -1.464184895488258 a32.76248035030072,32.76248035030072 0 0,0 0.06538399934323609,0.5601701770373546 l -11.69446859375722 1.2630709801260507" fill="#ff970d" stroke="none" /><path d="M 120.87857604477298 97.74499172005257 l 2.2219400199603743 -0.23998251278307806 a23.234862201287406,23.234862201287406 0 0,0 0.039524574390825025,0.3980070702149379 l -2.225741720033428 0.2016999118637052" fill="#ff1302" stroke="none" /><path d="M 120.94382443527127 98.46500227214037 l 4.631202320176038 -0.3394263096837502 a25.643624139625153,25.643624139625153 0 0,0 0.028475912354331542,0.44050976038437295 l -4.636358823534785 0.259657485046342" fill="#ff3505" stroke="none" /><line stroke="#e1ed5e" stroke-width="0.3" x1="184.98032266829074" x2="189.97916517819016" y1="98.17113171792111" y2="98.06355123074" /><path d="M 185.9800911702706 98.14961562048488 a86.0,86.0 0 0,1 -9.607161424134198,41.387399972396054" fill="none" id="id52" stroke="none" /><text fill="#e1ed5e" style="font-size:6.75px; font-family:Arial;" text-anchor="middle"><textPath startOffset="21.466115282336823" xlink:href="#id52">April</textPath></text><path d="M 120.99980553446 99.90962569577887 l 62.99941660337998 -0.27112291266339017 a84.0,84.0 0 0,0 -0.006222810841987947,1.4459620871852612 l -62.994749495248485 -0.8133486527255557" fill="#4dd2ff" stroke="none" /><line stroke="#e1ed5e" stroke-width="0.3" x1="174.80103733775053" x2="179.2010983576182" y1="140.37084112569926" y2="142.7455964860345" /><path d="M 175.68104954172406 140.8457921977663 a86.0,86.0 0 0,1 -30.038265399797805,32.042727171017184" fill="none" id="id53" stroke="none" /><text fill="#e1ed5e" style="font-size:6.75px; font-family:Arial;" text-anchor="middle"><textPath startOffset="22.206326154141568" xlink:href="#id53">May</textPath></text><line stroke="#e1ed5e" stroke-width="0.3" x1="143.8653032363475" x2="146.44561519142675" y1="172.8068346515853" y2="177.08958963109032" /><path d="M 144.38136562736335 173.6633856474863 a86.0,86.0 0 0,1 -40.68145358897372,12.25698825130547" fill="none" id="id54" stroke="none" /><text fill="#e1ed5e" style="font-size:6.75px; font-family:Arial;" text-anchor="middle"><textPath startOffset="21.466115282336833" xlink:href="#id54">June</textPath></text><line stroke="#e1ed5e" stroke-width="0.3" x1="102.19456741930631" x2="102.32365962044197" y1="184.97166512339345" y2="189.96999836594603" /><path d="M 102.22038585953345 185.97133177190398 a86.0,86.0 0 0,1 -42.740103519485714,-10.115201625700543" fill="none" id="id55" stroke="none" /><text fill="#e1ed5e" style="font-size:6.75px; font-family:Arial;" text-anchor="middle"><textPath startOffset="22.20632615414155" xlink:href="#id55">July</textPath></text><line stroke="#e1ed5e" stroke-width="0.3" x1="58.666819895761336" x2="56.23545636021788" y1="174.27360380694188" y2="178.64263932499728" /><path d="M 58.180547188652646 175.14741091055294 a86.0,86.0 0 0,1 -31.652253787137756,-30.449443065178592" fill="none" id="id56" stroke="none" /><text fill="#e1ed5e" style="font-size:6.75px; font-family:Arial;" text-anchor="middle"><textPath startOffset="22.20632615414155" xlink:href="#id56">August</textPath></text><line stroke="#e1ed5e" stroke-width="0.3" x1="26.63291911575756" x2="22.317208475507996" y1="142.92168965132927" y2="145.44649492493687" /><path d="M 25.769776987707644 143.4266507060508 a86.0,86.0 0 0,1 -11.730757126820373,-40.83630448921669" fill="none" id="id57" stroke="none" /><text fill="#e1ed5e" style="font-size:6.75px; font-family:Arial;" text-anchor="middle"><textPath startOffset="21.46611528233685" xlink:href="#id57">September</textPath></text><line stroke="#e1ed5e" stroke-width="0.3" x1="15.007084014347285" x2="10.007500721073583" y1="101.09737516637583" y2="101.16192664675087" /><path d="M 14.007167355692545 101.11028546245083 a86.0,86.0 0 0,1 10.666146001902534,-42.60595125391555" fill="none" id="id58" stroke="none" /><text fill="#e1ed5e" style="font-size:6.75px; font-family:Arial;" text-anchor="middle"><textPath startOffset="22.20632615414155" xlink:href="#id58">October</textPath></text><path d="M 80.803312248108 91.48605970444005 l -7.091187461837738 -3.145018945716787 a28.757324525108015,28.757324525108015 0 0,0 0.20458465020876768,-0.4507751580119858 l 7.036000494665619 3.2666161125708437" fill="#ff6108" stroke="none" /><path d="M 80.95270993114464 91.15688171328213 l -2.2363730555839383 -1.0382847844636156 a23.465643878866228,23.465643878866228 0 0,0 0.17324551474503178,-0.36489923716771844 l 2.218169346997155 1.0766264372718661" fill="#ff1602" stroke="none" /><line stroke="#e1ed5e" stroke-width="0.3" x1="26.266209847984243" x2="21.928928074336255" y1="57.711370442889674" y2="55.22380399835377" /><path d="M 25.398753493254645 57.213857153982495 a86.0,86.0 0 0,1 29.58750427330803,-30.492523968695096" fill="none" id="id59" stroke="none" /><text fill="#e1ed5e" style="font-size:6.75px; font-family:Arial;" text-anchor="middle"><textPath startOffset="21.46611528233685" xlink:href="#id59">November</textPath></text><path d="M 81.96595687620814 89.24020034530311 l -3.9945408719385056 -2.383295814450699 a25.651500372650254,25.651500372650254 0 0,0 0.2295005557274382,-0.3772385705078637 l 3.9529245179248504 2.451702158165637" fill="#ff3505" stroke="none" /><line stroke="#e1ed5e" stroke-width="0.3" x1="56.762969772571076" x2="54.21961505331055" y1="26.818313649435495" y2="22.513508569990535" /><path d="M 56.25429882871897 25.957352633546506 a86.0,86.0 0 0,1 42.265352541879196,-11.944610805530505" fill="none" id="id60" stroke="none" /><text fill="#e1ed5e" style="font-size:6.75px; font-family:Arial;" text-anchor="middle"><textPath startOffset="22.20632615414155" xlink:href="#id60">December</textPath></text></svg>