<?xml version="1.0" encoding="utf-8" ?>
<svg baseProfile="full" height="200mm" version="1.1" viewBox="0,0,200,200" width="200mm" xmlns="http://www.w3.org/2000/svg" xmlns:ev="http://www.w3.org/2001/xml-events" xmlns:xlink="http://www.w3.org/1999/xlink"><defs /><rect fill="#1a1a1a" height="200" width="200" x="0" y="0" /><text alignment-baseline="middle" fill="#e1ed5e" style="dominant-baseline: central; font-size:9.0px; font-family:Arial;" text-anchor="middle" x="100.0" y="100.0">2023</text><line stroke="#e1ed5e" stroke-width="0.3" x1="100.0" x2="100.0" y1="15.0" y2="10.0" /><path d="M 100.0 14.0 a86.0,86.0 0 0,1 42.46469731375804,11.215312516191453" fill="none" id="id49" stroke="none" /><text fill="#e1ed5e" style="font-size:6.75px; font-family:Arial;" text-anchor="middle"><textPath startOffset="22.20632615414155" xlink:href="#id49">January</textPath></text><path d="M 100.72285384407766 79.0124445844662 l 0.22366473250410815 -6.493948958547961 a27.497799549754692,27.497799549754692 0 0,0 0.4729086855483057,0.020364442789555192 l -0.33541425044174533 6.489136789234211" fill="#ff4f07" stroke="none" /><path d="M 103.2404852339499 79.25152402106235 l 1.3961233785071674 -8.939226779712909 a30.047592823903532,30.047592823903532 0 0,0 0.5103380374341672,0.08421014892167805 l -1.5497906220802098 8.913870367851606" fill="#ff720a" stroke="none" /><path d="M 108.09893153111575 80.62456947434976 l 3.705198838582349 -8.864110334166776 a30.607338364485464,30.607338364485464 0 0,0 0.4843483652060061,0.2073726928715035 l -3.8572309615786704 8.799018113332483" fill="#ff790b" stroke="none" /><path d="M 109.41281617654863 81.2277094730956 l 2.6148397083848547 -5.214861287675217 a26.833709364567266,26.833709364567266 0 0,0 0.4111173603400436,0.21059027985107795 l -2.704217556313654 5.1690784825116385" fill="#ff4606" stroke="none" /><path d="M 109.73455568895987 81.39251694778311 l 2.253588133148702 -4.307705901954953 a25.86158303555603,25.86158303555603 0 0,0 0.39267113597649694,0.20975132177602546 l -2.32740431565351 4.268275853677173" fill="#ff3805" stroke="none" /><path d="M 110.05341064243156 81.56283822128135 l 2.8184571917755297 -5.168828078287888 a26.887315572038624,26.887315572038624 0 0,0 0.4044312047012074,0.22506552754784728 l -2.9070124855487722 5.119547153179861" fill="#ff4606" stroke="none" /><path d="M 110.36928655335952 81.73862282372117 l 0.9914050907852346 -1.7459660511982396 a23.007805146415272,23.007805146415272 0 0,0 0.3427103156476063,0.1985199352433462 l -1.0213121388981692 1.7286419585648438" fill="#ff0f01" stroke="none" /><line stroke="#e1ed5e" stroke-width="0.3" x1="143.23703022742887" x2="145.7803849466894" y1="26.81831364943548" y2="22.513508569990506" /><path d="M 143.74570117128098 25.957352633546492 a86.0,86.0 0 0,1 28.547481713284135,27.462654790039103" fill="none" id="id50" stroke="none" /><text fill="#e1ed5e" style="font-size:6.75px; font-family:Arial;" text-anchor="middle"><textPath startOffset="19.985693538727396" xlink:href="#id50">February</textPath></text><path d="M 110.68208982089419 81.91981866633111 l 0.48961276034966406 -0.828703712365814 a21.96253337499855,21.96253337499855 0 0,0 0.3238301645171775,0.19510405076115792 l -0.5038049910844791 0.8201530521460415" fill="#ff0000" stroke="none" /><path d="M 110.99172775467656 82.1063720568725 l 2.516878380446292 -4.097270813375643 a25.80856578410838,25.80856578410838 0 0,0 0.37653572671387286,0.23578663752477325 l -2.587033259532428 4.053339834527926" fill="#ff3705" stroke="none" /><path d="M 112.77801427241765 83.33499621200491 l 2.920468443694865 -3.808856105439816 a25.79963756575053,25.79963756575053 0 0,0 0.35009794261546207,0.2732569973729167 l -2.9855989414697572 3.7580207188436754" fill="#ff3705" stroke="none" /><path d="M 113.89432698308785 84.25364557470407 l 4.4669778826815065 -5.0623982749417875 a27.751427086068496,27.751427086068496 0 0,0 0.35546804593730746,0.3191427213977195 l -4.553456916214804 4.98475654477477" fill="#ff5207" stroke="none" /><path d="M 114.42810811169701 84.74124197986012 l 3.302578085589814 -3.4927129364783096 a25.806876914178375,25.806876914178375 0 0,0 0.3201487555321579,0.3079828491684093 l -3.36221008473439 3.4353470005475986" fill="#ff3705" stroke="none" /><path d="M 114.94478906791727 85.2469230424477 l 3.4063273166422214 -3.362630868636192 a25.786475963253967,25.786475963253967 0 0,0 0.30911321491008653,0.31856833978354443 l -3.463704795255417 3.3034983333025334" fill="#ff3705" stroke="none" /><path d="M 116.38621287248628 86.86637796730983 l 3.7668413732127 -3.0191400073865133 a25.827452777101893,25.827452777101893 0 0,0 0.27505735344052046,0.34929490635788857 l -3.818252807247185 2.9538527070755864" fill="#ff3805" stroke="none" /><path d="M 116.82858285166822 87.43820079747576 l 3.8389072787603093 -2.865575955976316 a25.79048375995457,25.79048375995457 0 0,0 0.2624947914696398,0.35804260056700865 l -3.8876646827435755 2.7990709117378136" fill="#ff3705" stroke="none" /><path d="M 117.2510076193507 88.02491185347247 l 17.167052729970326 -11.916809394187627 a41.8978000174894,41.8978000174894 0 0,0 0.40616033456499795,0.5959901734212206 l -17.369637530204056 11.619541197496" fill="#f5ff19" stroke="none" /><line stroke="#e1ed5e" stroke-width="0.3" x1="172.23445277983987" x2="176.4835382374775" y1="55.19839476539836" y2="52.563006222186495" /><path d="M 173.08426987136738 54.67131705675599 a86.0,86.0 0 0,1 12.851231095245387,41.99856678651699" fill="none" id="id51" stroke="none" /><text fill="#e1ed5e" style="font-size:6.75px; font-family:Arial;" text-anchor="middle"><textPath startOffset="22.20632615414155" xlink:href="#id51">March</textPath></text><path d="M 117.84615892207809 88.93136811851018 l 8.15530554773235 -5.058123452954764 a30.59654216070586,30.59654216070586 0 0,0 0.2737431856698149,0.44996182131686696 l -8.241164531688389 4.916993858430816" fill="#ff790b" stroke="none" /><path d="M 118.56541770881063 90.18545643968196 l 17.844060143559748 -9.433200390034303 a41.18404696797748,41.18404696797748 0 0,0 0.32592381477945565,0.6295810706872338 l -18.003793391499322 9.124646597086725" fill="#fdff18" stroke="none" /><path d="M 118.89224826269711 90.83032412892265 l 8.652640721342602 -4.199707188913969 a30.61799001482388,30.61799001482388 0 0,0 0.22605087965873186,0.4761208027229973 l -8.723649794843089 4.050143970550431" fill="#ff7a0b" stroke="none" /><path d="M 119.61058180528143 92.48833698450437 l 20.54829963460351 -7.87084768464158 a43.00415554272134,43.00415554272134 0 0,0 0.25883466361725604,0.6935482139957845 l -20.680738886722388 7.515976333616463" fill="#e7ff1a" stroke="none" /><path d="M 120.6074358757038 95.95851677861258 l 3.522753770158092 -0.6908744174212798 a24.589860942405743,24.589860942405743 0 0,0 0.07788460951149254,0.4160626983325641 l -3.534124103579444 0.6301336416261528" fill="#ff2603" stroke="none" /><path d="M 120.78858239683441 97.02765380044208 l 4.102880402863658 -0.5866287917039237 a25.144606246612415,25.144606246612415 0 0,0 0.057573965259640446,0.42899291496035685 l -4.112370367181135 0.5159175346789024" fill="#ff2e04" stroke="none" /><path d="M 120.83666639777658 97.38593545837742 l 10.619550604545902 -1.3322760058332677 a31.70279470036823,31.70279470036823 0 0,0 0.06326918736629165,0.5420517595128042 l -10.640910144915782 1.1492805079956108" fill="#ff880c" stroke="none" /><path d="M 120.94382443527127 98.46500227214037 l 4.785833723304357 -0.3507594285795515 a25.79867029538962,25.79867029538962 0 0,0 0.02864808305525843,0.44317316492315595 l -4.791162397364031 0.2683271994033603" fill="#ff3705" stroke="none" /><line stroke="#e1ed5e" stroke-width="0.3" x1="184.98032266829074" x2="189.97916517819016" y1="98.17113171792111" y2="98.06355123074" /><path d="M 185.9800911702706 98.14961562048488 a86.0,86.0 0 0,1 -9.607161424134198,41.387399972396054" fill="none" id="id52" stroke="none" /><text fill="#e1ed5e" style="font-size:6.75px; font-family:Arial;" text-anchor="middle"><textPath startOffset="21.466115282336823" xlink:href="#id52">April</textPath></text><path d="M 120.99980553446 99.90962569577887 l 62.99941660337998 -0.27112291266339017 a84.0,84.0 0 0,0 -0.006222810841987947,1.4459620871852612 l -62.994749495248485 -0.8133486527255557" fill="#4dd2ff" stroke="none" /><path d="M 120.89721153311464 102.0752229133903 l 19.758742379304735 1.9621658545367513 a40.8559309842788,40.8559309842788 0 0,0 -0.07552062908769366,0.6992272318367102 l -19.72203944871599 -2.301989408258253" fill="#fffd17" stroke="none" /><path d="M 119.79798401119884 107.00284435728193 l 20.685735634149523 7.31685544244754 a42.941650628236644,42.941650628236644 0 0,0 -0.2524881926179471,0.6947390667207834 l -20.556723180526348 -7.671842306174455" fill="#e8ff1a" stroke="none" /><line stroke="#e1ed5e" stroke-width="0.3" x1="174.80103733775053" x2="179.2010983576182" y1="140.37084112569926" y2="142.7455964860345" /><path d="M 175.68104954172406 140.8457921977663 a86.0,86.0 0 0,1 -30.038265399797805,32.042727171017184" fill="none" id="id53" stroke="none" /><text fill="#e1ed5e" style="font-size:6.75px; font-family:Arial;" text-anchor="middle"><textPath startOffset="22.206326154141568" xlink:href="#id53">May</textPath></text><path d="M 118.30583269289576 110.29060199501025 l 4.13412279896843 2.3239921961699155 a25.74256376286173,25.74256376286173 0 0,0 -0.2204642241271796,0.38439795775049207 l -4.093506578688871 -2.3948099997787224" fill="#ff3605" stroke="none" /><path d="M 117.55443506779139 111.5257021239791 l 4.989265311942517 3.2757981433683407 a26.968552741582194,26.968552741582194 0 0,0 -0.2581235882202479,0.38585974172091586 l -4.932138618311548 -3.3611947992950637" fill="#ff4806" stroke="none" /><path d="M 116.0416608686014 113.55231037782055 l 27.036332886404306 22.84082538309971 a56.39303038912773,56.39303038912773 0 0,0 -0.6328304771047929,0.7361248132066571 l -26.639159899728735 -23.302827295467896" fill="#54ff2b" stroke="none" /><path d="M 114.81725581225074 114.88116024355365 l 1.0343199225987518 1.0387807773802626 a22.465906956712953,22.465906956712953 0 0,0 -0.276384196770846,0.27050010770266397 l -1.0162857734521116 -1.0564309880054987" fill="#ff0701" stroke="none" /><path d="M 112.34349029814194 116.9893568818739 l 8.944352841019038 12.310845540693578 a36.217041948797416,36.217041948797416 0 0,0 -0.5075088434134122,0.3620940845799351 l -8.73111666975674 -12.462983887117732" fill="#ffc312" stroke="none" /><path d="M 112.04921762599082 117.19931262002967 l 11.973688680814378 17.091500977790876 a41.86836424588398,41.86836424588398 0 0,0 -0.5938192401303796,0.40843428809459564 l -11.677712556061115 -17.295076055250565" fill="#f5ff19" stroke="none" /><line stroke="#e1ed5e" stroke-width="0.3" x1="143.8653032363475" x2="146.44561519142675" y1="172.8068346515853" y2="177.08958963109032" /><path d="M 144.38136562736335 173.6633856474863 a86.0,86.0 0 0,1 -40.68145358897372,12.25698825130547" fill="none" id="id54" stroke="none" /><text fill="#e1ed5e" style="font-size:6.75px; font-family:Arial;" text-anchor="middle"><textPath startOffset="21.466115282336833" xlink:href="#id54">June</textPath></text><path d="M 110.5260780823613 118.17145234162733 l 1.412873039572873 2.439080814571463 a23.818745367350957,23.818745367350957 0 0,0 -0.35654533221984525,0.20245574489600024 l -1.3706789404318287 -2.4630397252620915" fill="#ff1b02" stroke="none" /><path d="M 107.93186726928326 119.44442032107085 l 0.6341587933584233 1.554596125948352 a22.67896589900076,22.67896589900076 0 0,0 -0.3627326982209326,0.14433882657183839 l -0.6073050190956244 -1.5652817969262594" fill="#ff0a01" stroke="none" /><path d="M 103.41894727170886 120.7198165907248 l 0.936448904366017 5.675153198648488 a26.75189537271137,26.75189537271137 0 0,0 -0.45499131464903636,0.07106028597918901 l -0.8386217261084635 -5.690431791974783" fill="#ff4406" stroke="none" /><line stroke="#e1ed5e" stroke-width="0.3" x1="102.19456741930631" x2="102.32365962044197" y1="184.97166512339345" y2="189.96999836594603" /><path d="M 102.22038585953345 185.97133177190398 a86.0,86.0 0 0,1 -42.740103519485714,-10.115201625700543" fill="none" id="id55" stroke="none" /><text fill="#e1ed5e" style="font-size:6.75px; font-family:Arial;" text-anchor="middle"><textPath startOffset="22.20632615414155" xlink:href="#id55">July</textPath></text><path d="M 97.2962882734958 120.8252237178851 l -0.4073082081802031 3.1372740201304468 a24.16360368153731,24.16360368153731 0 0,0 -0.41201407677386387,-0.05710139676003718 l 0.461250876140898 -3.129798057877805" fill="#ff2003" stroke="none" /><path d="M 93.76903079525671 120.05430185196036 l -2.0241016459368106 6.514547585272319 a27.82175327271967,27.82175327271967 0 0,0 -0.4561159901877931,-0.14603393638989912 l 2.135938981215544 -6.478740802222713" fill="#ff5307" stroke="none" /><path d="M 91.7346041902142 119.30500536409082 l -1.59059076484795 3.7150505498004427 a25.041234906410683,25.041234906410683 0 0,0 -0.3947921504072104,-0.17306527686668907 l 1.6543035899129035 -3.6871207196393017" fill="#ff2c04" stroke="none" /><line stroke="#e1ed5e" stroke-width="0.3" x1="58.666819895761336" x2="56.23545636021788" y1="174.27360380694188" y2="178.64263932499728" /><path d="M 58.180547188652646 175.14741091055294 a86.0,86.0 0 0,1 -31.652253787137756,-30.449443065178592" fill="none" id="id56" stroke="none" /><text fill="#e1ed5e" style="font-size:6.75px; font-family:Arial;" text-anchor="middle"><textPath startOffset="22.20632615414155" xlink:href="#id56">August</textPath></text><path d="M 89.4739219176387 118.17145234162733 l -1.5796107253689338 2.7269245762545116 a24.151394562456662,24.151394562456662 0 0,0 -0.3579376165384259,-0.2114758530115003 l 1.6263162129357418 -2.6993301509492618" fill="#ff2003" stroke="none" /><path d="M 89.1626897886671 117.98757091392108 l -4.795593942580266 7.95963983999711 a30.29266310831194,30.29266310831194 0 0,0 -0.4443223965144419,-0.2729391062178634 l 4.931895539027016 -7.875912266950869" fill="#ff750a" stroke="none" /><path d="M 87.65650970185807 116.9893568818739 l -4.576911665269629 6.299578467670731 a28.786707215634983,28.786707215634983 0 0,0 -0.3983737985249471,-0.2947074123763187 l 4.684670434213141 -6.219861106554646" fill="#ff6108" stroke="none" /><path d="M 86.24171649860922 115.8653595955263 l -1.5352508036893218 1.7703739036479107 a23.343334971562165,23.343334971562165 0 0,0 -0.30130425965261937,-0.26586597709787124 l 1.565497416248529 -1.7436847847777506" fill="#ff1402" stroke="none" /><path d="M 84.19399662182784 113.82643327865904 l -2.1179781487325244 1.852719049747191 a23.81396505234244,23.81396505234244 0 0,0 -0.2672352019716285,-0.31085491336257376 l 2.1495558602749316 -1.815987037223087" fill="#ff1b02" stroke="none" /><path d="M 83.50135304334701 112.99209946851258 l -2.12748103595879 1.675315879488223 a23.70792519365467,23.70792519365467 0 0,0 -0.24971578241621037,-0.322791310799176 l 2.156003635593069 -1.6384465745757943" fill="#ff1902" stroke="none" /><path d="M 83.28015986056508 112.70617746262583 l -2.259352054320857 1.7169858032936485 a23.837730070686042,23.837730070686042 0 0,0 -0.24545907406426812,-0.32883254205768664 l 2.28857239508021 -1.6778403817266538" fill="#ff1b02" stroke="none" /><path d="M 82.85270091963577 112.12312394758628 l -7.880703038610587 5.571649464060473 a30.651360429138034,30.651360429138034 0 0,0 -0.30087826824328484,-0.4334375859660847 l 7.975442214016006 -5.435170615907375" fill="#ff7a0b" stroke="none" /><line stroke="#e1ed5e" stroke-width="0.3" x1="26.63291911575756" x2="22.317208475507996" y1="142.92168965132927" y2="145.44649492493687" /><path d="M 25.769776987707644 143.4266507060508 a86.0,86.0 0 0,1 -11.730757126820373,-40.83630448921669" fill="none" id="id57" stroke="none" /><text fill="#e1ed5e" style="font-size:6.75px; font-family:Arial;" text-anchor="middle"><textPath startOffset="21.46611528233685" xlink:href="#id57">September</textPath></text><path d="M 81.87401531095188 110.60418214915194 l -3.76885103705191 2.20487789080315 a25.36643156969622,25.36643156969622 0 0,0 -0.21724295631177076,-0.3787814057928595 l 3.806245989516058 -2.139676639151984" fill="#ff3104" stroke="none" /><path d="M 81.35079622478065 109.6543875284942 l -2.5171905747990593 1.3031083570696482 a23.834491097202807,23.834491097202807 0 0,0 -0.18547924952725076,-0.36596815573823316 l 2.539248494112577 -1.2595859896287303" fill="#ff1b02" stroke="none" /><path d="M 81.18737489456691 109.33194174019688 l -2.5215845991654877 1.2508238717622775 a23.81477339210796,23.81477339210796 0 0,0 -0.17900402020965162,-0.36880130087131363 l 2.5427418759898583 -1.207233614925679" fill="#ff1b02" stroke="none" /><path d="M 80.87730276802145 108.67885076344099 l -2.93328848023097 1.3312752200810347 a24.221253641031318,24.221253641031318 0 0,0 -0.16904003143228988,-0.3811406456148165 l 2.95576959639454 -1.2805862379735224" fill="#ff2103" stroke="none" /><path d="M 80.73074385275274 108.34839909993369 l -3.021300133347703 1.3089773222757628 a24.292670060300466,24.292670060300466 0 0,0 -0.16293327343868338,-0.3851261286981445 l 3.0433843879786933 -1.2567766679114594" fill="#ff2203" stroke="none" /><path d="M 80.45479744820244 107.68017299344265 l -20.354182508112938 7.998056934336288 a42.86919432211565,42.86919432211565 0 0,0 -0.26396343119366733,-0.6891252243807641 l 20.488840218900116 -7.646508143122366" fill="#e9ff1a" stroke="none" /><path d="M 80.20201598880116 107.00284435728193 l -6.096367301061416 2.1563766962336715 a27.46650251105731,27.46650251105731 0 0,0 -0.15382440653434187,-0.44708572899741716 l 6.132582538538986 -2.0511182641469574" fill="#ff4e07" stroke="none" /><path d="M 79.97269907076064 106.31721596034903 l -2.6964553237283813 0.8505434989772233 a23.82741853225085,23.82741853225085 0 0,0 -0.12001442671444831,-0.39221409049107586 l 2.71069652294896 -0.8040024359340997" fill="#ff1b02" stroke="none" /><path d="M 79.86692584326677 105.97154293290107 l -2.6935295601457585 0.7989106524037365 a23.809512363721357,23.809512363721357 0 0,0 -0.11316022124051105,-0.39392557536456585 l 2.7068824182723734 -0.7524276015345747" fill="#ff1b02" stroke="none" /><path d="M 79.67330655649465 105.27499134158121 l -11.064675697075128 2.8714000465296583 a32.4311848252338,32.4311848252338 0 0,0 -0.13557576626958653,-0.5415577930270121 l 11.112462777639772 -2.680514414105254" fill="#ff920d" stroke="none" /><path d="M 79.58551787078972 104.9243191809786 l -2.7319474358411795 0.6589920368584166 a23.81030377305408,23.81030377305408 0 0,0 -0.09267813121100037,-0.39925496364494484 l 2.742886132982735 -0.6118684158648974" fill="#ff1b02" stroke="none" /><path d="M 79.35854240842038 103.8639653848113 l -4.417947867880588 0.827015125150621 a25.494687684426864,25.494687684426864 0 0,0 -0.07703469690610264,-0.4320514906095421 l 4.431529007125879 -0.7508448838078652" fill="#ff3304" stroke="none" /><path d="M 79.18660465613746 102.79330883721812 l -9.414246488338488 1.2634602609122116 a30.498650892316125,30.498650892316125 0 0,0 -0.06535206000769021,-0.5209202187266798 l 9.434600057593027 -1.1012222878981233" fill="#ff780b" stroke="none" /><path d="M 79.1416061653843 102.43462659150553 l -2.930564653711195 0.3420604045844996 a23.95046005056261,23.95046005056261 0 0,0 -0.04427151129304005,-0.40989921117732336 l 2.936018466505287 -0.29156487152239413" fill="#ff1d02" stroke="none" /><path d="M 79.10278846688536 102.07522291339032 l -1.294609643871185 0.12856277942156286 a22.30097752411672,22.30097752411672 0 0,0 -0.03464659024477033,-0.3823222362972446 l 1.2966308303930305 -0.1062591545757521" fill="#ff0500" stroke="none" /><path d="M 79.07016306316243 101.71520430193888 l -2.7728873905507303 0.22723867345061674 a23.78218293708139,23.78218293708139 0 0,0 -0.029924148365334052,-0.408291229598391 l 2.7763880975803996 -0.1794743073554651" fill="#ff1a02" stroke="none" /><line stroke="#e1ed5e" stroke-width="0.3" x1="15.007084014347285" x2="10.007500721073583" y1="101.09737516637583" y2="101.16192664675087" /><path d="M 14.007167355692545 101.11028546245083 a86.0,86.0 0 0,1 10.666146001902534,-42.60595125391555" fill="none" id="id58" stroke="none" /><text fill="#e1ed5e" style="font-size:6.75px; font-family:Arial;" text-anchor="middle"><textPath startOffset="22.20632615414155" xlink:href="#id58">October</textPath></text><path d="M 79.00019446554 99.90962569577889 l -5.118278329537003 -0.022026910777002057 a26.118325726583496,26.118325726583496 0 0,0 0.005804478107769142,-0.4495632262060149 l 5.1171408443115185 0.11012639504348891" fill="#ff3c05" stroke="none" /><path d="M 79.00486145842228 99.54816195383935 l -9.526193978764816 -0.20501397817349074 a30.528399784449725,30.528399784449725 0 0,0 0.015828692601586095,-0.5252772473079073 l 9.521253591707586 0.36896137290639236" fill="#ff780b" stroke="none" /><path d="M 79.01574976396665 99.18683210126434 l -9.576112070115748 -0.37108721267256134 a30.58329943698023,30.58329943698023 0 0,0 0.024912852461009487,-0.5258709404531591 l 9.56830560942124 0.5358692597487295" fill="#ff790b" stroke="none" /><path d="M 79.05617556472873 98.46500227214037 l -11.77628371857028 -0.8630977979453083 a32.80787008859267,32.80787008859267 0 0,0 0.046127109483265746,-0.5628675713797691 l 11.759682125267517 1.0656792865328557" fill="#ff970d" stroke="none" /><path d="M 79.16333360222342 97.38593545837743 l -4.526601461864289 -0.567884907769073 a25.56208439893694,25.56208439893694 0 0,0 0.05852987096772448,-0.43611552279686816 l 4.516155591838731 0.6457187726306005" fill="#ff3404" stroke="none" /><path d="M 79.26566170972629 96.67025291283419 l -2.7538432221267497 -0.44224229965849604 a23.789127236907753,23.789127236907753 0 0,0 0.06840862428073427,-0.4037515728950925 l 2.7458227363257923 0.48957966086941646" fill="#ff1a02" stroke="none" /><path d="M 79.32604984820605 96.31383870115002 l -9.227517119087151 -1.645264511093118 a30.373044729142656,30.373044729142656 0 0,0 0.09620195632439604,-0.5139146974511544 l 9.197829438852894 1.8038572860068451" fill="#ff760a" stroke="none" /><path d="M 79.3925641242962 95.95851677861259 l -9.346769607201349 -1.8330670913897935 a30.524822153281345,30.524822153281345 0 0,0 0.1055587655638506,-0.5147420293218854 l 9.313831545722504 1.9936847768750812" fill="#ff780b" stroke="none" /><path d="M 79.54389044137918 95.25157060432595 l -19.767867804809672 -4.588669429304983 a41.29345916003156,41.29345916003156 0 0,0 0.1666824238352516,-0.6910062564145072 l 19.685952580713604 4.928260917378887" fill="#fcff18" stroke="none" /><path d="M 79.81627453868168 94.20196356495316 l -9.495118639490071 -2.727595751951931 a30.87912225676239,30.87912225676239 0 0,0 0.15115198430294347,-0.5096093493930824 l 9.44676075807542 2.890634488091553" fill="#ff7d0b" stroke="none" /><path d="M 79.91906864156998 93.8553929516997 l -1.8362452653327426 -0.56187660813028 a22.92028695699911,22.92028695699911 0 0,0 0.11868835795394359,-0.3762745292325841 l 1.8263014236105952 0.5934013037892786" fill="#ff0e01" stroke="none" /><path d="M 80.803312248108 91.48605970444005 l -4.431022160842897 -1.965206634253935 a25.84726670456625,25.84726670456625 0 0,0 0.183881988499643,-0.4051595871777306 l 4.396537855379902 2.0411882302737365" fill="#ff3805" stroke="none" /><path d="M 80.95270993114464 91.15688171328213 l -8.471924983778646 -3.933275257368784 a30.340458617273686,30.340458617273686 0 0,0 0.22400188112817648,-0.4718050892578711 l 8.402964908808716 4.078522762267188" fill="#ff760a" stroke="none" /><line stroke="#e1ed5e" stroke-width="0.3" x1="26.266209847984243" x2="21.928928074336255" y1="57.711370442889674" y2="55.22380399835377" /><path d="M 25.398753493254645 57.213857153982495 a86.0,86.0 0 0,1 29.58750427330803,-30.492523968695096" fill="none" id="id59" stroke="none" /><text fill="#e1ed5e" style="font-size:6.75px; font-family:Arial;" text-anchor="middle"><textPath startOffset="21.46611528233685" xlink:href="#id59">November</textPath></text><path d="M 81.96595687620814 89.24020034530311 l -4.127914760008636 -2.4628717755899574 a25.80680950828039,25.80680950828039 0 0,0 0.23089008586871085,-0.37952259270776556 l 4.084908875853708 2.533562141504797" fill="#ff3705" stroke="none" /><path d="M 82.54541684631803 88.32363383020206 l -5.570224461665554 -3.7262408325490557 a27.70166183088144,27.70166183088144 0 0,0 0.26854193376597857,-0.3940521514673989 l 5.505258062230835 3.8215710072868703" fill="#ff5207" stroke="none" /><path d="M 82.7489923806493 88.02491185347247 l -7.573363842235154 -5.257182744198671 a30.219208767176013,30.219208767176013 0 0,0 0.30030321472483984,-0.4247576004291292 l 7.481748007706436 5.386766844959586" fill="#ff740a" stroke="none" /><path d="M 85.83668400450813 84.49514656593479 l -6.407661763522299 -7.014590123534614 a30.500663338782985,30.500663338782985 0 0,0 0.390683014722238,-0.3507590680719338 l 6.285967761204089 7.123848200375827" fill="#ff780b" stroke="none" /><path d="M 87.80319425747018 82.90503203632743 l -2.7897055792648686 -3.910034193569098 a25.80320982405111,25.80320982405111 0 0,0 0.3637869965566911,-0.25485603918335914 l 2.7219874431245175 3.9574750755164" fill="#ff3705" stroke="none" /><line stroke="#e1ed5e" stroke-width="0.3" x1="56.762969772571076" x2="54.21961505331055" y1="26.818313649435495" y2="22.513508569990535" /><path d="M 56.25429882871897 25.957352633546506 a86.0,86.0 0 0,1 42.265352541879196,-11.944610805530505" fill="none" id="id60" stroke="none" /><text fill="#e1ed5e" style="font-size:6.75px; font-family:Arial;" text-anchor="middle"><textPath startOffset="22.20632615414155" xlink:href="#id60">December</textPath></text><path d="M 89.3179101791058 81.91981866633112 l -4.045313252702769 -6.846974551486905 a28.952711476044,28.952711476044 0 0,0 0.4312620358902565,-0.24981480722593538 l 3.9268544843471926 6.915593516102888" fill="#ff6309" stroke="none" /></svg>