<?xml version="1.0" encoding="utf-8" ?>
<svg baseProfile="full" height="200mm" version="1.1" viewBox="0,0,200,200" width="200mm" xmlns="http://www.w3.org/2000/svg" xmlns:ev="http://www.w3.org/2001/xml-events" xmlns:xlink="http://www.w3.org/1999/xlink"><defs /><rect fill="#1a1a1a" height="200" width="200" x="0" y="0" /><rect fill="#1a1a1a" height="200" width="180" x="10" y="0" /><text alignment-baseline="middle" fill="#e1ed5e" style="dominant-baseline: central; font-size:9.0px; font-family:Arial;" text-anchor="middle" x="100.0" y="100.0">2024</text><line stroke="#e1ed5e" stroke-width="0.3" x1="100.0" x2="100.0" y1="15.0" y2="10.0" /><path d="M 100.0 14.0 a86.0,86.0 0 0,1 42.35913384403234,11.155469271406648" fill="none" id="id61" stroke="none" /><text fill="#e1ed5e" style="font-size:6.75px; font-family:Arial;" text-anchor="middle"><textPath startOffset="22.145653131862478" xlink:href="#id61">January</textPath></text><line stroke="#e1ed5e" stroke-width="0.3" x1="143.13028292997686" x2="145.6673583964461" y1="26.7553504044142" y2="22.446841604673864" /><path d="M 143.63769802327073 25.89364864446614 a86.0,86.0 0 0,1 29.32050498858742,28.57503671076993" fill="none" id="id62" stroke="none" /><text fill="#e1ed5e" style="font-size:6.75px; font-family:Arial;" text-anchor="middle"><textPath startOffset="20.669276256404974" xlink:href="#id62">February</textPath></text><line stroke="#e1ed5e" stroke-width="0.3" x1="172.87174338648825" x2="177.1583165268699" y1="56.24261187166439" y2="53.66864786411523" /><path d="M 173.72905801456457 55.72781907015455 a86.0,86.0 0 0,1 12.242430191666344,42.057860355516425" fill="none" id="id63" stroke="none" /><text fill="#e1ed5e" style="font-size:6.75px; font-family:Arial;" text-anchor="middle"><textPath startOffset="22.145653131862474" xlink:href="#id63">March</textPath></text><path d="M 118.36410011445183 89.81374322990088 l 10.987464166982361 -6.094561157890224 a33.56455508675041,33.56455508675041 0 0,0 0.27515686887029217,0.5062576471573147 l -11.090466385467995 5.905048677258306" fill="#ff7c0b" stroke="none" /><path d="M 119.71291397450082 92.76114493625339 l 5.385740040777103 -1.9777183432460763 a26.73738316935881,26.73738316935881 0 0,0 0.1545163940430152,0.4322098544688824 l -5.418896604864061 1.8849735323962773" fill="#ff1702" stroke="none" /><path d="M 120.16314734710363 94.1308016681162 l 12.00509116935988 -3.49450707532727 a33.50335129811823,33.50335129811823 0 0,0 0.15600039097547666,0.5535903534828917 l -12.063310052409937 3.2879087979413653" fill="#ff7b0b" stroke="none" /><path d="M 120.51834098615036 95.52812308129327 l 4.124793334180813 -0.8989795090163041 a25.221621040232492,25.221621040232492 0 0,0 0.08856667010605042,0.42382357795295006 l -4.139617715111231 0.8280394797779496" fill="#ff0000" stroke="none" /><path d="M 120.592083275326 95.88100663000786 l 18.2894077049288 -3.6583937657221903 a39.65170981819586,39.65170981819586 0 0,0 0.12777991527377694,0.6685985113650711 l -18.34951391248473 3.3438926893238046" fill="#ffcf13" stroke="none" /><path d="M 120.7213421655516 96.59031103205396 l 12.958518752301583 -2.1323193293965104 a34.13278317708283,34.13278317708283 0 0,0 0.09017313713488949,0.578976226249933 l -12.993213381574737 1.9095549212151361" fill="#ff840c" stroke="none" /><path d="M 120.77682067341334 96.94652285012252 l 36.99221958494689 -5.436582381943849 a58.38958060498393,58.38958060498393 0 0,0 0.13723076089987463,0.9929334244444418 l -37.08009486240198 4.8007606492993204" fill="#4eff2b" stroke="none" /><path d="M 120.9064616781168 98.02013634271609 l 7.299381347748574 -0.6912590027699639 a28.33203976181051,28.33203976181051 0 0,0 0.04169717669624407,0.48458439844562845 l -7.310172147142559 0.5658535569486735" fill="#ff2f04" stroke="none" /><path d="M 120.98066250479742 99.09900007780936 l 52.614807636862615 -2.2595062275106423 a73.66330174852519,73.66330174852519 0 0,0 0.043409829332553496,1.2638298167388826 l -52.645842153192014 1.3559701462076397" fill="#3fffc2" stroke="none" /><line stroke="#e1ed5e" stroke-width="0.3" x1="184.99686870605535" x2="189.99668451229388" y1="99.2704041080226" y2="99.22748670261217" /><path d="M 185.99683186730306 99.26182062694052 a86.0,86.0 0 0,1 -10.086455211305974,41.156179273409016" fill="none" id="id64" stroke="none" /><text fill="#e1ed5e" style="font-size:6.75px; font-family:Arial;" text-anchor="middle"><textPath startOffset="21.40746469413373" xlink:href="#id64">April</textPath></text><path d="M 120.96210409425399 101.26102812881392 l 62.19517912416156 3.7415075318553703 a83.30761739063269,83.30761739063269 0 0,0 -0.09812859328669077,1.42676821012262 l -62.121786569709805 -4.808619166132334" fill="#4cd9ff" stroke="none" /><path d="M 120.77682067341334 103.0534771498775 l 12.390630015640154 1.8209959175206023 a33.52372701379703,33.52372701379703 0 0,0 -0.08856411203283389,0.5686451308580183 l -12.357544411469053 -2.033429230310071" fill="#ff7b0b" stroke="none" /><path d="M 120.51834098615036 104.47187691870673 l 51.461874852485735 11.215876103313654 a73.66991968949436,73.66991968949436 0 0,0 -0.2799075914828969,1.233324494490296 l -51.261756399445176 -12.097634931742967" fill="#3fffc2" stroke="none" /><path d="M 119.94978838288452 106.5578916946017 l 38.18353785528866 12.551687314464692 a61.193624091220684,61.193624091220684 0 0,0 -0.33660741377888226,0.9951200076195018 l -37.96244501993741 -13.205308996558355" fill="#31ff2f" stroke="none" /><path d="M 119.0197475246899 108.90220220490707 l 33.86046943155343 15.848409409297778 a58.38587261158796,58.38587261158796 0 0,0 -0.43266918192730336,0.9041121823479947 l -33.58342099166622 -16.427334093710876" fill="#4eff2b" stroke="none" /><line stroke="#e1ed5e" stroke-width="0.3" x1="174.33088141563837" x2="178.70328620479359" y1="141.23008692659167" y2="143.65538615756765" /><path d="M 175.20536237346943 141.71514677278685 a86.0,86.0 0 0,1 -30.301960400862466,31.631185727798858" fill="none" id="id65" stroke="none" /><text fill="#e1ed5e" style="font-size:6.75px; font-family:Arial;" text-anchor="middle"><textPath startOffset="22.145653131862474" xlink:href="#id65">May</textPath></text><path d="M 116.57777611688842 112.89097897827486 l 6.38043650686177 4.961466019460911 a29.082457242717695,29.082457242717695 0 0,0 -0.3098439030774951,0.39147764973667976 l -6.294326173142713 -5.070263613112274" fill="#ff3a05" stroke="none" /><path d="M 116.35404254752997 113.17365903436017 l 49.06212764258992 39.52097710308051 a84.0,84.0 0 0,0 -0.9142127230454897,1.1151908732060285 l -48.37646810030581 -40.35737025798503" fill="#4dd2ff" stroke="none" /><path d="M 115.41159269507618 114.26474011684316 l 12.846134867957291 11.890190652123396 a38.50427989920153,38.50427989920153 0 0,0 -0.45314800729875454,0.4812274803920418 l -12.640131026922276 -12.108959592459934" fill="#ffc011" stroke="none" /><path d="M 114.13192950727249 115.5334660781643 l 8.598813762416247 9.45160261535471 a33.77780850221583,33.77780850221583 0 0,0 -0.43225135532419273,0.3865218273250191 l -8.435297380268675 -9.597819972563116" fill="#ff7f0b" stroke="none" /><path d="M 112.45986205192187 116.90419585922612 l 7.404908540717474 10.046180589345846 a33.48032110685217,33.48032110685217 0 0,0 -0.4655661686656233,0.3370340026747732 l -7.231361361677883 -10.171815363393696" fill="#ff7a0b" stroke="none" /><line stroke="#e1ed5e" stroke-width="0.3" x1="143.1302829299769" x2="145.66735839644613" y1="173.24464959558577" y2="177.55315839532614" /><path d="M 143.63769802327073 174.10635135553383 a86.0,86.0 0 0,1 -40.68552437913181,11.842963189579606" fill="none" id="id66" stroke="none" /><text fill="#e1ed5e" style="font-size:6.75px; font-family:Arial;" text-anchor="middle"><textPath startOffset="21.407464694133747" xlink:href="#id66">June</textPath></text><path d="M 110.34350942703117 118.27599006163325 l 26.0030512081718 45.94489992059604 a73.79292093499271,73.79292093499271 0 0,0 -1.1077927236997267,0.614473949789272 l -25.210514296315978 -46.38450678581846" fill="#40ffc3" stroke="none" /><path d="M 108.4095320186766 119.2426549942271 l 11.047255180593027 25.278281788002875 a48.58683340252769,48.58683340252769 0 0,0 -0.7671280840388514,0.32744136282061465 l -10.611692021383744 -25.464197800482893" fill="#bdff1f" stroke="none" /><path d="M 108.07796709384702 119.3841803445677 l 14.69060766296688 35.252110463181204 a59.19064343023761,59.19064343023761 0 0,0 -0.9412595863235804,0.38280207948083417 l -14.083293615452858 -35.49909979924133" fill="#46ff2c" stroke="none" /><line stroke="#e1ed5e" stroke-width="0.3" x1="101.45913802915013" x2="101.54496967792366" y1="184.9874750549273" y2="189.98673829345242" /><path d="M 101.47630435890484 185.9873277026323 a86.0,86.0 0 0,1 -42.54439059252881,-10.42667462771756" fill="none" id="id67" stroke="none" /><text fill="#e1ed5e" style="font-size:6.75px; font-family:Arial;" text-anchor="middle"><textPath startOffset="22.145653131862474" xlink:href="#id67">July</textPath></text><line stroke="#e1ed5e" stroke-width="0.3" x1="58.13341422392154" x2="55.67067388415222" y1="173.97424548756322" y2="178.32567169271397" /><path d="M 57.64086615596768 174.84453072859336 a86.0,86.0 0 0,1 -31.369924170532247,-30.572349798747897" fill="none" id="id68" stroke="none" /><text fill="#e1ed5e" style="font-size:6.75px; font-family:Arial;" text-anchor="middle"><textPath startOffset="22.145653131862474" xlink:href="#id68">August</textPath></text><line stroke="#e1ed5e" stroke-width="0.3" x1="26.387840678322732" x2="22.057713659400548" y1="142.50000000000003" y2="145.00000000000006" /><path d="M 25.521815274538298 143.00000000000003 a86.0,86.0 0 0,1 -11.493303480769221,-40.785679425670985" fill="none" id="id69" stroke="none" /><text fill="#e1ed5e" style="font-size:6.75px; font-family:Arial;" text-anchor="middle"><textPath startOffset="21.40746469413373" xlink:href="#id69">September</textPath></text><path d="M 81.81346652052679 110.50000000000001 l -10.86518782741055 6.273019116951334 a33.54603823390266,33.54603823390266 0 0,0 -0.28365033933610856,-0.5011829707563323 l 10.971271531768037 -6.08557937609588" fill="#ff7b0b" stroke="none" /><path d="M 80.83023694016515 108.57439118712176 l -11.471241148102369 5.130940257249321 a33.56646017784558,33.56646017784558 0 0,0 -0.2307552166813143,-0.5280130942905182 l 11.55763024680065 -4.933265093182954" fill="#ff7c0b" stroke="none" /><path d="M 79.94057633289273 106.21446072829308 l -11.959541379890021 3.7050964906630575 a33.5203182875846,33.5203182875846 0 0,0 -0.16556432225894788,-0.5511097819225312 l 12.021382022152599 -3.4992491051498025" fill="#ff7b0b" stroke="none" /><path d="M 79.56144815229197 104.8234425847677 l -12.14604687730298 2.8664339910725016 a33.479699458353046,33.479699458353046 0 0,0 -0.1272055416709644,-0.5604910875998623 l 12.193463280531612 -2.657508569533613" fill="#ff7a0b" stroke="none" /><path d="M 79.34024301695615 103.76489593502545 l -12.291105852865714 2.239848924670359 a33.49352657545886,33.49352657545886 0 0,0 -0.09822404509420637,-0.5665301900791557 l 12.327744715452154 -2.0285257016706106" fill="#ff7b0b" stroke="none" /><path d="M 79.2786578344484 103.40968896794605 l -12.508216236014714 2.058222221701712 a33.67642505286127,33.67642505286127 0 0,0 -0.08896751485953373,-0.5712352663870942 l 12.541705243012515 -1.8431987733831678" fill="#ff7d0b" stroke="none" /><path d="M 79.13060592940153 102.33845913500099 l -12.447937799129065 1.3948173943060065 a33.52584013208075,33.52584013208075 0 0,0 -0.059177270654208476,-0.5724864122871223 l 12.47004746226494 -1.1809264597359528" fill="#ff7b0b" stroke="none" /><path d="M 79.06263194458094 101.62068470465958 l -12.435845707408252 0.9626131075384391 a33.47304623791915,33.47304623791915 0 0,0 -0.039428122460224126,-0.5732762472882543 l 12.450537791033542 -0.7489934360958413" fill="#ff7a0b" stroke="none" /><path d="M 79.01933749520258 100.90099992219065 l -6.736404909440566 0.28929021177776487 a27.74261373137787,27.74261373137787 0 0,0 -0.016348739450063814,-0.4759757110491844 l 6.7403783358874785 -0.17360823616446058" fill="#ff2603" stroke="none" /><line stroke="#e1ed5e" stroke-width="0.3" x1="15.003131293944662" x2="10.003315487706104" y1="100.72959589197737" y2="100.7725132973878" /><path d="M 14.003168132696942 100.73817937305945 a86.0,86.0 0 0,1 10.791469493833604,-42.45332614584628" fill="none" id="id70" stroke="none" /><text fill="#e1ed5e" style="font-size:6.75px; font-family:Arial;" text-anchor="middle"><textPath startOffset="22.145653131862435" xlink:href="#id70">October</textPath></text><path d="M 79.00696218219943 99.45929381324524 l -52.65123204111311 -1.356108970601237 a73.66869342396184,73.66869342396184 0 0,0 0.04341300665021865,-1.2639223208761188 l 52.62019434746604 2.2597375560414945" fill="#3fffc2" stroke="none" /><path d="M 79.03789590574601 98.7389718711861 l -12.518582003761804 -0.7530868069648832 a33.541213462968145,33.541213462968145 0 0,0 0.03950841708527936,-0.5744437135142847 l 12.50380962551146 0.9678739446334929" fill="#ff7b0b" stroke="none" /><path d="M 79.13060592940154 97.66154086499901 l -12.415998093494323 -1.3912384836697895 a33.493700539715945,33.493700539715945 0 0,0 0.06892989813190212,-0.5708384383998691 l 12.390286109102753 1.604170598993095" fill="#ff7b0b" stroke="none" /><path d="M 79.17382384314186 97.30363454192245 l -12.409757225532456 -1.6066915248402516 a33.51333417010225,33.51333417010225 0 0,0 0.07876508618153656,-0.5699049268257961 l 12.380347622795712 1.8194847598661146" fill="#ff7b0b" stroke="none" /><path d="M 79.22317932658666 96.9465228501225 l -12.381825649064352 -1.8197019788289748 a33.51482807295338,33.51482807295338 0 0,0 0.08854060251095029,-0.5684941828629334 l 12.348763554415134 2.0319843436233582" fill="#ff7b0b" stroke="none" /><path d="M 79.34024301695615 96.23510406497455 l -37.37880529998791 -6.81166347917508 a58.994392283703284,58.994392283703284 0 0,0 0.19011282192376078,-0.9947506183370359 l 37.256366185781985 7.452316662545431" fill="#48ff2c" stroke="none" /><path d="M 79.73907114497095 94.47779374421319 l -12.052268880034555 -3.284899477312542 a33.491907369681286,33.491907369681286 0 0,0 0.15594710504313594,-0.5534012605073183 l 11.994103282916837 3.4913086617228735" fill="#ff7b0b" stroke="none" /><path d="M 79.83685265289637 94.1308016681162 l -13.135840114382146 -3.823651613511552 a34.681030925048034,34.681030925048034 0 0,0 0.17129734064828123,-0.5701931355774434 l 13.068266453730237 4.048582352679719" fill="#ff8b0c" stroke="none" /><path d="M 80.05021161711548 93.44210830539832 l -14.641053636737388 -4.8128051386726165 a36.41179888581001,36.41179888581001 0 0,0 0.20029017133743685,-0.5921223023279859 l 14.556278043827586 5.063429115474763" fill="#ffa30f" stroke="none" /><path d="M 80.41425534168474 92.42381321644754 l -11.648844443635928 -4.506023276478497 a33.48998889672019,33.48998889672019 0 0,0 0.2120096904428347,-0.5344029148961592 l 11.569776078226962 4.705327208588239" fill="#ff7b0b" stroke="none" /><path d="M 81.29705330413844 90.45014215332179 l -15.014094597648095 -7.666303681218598 a37.858091491025654,37.858091491025654 0 0,0 0.3005065893124982,-0.5762610082857343 l 14.880279939360657 7.922910932608819" fill="#ffb711" stroke="none" /><path d="M 81.46374523516351 90.13048839642627 l -10.991682481120158 -5.852451812218626 a33.45264132544196,33.45264132544196 0 0,0 0.27423941770593024,-0.5045696403495683 l 10.889597713798878 6.040276286042814" fill="#ff7a0b" stroke="none" /><line stroke="#e1ed5e" stroke-width="0.3" x1="26.387840678322718" x2="22.05771365940052" y1="57.49999999999999" y2="54.99999999999999" /><path d="M 25.521815274538284 56.99999999999999 a86.0,86.0 0 0,1 29.574782752854787,-30.34633250058573" fill="none" id="id71" stroke="none" /><text fill="#e1ed5e" style="font-size:6.75px; font-family:Arial;" text-anchor="middle"><textPath startOffset="21.40746469413373" xlink:href="#id71">November</textPath></text><path d="M 81.99639281039701 89.18935116829357 l -11.481774628656803 -6.894475766327934 a34.39271984011277,34.39271984011277 0 0,0 0.3082767458771341,-0.5035468964934151 l 11.361729918324274 7.0905597789458925" fill="#ff870c" stroke="none" /><path d="M 82.18462484594161 88.88188828441811 l -14.859855794762504 -9.273649046114551 a38.516160563081115,38.516160563081115 0 0,0 0.35486645978346654,-0.5579090165319 l 14.698471643353148 9.527371737325122" fill="#ffc011" stroke="none" /><path d="M 82.576782715395 88.27688183743585 l -10.521265782195004 -7.079177167433877 a33.681158583800794,33.681158583800794 0 0,0 0.3268840854918861,-0.47693364978190944 l 10.398191959887805 7.258745552285821" fill="#ff7d0b" stroke="none" /><path d="M 89.03521579738668 82.08984904055464 l -6.529547254416294 -10.665524725562346 a33.50553497533141,33.50553497533141 0 0,0 0.4931173016616264,-0.2961027712369264 l 6.3454971961972335 10.776041497335195" fill="#ff7b0b" stroke="none" /><line stroke="#e1ed5e" stroke-width="0.3" x1="56.869717070023135" x2="54.33264160355391" y1="26.7553504044142" y2="22.446841604673864" /><path d="M 56.362301976729285 25.89364864446614 a86.0,86.0 0 0,1 42.16139366436587,-11.88097634709845" fill="none" id="id72" stroke="none" /><text fill="#e1ed5e" style="font-size:6.75px; font-family:Arial;" text-anchor="middle"><textPath startOffset="22.145653131862474" xlink:href="#id72">December</textPath></text></svg>