<?xml version="1.0" encoding="utf-8" ?>
<svg baseProfile="full" height="200mm" version="1.1" viewBox="0,0,200,200" width="200mm" xmlns="http://www.w3.org/2000/svg" xmlns:ev="http://www.w3.org/2001/xml-events" xmlns:xlink="http://www.w3.org/1999/xlink"><defs /><rect fill="#1a1a1a" height="200" width="200" x="0" y="0" /><rect fill="#1a1a1a" height="200" width="180" x="10" y="0" /><text alignment-baseline="middle" fill="#e1ed5e" style="dominant-baseline: central; font-size:9.0px; font-family:Arial;" text-anchor="middle" x="100.0" y="100.0">2019</text><line stroke="#e1ed5e" stroke-width="0.3" x1="100.0" x2="100.0" y1="15.0" y2="10.0" /><path d="M 100.0 14.0 a86.0,86.0 0 0,1 42.46469731375804,11.215312516191453" fill="none" id="id1" stroke="none" /><text fill="#e1ed5e" style="font-size:6.75px; font-family:Arial;" text-anchor="middle"><textPath startOffset="22.20632615414155" xlink:href="#id1">January</textPath></text><line stroke="#e1ed5e" stroke-width="0.3" x1="143.23703022742887" x2="145.7803849466894" y1="26.81831364943548" y2="22.513508569990506" /><path d="M 143.74570117128098 25.957352633546492 a86.0,86.0 0 0,1 28.547481713284135,27.462654790039103" fill="none" id="id2" stroke="none" /><text fill="#e1ed5e" style="font-size:6.75px; font-family:Arial;" text-anchor="middle"><textPath startOffset="19.985693538727396" xlink:href="#id2">February</textPath></text><line stroke="#e1ed5e" stroke-width="0.3" x1="172.23445277983987" x2="176.4835382374775" y1="55.19839476539836" y2="52.563006222186495" /><path d="M 173.08426987136738 54.67131705675599 a86.0,86.0 0 0,1 12.851231095245387,41.99856678651699" fill="none" id="id3" stroke="none" /><text fill="#e1ed5e" style="font-size:6.75px; font-family:Arial;" text-anchor="middle"><textPath startOffset="22.20632615414155" xlink:href="#id3">March</textPath></text><path d="M 120.67395015179393 96.31383870115 l 21.787711122312835 -3.884744663690897 a43.13132614759968,43.13132614759968 0 0,0 0.1240295474389369,0.7320294098947252 l -21.851352531271996 3.509129465480334" fill="red" stroke="none" /><path d="M 120.73433829027371 96.67025291283417 l 53.92811565893307 -8.660367334505564 a75.61907744453245,75.61907744453245 0 0,0 0.1953280616630025,1.286967876131799 l -54.06919961403538 7.730800345981682" fill="red" stroke="none" /><path d="M 120.78858239683441 97.02765380044208 l 31.241912863563964 -4.466960718835468 a52.55963969119645,52.55963969119645 0 0,0 0.12034656021101335,0.8967216594783685 l -31.314175422832815 3.928520717292435" fill="red" stroke="none" /><path d="M 120.83666639777658 97.38593545837742 l 31.03948534503207 -3.8940594662167305 a52.28279638412929,52.28279638412929 0 0,0 0.10434064478305222,0.8939269247432557 l -31.101916342818708 3.359188803148622" fill="red" stroke="none" /><path d="M 120.98425023603335 99.18683210126433 l 31.50257873805067 -1.2207672644499477 a52.52622305099415,52.52622305099415 0 0,0 0.027234360270007793,0.9037758300636825 l -31.518924792776325 0.6783212869612661" fill="red" stroke="none" /><line stroke="#e1ed5e" stroke-width="0.3" x1="184.98032266829074" x2="189.97916517819016" y1="98.17113171792111" y2="98.06355123074" /><path d="M 185.9800911702706 98.14961562048488 a86.0,86.0 0 0,1 -9.607161424134198,41.387399972396054" fill="none" id="id4" stroke="none" /><text fill="#e1ed5e" style="font-size:6.75px; font-family:Arial;" text-anchor="middle"><textPath startOffset="21.466115282336823" xlink:href="#id4">April</textPath></text><path d="M 120.99980553446 99.90962569577887 l 22.553096943083375 -0.09705901518555504 a43.5533057926448,43.5533057926448 0 0,0 -0.003226475993939125,0.7497193922351262 l -22.55142616979993 -0.29116985525325584" fill="red" stroke="none" /><path d="M 120.99824983174949 100.27111621757518 l 32.25120133725826 0.4164072619801148 a53.253889419792436,53.253889419792436 0 0,0 -0.01972406731841382,0.9164999040523828 l -32.239255207254836 -0.9714969818226125" fill="red" stroke="none" /><path d="M 120.92983693683757 101.71520430193887 l 31.098048573690807 2.5484912690178776 a52.20229851853695,52.20229851853695 0 0,0 -0.08110100306818571,0.8949428108198422 l -31.049572974345544 -3.08341546838629" fill="red" stroke="none" /><path d="M 120.89721153311464 102.0752229133903 l 33.04348613606613 3.28142343102552 a54.206019269976906,54.206019269976906 0 0,0 -0.10019775775476834,0.927706795314932 l -32.982106076810304 -3.8497265482252434" fill="red" stroke="none" /><path d="M 120.81339534386255 102.79330883721812 l 30.877470931598697 4.143980883427247 a52.15430610194894,52.15430610194894 0 0,0 -0.12707259834651793,0.8887454568715332 l -30.801564282235578 -4.674871812279189" fill="red" stroke="none" /><path d="M 120.49622156327973 104.57218783832717 l 31.334014825131526 6.989824981502823 a53.104176337878584,53.104176337878584 0 0,0 -0.206700253361063,0.8904592816312265 l -31.20905400583991 -7.528152920482614" fill="red" stroke="none" /><path d="M 120.32669344350535 105.2749913415812 l 34.3034444249534 8.90210563911748 a56.439720430977914,56.439720430977914 0 0,0 -0.2521294640172541,0.9382675300710307 l -34.14512688459436 -9.491264102364058" fill="red" stroke="none" /><path d="M 120.13307415673323 105.97154293290107 l 29.965193931383464 8.887785375494664 a52.25548873760059,52.25548873760059 0 0,0 -0.2632015094307356,0.8601577615570608 l -29.807765649446594 -9.402270109603784" fill="red" stroke="none" /><path d="M 118.97047184881838 109.00673069616215 l 28.224929704717784 13.40052808356135 a52.24453247777244,52.24453247777244 0 0,0 -0.39269663387157955,0.8090713786763072 l -27.99007981423149 -13.884388418202933" fill="red" stroke="none" /><path d="M 118.64920377521936 109.65438752849418 l 27.866970557750626 14.42627450760952 a52.379697962782316,52.379697962782316 0 0,0 -0.42140088527379765,0.7971316658680299 l -27.614517164251936 -14.903821188563684" fill="red" stroke="none" /><line stroke="#e1ed5e" stroke-width="0.3" x1="174.80103733775053" x2="179.2010983576182" y1="140.37084112569926" y2="142.7455964860345" /><path d="M 175.68104954172406 140.8457921977663 a86.0,86.0 0 0,1 -30.038265399797805,32.042727171017184" fill="none" id="id5" stroke="none" /><text fill="#e1ed5e" style="font-size:6.75px; font-family:Arial;" text-anchor="middle"><textPath startOffset="22.206326154141568" xlink:href="#id5">May</textPath></text><path d="M 116.27256486870786 113.27417163493432 l 33.402639324961676 27.24784759113123 a64.10662956231897,64.10662956231897 0 0,0 -0.7048798666324892,0.8490732074826951 l -32.92866345843564 -27.818782055727695" fill="red" stroke="none" /><path d="M 115.07121518719521 114.62390073753431 l 45.21364556158561 43.87170221260295 a84.0,84.0 0 0,0 -1.0158374997778576,1.0290380240773414 l -44.45176743675221 -44.643480730660954" fill="red" stroke="none" /><path d="M 114.81725581225074 114.88116024355365 l 21.947580413821427 22.042236783569773 a52.10557005496145,52.10557005496145 0 0,0 -0.6410226907231276,0.6273756202646531 l -21.564907770722506 -22.416762506757" fill="red" stroke="none" /><line stroke="#e1ed5e" stroke-width="0.3" x1="143.8653032363475" x2="146.44561519142675" y1="172.8068346515853" y2="177.08958963109032" /><path d="M 144.38136562736335 173.6633856474863 a86.0,86.0 0 0,1 -40.68145358897372,12.25698825130547" fill="none" id="id6" stroke="none" /><text fill="#e1ed5e" style="font-size:6.75px; font-family:Arial;" text-anchor="middle"><textPath startOffset="21.466115282336833" xlink:href="#id6">June</textPath></text><line stroke="#e1ed5e" stroke-width="0.3" x1="102.19456741930631" x2="102.32365962044197" y1="184.97166512339345" y2="189.96999836594603" /><path d="M 102.22038585953345 185.97133177190398 a86.0,86.0 0 0,1 -42.740103519485714,-10.115201625700543" fill="none" id="id7" stroke="none" /><text fill="#e1ed5e" style="font-size:6.75px; font-family:Arial;" text-anchor="middle"><textPath startOffset="22.20632615414155" xlink:href="#id7">July</textPath></text><path d="M 95.86986931433489 120.58985236759428 l -4.000746384734666 19.944835573310186 a41.34213454093122,41.34213454093122 0 0,0 -0.6965333430150735,-0.1459653342956539 l 4.343471189179127 -19.87301425828799" fill="red" stroke="none" /><line stroke="#e1ed5e" stroke-width="0.3" x1="58.666819895761336" x2="56.23545636021788" y1="174.27360380694188" y2="178.64263932499728" /><path d="M 58.180547188652646 175.14741091055294 a86.0,86.0 0 0,1 -31.652253787137756,-30.449443065178592" fill="none" id="id8" stroke="none" /><text fill="#e1ed5e" style="font-size:6.75px; font-family:Arial;" text-anchor="middle"><textPath startOffset="22.20632615414155" xlink:href="#id8">August</textPath></text><path d="M 84.19399662182784 113.82643327865904 l -27.825458085516516 24.340551527327843 a57.96915695986775,57.96915695986775 0 0,0 -0.6505174310219075,-0.7566987364285482 l 28.2403180261092 -23.857975691737767" fill="red" stroke="none" /><line stroke="#e1ed5e" stroke-width="0.3" x1="26.63291911575756" x2="22.317208475507996" y1="142.92168965132927" y2="145.44649492493687" /><path d="M 25.769776987707644 143.4266507060508 a86.0,86.0 0 0,1 -11.730757126820373,-40.83630448921669" fill="none" id="id9" stroke="none" /><text fill="#e1ed5e" style="font-size:6.75px; font-family:Arial;" text-anchor="middle"><textPath startOffset="21.46611528233685" xlink:href="#id9">September</textPath></text><path d="M 80.87730276802145 108.67885076344099 l -36.39845086480712 16.519464761897307 a60.97173928386585,60.97173928386585 0 0,0 -0.4255215224519328,-0.959438698727958 l 36.67741347199033 -15.890477726676654" fill="red" stroke="none" /><line stroke="#e1ed5e" stroke-width="0.3" x1="15.007084014347285" x2="10.007500721073583" y1="101.09737516637583" y2="101.16192664675087" /><path d="M 14.007167355692545 101.11028546245083 a86.0,86.0 0 0,1 10.666146001902534,-42.60595125391555" fill="none" id="id10" stroke="none" /><text fill="#e1ed5e" style="font-size:6.75px; font-family:Arial;" text-anchor="middle"><textPath startOffset="22.20632615414155" xlink:href="#id10">October</textPath></text><path d="M 79.08570108090925 98.10471618934814 l -36.60461246480754 -3.3171625627100343 a57.75460816232692,57.75460816232692 0 0,0 0.09824574326928259,-0.9893212271698394 l 36.54208959585603 3.946759320584304" fill="red" stroke="none" /><path d="M 79.16333360222342 97.38593545837743 l -43.84685788005094 -5.500808730999101 a65.19056282339501,65.19056282339501 0 0,0 0.1492677659152603,-1.1122182347668546 l 43.74567411507785 6.254745307830616" fill="red" stroke="none" /><line stroke="#e1ed5e" stroke-width="0.3" x1="26.266209847984243" x2="21.928928074336255" y1="57.711370442889674" y2="55.22380399835377" /><path d="M 25.398753493254645 57.213857153982495 a86.0,86.0 0 0,1 29.58750427330803,-30.492523968695096" fill="none" id="id11" stroke="none" /><text fill="#e1ed5e" style="font-size:6.75px; font-family:Arial;" text-anchor="middle"><textPath startOffset="21.46611528233685" xlink:href="#id11">November</textPath></text><line stroke="#e1ed5e" stroke-width="0.3" x1="56.762969772571076" x2="54.21961505331055" y1="26.818313649435495" y2="22.513508569990535" /><path d="M 56.25429882871897 25.957352633546506 a86.0,86.0 0 0,1 42.265352541879196,-11.944610805530505" fill="none" id="id12" stroke="none" /><text fill="#e1ed5e" style="font-size:6.75px; font-family:Arial;" text-anchor="middle"><textPath startOffset="22.20632615414155" xlink:href="#id12">December</textPath></text></svg>