<?xml version="1.0" encoding="utf-8" ?>
<svg baseProfile="full" height="200mm" version="1.1" viewBox="0,0,200,200" width="200mm" xmlns="http://www.w3.org/2000/svg" xmlns:ev="http://www.w3.org/2001/xml-events" xmlns:xlink="http://www.w3.org/1999/xlink"><defs /><rect fill="#1a1a1a" height="200" width="200" x="0" y="0" /><text alignment-baseline="middle" fill="#e1ed5e" style="dominant-baseline: central; font-size:9.0px; font-family:Arial;" text-anchor="middle" x="100.0" y="100.0">2024</text><line stroke="#e1ed5e" stroke-width="0.3" x1="100.0" x2="100.0" y1="15.0" y2="10.0" /><path d="M 100.0 14.0 a86.0,86.0 0 0,1 42.35913384403234,11.155469271406648" fill="none" id="id61" stroke="none" /><text fill="#e1ed5e" style="font-size:6.75px; font-family:Arial;" text-anchor="middle"><textPath startOffset="22.145653131862478" xlink:href="#id61">January</textPath></text><path d="M 101.08105385017728 79.02784411241856 l 0.6254416247759793 -12.133400432580748 a33.1495095902408,33.1495095902408 0 0,0 0.5680494404803454,0.034172443748101265 l -0.8336354173887871 12.120876011007955" fill="#ff880c" stroke="none" /><path d="M 102.15924093988457 79.11130261209362 l 2.561259103014908 -24.77785843471413 a45.90988391790518,45.90988391790518 0 0,0 0.7832315794981135,0.0877627321475025 l -2.986226584113818 24.730239942059658" fill="#d2ff1c" stroke="none" /><path d="M 102.51750503828377 79.15144685158666 l 0.7130552594613495 -5.905120446062798 a26.948016079799583,26.948016079799583 0 0,0 0.4587863525986627,0.05939907856666462 l -0.8143194339508039 5.892009771295737" fill="#ff3104" stroke="none" /><path d="M 104.64783097203109 79.52079915486377 l 1.5729839211643413 -6.930857391661413 a28.107113520958364,28.107113520958364 0 0,0 0.46961344693748663,0.11082749478612447 l -1.691729521841713 6.902833753229062" fill="#ff4106" stroke="none" /><path d="M 105.3480935250658 79.69241777938227 l 3.0347731535086466 -11.523527972529594 a32.916440115526484,32.916440115526484 0 0,0 0.5451880993904524,0.14859344083265955 l -3.232142653833792 11.469734037552794" fill="#ff850c" stroke="none" /><path d="M 106.04205211174951 79.88797359093562 l 3.4204279212751914 -11.385492116033548 a32.88817723155661,32.88817723155661 0 0,0 0.5393024713078332,0.1670772841848672 l -3.615371025454655 11.325098244042033" fill="#ff850c" stroke="none" /><path d="M 108.07796709384702 80.6158196554323 l 4.547467500878142 -10.912266554691138 a32.821887414121896,32.821887414121896 0 0,0 0.5182184111060922,0.22119662452967997 l -4.734120987154664 10.832595280502057" fill="#ff840c" stroke="none" /><path d="M 108.4095320186766 80.7573450057729 l 4.196233016900805 -9.601802340520011 a31.4786916988021,31.4786916988021 0 0,0 0.4932959777959743,0.22064501639661088 l -4.3604423975524105 9.528353573213549" fill="#ff710a" stroke="none" /><path d="M 108.73861861582097 80.90454125486305 l 4.59175789924611 -10.033819690215811 a32.034571952778755,32.034571952778755 0 0,0 0.49807853756560017,0.2331259050404067 l -4.763325150683215 9.95351755360487" fill="#ff790b" stroke="none" /><path d="M 109.3889696526874 81.21577127319529 l 2.1819512897501725 -4.365364210723839 a25.88029877395954,25.88029877395954 0 0,0 0.3956885442970405,0.2020413901105701 l -2.2565670557607915 4.327264868940435" fill="#ff2103" stroke="none" /><line stroke="#e1ed5e" stroke-width="0.3" x1="143.13028292997686" x2="145.6673583964461" y1="26.7553504044142" y2="22.446841604673864" /><path d="M 143.63769802327073 25.89364864446614 a86.0,86.0 0 0,1 29.32050498858742,28.57503671076993" fill="none" id="id62" stroke="none" /><text fill="#e1ed5e" style="font-size:6.75px; font-family:Arial;" text-anchor="middle"><textPath startOffset="20.669276256404974" xlink:href="#id62">February</textPath></text><path d="M 113.59037401385872 83.9905735841838 l 18.270163310983836 -21.522206440666768 a49.23126347659095,49.23126347659095 0 0,0 0.6395856625531067,0.552458862115904 l -18.636928453299802 21.205403446086144" fill="#abff21" stroke="none" /><path d="M 114.13192950727249 84.46653392183569 l 7.613064998931493 -8.368092046518164 a32.312989135368085,32.312989135368085 0 0,0 0.40709785357493816,0.37680369565090566 l -7.755592623820395 8.236170604734884" fill="#ff7d0b" stroke="none" /><path d="M 114.39649973595853 84.71141617570332 l 22.331468441781656 -23.715245612032316 a53.57464285614361,53.57464285614361 0 0,0 0.6641406473996945,0.6362317167396678 l -22.735281575046663 23.328401764987067" fill="#7aff26" stroke="none" /><path d="M 115.16444852881244 85.47280134310134 l 22.992906089162258 -22.026683912839463 a52.84098827959295,52.84098827959295 0 0,0 0.6218734282339076,0.6604080304262869 l -23.367635351132428 21.62873442246868" fill="#82ff25" stroke="none" /><path d="M 115.6541949942343 86.00192230759917 l 9.062113289590762 -8.103397583315608 a33.156765592321946,33.156765592321946 0 0,0 0.3757592078995774,0.42754500142331403 l -9.19988356144893 7.946640304080996" fill="#ff880c" stroke="none" /><line stroke="#e1ed5e" stroke-width="0.3" x1="172.87174338648825" x2="177.1583165268699" y1="56.24261187166439" y2="53.66864786411523" /><path d="M 173.72905801456457 55.72781907015455 a86.0,86.0 0 0,1 12.242430191666344,42.057860355516425" fill="none" id="id63" stroke="none" /><text fill="#e1ed5e" style="font-size:6.75px; font-family:Arial;" text-anchor="middle"><textPath startOffset="22.145653131862474" xlink:href="#id63">March</textPath></text><path d="M 118.36410011445183 89.81374322990088 l 10.774978139737998 -5.976698740451864 a33.3215697760452,33.3215697760452 0 0,0 0.2731649140506225,0.5025926746476697 l -10.875988403403962 5.790851232329591" fill="#ff8b0c" stroke="none" /><path d="M 119.71291397450082 92.76114493625339 l 2.506519513351073 -0.9204286842153968 a23.670173970649888,23.670173970649888 0 0,0 0.13679087086230243,0.38262841140085485 l -2.521950554257319 0.8772653164336252" fill="#ff0000" stroke="none" /><path d="M 120.16314734710363 94.1308016681162 l 11.772925303741024 -3.426926975467201 a33.261549604460704,33.261549604460704 0 0,0 0.15487449886953603,0.5495949595930825 l -11.830018294685141 3.2243240919711056" fill="#ff8a0c" stroke="none" /><path d="M 120.592083275326 95.88100663000786 l 12.427772270701855 -2.4859025142021554 a33.67395892854883,33.67395892854883 0 0,0 0.10851626924920314,0.5678029753225075 l -12.468614832233214 2.2721969738463335" fill="#ff8f0d" stroke="none" /><path d="M 120.7213421655516 96.59031103205396 l 12.707914597712168 -2.091082511124887 a33.878808931383304,33.878808931383304 0 0,0 0.08950217941171237,0.5746681963545416 l -12.741938269262144 1.8726261328389042" fill="#ff920d" stroke="none" /><path d="M 120.77682067341334 96.94652285012252 l 36.276828876126466 -5.3314445835792945 a57.66650535100857,57.66650535100857 0 0,0 0.13553134524621194,0.9806372993374992 l -36.36300473792789 4.70791897604171" fill="#4fff2b" stroke="none" /><path d="M 120.98066250479742 99.09900007780936 l 51.59729246875138 -2.2158097480936365 a72.64484875518191,72.64484875518191 0 0,0 0.042809654352952545,1.2463563770561443 l -51.62772681010118 1.3297471064733724" fill="#3fffba" stroke="none" /><line stroke="#e1ed5e" stroke-width="0.3" x1="184.99686870605535" x2="189.99668451229388" y1="99.2704041080226" y2="99.22748670261217" /><path d="M 185.99683186730306 99.26182062694052 a86.0,86.0 0 0,1 -10.086455211305974,41.156179273409016" fill="none" id="id64" stroke="none" /><text fill="#e1ed5e" style="font-size:6.75px; font-family:Arial;" text-anchor="middle"><textPath startOffset="21.40746469413373" xlink:href="#id64">April</textPath></text><path d="M 120.96210409425399 101.26102812881392 l 60.992389624691995 3.6691507023570904 a82.10265345307717,82.10265345307717 0 0,0 -0.09670925829840181,1.4061313908941095 l -60.92041640522853 -4.7156255174055435" fill="#4be4ff" stroke="none" /><path d="M 120.77682067341334 103.0534771498775 l 12.15100823330116 1.7857797673460325 a33.28153127517962,33.28153127517962 0 0,0 -0.08792427116669274,0.5645368935065247 l -12.118562469996201 -1.9941048427840078" fill="#ff8a0c" stroke="none" /><path d="M 120.51834098615036 104.47187691870673 l 50.46665619458913 10.99897282890574 a72.65133871211731,72.65133871211731 0 0,0 -0.27603751059629367,1.2162722040260763 l -50.27040782243517 -11.863679366870834" fill="#3fffba" stroke="none" /><path d="M 119.94978838288452 106.5578916946017 l 37.445108301235024 12.308950852972634 a60.41632157865718,60.41632157865718 0 0,0 -0.332331710347953,0.9824796501686702 l -37.22829116931471 -12.949932177615464" fill="#33ff2f" stroke="none" /><path d="M 119.0197475246899 108.90220220490707 l 33.205643484383494 15.541917801921846 a57.66286906631388,57.66286906631388 0 0,0 -0.4273113558219145,0.8929163864486739 l -32.93395287060167 -16.109646690435625" fill="#4fff2b" stroke="none" /><line stroke="#e1ed5e" stroke-width="0.3" x1="174.33088141563837" x2="178.70328620479359" y1="141.23008692659167" y2="143.65538615756765" /><path d="M 175.20536237346943 141.71514677278685 a86.0,86.0 0 0,1 -30.301960400862466,31.631185727798858" fill="none" id="id65" stroke="none" /><text fill="#e1ed5e" style="font-size:6.75px; font-family:Arial;" text-anchor="middle"><textPath startOffset="22.145653131862474" xlink:href="#id65">May</textPath></text><path d="M 118.18653347947321 110.5 l 54.559600438419636 31.499999999999986 a84.0,84.0 0 0,0 -0.7317051594809385,1.242595326825802 l -54.010821568808936 -32.43194649511934" fill="#4dd2ff" stroke="none" /><path d="M 116.57777611688842 112.89097897827486 l 6.257045560158889 4.865516472981282 a28.926151001006495,28.926151001006495 0 0,0 -0.3081786195836356,0.38937361844270796 l -6.172600509933692 -4.972210035338673" fill="#ff4d07" stroke="none" /><path d="M 116.35404254752997 113.17365903436017 l 48.113317577547136 38.75668287742249 a82.78164610933412,82.78164610933412 0 0,0 -0.9009527869976478,1.099015907263104 l -47.44091797131086 -39.57690106638409" fill="#4bddff" stroke="none" /><path d="M 115.41159269507618 114.26474011684316 l 12.59770409976056 11.660246841936516 a38.16576549414603,38.16576549414603 0 0,0 -0.4491641091841971,0.47699671865210735 l -12.395684156840101 -11.874785020533121" fill="#ffcb13" stroke="none" /><path d="M 114.13192950727249 115.5334660781643 l 8.43252172745512 9.268818538855582 a33.53069909423395,33.53069909423395 0 0,0 -0.4290891200801118,0.38369413707045175 l -8.27216758055163 -9.41220820580942" fill="#ff8d0d" stroke="none" /><path d="M 112.45986205192187 116.90419585922612 l 7.261705379914172 9.851897998752808 a33.23896479292689,33.23896479292689 0 0,0 -0.46220994833551265,0.3346043579801045 l -7.091514421204692 -9.97510312810599" fill="#ff890c" stroke="none" /><line stroke="#e1ed5e" stroke-width="0.3" x1="143.1302829299769" x2="145.66735839644613" y1="173.24464959558577" y2="177.55315839532614" /><path d="M 143.63769802327073 174.10635135553383 a86.0,86.0 0 0,1 -40.68552437913181,11.842963189579606" fill="none" id="id66" stroke="none" /><text fill="#e1ed5e" style="font-size:6.75px; font-family:Arial;" text-anchor="middle"><textPath startOffset="21.407464694133747" xlink:href="#id66">June</textPath></text><path d="M 110.34350942703117 118.27599006163325 l 25.50017948422481 45.05637376861965 a72.77196124259962,72.77196124259962 0 0,0 -1.0924658914766177,0.6059724143193169 l -24.7229694045921 -45.48747909837211" fill="#3fffbb" stroke="none" /><path d="M 108.4095320186766 119.2426549942271 l 10.833612857887402 24.789426344101894 a48.053332992890844,48.053332992890844 0 0,0 -0.7587047495999092,0.3238459422310572 l -10.406473033117061 -24.971746935992357" fill="#b9ff1f" stroke="none" /><path d="M 108.07796709384702 119.3841803445677 l 14.406506726420504 34.57037163878437 a58.45207646182073,58.45207646182073 0 0,0 -0.9295147699323939,0.378025564900805 l -13.810937495297669 -34.812584460264475" fill="#47ff2c" stroke="none" /><line stroke="#e1ed5e" stroke-width="0.3" x1="101.45913802915013" x2="101.54496967792366" y1="184.9874750549273" y2="189.98673829345242" /><path d="M 101.47630435890484 185.9873277026323 a86.0,86.0 0 0,1 -42.54439059252881,-10.42667462771756" fill="none" id="id67" stroke="none" /><text fill="#e1ed5e" style="font-size:6.75px; font-family:Arial;" text-anchor="middle"><textPath startOffset="22.145653131862474" xlink:href="#id67">July</textPath></text><line stroke="#e1ed5e" stroke-width="0.3" x1="58.13341422392154" x2="55.67067388415222" y1="173.97424548756322" y2="178.32567169271397" /><path d="M 57.64086615596768 174.84453072859336 a86.0,86.0 0 0,1 -31.369924170532247,-30.572349798747897" fill="none" id="id68" stroke="none" /><text fill="#e1ed5e" style="font-size:6.75px; font-family:Arial;" text-anchor="middle"><textPath startOffset="22.145653131862474" xlink:href="#id68">August</textPath></text><line stroke="#e1ed5e" stroke-width="0.3" x1="26.387840678322732" x2="22.057713659400548" y1="142.50000000000003" y2="145.00000000000006" /><path d="M 25.521815274538298 143.00000000000003 a86.0,86.0 0 0,1 -11.493303480769221,-40.785679425670985" fill="none" id="id69" stroke="none" /><text fill="#e1ed5e" style="font-size:6.75px; font-family:Arial;" text-anchor="middle"><textPath startOffset="21.40746469413373" xlink:href="#id69">September</textPath></text><path d="M 81.81346652052679 110.50000000000001 l -10.655066496262279 6.151705509850396 a33.30341101970078,33.30341101970078 0 0,0 -0.2815987918132484,-0.4975580828589253 l 10.759098653096904 -5.96789065689235" fill="#ff8a0c" stroke="none" /><path d="M 80.83023694016515 108.57439118712176 l -11.249399381696703 5.031713256849419 a33.323438024677706,33.323438024677706 0 0,0 -0.22908454216527985,-0.5241902640487996 l 11.334117805878952 -4.83786092302477" fill="#ff8b0c" stroke="none" /><path d="M 79.94057633289273 106.21446072829308 l -11.728256399401628 3.633443812493345 a33.27818847015517,33.27818847015517 0 0,0 -0.16436838913034646,-0.5471289094935872 l 11.788901108535605 -3.4315772994090343" fill="#ff8a0c" stroke="none" /><path d="M 79.56144815229197 104.8234425847677 l -11.911155076205013 2.811000165590596 a33.23835516645741,33.23835516645741 0 0,0 -0.12628855818913926,-0.5564506891841337 l 11.957654495951818 -2.606115142467436" fill="#ff890c" stroke="none" /><path d="M 79.34024301695615 103.76489593502545 l -12.053408763398648 2.1965325968628044 a33.25191488162794,33.25191488162794 0 0,0 -0.0975154879389403,-0.5624434206993176 l 12.089339068829823 -1.9892961432428944" fill="#ff8a0c" stroke="none" /><path d="M 79.2786578344484 103.40968896794605 l -12.266320459563305 2.018418363738771 a33.43127629440273,33.43127629440273 0 0,0 -0.08831987260603677,-0.5670769385324388 l 12.29916182430761 -1.8075532432748824" fill="#ff8c0c" stroke="none" /><path d="M 79.13060592940153 102.33845913500099 l -12.207207744393576 1.3678430895580513 a33.28360352797314,33.28360352797314 0 0,0 -0.058749692970035385,-0.5683499860599542 l 12.228889829845278 -1.1580885812151658" fill="#ff8a0c" stroke="none" /><path d="M 79.06263194458094 101.62068470465958 l -12.19534950103775 0.943997180161051 a33.23183061232511,33.23183061232511 0 0,0 -0.03914399298011522,-0.5691450670053201 l 12.209757455182933 -0.7345086890013877" fill="#ff890c" stroke="none" /><path d="M 79.01933749520258 100.90099992219065 l -6.606129907368857 0.28369564264997127 a27.612218657205148,27.612218657205148 0 0,0 -0.016271897552113498,-0.4737385430322259 l 6.610026491917819 -0.17025083505362545" fill="#ff3a05" stroke="none" /><line stroke="#e1ed5e" stroke-width="0.3" x1="15.003131293944662" x2="10.003315487706104" y1="100.72959589197737" y2="100.7725132973878" /><path d="M 14.003168132696942 100.73817937305945 a86.0,86.0 0 0,1 10.791469493833604,-42.45332614584628" fill="none" id="id70" stroke="none" /><text fill="#e1ed5e" style="font-size:6.75px; font-family:Arial;" text-anchor="middle"><textPath startOffset="22.145653131862435" xlink:href="#id70">October</textPath></text><path d="M 79.00696218219943 99.45929381324524 l -51.63301246324578 -1.3298832461488734 a72.6501361612734,72.6501361612734 0 0,0 0.042812770224628136,-1.2464470922604356 l 51.602575006024296 2.2160366029734475" fill="#3fffba" stroke="none" /><path d="M 79.03789590574601 98.7389718711861 l -12.276485764239537 -0.7385228983732197 a33.29867955477325,33.29867955477325 0 0,0 0.039222734791379464,-0.5702899556596255 l 12.261999068283094 0.9491562781871702" fill="#ff8a0c" stroke="none" /><path d="M 79.13060592940154 97.66154086499901 l -12.17588571914974 -1.3643333912979931 a33.25208548159885,33.25208548159885 0 0,0 0.06843265533475593,-0.566720554730792 l 12.150670977555315 1.5731476229522214" fill="#ff8a0c" stroke="none" /><path d="M 79.17382384314186 97.30363454192245 l -12.169765543025367 -1.5756197967388381 a33.27133941817611,33.27133941817611 0 0,0 0.07819633532570718,-0.5657897289559367 l 12.140924691144452 1.7842978338948419" fill="#ff8a0c" stroke="none" /><path d="M 79.22317932658666 96.9465228501225 l -12.142374133936032 -1.7845108520709003 a33.27280443051374,33.27280443051374 0 0,0 0.08790121629429254,-0.5643888646872669 l 12.109951425503471 1.9926878986896173" fill="#ff8a0c" stroke="none" /><path d="M 79.34024301695615 96.23510406497455 l -36.655938429104054 -6.679933055337626 a58.259620606523356,58.259620606523356 0 0,0 0.18774497793705497,-0.9823610580429606 l 36.53586715888484 7.308196678413901" fill="#49ff2c" stroke="none" /><path d="M 79.73907114497095 94.47779374421319 l -11.819190646997393 -3.221372968445399 a33.25032698959099,33.25032698959099 0 0,0 0.15482224343121093,-0.549409523477231 l 11.762149911491601 3.4237904158256436" fill="#ff8a0c" stroke="none" /><path d="M 79.83685265289637 94.1308016681162 l -12.881806750723063 -3.749706203672304 a34.41645414320911,34.41645414320911 0 0,0 0.16999053695999883,-0.5658432111140167 l 12.815539893759436 3.9702870183770442" fill="#ff9a0e" stroke="none" /><path d="M 80.05021161711548 93.44210830539832 l -14.357911023058554 -4.7197305376294665 a36.11375086779911,36.11375086779911 0 0,0 0.19865070033021204,-0.5872754976100328 l 14.274774901155975 4.965507709713661" fill="#ffb010" stroke="none" /><path d="M 80.41425534168474 92.42381321644754 l -11.423568015863458 -4.418881514727248 a33.248445617883796,33.248445617883796 0 0,0 0.2104805912265711,-0.5305485859896367 l 11.346028749670754 4.614331117930468" fill="#ff8a0c" stroke="none" /><path d="M 81.29705330413844 90.45014215332179 l -14.723737763237459 -7.518045412694173 a37.53207369170355,37.53207369170355 0 0,0 0.2979187542402343,-0.5712984933158239 l 14.592510940022283 7.769690149114483" fill="#ffc312" stroke="none" /><path d="M 81.46374523516351 90.13048839642627 l -10.779114876106878 -5.7392715354670205 a33.21182030944325,33.21182030944325 0 0,0 0.27226520542904764,-0.5009373121202672 l 10.679004321062479 5.923463681061907" fill="#ff890c" stroke="none" /><line stroke="#e1ed5e" stroke-width="0.3" x1="26.387840678322718" x2="22.05771365940052" y1="57.49999999999999" y2="54.99999999999999" /><path d="M 25.521815274538284 56.99999999999999 a86.0,86.0 0 0,1 29.574782752854787,-30.34633250058573" fill="none" id="id71" stroke="none" /><text fill="#e1ed5e" style="font-size:6.75px; font-family:Arial;" text-anchor="middle"><textPath startOffset="21.40746469413373" xlink:href="#id71">November</textPath></text><path d="M 81.99639281039701 89.18935116829357 l -11.259729155790572 -6.761143839756393 a34.133718692115956,34.133718692115956 0 0,0 0.3059552071487613,-0.4997548374510268 l 11.142005984186417 6.953435793331963" fill="#ff960d" stroke="none" /><path d="M 82.18462484594161 88.88188828441811 l -14.572481776948488 -9.094306404908142 a38.177416398453204,38.177416398453204 0 0,0 0.35174545964439663,-0.5530022859289376 l 14.4142186256782 9.343122365515752" fill="#ffcb13" stroke="none" /><path d="M 82.576782715395 88.27688183743585 l -10.317795542505053 -6.942273309582193 a33.43591828382104,33.43591828382104 0 0,0 0.3245039669165353,-0.4734609856497673 l 10.197101838773204 7.118369030301995" fill="#ff8c0c" stroke="none" /><path d="M 89.03521579738668 82.08984904055464 l -6.403272662325743 -10.459264669286442 a33.263691051648024,33.263691051648024 0 0,0 0.48955796666942836,-0.2939654928421124 l 6.22278193909888 10.567644162664477" fill="#ff8a0c" stroke="none" /><line stroke="#e1ed5e" stroke-width="0.3" x1="56.869717070023135" x2="54.33264160355391" y1="26.7553504044142" y2="22.446841604673864" /><path d="M 56.362301976729285 25.89364864446614 a86.0,86.0 0 0,1 42.16139366436587,-11.88097634709845" fill="none" id="id72" stroke="none" /><text fill="#e1ed5e" style="font-size:6.75px; font-family:Arial;" text-anchor="middle"><textPath startOffset="22.145653131862474" xlink:href="#id72">December</textPath></text></svg>