<?xml version="1.0" encoding="utf-8" ?>
<svg baseProfile="full" height="200mm" version="1.1" viewBox="0,0,200,200" width="200mm" xmlns="http://www.w3.org/2000/svg" xmlns:ev="http://www.w3.org/2001/xml-events" xmlns:xlink="http://www.w3.org/1999/xlink"><defs /><rect fill="#1a1a1a" height="200" width="200" x="0" y="0" /><text alignment-baseline="middle" fill="#e1ed5e" style="dominant-baseline: central; font-size:9.0px; font-family:Arial;" text-anchor="middle" x="100.0" y="100.0">2021</text><line stroke="#e1ed5e" stroke-width="0.3" x1="100.0" x2="100.0" y1="15.0" y2="10.0" /><path d="M 100.0 14.0 a86.0,86.0 0 0,1 42.46469731375804,11.215312516191453" fill="none" id="id25" stroke="none" /><text fill="#e1ed5e" style="font-size:6.75px; font-family:Arial;" text-anchor="middle"><textPath startOffset="22.20632615414155" xlink:href="#id25">January</textPath></text><path d="M 110.36928655335952 81.73862282372117 l 5.2255807426340635 -9.202783664554328 a31.582907033248283,31.582907033248283 0 0,0 0.470439834202087,0.27250911676005496 l -5.383217309301479 9.111470390404225" fill="#ff5f08" stroke="none" /><line stroke="#e1ed5e" stroke-width="0.3" x1="143.23703022742887" x2="145.7803849466894" y1="26.81831364943548" y2="22.513508569990506" /><path d="M 143.74570117128098 25.957352633546492 a86.0,86.0 0 0,1 28.547481713284135,27.462654790039103" fill="none" id="id26" stroke="none" /><text fill="#e1ed5e" style="font-size:6.75px; font-family:Arial;" text-anchor="middle"><textPath startOffset="19.985693538727396" xlink:href="#id26">February</textPath></text><path d="M 112.77801427241765 83.33499621200491 l 6.437686402288976 -8.39598907880792 a31.58000183486176,31.58000183486176 0 0,0 0.4285367824257647,0.3344797560211187 l -6.5812557398741705 8.283930933563576" fill="#ff5f08" stroke="none" /><path d="M 114.94478906791727 85.2469230424477 l 5.838513378381514 -5.76361678960553 a29.20411585528646,29.20411585528646 0 0,0 0.3500818860823926,0.3607901566744716 l -5.936859528167016 5.662262437380945" fill="#ff3c05" stroke="none" /><line stroke="#e1ed5e" stroke-width="0.3" x1="172.23445277983987" x2="176.4835382374775" y1="55.19839476539836" y2="52.563006222186495" /><path d="M 173.08426987136738 54.67131705675599 a86.0,86.0 0 0,1 12.851231095245387,41.99856678651699" fill="none" id="id27" stroke="none" /><text fill="#e1ed5e" style="font-size:6.75px; font-family:Arial;" text-anchor="middle"><textPath startOffset="22.20632615414155" xlink:href="#id27">March</textPath></text><path d="M 118.89224826269711 90.83032412892265 l 6.305994305999013 -3.060722208750773 a28.009535264654296,28.009535264654296 0 0,0 0.20679280652785836,0.4355583892884098 l -6.357745306368627 2.9517214038218227" fill="#ff2a04" stroke="none" /><path d="M 119.04729006885535 91.15688171328212 l 6.568495561905033 -3.0495667892770384 a28.241891434496072,28.241891434496072 0 0,0 0.20091776880411477,0.4426956709003796 l -6.620015647672495 2.936049109534596" fill="#ff2e04" stroke="none" /><path d="M 119.196687751892 91.48605970444005 l 5.82561480301883 -2.5837236745669365 a27.37286559246857,27.37286559246857 0 0,0 0.18732071827930316,0.432362044387513 l -5.869226231140813 2.4830624855928205" fill="#ff2103" stroke="none" /><path d="M 119.34039704204932 91.81776055985345 l 5.887966321371124 -2.4909907564065468 a27.39321377322106,27.39321377322106 0 0,0 0.17998425843784882,0.4358461580305705 l -5.92997226669517 2.389270027922673" fill="#ff2103" stroke="none" /><path d="M 119.47837535516314 92.15188598940014 l 6.045361939154241 -2.4357621654132116 a27.517617532644362,27.517617532644362 0 0,0 0.1732384061763806,0.44087284770263835 l -6.086393895212322 2.3313403128147887" fill="#ff2303" stroke="none" /><path d="M 119.61058180528143 92.48833698450437 l 6.642686515949055 -2.544423369017429 a28.11332372593666,28.11332372593666 0 0,0 0.16920929147270408,0.4533967755799545 l -6.685500395923384 2.4297034564081414" fill="#ff2c04" stroke="none" /><path d="M 119.85752413597 93.16781622104841 l 20.13107063323202 -6.9263002422420525 a42.28928462597696,42.28928462597696 0 0,0 0.23090494379382842,0.6903763918075606 l -20.247312870797618 6.578750747512178" fill="#fff216" stroke="none" /><path d="M 120.08093135843002 93.85539295169968 l 6.866980636256834 -2.10124206218015 a28.18127017056185,28.18127017056185 0 0,0 0.1379461135921738,0.4650857183463497 l -6.90213264696071 1.98272695708727" fill="#ff2d04" stroke="none" /><path d="M 120.28053869075195 94.5502522615342 l 6.8654492048626645 -1.8448704370369395 a28.109004129553046,28.109004129553046 0 0,0 0.1215428896398203,0.46835433424727313 l -6.896188426372787 1.7264196772408158" fill="#ff2c04" stroke="none" /><path d="M 120.53481517161879 95.60439243477599 l 10.726055507201107 -2.2959802821906385 a31.969037888519093,31.969037888519093 0 0,0 0.11055304954211416,0.5390959316837548 l -10.763987852658218 2.111008694343472" fill="#ff6509" stroke="none" /><path d="M 120.73433829027371 96.67025291283417 l 6.462081027555855 -1.037751732285913 a27.544877375823,27.544877375823 0 0,0 0.0711498696940743,0.468788743960495 l -6.478986790689229 0.9263638759333359" fill="#ff2303" stroke="none" /><line stroke="#e1ed5e" stroke-width="0.3" x1="184.98032266829074" x2="189.97916517819016" y1="98.17113171792111" y2="98.06355123074" /><path d="M 185.9800911702706 98.14961562048488 a86.0,86.0 0 0,1 -9.607161424134198,41.387399972396054" fill="none" id="id28" stroke="none" /><text fill="#e1ed5e" style="font-size:6.75px; font-family:Arial;" text-anchor="middle"><textPath startOffset="21.466115282336823" xlink:href="#id28">April</textPath></text><path d="M 120.99824983174949 100.27111621757518 l 10.600101557614158 0.13686185578513715 a31.600985057969993,31.600985057969993 0 0,0 -0.011704308612995555,0.5438532300483221 l -10.596175186316156 -0.31930490162357406" fill="#ff5f08" stroke="none" /><path d="M 120.9764740272857 100.99374915477107 l 8.454744426958817 0.4005389617514698 a29.464226768292075,29.464226768292075 0 0,0 -0.028360930536405836,0.5064034665230255 l -8.44659714553488 -0.5460141446099186" fill="#ff4006" stroke="none" /><path d="M 120.95626037817324 101.35467743843564 l 8.469204596235352 0.54747556009397 a29.48688140495637,29.48688140495637 0 0,0 -0.037102137189309374,0.5062291841628871 l -8.458525900381705 -0.6931778807536273" fill="#ff4006" stroke="none" /><path d="M 120.89721153311464 102.0752229133903 l 9.986830829756357 0.9917543370425983 a31.035953700930214,31.035953700930214 0 0,0 -0.05736877587571534,0.5311636149489352 l -9.96827975237959 -1.163514273876325" fill="#ff5708" stroke="none" /><path d="M 120.8583938346157 102.4346265915055 l 12.759261016627754 1.4892822719402772 a33.8458827402383,33.8458827402383 0 0,0 -0.07252445911994647,0.5780912966378178 l -12.73173504826096 -1.7086913228654899" fill="#ff800b" stroke="none" /><path d="M 120.23288151984713 105.62410040840565 l 6.376139445625004 1.7723648717566336 a27.61788723602118,27.61788723602118 0 0,0 -0.13126040475258696,0.4569346886910943 l -6.344686403986318 -1.88185703595231" fill="#ff2403" stroke="none" /><path d="M 119.41010516605496 108.01547362559984 l 19.722284351918432 8.144389157450014 a42.33774999398756,42.33774999398756 0 0,0 -0.2839633592942131,0.6712054999512234 l -19.579170011431913 -8.4826691830674" fill="#fff316" stroke="none" /><line stroke="#e1ed5e" stroke-width="0.3" x1="174.80103733775053" x2="179.2010983576182" y1="140.37084112569926" y2="142.7455964860345" /><path d="M 175.68104954172406 140.8457921977663 a86.0,86.0 0 0,1 -30.038265399797805,32.042727171017184" fill="none" id="id29" stroke="none" /><text fill="#e1ed5e" style="font-size:6.75px; font-family:Arial;" text-anchor="middle"><textPath startOffset="22.206326154141568" xlink:href="#id29">May</textPath></text><path d="M 118.12598468904814 110.60418214915192 l 7.300277749628083 4.270856249990708 a29.457793348728707,29.457793348728707 0 0,0 -0.25981650894829134,0.435467413615009 l -7.225680364981564 -4.395885757491821" fill="#ff4006" stroke="none" /><path d="M 117.75023020441432 111.22182372390056 l 6.199238642809175 3.9192034396656106 a28.334215387618862,28.334215387618862 0 0,0 -0.2641762653772818,0.4100074304509795 l -6.130857514054843 -4.025332470038043" fill="#ff2f04" stroke="none" /><path d="M 117.14729908036423 112.12312394758627 l 17.23680582672554 12.18640513112414 a42.109617361007004,42.109617361007004 0 0,0 -0.42354295818932475,0.5882641248110037 l -17.024483076160614 -12.481302861386274" fill="#fff016" stroke="none" /><path d="M 115.56566222782051 114.09645910891815 l 44.01709404679438 39.86243291435737 a80.38449398770678,80.38449398770678 0 0,0 -0.9376414544635745,1.0176246123838806 l -43.324406184335075 -40.61420878154259" fill="#48f5ff" stroke="none" /><path d="M 114.0293411484842 115.62618273729858 l 14.150173198874338 15.760768080967598 a42.18086901097754,42.18086901097754 0 0,0 -0.5444498622129048,0.4804137013028681 l -13.876780983754845 -16.002004924042755" fill="#fff116" stroke="none" /><path d="M 112.92097659922987 116.55440617244103 l 13.49068084287954 17.284313496017635 a42.92591988111455,42.92591988111455 0 0,0 -0.5863911055657975,0.4496196947483561 l -13.191161008820249 -17.513972532593364" fill="#fffa17" stroke="none" /><line stroke="#e1ed5e" stroke-width="0.3" x1="143.8653032363475" x2="146.44561519142675" y1="172.8068346515853" y2="177.08958963109032" /><path d="M 144.38136562736335 173.6633856474863 a86.0,86.0 0 0,1 -40.68145358897372,12.25698825130547" fill="none" id="id30" stroke="none" /><text fill="#e1ed5e" style="font-size:6.75px; font-family:Arial;" text-anchor="middle"><textPath startOffset="21.466115282336833" xlink:href="#id30">June</textPath></text><path d="M 109.2508944713604 118.85261126421891 l 4.686577956875457 9.55088533913816 a31.638769839940856,31.638769839940856 0 0,0 -0.4909844900425252,0.23570239229873552 l -4.521480798832698 -9.630142007936456" fill="#ff6008" stroke="none" /><path d="M 101.98527174616119 120.90594882070398 l 1.3967896470386618 14.708924826409381 a35.77509698333776,35.77509698333776 0 0,0 -0.6135525934236441,0.05293989945526447 l -1.1433927358734761 -14.730788978143309" fill="#ff9b0e" stroke="none" /><path d="M 101.26447882468166 120.96189622390904 l 1.1564660813647503 19.17131509904215 a40.20616402158715,40.20616402158715 0 0,0 -0.691185949291316,0.03572641857111533 l -0.8262920636599547 -19.188381324375467" fill="#ffd714" stroke="none" /><line stroke="#e1ed5e" stroke-width="0.3" x1="102.19456741930631" x2="102.32365962044197" y1="184.97166512339345" y2="189.96999836594603" /><path d="M 102.22038585953345 185.97133177190398 a86.0,86.0 0 0,1 -42.740103519485714,-10.115201625700543" fill="none" id="id31" stroke="none" /><text fill="#e1ed5e" style="font-size:6.75px; font-family:Arial;" text-anchor="middle"><textPath startOffset="22.20632615414155" xlink:href="#id31">July</textPath></text><path d="M 94.46302465271185 120.25689768951611 l -1.9155018132686144 7.007819580498777 a28.264893837452643,28.264893837452643 0 0,0 -0.4682131239467499,-0.1323217056818362 l 2.035846105319978 -6.973809081478419" fill="#ff2e04" stroke="none" /><path d="M 93.42475214034765 119.94407469862007 l -2.0064382519991972 6.085938542574794 a27.408154367919284,27.408154367919284 0 0,0 -0.4467924192603595,-0.15157624680596707 l 2.1109004041967823 -6.0504993088707035" fill="#ff2103" stroke="none" /><path d="M 93.08242187328487 119.8279376855182 l -2.1782013012088735 6.243404682354196 a27.612462698286496,27.612462698286496 0 0,0 -0.44742766376515297,-0.16043164151239891 l 2.285348525603753 -6.20498549980184" fill="#ff2403" stroke="none" /><path d="M 92.7421414339146 119.70592522655815 l -3.824563414133255 10.384131900187965 a32.06605081450596,32.06605081450596 0 0,0 -0.5163088896665927,-0.19522384327639075 l 4.002742524560131 -10.316759806804942" fill="#ff6609" stroke="none" /><path d="M 92.40401165467489 119.57807347666478 l -2.8942644324343187 7.459743109528336 a29.00153321964046,29.00153321964046 0 0,0 -0.46385732242614974,-0.18457840151748742 l 3.0222428309023264 -7.408817863604782" fill="#ff3905" stroke="none" /><path d="M 91.40352486487194 119.15986991738527 l -3.0758112267905124 6.855384569766639 a28.51378149151578,28.51378149151578 0 0,0 -0.44608046579321614,-0.20477366298045435 l 3.193359688351148 -6.801423836452111" fill="#ff3204" stroke="none" /><path d="M 90.7491055286396 118.85261126421891 l -3.290836629680166 6.706471888257208 a28.470366183208753,28.470366183208753 0 0,0 -0.43809940852118046,-0.21967213822705267 l 3.4057899458841066 -6.648831909120854" fill="#ff3104" stroke="none" /><path d="M 90.42595943632237 118.69057910512821 l -3.1557867753607396 6.160772139150028 a27.922001410146414,27.922001410146414 0 0,0 -0.4258890986351388,-0.222805047644032 l 3.2613667765223737 -6.1055376725612795" fill="#ff2904" stroke="none" /><line stroke="#e1ed5e" stroke-width="0.3" x1="58.666819895761336" x2="56.23545636021788" y1="174.27360380694188" y2="178.64263932499728" /><path d="M 58.180547188652646 175.14741091055294 a86.0,86.0 0 0,1 -31.652253787137756,-30.449443065178592" fill="none" id="id32" stroke="none" /><text fill="#e1ed5e" style="font-size:6.75px; font-family:Arial;" text-anchor="middle"><textPath startOffset="22.20632615414155" xlink:href="#id32">August</textPath></text><path d="M 89.7882731507175 118.34994917583269 l -2.0549379982295806 3.6926181422145707 a25.225896226929855,25.225896226929855 0 0,0 -0.3776091230691936,-0.21441631507143277 l 2.118195888219981 -3.656698661348505" fill="#ff0000" stroke="none" /><path d="M 89.4739219176387 118.17145234162733 l -3.993405668545619 6.8939238545418995 a28.96702422148911,28.96702422148911 0 0,0 -0.42930802944887986,-0.253642750964236 l 4.111481569022881 -6.824162531283914" fill="#ff3905" stroke="none" /><path d="M 88.24862548938628 117.40417183066458 l -4.762029254926298 7.052721819097277 a29.509865315170664,29.509865315170664 0 0,0 -0.41853858189663545,-0.2878746530670497 l 4.882724721445824 -6.969706376665126" fill="#ff4106" stroke="none" /><path d="M 87.65650970185807 116.9893568818739 l -6.2905687247886 8.658225062280438 a31.70215474147097,31.70215474147097 0 0,0 -0.43872012561846846,-0.32455466061565197 l 6.438673820825634 -8.54866045292502" fill="#ff6108" stroke="none" /><path d="M 87.36589467227662 116.77436683061367 l -3.6305336527189285 4.820278262835178 a27.03455525574884,27.03455525574884 0 0,0 -0.36930653527760765,-0.2831685032123303 l 3.712968916490023 -4.757070417795481" fill="#ff1c02" stroke="none" /><path d="M 87.07902340077011 116.55440617244103 l -5.2878074325853035 6.774759734948137 a29.594083831938047,29.594083831938047 0 0,0 -0.39887541373925905,-0.3168907523758073 l 5.403640339041921 -6.682735068567199" fill="#ff4206" stroke="none" /><path d="M 86.51685102203217 116.09983520530335 l -6.840762029739141 8.168354554078066 a31.654484561378304,31.654484561378304 0 0,0 -0.41472578685684475,-0.3534383128432069 l 6.980353293173042 -8.049391851011906" fill="#ff6008" stroke="none" /><path d="M 85.97065885151581 115.62618273729859 l -5.943583061356795 6.620090997010833 a29.89672886042681,29.89672886042681 0 0,0 -0.37997382868167645,-0.3470970834081871 l 6.056656439505326 -6.5168011470160705" fill="#ff4606" stroke="none" /><path d="M 85.70375840098266 115.38237550388516 l -7.797007765077642 8.389372858484473 a32.45316144334642,32.45316144334642 0 0,0 -0.40591821770936654,-0.3838210109818898 l 7.940261817177825 -8.253917210756653" fill="#ff6c09" stroke="none" /><path d="M 85.44109423537348 115.13401014063109 l -5.885048417338254 6.117518985698776 a29.488688556826695,29.488688556826695 0 0,0 -0.3627811472872166,-0.35505770793057273 l 5.989479517001265 -6.015311174845634" fill="#ff4006" stroke="none" /><path d="M 84.9287848128048 114.62390073753433 l -7.812092879642317 7.580229557159487 a31.88525035538423,31.88525035538423 0 0,0 -0.3788171938719111,-0.3971883132835154 l 7.941416624893186 -7.444634127293471" fill="#ff6309" stroke="none" /><path d="M 84.67929136418377 114.36230785411682 l -4.674852843173502 4.382413196566484 a27.407791704695732,27.407791704695732 0 0,0 -0.31969700128428963,-0.34696795396949953 l 4.749596252453521 -4.30129398779564" fill="#ff2103" stroke="none" /><path d="M 84.19399662182784 113.82643327865904 l -15.913030691833578 13.92005631390254 a42.142197463401374,42.142197463401374 0 0,0 -0.47291069025704097,-0.5501019722083421 l 16.1502838916614 -13.644077242532669" fill="#fff016" stroke="none" /><path d="M 82.44556493220864 111.52570212397912 l -8.914814379449247 5.853192918558861 a31.664604200902286,31.664604200902286 0 0,0 -0.29522740502987793,-0.4581994887471797 l 9.014246647856172 -5.698871829890233" fill="#ff6008" stroke="none" /><path d="M 82.05923443525364 110.91462005526583 l -7.234520648746498 4.401263919205535 a29.468141065407444,29.468141065407444 0 0,0 -0.25990777537789234,-0.4356203814006567 l 7.309209299822623 -4.276081443918767" fill="#ff4006" stroke="none" /><line stroke="#e1ed5e" stroke-width="0.3" x1="26.63291911575756" x2="22.317208475507996" y1="142.92168965132927" y2="145.44649492493687" /><path d="M 25.769776987707644 143.4266507060508 a86.0,86.0 0 0,1 -11.730757126820373,-40.83630448921669" fill="none" id="id33" stroke="none" /><text fill="#e1ed5e" style="font-size:6.75px; font-family:Arial;" text-anchor="middle"><textPath startOffset="21.46611528233685" xlink:href="#id33">September</textPath></text><path d="M 81.87401531095188 110.60418214915194 l -5.812886441897957 3.4006928561219403 a27.734564624983555,27.734564624983555 0 0,0 -0.23752409930410406,-0.41414328810262335 l 5.870562537354439 -3.30012972216101" fill="#ff2603" stroke="none" /><path d="M 81.35079622478065 109.6543875284942 l -19.9903590060388 10.348681638326546 a43.510212456610745,43.510212456610745 0 0,0 -0.33859508559721313,-0.668080226407405 l 20.16553276142228 -10.003047200216457" fill="#fcff18" stroke="none" /><path d="M 81.02952815118164 109.00673069616217 l -11.625228931836393 5.519383339787894 a33.868937025610705,33.868937025610705 0 0,0 -0.24551009123577952,-0.5288068949188037 l 11.718513639911999 -5.318456377590263" fill="#ff800b" stroke="none" /><path d="M 80.73074385275274 108.34839909993369 l -9.794974433531006 4.243669559421237 a31.67474849741597,31.67474849741597 0 0,0 -0.21244558318292858,-0.5021586032336826 l 9.86657099790624 -4.074436430521396" fill="#ff6008" stroke="none" /><path d="M 80.20201598880116 107.00284435728193 l -6.301788208929058 2.2290371572540937 a27.68439535624702,27.68439535624702 0 0,0 -0.15504470160415984,-0.4506324776777686 l 6.339223741476447 -2.120231976487028" fill="#ff2503" stroke="none" /><path d="M 79.35854240842038 103.8639653848113 l -10.671201991937952 1.997589314041371 a31.856560920490097,31.856560920490097 0 0,0 -0.09625772024968886,-0.5398644141775 l 10.704006154526828 -1.8136061491306572" fill="#ff6309" stroke="none" /><path d="M 79.29508885075956 103.50808413554451 l -8.017150446147962 1.3583655631111955 a29.131411825705108,29.131411825705108 0 0,0 -0.07951244851562689,-0.4951240928073758 l 8.03934464902488 -1.2201622406106059" fill="#ff3b05" stroke="none" /><path d="M 79.23777060512086 103.15116336523772 l -7.4653503720995475 1.1330449227685566 a28.55084412335591,28.55084412335591 0 0,0 -0.06956338256422201,-0.4865261356345087 l 7.483747805680368 -1.0043733151536474" fill="#ff3204" stroke="none" /><path d="M 79.1416061653843 102.43462659150553 l -12.634161500210974 1.474680447290336 a33.71993393202314,33.71993393202314 0 0,0 -0.06233001089417735,-0.5770984895700599 l 12.657673812606204 -1.256985635835494" fill="#ff7e0b" stroke="none" /><path d="M 79.10278846688536 102.07522291339032 l -10.583573084998262 1.0510145497989258 a31.63563119092556,31.63563119092556 0 0,0 -0.049148820934928304,-0.5423531435117471 l 10.600096502210265 -0.8686800177386125" fill="#ff6008" stroke="none" /><path d="M 79.07016306316243 101.71520430193888 l -10.651770327079769 0.8729146979695803 a31.68747824188608,31.68747824188608 0 0,0 -0.039871058209506045,-0.5440089115654443 l 10.665217943953609 -0.6894326499073754" fill="#ff6108" stroke="none" /><path d="M 79.04373962182676 101.35467743843564 l -10.839514454485702 0.7006997150303975 a31.86213854172594,31.86213854172594 0 0,0 -0.030669051831204892,-0.5476165227498879 l 10.849969857204439 -0.514011475945072" fill="#ff6309" stroke="none" /><path d="M 79.0235259727143 100.99374915477108 l -10.636886046390755 0.503916745218828 a31.648815748711886,31.648815748711886 0 0,0 -0.021095996107966232,-0.5443939215950706 l 10.643984175349921 -0.3207455766097607" fill="#ff6008" stroke="none" /><line stroke="#e1ed5e" stroke-width="0.3" x1="15.007084014347285" x2="10.007500721073583" y1="101.09737516637583" y2="101.16192664675087" /><path d="M 14.007167355692545 101.11028546245083 a86.0,86.0 0 0,1 10.666146001902534,-42.60595125391555" fill="none" id="id34" stroke="none" /><text fill="#e1ed5e" style="font-size:6.75px; font-family:Arial;" text-anchor="middle"><textPath startOffset="22.20632615414155" xlink:href="#id34">October</textPath></text><path d="M 79.00175016825051 100.2711162175752 l -21.169603765674523 0.27332863198138696 a42.17136821598268,42.17136821598268 0 0,0 -0.0031241005637605112,-0.7259309476790723 l 21.171172163527785 0.09111179390136069" fill="#fff116" stroke="none" /><path d="M 79.00486145842228 99.54816195383935 l -21.165275719763393 -0.4554995819022899 a42.17017657372557,42.17017657372557 0 0,0 0.0218648460663868,-0.7255877944974388 l 21.15429917924136 0.8197575238247231" fill="#fff116" stroke="none" /><path d="M 79.03285615573316 98.82574320788736 l -23.813517570978235 -1.3336668532209794 a44.850834081404145,44.850834081404145 0 0,0 0.049804521130355606,-0.7704538978837449 l 23.787032458843466 1.743379815357736" fill="#ebff1a" stroke="none" /><path d="M 79.08570108090925 98.10471618934814 l -21.046372866304296 -1.9072525414676031 a42.13261515015225,42.13261515015225 0 0,0 0.07167133884228175,-0.7217206011868094 l 21.010424401779787 2.2692486733588426" fill="#fff016" stroke="none" /><path d="M 79.16333360222342 97.38593545837743 l -10.573076836228225 -1.326445637982874 a31.65595663538988,31.65595663538988 0 0,0 0.07248309755625036,-0.5400832679455587 l 10.54867773961414 1.508247247993092" fill="#ff6008" stroke="none" /><path d="M 79.21141760316559 97.0276538004421 l -11.37466211716157 -1.6263462832534836 a32.490341183474186,32.490341183474186 0 0,0 0.08392426330237149,-0.5529560370313067 l 11.344981960419895 1.8219014326768823" fill="#ff6c0a" stroke="none" /><path d="M 79.32604984820605 96.31383870115002 l -31.16023622950217 -5.55586407091376 a52.65166579270118,52.65166579270118 0 0,0 0.16676606834006766,-0.8908710054409847 l 31.059984437252243 6.091413153817317" fill="#8eff24" stroke="none" /><path d="M 79.3925641242962 95.95851677861259 l -10.46004735430226 -2.0514005785247447 a31.6593074347172,31.6593074347172 0 0,0 0.1094819617501338,-0.5338729272209687 l 10.423186096637131 2.2311491619091157" fill="#ff6008" stroke="none" /><path d="M 79.46518482838121 95.60439243477599 l -10.362598130287335 -2.21817992303246 a31.597346940662973,31.597346940662973 0 0,0 0.11842326476543674,-0.5308682754747479 l 10.322880478519862 2.3962263680571674" fill="#ff5f08" stroke="none" /><path d="M 79.62865764111835 94.90015583598534 l -30.785481336501313 -7.7069617978261356 a52.73551829217891,52.73551829217891 0 0,0 0.2280275476976357,-0.8786831595698418 l 30.64825745693337 8.235741382944841" fill="#8dff24" stroke="none" /><path d="M 79.81627453868168 94.20196356495316 l -10.296043193856068 -2.9576716988744867 a31.71243797312605,31.71243797312605 0 0,0 0.15523102913562528,-0.5233618607670777 l 10.243606267608737 3.1344629463881035" fill="#ff6108" stroke="none" /><path d="M 80.02781315780177 93.51064311812611 l -20.644990205399147 -6.707963946269612 a42.70742732074623,42.70742732074623 0 0,0 0.23318805679248125,-0.6972026090734225 l 20.526464854834895 7.0623396582653575" fill="#fff717" stroke="none" /><path d="M 80.2630227832202 92.82701384747504 l -19.82785593468017 -7.206014096870169 a42.09669429391067,42.09669429391067 0 0,0 0.25337280942857265,-0.6789131602331662 l 19.70087853674997 7.546250394132677" fill="#fff016" stroke="none" /><path d="M 80.52162464483688 92.15188598940014 l -44.84864965220653 -18.070157765938514 a69.35216621116652,69.35216621116652 0 0,0 0.45567118593355493,-1.1034439202523507 l 44.53095677938678 18.839476256644176" fill="#3aff91" stroke="none" /><path d="M 81.10775173730289 90.83032412892265 l -9.857613088833961 -4.784561140114535 a31.957397552003155,31.957397552003155 0 0,0 0.24445885375221071,-0.4928141320829991 l 9.773794222128338 4.953534860696496" fill="#ff6509" stroke="none" /><path d="M 81.43458229118936 90.18545643968196 l -9.350807938449424 -4.9432721243070255 a31.577029280318726,31.577029280318726 0 0,0 0.2581676275319949,-0.47834540494936717 l 9.264332211698958 5.103498512588866" fill="#ff5f08" stroke="none" /><path d="M 81.6062741919709 89.86733742301443 l -18.828901421622664 -10.372390389626517 a42.49683723574239,42.49683723574239 0 0,0 0.3584757135976699,-0.637688294695233 l 18.647568066732564 10.694962194256535" fill="#fff517" stroke="none" /><line stroke="#e1ed5e" stroke-width="0.3" x1="26.266209847984243" x2="21.928928074336255" y1="57.711370442889674" y2="55.22380399835377" /><path d="M 25.398753493254645 57.213857153982495 a86.0,86.0 0 0,1 29.58750427330803,-30.492523968695096" fill="none" id="id35" stroke="none" /><text fill="#e1ed5e" style="font-size:6.75px; font-family:Arial;" text-anchor="middle"><textPath startOffset="21.46611528233685" xlink:href="#id35">November</textPath></text><path d="M 81.78341655067845 89.55222093294921 l -10.991864058889686 -6.304177045153473 a33.67137418379517,33.67137418379517 0 0,0 0.29268493354959363,-0.5002934266514174 l 10.881719450869767 6.492449884158783" fill="#ff7d0b" stroke="none" /><path d="M 81.96595687620814 89.24020034530311 l -19.95213956627025 -11.904209330208129 a44.2335548947926,44.2335548947926 0 0,0 0.3957517214462337,-0.6505117741488529 l 19.7442720465378 12.245888877564056" fill="#f3ff19" stroke="none" /><path d="M 82.15384107792192 88.93136811851018 l -10.256073546562584 -6.361072045365836 a33.068565870012705,33.068565870012705 0 0,0 0.3041873503718606,-0.4811513375380853 l 10.145058599944761 6.536671030618137" fill="#ff740a" stroke="none" /><path d="M 82.54541684631803 88.32363383020206 l -17.530956498594513 -11.727456656059312 a42.09188648213723,42.09188648213723 0 0,0 0.40804182293389574,-0.5987510254391094 l 17.326490209991878 12.027485704768836" fill="#ffef16" stroke="none" /><path d="M 82.95767976084542 87.72973835380427 l -8.637104538274315 -6.218609383168578 a31.64286979463298,31.64286979463298 0 0,0 0.32206020583219597,-0.43928975881658006 l 8.528781719928485 6.366361585656658" fill="#ff6008" stroke="none" /><path d="M 83.39014120810768 87.1503855733568 l -8.418747572098367 -6.5128585144568945 a31.643901385866265,31.643901385866265 0 0,0 0.33700140090646546,-0.42795755612312925 l 8.30539209059793 6.656808464533071" fill="#ff6008" stroke="none" /><path d="M 83.84228863543731 86.58626213691792 l -8.167423974320384 -6.780396167273086 a31.615111236415515,31.615111236415515 0 0,0 0.35121285261331914,-0.4157252392579105 l 8.049500508219941 6.919980356160113" fill="#ff6008" stroke="none" /><path d="M 84.31358615837235 86.03803664274999 l -15.808092564474741 -14.070265604462163 a42.162895943303994,42.162895943303994 0 0,0 0.48719499193746063,-0.5379728785072404 l 15.563553931921236 14.34029127023896" fill="#fff016" stroke="none" /><path d="M 84.5562425177563 85.77008943001954 l -7.797748292260111 -7.184861648705361 a31.60316534533356,31.60316534533356 0 0,0 0.37206358107320464,-0.39689148690591514 l 7.67291738921645 7.318022552489326" fill="#ff5f08" stroke="none" /><path d="M 86.65592168130627 83.78471172551755 l -4.1971435171677705 -5.100231760848422 a27.605178098891084,27.605178098891084 0 0,0 0.3695105593152366,-0.29878517456264764 l 4.108729559288033 5.171723032675204" fill="#ff2403" stroke="none" /><path d="M 87.51073957382395 83.11751280151077 l -6.983441817335211 -9.439939841069839 a32.742270811862745,32.742270811862745 0 0,0 0.4559824024829584,-0.33129060742592753 l 6.819914098498471 9.558749683312435" fill="#ff700a" stroke="none" /><path d="M 87.80319425747018 82.90503203632743 l -19.078580285708682 -26.74042086603704 a53.84877979181299,53.84877979181299 0 0,0 0.7591879460844045,-0.5318596727375582 l 18.61546120004062 27.064865381538542" fill="#80ff25" stroke="none" /><path d="M 88.09926311788651 82.69761687909137 l -24.63248229189529 -35.81296268081842 a64.46639483368995,64.46639483368995 0 0,0 0.9197061552718105,-0.6209897015193492 l 24.01237144221694 36.23166429463644" fill="#33ff56" stroke="none" /><path d="M 88.39885842347998 82.49532879139004 l -24.070247641488727 -36.31899223838872 a64.57116040151712,64.57116040151712 0 0,0 0.9317709897634093,-0.6060497706383932 l 23.44150962594103 36.727940933186645" fill="#34ff58" stroke="none" /><path d="M 89.00827224532344 82.1063720568725 l -11.531376999760854 -18.772132490078242 a43.03101481402218,43.03101481402218 0 0,0 0.634477834074836,-0.3822657958091534 l 11.206537099468369 18.967844895346012" fill="#fffc17" stroke="none" /><line stroke="#e1ed5e" stroke-width="0.3" x1="56.762969772571076" x2="54.21961505331055" y1="26.818313649435495" y2="22.513508569990535" /><path d="M 56.25429882871897 25.957352633546506 a86.0,86.0 0 0,1 42.265352541879196,-11.944610805530505" fill="none" id="id36" stroke="none" /><text fill="#e1ed5e" style="font-size:6.75px; font-family:Arial;" text-anchor="middle"><textPath startOffset="22.20632615414155" xlink:href="#id36">December</textPath></text><path d="M 89.3179101791058 81.91981866633112 l -5.82748342650985 -9.86342174956812 a32.45629310449503,32.45629310449503 0 0,0 0.4834492635785402,-0.2800450179554561 l 5.656837430465989 9.962270924913623" fill="#ff6c09" stroke="none" /><path d="M 89.63071344664047 81.73862282372117 l -6.411470300831893 -11.291256810727043 a33.984584390123516,33.984584390123516 0 0,0 0.511186264368486,-0.284474602671439 l 6.216159947391362 11.399946810958667" fill="#ff820b" stroke="none" /><path d="M 89.94658935756843 81.56283822128135 l -14.275832819166437 -26.180750849072286 a50.8199784993549,50.8199784993549 0 0,0 0.7716286609449682,-0.41217730748399234 l 13.823059111693164 26.422606883058027" fill="#a3ff22" stroke="none" /><path d="M 90.26544431104013 81.39251694778311 l -20.05027579742217 -38.32585471938178 a64.25372468960161,64.25372468960161 0 0,0 0.9844267643922969,-0.5042616240647037 l 19.387588545441112 38.66530886875899" fill="#33ff54" stroke="none" /><path d="M 90.58718382345135 81.22770947309562 l -28.23844852964592 -56.31687158071317 a84.0,84.0 0 0,0 1.298114931958296,-0.6369793594606814 l 27.264862330677197 56.79460610030868" fill="#4dd2ff" stroke="none" /><path d="M 91.23893434514133 80.91482961587045 l -9.402352580891078 -20.48215457881546 a43.537144678194714,43.537144678194714 0 0,0 0.6837775631317966,-0.30679106093968167 l 9.048392899292507 20.640965970271672" fill="#fcff18" stroke="none" /><path d="M 91.56875222667455 80.76684994638697 l -8.62531706123521 -19.67585602496109 a42.4833750775299,42.4833750775299 0 0,0 0.6722816934356957,-0.2878359361792838 l 8.285351610009206 19.82141148910316" fill="#fff517" stroke="none" /><path d="M 91.90106846888425 80.62456947434976 l -9.015060131414389 -21.567125316432342 a44.37546156951161,44.37546156951161 0 0,0 0.7072944181798313,-0.2885231522807548 l 8.642481843646177 21.719109354896673" fill="#f1ff19" stroke="none" /><path d="M 92.23578459929587 80.48803036053334 l -9.941861020159525 -24.984532289966754 a47.889913616308974,47.889913616308974 0 0,0 0.7685574816860645,-0.2981883626373154 l 9.510320373473784 25.151963356494623" fill="#c6ff1e" stroke="none" /><path d="M 92.91201910852362 80.23233633223022 l -14.322531676306006 -39.94409598206794 a63.434251701231226,63.434251701231226 0 0,0 1.031011984019494,-0.35969983677342443 l 13.632837688223226 40.18471667201357" fill="#32ff4a" stroke="none" /><path d="M 93.25333710446033 80.11325718540243 l -7.342335708139824 -21.642572653621972 a43.85412095702503,43.85412095702503 0 0,0 0.7169463352383736,-0.2363659346195593 l 6.968706550659041 21.765752312500766" fill="#f8ff18" stroke="none" /><path d="M 93.59665428221793 80.00007090966166 l -6.932118751856498 -21.651475586883663 a43.73412996970106,43.73412996970106 0 0,0 0.7189362560624238,-0.2233769943609641 l 6.5583971230833455 21.767592716127155" fill="#f9ff18" stroke="none" /><path d="M 93.94186890950719 79.89281104454417 l -6.24122887517066 -20.71489811507116 a42.634693013538296,42.634693013538296 0 0,0 0.7045074066693664,-0.20566503087189072 l 5.883731250777872 20.81926147486175" fill="#fff717" stroke="none" /><path d="M 94.63758080256005 79.69619591428918 l -5.415908633481963 -20.506331898264282 a42.209472276508805,42.209472276508805 0 0,0 0.7040763310360941,-0.1794847336945557 l 5.062123413760869 20.5965196281277" fill="#fff116" stroke="none" /><path d="M 94.98787191387505 79.60689891045804 l -5.042963338688187 -20.51856205379474 a42.12919468391492,42.12919468391492 0 0,0 0.7057167989116763,-0.16702036550709543 l 4.689022852813977 20.602328331442703" fill="#fff016" stroke="none" /><path d="M 96.04723909329186 79.375362276772 l -2.111791264650537 -11.018862716077454 a32.219402742624766,32.219402742624766 0 0,0 0.5455893719251518,-0.09970297039982097 l 1.9218067716224916 11.05358116782801" fill="#ff6809" stroke="none" /><path d="M 96.40284397218896 79.31037775812273 l -1.8150746389683332 -10.43969411688787 a31.59630639417383,31.59630639417383 0 0,0 0.5366418897470944,-0.08855050993341375 l 1.635103543082353 10.46939088976091" fill="#ff5f08" stroke="none" /><path d="M 98.19473922651362 79.07773832637324 l -0.9122886435670692 -10.573066231160889 a31.612351299203027,31.612351299203027 0 0,0 0.5425429307408158,-0.04211177329530625 l 0.7301555234639192 10.587203266644657" fill="#ff6008" stroke="none" /><path d="M 98.55514903715128 79.0497635885617 l -0.7322495578451184 -10.617566616545677 a31.642786771882147,31.642786771882147 0 0,0 0.5437103975128873,-0.032798095986664874 l 0.549377111492608 10.628597981912648" fill="#ff6008" stroke="none" /><path d="M 99.27714615592234 79.0124445844662 l -0.36551192730805504 -10.612382976540122 a31.618675595843534,31.618675595843534 0 0,0 0.5441022471786449,-0.014052555786633728 l 0.18278304493453118 10.617102324469116" fill="#ff6008" stroke="none" /></svg>