<?xml version="1.0" encoding="utf-8" ?>
<svg baseProfile="full" height="200mm" version="1.1" viewBox="0,0,200,200" width="200mm" xmlns="http://www.w3.org/2000/svg" xmlns:ev="http://www.w3.org/2001/xml-events" xmlns:xlink="http://www.w3.org/1999/xlink"><defs /><rect fill="#1a1a1a" height="200" width="200" x="0" y="0" /><rect fill="#1a1a1a" height="200" width="180" x="10" y="0" /><text alignment-baseline="middle" fill="#e1ed5e" style="dominant-baseline: central; font-size:9.0px; font-family:Arial;" text-anchor="middle" x="100.0" y="100.0">2021</text><line stroke="#e1ed5e" stroke-width="0.3" x1="100.0" x2="100.0" y1="15.0" y2="10.0" /><path d="M 100.0 14.0 a86.0,86.0 0 0,1 42.46469731375804,11.215312516191453" fill="none" id="id25" stroke="none" /><text fill="#e1ed5e" style="font-size:6.75px; font-family:Arial;" text-anchor="middle"><textPath startOffset="22.20632615414155" xlink:href="#id25">January</textPath></text><path d="M 110.36928655335952 81.73862282372117 l 5.0432264867455885 -8.881639116243992 a31.213601068565758,31.213601068565758 0 0,0 0.46493887646529,0.2693226069766487 l -5.195362095676207 8.793512351877293" fill="#ff750a" stroke="none" /><line stroke="#e1ed5e" stroke-width="0.3" x1="143.23703022742887" x2="145.7803849466894" y1="26.81831364943548" y2="22.513508569990506" /><path d="M 143.74570117128098 25.957352633546492 a86.0,86.0 0 0,1 28.547481713284135,27.462654790039103" fill="none" id="id26" stroke="none" /><text fill="#e1ed5e" style="font-size:6.75px; font-family:Arial;" text-anchor="middle"><textPath startOffset="19.985693538727396" xlink:href="#id26">February</textPath></text><path d="M 112.48926042617603 83.11751280151076 l 4.561087702914158 -6.165497565752311 a28.669216470212092,28.669216470212092 0 0,0 0.39420697735748844,0.29690852257794564 l -4.6665408340300285 6.0860724536685185" fill="#ff5207" stroke="none" /><path d="M 112.77801427241765 83.33499621200491 l 6.213033952857871 -8.102998803407063 a31.210797251311035,31.210797251311035 0 0,0 0.4235267211496753,0.33056932372685577 l -6.351593229166977 7.994851090456983" fill="#ff750a" stroke="none" /><path d="M 113.89432698308785 84.25364557470407 l 1.536957005590284 -1.7418238231995085 a23.322969450530593,23.322969450530593 0 0,0 0.2987439294679581,0.2682152495593587 l -1.5667119226542319 1.7151095648708523" fill="#ff0400" stroke="none" /><path d="M 114.16331599549186 84.49514656593476 l 1.6201523450958972 -1.7736118194047688 a23.4022057587251,23.4022057587251 0 0,0 0.29508188508196387,0.27424645299808975 l -1.650442113972708 1.7454607803320383" fill="#ff0500" stroke="none" /><path d="M 114.42810811169701 84.74124197986012 l 1.5400429029342717 -1.6287057051822915 a23.241520559123106,23.241520559123106 0 0,0 0.2883240737894308,0.27736753054656815 l -1.5678502203361206 1.6019550878734214" fill="#ff0300" stroke="none" /><path d="M 114.94478906791727 85.2469230424477 l 5.63476994486737 -5.562486981712629 a28.917821275660565,28.917821275660565 0 0,0 0.3466499538538243,0.35725324883757226 l -5.729684162424302 5.4646695373249425" fill="#ff5507" stroke="none" /><path d="M 117.04232023915458 87.72973835380427 l 2.5394016154105064 -1.8283380319465672 a24.12911817025368,24.12911817025368 0 0,0 0.23978297416156033,0.3391560121057856 l -2.5704972093759495 1.7843555195089884" fill="#ff1001" stroke="none" /><path d="M 117.65298651832404 88.62581576622439 l 1.792543023495422 -1.1549725353861418 a23.132409915700638,23.132409915700638 0 0,0 0.21278777276379915,0.3365791554181691 l -1.812158392505177 1.1239457322537665" fill="#ff0100" stroke="none" /><line stroke="#e1ed5e" stroke-width="0.3" x1="172.23445277983987" x2="176.4835382374775" y1="55.19839476539836" y2="52.563006222186495" /><path d="M 173.08426987136738 54.67131705675599 a86.0,86.0 0 0,1 12.851231095245387,41.99856678651699" fill="none" id="id27" stroke="none" /><text fill="#e1ed5e" style="font-size:6.75px; font-family:Arial;" text-anchor="middle"><textPath startOffset="22.20632615414155" xlink:href="#id27">March</textPath></text><path d="M 118.89224826269711 90.83032412892265 l 6.085937444198848 -2.953913846513747 a27.764927315746064,27.764927315746064 0 0,0 0.20498687994693476,0.43175464734028624 l -6.135882517987539 2.8487167835329203" fill="#ff4506" stroke="none" /><path d="M 119.04729006885535 91.15688171328212 l 6.339278336205032 -2.9431477116607003 a27.989175078400315,27.989175078400315 0 0,0 0.19911990032477325,0.43873430602264835 l -6.389000553493152 2.833591396795989" fill="#ff4806" stroke="none" /><path d="M 119.196687751892 91.48605970444005 l 5.6223214840906275 -2.4935608713682256 a27.150475159667398,27.150475159667398 0 0,0 0.18579883393474908,0.4288493254924699 l -5.6644110278680575 2.396412401289153" fill="#ff3c05" stroke="none" /><path d="M 119.34039704204932 91.81776055985345 l 5.682497155337569 -2.404064003538001 a27.17011326099665,27.17011326099665 0 0,0 0.1785183997553941,0.4322964649601386 l -5.723037241979161 2.3058929681245592" fill="#ff3c05" stroke="none" /><path d="M 119.47837535516314 92.15188598940014 l 5.834400223646369 -2.350762694718719 a27.290175769926147,27.290175769926147 0 0,0 0.1718065362688747,0.43722889496955264 l -5.874000309796943 2.2499847948533818" fill="#ff3e05" stroke="none" /><path d="M 119.61058180528143 92.48833698450437 l 6.410880288780188 -2.4556320072579827 a27.865093927408438,27.865093927408438 0 0,0 0.16771523873312633,0.44939345703417455 l -6.452200116014939 2.344915413194475" fill="#ff4606" stroke="none" /><path d="M 119.85752413597 93.16781622104841 l 19.428567584028173 -6.684596900749419 a41.54636401149018,41.54636401149018 0 0,0 0.22684850150002875,0.6782481456628201 l -19.54075337929997 6.349175652164285" fill="#fffc17" stroke="none" /><path d="M 120.08093135843002 93.85539295169968 l 6.627347338868729 -2.0279161580248 a27.930669281821814,27.930669281821814 0 0,0 0.13671943294736227,0.4609499610276593 l -6.6612726689277935 1.913536810250611" fill="#ff4706" stroke="none" /><path d="M 120.28053869075195 94.5502522615342 l 6.625869349005001 -1.780490994382507 a27.860925069636103,27.860925069636103 0 0,0 0.12047019970521908,0.46422082235149126 l -6.655535880580523 1.6661737464821653" fill="#ff4606" stroke="none" /><path d="M 120.53481517161879 95.60439243477599 l 10.351754167892322 -2.215858704032335 a31.586257324886446,31.586257324886446 0 0,0 0.10922934506396857,0.53264107854424 l -10.388362808871289 2.0373419693246833" fill="#ff7a0b" stroke="none" /><path d="M 120.73433829027371 96.67025291283417 l 6.236577292122808 -1.0015378731460036 a27.316484341147984,27.316484341147984 0 0,0 0.07055991845071082,0.46490170237400374 l -6.252893104012819 0.8940370583799178" fill="#ff3e05" stroke="none" /><line stroke="#e1ed5e" stroke-width="0.3" x1="184.98032266829074" x2="189.97916517819016" y1="98.17113171792111" y2="98.06355123074" /><path d="M 185.9800911702706 98.14961562048488 a86.0,86.0 0 0,1 -9.607161424134198,41.387399972396054" fill="none" id="id28" stroke="none" /><text fill="#e1ed5e" style="font-size:6.75px; font-family:Arial;" text-anchor="middle"><textPath startOffset="21.466115282336823" xlink:href="#id28">April</textPath></text><path d="M 120.99824983174949 100.27111621757518 l 10.230195564944212 0.1320858618620896 a31.231048234267497,31.231048234267497 0 0,0 -0.01156729216417339,0.5374866140673535 l -10.226406210095032 -0.308162291719558" fill="#ff750a" stroke="none" /><path d="M 120.9764740272857 100.99374915477107 l 8.159703798052917 0.38656157092701676 a29.168855239265582,29.168855239265582 0 0,0 -0.028076619277093668,0.5013268979985058 l -8.151840827888293 -0.5269601852609459" fill="#ff5908" stroke="none" /><path d="M 120.95626037817324 101.35467743843564 l 8.173659358647988 0.5283706025217829 a29.190719309366123,29.190719309366123 0 0,0 -0.03672948853413434,0.5011446893337587 l -8.163353311449516 -0.6689884283523119" fill="#ff5908" stroke="none" /><path d="M 120.89721153311464 102.0752229133903 l 9.638325812929018 0.9571456240473016 a30.68573446992053,30.68573446992053 0 0,0 -0.05672140899391213,0.52516980162648 l -9.620422102434054 -1.122911747558573" fill="#ff6e0a" stroke="none" /><path d="M 120.8583938346157 102.4346265915055 l 12.314008007829894 1.4373115965487662 a33.39760694015068,33.39760694015068 0 0,0 -0.07156390033684626,0.5704346980342919 l -12.2874425982462 -1.649064048870453" fill="#ff930d" stroke="none" /><path d="M 120.23288151984713 105.62410040840565 l 6.153634766946553 1.7105156164738347 a27.3869464158684,27.3869464158684 0 0,0 -0.13016280502426267,0.4531138000452408 l -6.12327932503619 -1.8161868920236575" fill="#ff3f05" stroke="none" /><path d="M 119.41010516605496 108.01547362559984 l 19.03404649577498 7.860178827992101 a41.593138109849576,41.593138109849576 0 0,0 -0.2789691758050045,0.6594007254406877 l -18.895926338777667 -8.186654079098952" fill="#fffd17" stroke="none" /><line stroke="#e1ed5e" stroke-width="0.3" x1="174.80103733775053" x2="179.2010983576182" y1="140.37084112569926" y2="142.7455964860345" /><path d="M 175.68104954172406 140.8457921977663 a86.0,86.0 0 0,1 -30.038265399797805,32.042727171017184" fill="none" id="id29" stroke="none" /><text fill="#e1ed5e" style="font-size:6.75px; font-family:Arial;" text-anchor="middle"><textPath startOffset="22.206326154141568" xlink:href="#id29">May</textPath></text><path d="M 118.12598468904814 110.60418214915192 l 7.045523917972315 4.121818496709123 a29.162646323254084,29.162646323254084 0 0,0 -0.2572133244912112,0.4311043267300525 l -6.973529717782877 -4.242484917325279" fill="#ff5908" stroke="none" /><path d="M 117.75023020441432 111.22182372390056 l 5.982907175464033 3.782437123706722 a28.07827725262396,28.07827725262396 0 0,0 -0.2617900062292651,0.40630390326139193 l -5.916912305857717 -3.8848626268895665" fill="#ff4906" stroke="none" /><path d="M 117.14729908036423 112.12312394758627 l 16.63530236610879 11.761142763343473 a41.37296649758231,41.37296649758231 0 0,0 -0.4161336463645983,0.577973238723184 l -16.43038892736859 -12.045749607517788" fill="#fffa17" stroke="none" /><path d="M 115.56566222782051 114.09645910891815 l 42.481053398567745 38.47137522144001 a78.31218552176136,78.31218552176136 0 0,0 -0.9134691019648029,0.9913902978440635 l -41.812537888607224 -39.196916774085416" fill="#46fff6" stroke="none" /><path d="M 114.0293411484842 115.62618273729858 l 13.656382282331517 15.210773108698358 a41.44173171738342,41.44173171738342 0 0,0 -0.5349094424185898,0.4719953900799741 l -13.39253048700634 -15.443591640550622" fill="#fffb17" stroke="none" /><path d="M 112.92097659922987 116.55440617244103 l 13.019903873257569 16.681152186042233 a42.16078295155378,42.16078295155378 0 0,0 -0.5759389244296221,0.44160540795700504 l -12.730836220334453 -16.902796935826608" fill="#faff18" stroke="none" /><line stroke="#e1ed5e" stroke-width="0.3" x1="143.8653032363475" x2="146.44561519142675" y1="172.8068346515853" y2="177.08958963109032" /><path d="M 144.38136562736335 173.6633856474863 a86.0,86.0 0 0,1 -40.68145358897372,12.25698825130547" fill="none" id="id30" stroke="none" /><text fill="#e1ed5e" style="font-size:6.75px; font-family:Arial;" text-anchor="middle"><textPath startOffset="21.466115282336833" xlink:href="#id30">June</textPath></text><path d="M 109.2508944713604 118.85261126421891 l 4.523032988750333 9.21759327556232 a31.267514461203135,31.267514461203135 0 0,0 -0.4852231840964586,0.23293661533063778 l -4.3636971366536415 -9.29408416739252" fill="#ff760a" stroke="none" /><path d="M 101.98527174616119 120.90594882070398 l 1.348046636593842 14.195635457487032 a35.259498440558666,35.259498440558666 0 0,0 -0.6047099389024025,0.052176918015222 l -1.1034923799498977 -14.216736627780918" fill="#ffac0f" stroke="none" /><path d="M 101.26447882468166 120.96189622390904 l 1.116109511996878 18.502304117972304 a39.535936936575524,39.535936936575524 0 0,0 -0.6796640457407613,0.03513086776542376 l -0.7974573978426371 -18.518774792499933" fill="#ffe315" stroke="none" /><line stroke="#e1ed5e" stroke-width="0.3" x1="102.19456741930631" x2="102.32365962044197" y1="184.97166512339345" y2="189.96999836594603" /><path d="M 102.22038585953345 185.97133177190398 a86.0,86.0 0 0,1 -42.740103519485714,-10.115201625700543" fill="none" id="id31" stroke="none" /><text fill="#e1ed5e" style="font-size:6.75px; font-family:Arial;" text-anchor="middle"><textPath startOffset="22.20632615414155" xlink:href="#id31">July</textPath></text><path d="M 97.65516085044442 120.86867818915974 l -0.24582114816396247 2.1877673076619217 a23.2015344261126,23.2015344261126 0 0,0 -0.39649497374575876,-0.04801001958320694 l 0.28344354496111057 -2.1832117593533664" fill="#ff0200" stroke="none" /><path d="M 96.93821686468263 120.77559828337769 l -0.34631766993337715 2.3499237114406064 a23.3753057441304,23.3753057441304 0 0,0 -0.39756289947567636,-0.06209114860411977 l 0.38671643301757064 -2.343614255489381" fill="#ff0500" stroke="none" /><path d="M 94.46302465271185 120.25689768951611 l -1.848657585800884 6.76327150288963 a28.011374778981516,28.011374778981516 0 0,0 -0.4640135344832466,-0.13113485975088487 l 1.9648022883887446 -6.730447849800223" fill="#ff4806" stroke="none" /><path d="M 93.42475214034765 119.94407469862007 l -1.9364206649692324 5.873560847353342 a27.184532481868132,27.184532481868132 0 0,0 -0.4431470602140275,-0.15033954309595804 l 2.0372374581204857 -5.839358317359261" fill="#ff3d05" stroke="none" /><path d="M 93.08242187328487 119.8279376855182 l -2.102189792245558 6.025531976690587 a27.381711175283804,27.381711175283804 0 0,0 -0.44368860521121417,-0.1590909481442878 l 2.205597958086499 -5.988453487506342" fill="#ff3f05" stroke="none" /><path d="M 92.7421414339146 119.70592522655815 l -3.6910996997957364 10.021762483472754 a31.679884843432262,31.679884843432262 0 0,0 -0.5100910699261623,-0.19287279588824585 l 3.8630609904821815 -9.956741437477875" fill="#ff7b0b" stroke="none" /><path d="M 92.40401165467489 119.57807347666478 l -2.7932648569010166 7.199424501730589 a28.72230805633374,28.72230805633374 0 0,0 -0.45939132969312607,-0.18280129084143149 l 2.9167772626360007 -7.150276366483092" fill="#ff5207" stroke="none" /><path d="M 91.40352486487194 119.15986991738527 l -2.9684763112779313 6.616155934019069 a28.251577135621876,28.251577135621876 0 0,0 -0.4419784409093906,-0.20289062454790546 l 3.0819227479547413 -6.564078239137089" fill="#ff4c07" stroke="none" /><path d="M 90.7491055286396 118.85261126421891 l -3.175998089351083 6.472439777559469 a28.209676867772632,28.209676867772632 0 0,0 -0.43408794501679765,-0.21766070714933883 l 3.2869399420506413 -6.416811229500827" fill="#ff4b07" stroke="none" /><path d="M 90.42595943632237 118.69057910512821 l -3.045660996522708 5.945783016511987 a27.68044808266497,27.68044808266497 0 0,0 -0.4222047306200291,-0.22087756043251283 l 3.147556629669233 -5.892476037134757" fill="#ff4406" stroke="none" /><line stroke="#e1ed5e" stroke-width="0.3" x1="58.666819895761336" x2="56.23545636021788" y1="174.27360380694188" y2="178.64263932499728" /><path d="M 58.180547188652646 175.14741091055294 a86.0,86.0 0 0,1 -31.652253787137756,-30.449443065178592" fill="none" id="id32" stroke="none" /><text fill="#e1ed5e" style="font-size:6.75px; font-family:Arial;" text-anchor="middle"><textPath startOffset="22.20632615414155" xlink:href="#id32">August</textPath></text><path d="M 89.7882731507175 118.34994917583269 l -1.9832279418703294 3.563758850440544 a25.078427419178688,25.078427419178688 0 0,0 -0.37540164680456317,-0.21316285243678407 l 2.0442783555961 -3.529092832209127" fill="#ff1e03" stroke="none" /><path d="M 89.4739219176387 118.17145234162733 l -3.854049957666032 6.653350334284111 a28.68900329996704,28.68900329996704 0 0,0 -0.4251875988153578,-0.2512083279174891 l 3.9680054275097723 -6.586023434072873" fill="#ff5207" stroke="none" /><path d="M 88.24862548938628 117.40417183066458 l -4.5958513037913375 6.8066068124307435 a29.21290116253624,29.21290116253624 0 0,0 -0.4143267376882564,-0.28497770821488067 l 4.712334926102485 -6.726488314850761" fill="#ff5908" stroke="none" /><path d="M 87.65650970185807 116.9893568818739 l -6.071050161126354 8.35608368004792 a31.32868745421583,31.32868745421583 0 0,0 -0.43355178244068987,-0.32073124389036617 l 6.213986913985607 -8.250342487417788" fill="#ff770a" stroke="none" /><path d="M 87.36589467227662 116.77436683061367 l -3.5038408896891258 4.652067627675872 a26.823970655208292,26.823970655208292 0 0,0 -0.3664298366053811,-0.28096277333919123 l 3.583399454787994 -4.591065512509314" fill="#ff3705" stroke="none" /><path d="M 87.07902340077011 116.55440617244103 l -5.103281685660459 6.538344620315935 a29.29418075141914,29.29418075141914 0 0,0 -0.39483325565107524,-0.31367941752370776 l 5.215072434028893 -6.449531288787096" fill="#ff5a08" stroke="none" /><path d="M 86.51685102203217 116.09983520530335 l -6.602043668837035 7.883307917177128 a31.282680794533047,31.282680794533047 0 0,0 -0.40985454627599593,-0.34928693594090005 l 6.736763691690087 -7.768496591013277" fill="#ff760a" stroke="none" /><path d="M 85.97065885151581 115.62618273729859 l -5.7361730681244 6.389073273406511 a29.586264540557384,29.586264540557384 0 0,0 -0.3760279683555995,-0.34349263355576115 l 5.8453005859468545 -6.289387873264174" fill="#ff5e08" stroke="none" /><path d="M 85.70375840098266 115.38237550388516 l -7.524919815587707 8.096613465734423 a32.05348668269594,32.05348668269594 0 0,0 -0.40091915877978046,-0.37909408873844036 l 7.6631748087583045 -7.965884740250051" fill="#ff810b" stroke="none" /><path d="M 85.44109423537348 115.13401014063109 l -5.679681075818542 5.904039244888495 a29.19246339803815,29.19246339803815 0 0,0 -0.35913687186433524,-0.3514910174109809 l 5.780467900058672 -5.805398124554945" fill="#ff5908" stroke="none" /><path d="M 84.9287848128048 114.62390073753433 l -7.539478513094279 7.315706399172101 a31.505393679834086,31.505393679834086 0 0,0 -0.37430425330216205,-0.39245651313863217 l 7.664289317775398 -7.1848427694509684" fill="#ff790b" stroke="none" /><path d="M 84.67929136418377 114.36230785411682 l -4.511717039979442 4.229482501048634 a27.184182474306322,27.184182474306322 0 0,0 -0.31708872108480407,-0.3441371809545537 l 4.583852169059975 -4.151194065292736" fill="#ff3d05" stroke="none" /><path d="M 84.19399662182784 113.82643327865904 l -15.357722293847358 13.434295661438135 a41.40440966982068,41.40440966982068 0 0,0 -0.4646313940711106,-0.54047128029503 l 15.586696197489246 -13.167947281981574" fill="#fffa17" stroke="none" /><path d="M 82.44556493220864 111.52570212397912 l -8.603718939035309 5.648937221095947 a31.292447294487257,31.292447294487257 0 0,0 -0.2917575711090824,-0.4528142294471996 l 8.699681373521436 -5.5000013917273" fill="#ff760a" stroke="none" /><path d="M 82.05923443525364 110.91462005526583 l -6.982061506961813 4.247675400247744 a29.17263294127833,29.17263294127833 0 0,0 -0.2573014060457374,-0.43125195648188114 l 7.054143788705781 -4.126861349879752" fill="#ff5908" stroke="none" /><line stroke="#e1ed5e" stroke-width="0.3" x1="26.63291911575756" x2="22.317208475507996" y1="142.92168965132927" y2="145.44649492493687" /><path d="M 25.769776987707644 143.4266507060508 a86.0,86.0 0 0,1 -11.730757126820373,-40.83630448921669" fill="none" id="id33" stroke="none" /><text fill="#e1ed5e" style="font-size:6.75px; font-family:Arial;" text-anchor="middle"><textPath startOffset="21.46611528233685" xlink:href="#id33">September</textPath></text><path d="M 81.87401531095188 110.60418214915194 l -5.610037297681656 3.2820207226643343 a27.499552177294788,27.499552177294788 0 0,0 -0.2355114078947627,-0.4106339909801729 l 5.665700701728796 -3.1849668858258546" fill="#ff4106" stroke="none" /><path d="M 81.35079622478065 109.6543875284942 l -19.292766294142023 9.987549310164965 a42.724685786067404,42.724685786067404 0 0,0 -0.33248214210109134,-0.6560188089544569 l 19.46182710602938 -9.653976289507824" fill="#f3ff19" stroke="none" /><path d="M 81.02952815118164 109.00673069616217 l -11.21954962540018 5.326776414077482 a33.419856712635195,33.419856712635195 0 0,0 -0.2422547853923325,-0.5217952557376222 l 11.30957902763234 -5.1328610910610335" fill="#ff930d" stroke="none" /><path d="M 80.73074385275274 108.34839909993369 l -9.45316452526561 4.095580525329544 a31.30223759098958,31.30223759098958 0 0,0 -0.2099471167226752,-0.49625296655670476 l 9.522262623180591 -3.9322530331066807" fill="#ff760a" stroke="none" /><path d="M 80.20201598880116 107.00284435728193 l -6.08187812501621 2.151251657004807 a27.45113363830859,27.45113363830859 0 0,0 -0.1537383341365649,-0.446835562319881 l 6.1180072900960045 -2.0462433915956293" fill="#ff4006" stroke="none" /><path d="M 79.35854240842038 103.8639653848113 l -10.298814845988971 1.9278805235980787 a31.477705404583183,31.477705404583183 0 0,0 -0.09511297118665477,-0.5334440534969017 l 10.330474259514816 -1.7503177193679633" fill="#ff790b" stroke="none" /><path d="M 79.29508885075956 103.50808413554451 l -7.7373802969613825 1.3109634170751152 a28.84765435915188,28.84765435915188 0 0,0 -0.07873794945992614,-0.49030128644821 l 7.7588000007826 -1.1775829009336913" fill="#ff5407" stroke="none" /><path d="M 79.23777060512086 103.15116336523772 l -7.204836090702231 1.0935056688644007 a28.28734641290806,28.28734641290806 0 0,0 -0.06892137730660214,-0.48203595235800584 l 7.222591519025432 -0.9693242445259943" fill="#ff4c07" stroke="none" /><path d="M 79.1416061653843 102.43462659150553 l -24.554406472465505 2.8660313641834874 a45.72110460710725,45.72110460710725 0 0,0 -0.08451371684178842,-0.7824920553945229 l 24.600102490808347 -2.4429429869041823" fill="#cfff1d" stroke="none" /><path d="M 79.10278846688536 102.07522291339032 l -10.214243877469201 1.014337865312383 a31.26448533991956,31.26448533991956 0 0,0 -0.048572212209730244,-0.5359903142772167 l 10.230190685956007 -0.8383661624866" fill="#ff760a" stroke="none" /><path d="M 79.07016306316243 101.71520430193888 l -10.280061277396142 0.842453067379194 a31.3145231124738,31.3145231124738 0 0,0 -0.03940178401984602,-0.5376060380876131 l 10.293039620080323 -0.6653738927948202" fill="#ff760a" stroke="none" /><path d="M 79.04373962182676 101.35467743843564 l -10.461253799853896 0.6762477772595102 a31.483088386597053,31.483088386597053 0 0,0 -0.030304195315404795,-0.5411017645635329 l 10.471344346056833 -0.4960742963605397" fill="#ff790b" stroke="none" /><path d="M 79.0235259727143 100.99374915477108 l -10.265696405374444 0.48633183597526675 a31.277209803346473,31.277209803346473 0 0,0 -0.020848296552969613,-0.5380018967088391 l 10.272546834778614 -0.30955269225243087" fill="#ff760a" stroke="none" /><line stroke="#e1ed5e" stroke-width="0.3" x1="15.007084014347285" x2="10.007500721073583" y1="101.09737516637583" y2="101.16192664675087" /><path d="M 14.007167355692545 101.11028546245083 a86.0,86.0 0 0,1 10.666146001902534,-42.60595125391555" fill="none" id="id34" stroke="none" /><text fill="#e1ed5e" style="font-size:6.75px; font-family:Arial;" text-anchor="middle"><textPath startOffset="22.20632615414155" xlink:href="#id34">October</textPath></text><path d="M 79.00175016825051 100.2711162175752 l -20.430859589233474 0.26379043101334376 a41.43256246647658,41.43256246647658 0 0,0 -0.0030693690348539684,-0.7132132678745445 l 20.43237325555783 0.08793231506487607" fill="#fffb17" stroke="none" /><path d="M 79.00486145842228 99.54816195383935 l -20.426682576792196 -0.439604260136879 a41.43141240831275,41.43141240831275 0 0,0 0.021481803687423223,-0.712876482736662 l 20.416089078649126 0.7911508902985355" fill="#fffb17" stroke="none" /><path d="M 79.03285615573316 98.82574320788736 l -22.982510169004016 -1.2871266046629513 a44.018524465412725,44.018524465412725 0 0,0 0.04888028454243829,-0.756156366945461 l 22.956949293457164 1.682542035861424" fill="#e4ff1b" stroke="none" /><path d="M 79.08570108090925 98.10471618934814 l -20.311929011696137 -1.8406961843620357 a41.395161745357846,41.395161745357846 0 0,0 0.07041686478063018,-0.7090882185834819 l 20.277235021233277 2.1900599336499478" fill="#fffa17" stroke="none" /><path d="M 79.16333360222342 97.38593545837743 l -10.204113910597457 -1.2801573842549345 a31.284101498376558,31.284101498376558 0 0,0 0.0716316555201314,-0.5337390358026584 l 10.18056625601949 1.4556147621222522" fill="#ff760a" stroke="none" /><path d="M 79.21141760316559 97.0276538004421 l -10.977726704904923 -1.5695925594271463 a32.08936898160539,32.08936898160539 0 0,0 0.08288853097636918,-0.5461318550858779 l 10.94908228048925 1.7583235269051163" fill="#ff810b" stroke="none" /><path d="M 79.32604984820605 96.31383870115002 l -30.07285437267228 -5.361984096922908 a51.5471347850434,51.5471347850434 0 0,0 0.16326763594037869,-0.8721822396722626 l 29.97610101282204 5.878844414057744" fill="#8dff24" stroke="none" /><path d="M 79.3925641242962 95.95851677861259 l -10.095028757174909 -1.9798139655816058 a31.287335366677823,31.287335366677823 0 0,0 0.10819563444151595,-0.5276003384343027 l 10.059453826818398 2.153289960179311" fill="#ff760a" stroke="none" /><path d="M 79.46518482838121 95.60439243477599 l -10.000980165856589 -2.1407733017949053 a31.227537074366182,31.227537074366182 0 0,0 0.11703725942164706,-0.5246550852868757 l 9.962648519432905 2.31260655663174" fill="#ff750a" stroke="none" /><path d="M 79.62865764111835 94.90015583598534 l -29.711177097838565 -7.4380161335983805 a51.62806112934341,51.62806112934341 0 0,0 0.2232389204270659,-0.8602306252923343 l 29.57874184554119 7.948343184439579" fill="#8cff24" stroke="none" /><path d="M 79.81627453868168 94.20196356495316 l -9.936747760930691 -2.854459434367635 a31.3386118375153,31.3386118375153 0 0,0 0.15340116617151553,-0.5171924725257069 l 9.88614069764747 3.025081293639881" fill="#ff770a" stroke="none" /><path d="M 80.02781315780177 93.51064311812611 l -19.92455318372703 -6.47387976803297 a41.94991500751527,41.94991500751527 0 0,0 0.22905194194313525,-0.6848361521285129 l 19.810163948012125 6.8158890230838045" fill="#fdff18" stroke="none" /><path d="M 80.2630227832202 92.82701384747504 l -19.135934004293937 -6.954549732759273 a41.360494399746656,41.360494399746656 0 0,0 0.24894174806819552,-0.6670401187724614 l 19.01338766772411 7.282912988561076" fill="#fffa17" stroke="none" /><path d="M 80.52162464483688 92.15188598940014 l -43.28359065920195 -17.439573274857807 a67.66484690173631,67.66484690173631 0 0,0 0.4445848301240538,-1.0765974302977892 l 42.9769841421917 18.182045275608907" fill="#38ff84" stroke="none" /><path d="M 81.10775173730289 90.83032412892265 l -9.513617313400836 -4.617596906007475 a31.575023194878106,31.575023194878106 0 0,0 0.24153387223909095,-0.486917547837341 l 9.432723428208332 4.780674042343778" fill="#ff7a0b" stroke="none" /><path d="M 81.43458229118936 90.18545643968196 l -9.024497867367742 -4.7707694390977515 a31.207928428391043,31.207928428391043 0 0,0 0.25514993101544514,-0.4727540716128728 l 8.941039837133825 4.925404494043097" fill="#ff750a" stroke="none" /><path d="M 81.6062741919709 89.86733742301443 l -20.08482046226576 -11.064246079749555 a43.93071203244031,43.93071203244031 0 0,0 0.3705709499585464,-0.6592043705584912 l 19.891391871014786 11.408333960242832" fill="#e5ff1a" stroke="none" /><line stroke="#e1ed5e" stroke-width="0.3" x1="26.266209847984243" x2="21.928928074336255" y1="57.711370442889674" y2="55.22380399835377" /><path d="M 25.398753493254645 57.213857153982495 a86.0,86.0 0 0,1 29.58750427330803,-30.492523968695096" fill="none" id="id35" stroke="none" /><text fill="#e1ed5e" style="font-size:6.75px; font-family:Arial;" text-anchor="middle"><textPath startOffset="21.46611528233685" xlink:href="#id35">November</textPath></text><path d="M 81.78341655067845 89.55222093294921 l -10.608286942774605 -6.084183599319035 a33.22918811411718,33.22918811411718 0 0,0 0.2888412769256075,-0.49372337154142454 l 10.501985991378671 6.265886383214351" fill="#ff910d" stroke="none" /><path d="M 81.96595687620814 89.24020034530311 l -28.339767305391145 -16.908588738176583 a54.00064823667118,54.00064823667118 0 0,0 0.4831366040939891,-0.7941495449139347 l 28.04451490301094 17.393906056297592" fill="#72ff27" stroke="none" /><path d="M 82.15384107792192 88.93136811851018 l -15.15715270361207 -9.400843306413549 a38.83578237567265,38.83578237567265 0 0,0 0.3572381634846364,-0.565064983702171 l 14.99308694388147 9.660355937829936" fill="#ffda14" stroke="none" /><path d="M 82.34701348167596 88.62581576622439 l -1.712396795677034 -1.1033326635773537 a23.03706793022758,23.03706793022758 0 0,0 0.2176491328021573,-0.33149456130638905 l 1.6931510275169566 1.1326452888614098" fill="#ff0000" stroke="none" /><path d="M 82.54541684631803 88.32363383020206 l -20.69535913475267 -13.844306056765989 a45.899050180876344,45.899050180876344 0 0,0 0.4449487459937715,-0.6529073809543696 l 20.453985923090162 14.198491460990773" fill="#cdff1d" stroke="none" /><path d="M 82.7489923806493 88.02491185347247 l -2.9947822022022734 -2.0788803554173976 a24.64560886146167,24.64560886146167 0 0,0 0.2449155974588933,-0.34641574376626594 l 2.9585539849395017 2.13012259951545" fill="#ff1802" stroke="none" /><path d="M 82.95767976084542 87.72973835380427 l -8.335700187508497 -6.001601945607258 a31.27147134200091,31.27147134200091 0 0,0 0.31828012321400273,-0.4341337303735068 l 8.23115745178086 6.144198119652265" fill="#ff760a" stroke="none" /><path d="M 83.39014120810768 87.1503855733568 l -8.124963105905415 -6.285582824614228 a31.272466934354647,31.272466934354647 0 0,0 0.33304569617278024,-0.42293421281945415 l 8.015563329138665 6.42450943138673" fill="#ff760a" stroke="none" /><path d="M 83.84228863543731 86.58626213691792 l -7.8824098113563394 -6.543784361120245 a31.24468145912837,31.24468145912837 0 0,0 0.34709774139953725,-0.4108542455536855 l 7.7686014564696775 6.678497556303046" fill="#ff760a" stroke="none" /><path d="M 84.31358615837235 86.03803664274999 l -15.256446135381799 -13.579263179885412 a41.424385846100684,41.424385846100684 0 0,0 0.47866145995862036,-0.5285499393587206 l 15.020441034807133 13.839865906513689" fill="#fffb17" stroke="none" /><path d="M 84.5562425177563 85.77008943001954 l -7.525634500994883 -6.934135430101212 a31.23315243732592,31.23315243732592 0 0,0 0.3677074247802414,-0.3922446430967959 l 7.4051597542441865 7.0626494900760575" fill="#ff750a" stroke="none" /><path d="M 86.65592168130627 83.78471172551755 l -4.0506780771285715 -4.922251740365672 a27.374680782601033,27.374680782601033 0 0,0 0.366425225398611,-0.29629038243932815 l 3.9653494531654605 4.991248220069134" fill="#ff3f05" stroke="none" /><path d="M 87.51073957382395 83.11751280151077 l -6.739744437300336 -9.110519382343458 a32.332507158443654,32.332507158443654 0 0,0 0.45027586440532036,-0.3271445648248415 l 6.581923256541234 9.225183181984967" fill="#ff840c" stroke="none" /><path d="M 87.80319425747018 82.90503203632743 l -18.412805421103826 -25.807274907849653 a52.70247374645639,52.70247374645639 0 0,0 0.7430267306302575,-0.5205377085166877 l 17.965847550889908 26.12039745913028" fill="#80ff25" stroke="none" /><path d="M 88.09926311788651 82.69761687909137 l -23.77289592240779 -34.56321715348581 a62.94957163710553,62.94957163710553 0 0,0 0.8980664834093364,-0.6063784984803926 l 23.174424744591914 34.967307564264864" fill="#32ff4d" stroke="none" /><path d="M 88.39885842347998 82.49532879139004 l -24.585768929662787 -37.096849364862386 a65.50433986323202,65.50433986323202 0 0,0 0.9452369015615276,-0.6148083742505946 l 23.943565002316973 37.514556663272515" fill="#36ff6b" stroke="none" /><path d="M 89.00827224532344 82.1063720568725 l -11.128972793276253 -18.117051567925543 a42.26221044360996,42.26221044360996 0 0,0 0.6231420723254417,-0.37543612619184713 l 10.815468654733161 18.30593430357601" fill="#f9ff18" stroke="none" /><line stroke="#e1ed5e" stroke-width="0.3" x1="56.762969772571076" x2="54.21961505331055" y1="26.818313649435495" y2="22.513508569990535" /><path d="M 56.25429882871897 25.957352633546506 a86.0,86.0 0 0,1 42.265352541879196,-11.944610805530505" fill="none" id="id36" stroke="none" /><text fill="#e1ed5e" style="font-size:6.75px; font-family:Arial;" text-anchor="middle"><textPath startOffset="22.20632615414155" xlink:href="#id36">December</textPath></text><path d="M 89.3179101791058 81.91981866633112 l -11.264374545828284 -19.065738803335645 a43.14471788092417,43.14471788092417 0 0,0 0.6426575585721432,-0.37226873860013104 l 10.93452025479082 19.256811699325823" fill="#eeff19" stroke="none" /><path d="M 89.63071344664047 81.73862282372117 l -11.629404611925239 -20.480574325059838 a44.552005781083025,44.552005781083025 0 0,0 0.6701383528460519,-0.37293126781543035 l 11.275142170007141 20.677720990435454" fill="#ddff1b" stroke="none" /><path d="M 89.94658935756843 81.56283822128135 l -13.777656827034482 -25.267135391802054 a49.779366889339066,49.779366889339066 0 0,0 0.7558284625405061,-0.4037373886918513 l 13.34068331796567 25.500551506995652" fill="#a1ff22" stroke="none" /><path d="M 90.26544431104013 81.39251694778311 l -19.35059220176604 -36.98841816202036 a62.744322927645214,62.744322927645214 0 0,0 0.9613013269197012,-0.4924158767943756 l 18.711030387257576 37.316026564127235" fill="#32ff4a" stroke="none" /><path d="M 90.58718382345135 81.22770947309562 l -28.23844852964592 -56.31687158071317 a84.0,84.0 0 0,0 1.298114931958296,-0.6369793594606814 l 27.264862330677197 56.79460610030868" fill="#4dd2ff" stroke="none" /><path d="M 91.23893434514133 80.91482961587045 l -9.07424378438912 -19.76739994365315 a42.7506781685276,42.7506781685276 0 0,0 0.6714256241739281,-0.3012491059796646 l 8.732636041748417 19.920669380149345" fill="#f3ff19" stroke="none" /><path d="M 91.56875222667455 80.76684994638697 l -8.324324051659993 -18.98923835295245 a41.73368139386456,41.73368139386456 0 0,0 0.6604181035421715,-0.28275656612236844 l 7.996222190327512 19.129714447037607" fill="#fffe18" stroke="none" /><path d="M 91.90106846888425 80.62456947434976 l -8.700466469385304 -20.814509046121103 a43.55974077014085,43.55974077014085 0 0,0 0.6942927558245144,-0.28321944775372115 l 8.340889843972409 20.961189380058403" fill="#e9ff1a" stroke="none" /><path d="M 92.23578459929587 80.48803036053334 l -9.59492529037804 -24.11266062271128 a46.951550890726885,46.951550890726885 0 0,0 0.7534982418833048,-0.29234561155317224 l 9.17844388349506 24.274248938155008" fill="#c1ff1e" stroke="none" /><path d="M 92.91201910852362 80.23233633223022 l -13.822726059494242 -38.55018853738531 a61.95344664352165,61.95344664352165 0 0,0 1.0069441071304284,-0.35130302711198 l 13.157099948300528 38.7824124176695" fill="#31ff41" stroke="none" /><path d="M 93.25333710446033 80.11325718540243 l -7.086114202725614 -20.887323538520924 a43.05659309814006,43.05659309814006 0 0,0 0.7039080012528763,-0.23206740089828803 l 6.725523379230328 21.006204663678446" fill="#efff19" stroke="none" /><path d="M 93.59665428221793 80.00007090966166 l -6.6902123649908445 -20.895915790951108 a42.9407893711962,42.9407893711962 0 0,0 0.7058946951564095,-0.21932491790439992 l 6.329532297123706 21.007980843738032" fill="#f1ff19" stroke="none" /><path d="M 93.94186890950719 79.89281104454417 l -6.023432097469792 -19.99202155500575 a41.87971886996192,41.87971886996192 0 0,0 0.6920320060414196,-0.20202311933058306 l 5.678409873704951 20.09274300325503" fill="#feff18" stroke="none" /><path d="M 94.28887869178378 79.79150937346287 l -0.6512623606559326 -2.3044562705747316 a23.394715299445497,23.394715299445497 0 0,0 0.3884660288536532,-0.10618244007495846 l 0.6114984425785569 2.315325251475986" fill="#ff0500" stroke="none" /><path d="M 94.63758080256005 79.69619591428918 l -5.22691260845437 -19.790733560303252 a41.46933683027696,41.46933683027696 0 0,0 0.6917304801797047,-0.17633750141942592 l 4.8854732395896665 19.877774057891543" fill="#fffb17" stroke="none" /><path d="M 94.98787191387505 79.60689891045804 l -5.971975527310178 -24.298481311730598 a46.021604380121445,46.021604380121445 0 0,0 0.7709195385194294,-0.1824517473562242 l 5.552832301828215 24.39767897122769" fill="#ccff1d" stroke="none" /><path d="M 96.04723909329186 79.375362276772 l -2.038097230700347 -10.634343442471373 a31.82788533252095,31.82788533252095 0 0,0 0.5389595861534339,-0.09849141942656368 l 1.8547425234440198 10.667850343248674" fill="#ff7e0b" stroke="none" /><path d="M 96.40284397218896 79.31037775812273 l -1.7517349641125441 -10.075385775643337 a31.22653283926329,31.22653283926329 0 0,0 0.5303615360623902,-0.08751419776329068 l 1.5780442219112683 10.104046236346255" fill="#ff750a" stroke="none" /><path d="M 96.75951476605007 79.25152402106235 l -0.37324835419740904 -2.389868785732179 a23.418840041616658,23.418840041616658 0 0,0 0.3988239829172262,-0.05877628784500768 l 0.332055390851534 2.395939557738156" fill="#ff0600" stroke="none" /><path d="M 98.19473922651362 79.07773832637324 l -1.0640222629501745 -12.3315991456544 a33.37741818252732,33.37741818252732 0 0,0 0.5728356650828027,-0.04446307249915508 l 0.8515964085050376 12.348087480342016" fill="#ff930d" stroke="none" /><path d="M 98.55514903715128 79.0497635885617 l -0.7066966423277892 -10.247051155190366 a31.27139121644997,31.27139121644997 0 0,0 0.5373287969751627,-0.03241314041483422 l 0.5302057965130034 10.257697564985508" fill="#ff760a" stroke="none" /><path d="M 99.27714615592234 79.0124445844662 l -0.35275685589966166 -10.242048405857552 a31.248121435039373,31.248121435039373 0 0,0 0.5377256565152002,-0.013887867262571884 l 0.17640456418958247 10.246603065262484" fill="#ff760a" stroke="none" /></svg>