<?xml version="1.0" encoding="utf-8" ?>
<svg baseProfile="full" height="200mm" version="1.1" viewBox="0,0,200,200" width="200mm" xmlns="http://www.w3.org/2000/svg" xmlns:ev="http://www.w3.org/2001/xml-events" xmlns:xlink="http://www.w3.org/1999/xlink"><defs /><rect fill="#1a1a1a" height="200" width="200" x="0" y="0" /><text alignment-baseline="middle" fill="#e1ed5e" style="dominant-baseline: central; font-size:9.0px; font-family:Arial;" text-anchor="middle" x="100.0" y="100.0">2024</text><line stroke="#e1ed5e" stroke-width="0.3" x1="100.0" x2="100.0" y1="15.0" y2="10.0" /><path d="M 100.0 14.0 a86.0,86.0 0 0,1 42.35913384403234,11.155469271406648" fill="none" id="id25" stroke="none" /><text fill="#e1ed5e" style="font-size:6.75px; font-family:Arial;" text-anchor="middle"><textPath startOffset="22.145653131862478" xlink:href="#id25">January</textPath></text><path d="M 101.08105385017728 79.02784411241856 l 0.6254416247759793 -12.133400432580748 a33.1495095902408,33.1495095902408 0 0,0 0.5680494404803454,0.034172443748101265 l -0.8336354173887871 12.120876011007955" fill="#ff880c" stroke="none" /><path d="M 102.15924093988457 79.11130261209362 l 2.561259103014908 -24.77785843471413 a45.90988391790518,45.90988391790518 0 0,0 0.7832315794981135,0.0877627321475025 l -2.986226584113818 24.730239942059658" fill="#d2ff1c" stroke="none" /><path d="M 102.51750503828377 79.15144685158666 l 0.7130552594613495 -5.905120446062798 a26.948016079799583,26.948016079799583 0 0,0 0.4587863525986627,0.05939907856666462 l -0.8143194339508039 5.892009771295737" fill="#ff3104" stroke="none" /><path d="M 104.64783097203109 79.52079915486377 l 1.5729839211643413 -6.930857391661413 a28.107113520958364,28.107113520958364 0 0,0 0.46961344693748663,0.11082749478612447 l -1.691729521841713 6.902833753229062" fill="#ff4106" stroke="none" /><path d="M 105.3480935250658 79.69241777938227 l 3.0347731535086466 -11.523527972529594 a32.916440115526484,32.916440115526484 0 0,0 0.5451880993904524,0.14859344083265955 l -3.232142653833792 11.469734037552794" fill="#ff850c" stroke="none" /><path d="M 106.04205211174951 79.88797359093562 l 3.4204279212751914 -11.385492116033548 a32.88817723155661,32.88817723155661 0 0,0 0.5393024713078332,0.1670772841848672 l -3.615371025454655 11.325098244042033" fill="#ff850c" stroke="none" /><path d="M 108.07796709384702 80.6158196554323 l 4.547467500878142 -10.912266554691138 a32.821887414121896,32.821887414121896 0 0,0 0.5182184111060922,0.22119662452967997 l -4.734120987154664 10.832595280502057" fill="#ff840c" stroke="none" /><path d="M 108.4095320186766 80.7573450057729 l 4.196233016900805 -9.601802340520011 a31.4786916988021,31.4786916988021 0 0,0 0.4932959777959743,0.22064501639661088 l -4.3604423975524105 9.528353573213549" fill="#ff710a" stroke="none" /><path d="M 108.73861861582097 80.90454125486305 l 4.59175789924611 -10.033819690215811 a32.034571952778755,32.034571952778755 0 0,0 0.49807853756560017,0.2331259050404067 l -4.763325150683215 9.95351755360487" fill="#ff790b" stroke="none" /><path d="M 109.3889696526874 81.21577127319529 l 2.1819512897501725 -4.365364210723839 a25.88029877395954,25.88029877395954 0 0,0 0.3956885442970405,0.2020413901105701 l -2.2565670557607915 4.327264868940435" fill="#ff2103" stroke="none" /><line stroke="#e1ed5e" stroke-width="0.3" x1="143.13028292997686" x2="145.6673583964461" y1="26.7553504044142" y2="22.446841604673864" /><path d="M 143.63769802327073 25.89364864446614 a86.0,86.0 0 0,1 29.32050498858742,28.57503671076993" fill="none" id="id26" stroke="none" /><text fill="#e1ed5e" style="font-size:6.75px; font-family:Arial;" text-anchor="middle"><textPath startOffset="20.669276256404974" xlink:href="#id26">February</textPath></text><path d="M 113.59037401385872 83.9905735841838 l 18.270163310983836 -21.522206440666768 a49.23126347659095,49.23126347659095 0 0,0 0.6395856625531067,0.552458862115904 l -18.636928453299802 21.205403446086144" fill="#abff21" stroke="none" /><path d="M 114.13192950727249 84.46653392183569 l 7.613064998931493 -8.368092046518164 a32.312989135368085,32.312989135368085 0 0,0 0.40709785357493816,0.37680369565090566 l -7.755592623820395 8.236170604734884" fill="#ff7d0b" stroke="none" /><path d="M 114.39649973595853 84.71141617570332 l 22.331468441781656 -23.715245612032316 a53.57464285614361,53.57464285614361 0 0,0 0.6641406473996945,0.6362317167396678 l -22.735281575046663 23.328401764987067" fill="#7aff26" stroke="none" /><path d="M 115.16444852881244 85.47280134310134 l 22.992906089162258 -22.026683912839463 a52.84098827959295,52.84098827959295 0 0,0 0.6218734282339076,0.6604080304262869 l -23.367635351132428 21.62873442246868" fill="#82ff25" stroke="none" /><path d="M 115.6541949942343 86.00192230759917 l 9.062113289590762 -8.103397583315608 a33.156765592321946,33.156765592321946 0 0,0 0.3757592078995774,0.42754500142331403 l -9.19988356144893 7.946640304080996" fill="#ff880c" stroke="none" /><line stroke="#e1ed5e" stroke-width="0.3" x1="172.87174338648825" x2="177.1583165268699" y1="56.24261187166439" y2="53.66864786411523" /><path d="M 173.72905801456457 55.72781907015455 a86.0,86.0 0 0,1 12.242430191666344,42.057860355516425" fill="none" id="id27" stroke="none" /><text fill="#e1ed5e" style="font-size:6.75px; font-family:Arial;" text-anchor="middle"><textPath startOffset="22.145653131862474" xlink:href="#id27">March</textPath></text><path d="M 119.71291397450082 92.76114493625339 l 2.506519513351073 -0.9204286842153968 a23.670173970649888,23.670173970649888 0 0,0 0.13679087086230243,0.38262841140085485 l -2.521950554257319 0.8772653164336252" fill="#ff0000" stroke="none" /><line stroke="#e1ed5e" stroke-width="0.3" x1="184.99686870605535" x2="189.99668451229388" y1="99.2704041080226" y2="99.22748670261217" /><path d="M 185.99683186730306 99.26182062694052 a86.0,86.0 0 0,1 -10.086455211305974,41.156179273409016" fill="none" id="id28" stroke="none" /><text fill="#e1ed5e" style="font-size:6.75px; font-family:Arial;" text-anchor="middle"><textPath startOffset="21.40746469413373" xlink:href="#id28">April</textPath></text><line stroke="#e1ed5e" stroke-width="0.3" x1="174.33088141563837" x2="178.70328620479359" y1="141.23008692659167" y2="143.65538615756765" /><path d="M 175.20536237346943 141.71514677278685 a86.0,86.0 0 0,1 -30.301960400862466,31.631185727798858" fill="none" id="id29" stroke="none" /><text fill="#e1ed5e" style="font-size:6.75px; font-family:Arial;" text-anchor="middle"><textPath startOffset="22.145653131862474" xlink:href="#id29">May</textPath></text><path d="M 118.18653347947321 110.5 l 54.559600438419636 31.499999999999986 a84.0,84.0 0 0,0 -0.7317051594809385,1.242595326825802 l -54.010821568808936 -32.43194649511934" fill="#4dd2ff" stroke="none" /><line stroke="#e1ed5e" stroke-width="0.3" x1="143.1302829299769" x2="145.66735839644613" y1="173.24464959558577" y2="177.55315839532614" /><path d="M 143.63769802327073 174.10635135553383 a86.0,86.0 0 0,1 -40.68552437913181,11.842963189579606" fill="none" id="id30" stroke="none" /><text fill="#e1ed5e" style="font-size:6.75px; font-family:Arial;" text-anchor="middle"><textPath startOffset="21.407464694133747" xlink:href="#id30">June</textPath></text><line stroke="#e1ed5e" stroke-width="0.3" x1="101.45913802915013" x2="101.54496967792366" y1="184.9874750549273" y2="189.98673829345242" /><path d="M 101.47630435890484 185.9873277026323 a86.0,86.0 0 0,1 -42.54439059252881,-10.42667462771756" fill="none" id="id31" stroke="none" /><text fill="#e1ed5e" style="font-size:6.75px; font-family:Arial;" text-anchor="middle"><textPath startOffset="22.145653131862474" xlink:href="#id31">July</textPath></text><line stroke="#e1ed5e" stroke-width="0.3" x1="58.13341422392154" x2="55.67067388415222" y1="173.97424548756322" y2="178.32567169271397" /><path d="M 57.64086615596768 174.84453072859336 a86.0,86.0 0 0,1 -31.369924170532247,-30.572349798747897" fill="none" id="id32" stroke="none" /><text fill="#e1ed5e" style="font-size:6.75px; font-family:Arial;" text-anchor="middle"><textPath startOffset="22.145653131862474" xlink:href="#id32">August</textPath></text><line stroke="#e1ed5e" stroke-width="0.3" x1="26.387840678322732" x2="22.057713659400548" y1="142.50000000000003" y2="145.00000000000006" /><path d="M 25.521815274538298 143.00000000000003 a86.0,86.0 0 0,1 -11.493303480769221,-40.785679425670985" fill="none" id="id33" stroke="none" /><text fill="#e1ed5e" style="font-size:6.75px; font-family:Arial;" text-anchor="middle"><textPath startOffset="21.40746469413373" xlink:href="#id33">September</textPath></text><line stroke="#e1ed5e" stroke-width="0.3" x1="15.003131293944662" x2="10.003315487706104" y1="100.72959589197737" y2="100.7725132973878" /><path d="M 14.003168132696942 100.73817937305945 a86.0,86.0 0 0,1 10.791469493833604,-42.45332614584628" fill="none" id="id34" stroke="none" /><text fill="#e1ed5e" style="font-size:6.75px; font-family:Arial;" text-anchor="middle"><textPath startOffset="22.145653131862435" xlink:href="#id34">October</textPath></text><line stroke="#e1ed5e" stroke-width="0.3" x1="26.387840678322718" x2="22.05771365940052" y1="57.49999999999999" y2="54.99999999999999" /><path d="M 25.521815274538284 56.99999999999999 a86.0,86.0 0 0,1 29.574782752854787,-30.34633250058573" fill="none" id="id35" stroke="none" /><text fill="#e1ed5e" style="font-size:6.75px; font-family:Arial;" text-anchor="middle"><textPath startOffset="21.40746469413373" xlink:href="#id35">November</textPath></text><line stroke="#e1ed5e" stroke-width="0.3" x1="56.869717070023135" x2="54.33264160355391" y1="26.7553504044142" y2="22.446841604673864" /><path d="M 56.362301976729285 25.89364864446614 a86.0,86.0 0 0,1 42.16139366436587,-11.88097634709845" fill="none" id="id36" stroke="none" /><text fill="#e1ed5e" style="font-size:6.75px; font-family:Arial;" text-anchor="middle"><textPath startOffset="22.145653131862474" xlink:href="#id36">December</textPath></text></svg>